solid 12PegCase
facet normal 0.382683432365073 -0.923879532511294 0.0
   outer loop
      vertex 741.307068930313 736.601524678213 12.9252437165034
      vertex 740.67999844758 736.341783579701 6.92524371650341
      vertex 741.307068930313 736.601524678213 6.92524371650341
   endloop
endfacet
facet normal 0.382683432365073 -0.923879532511294 0.0
   outer loop
      vertex 740.67999844758 736.341783579701 6.92524371650341
      vertex 741.307068930313 736.601524678213 12.9252437165034
      vertex 740.67999844758 736.341783579701 12.9252437165034
   endloop
endfacet
facet normal -0.793353340291146 0.608761429008837 0.0
   outer loop
      vertex 744.231664497419 732.790117529861 12.9252437165034
      vertex 743.818476078665 732.251639898776 6.92524371650341
      vertex 743.818476078665 732.251639898776 12.9252437165034
   endloop
endfacet
facet normal -0.793353340291146 0.608761429008837 0.0
   outer loop
      vertex 743.818476078665 732.251639898776 6.92524371650341
      vertex 744.231664497419 732.790117529861 12.9252437165034
      vertex 744.231664497419 732.790117529861 6.92524371650341
   endloop
endfacet
facet normal -0.0 -1.0 -0.0
   outer loop
      vertex 746.97999844758 729.090117529861 12.9252437165034
      vertex 736.97999844758 729.090117529861 6.92524371650341
      vertex 746.97999844758 729.090117529861 6.92524371650341
   endloop
endfacet
facet normal -0.0 -1.0 -0.0
   outer loop
      vertex 736.97999844758 729.090117529861 6.92524371650341
      vertex 746.97999844758 729.090117529861 12.9252437165034
      vertex 736.97999844758 729.090117529861 12.9252437165034
   endloop
endfacet
facet normal -0.923879532511294 -0.382683432365073 -0.0
   outer loop
      vertex 744.231664497419 735.390117529861 12.9252437165034
      vertex 744.491405595931 734.763047047128 6.92524371650341
      vertex 744.491405595931 734.763047047128 12.9252437165034
   endloop
endfacet
facet normal -0.923879532511294 -0.382683432365073 -0.0
   outer loop
      vertex 744.491405595931 734.763047047128 6.92524371650341
      vertex 744.231664497419 735.390117529861 12.9252437165034
      vertex 744.231664497419 735.390117529861 6.92524371650341
   endloop
endfacet
facet normal 0.382683432365026 0.923879532511313 0.0
   outer loop
      vertex 740.679998447579 731.838451480021 12.9252437165034
      vertex 741.307068930313 731.57871038151 6.92524371650341
      vertex 740.679998447579 731.838451480021 6.92524371650341
   endloop
endfacet
facet normal 0.382683432365026 0.923879532511313 0.0
   outer loop
      vertex 741.307068930313 731.57871038151 6.92524371650341
      vertex 740.679998447579 731.838451480021 12.9252437165034
      vertex 741.307068930313 731.57871038151 12.9252437165034
   endloop
endfacet
facet normal 0.13052619222006 -0.991444861373809 0.0
   outer loop
      vertex 741.97999844758 736.690117529861 12.9252437165034
      vertex 741.307068930313 736.601524678213 6.92524371650341
      vertex 741.97999844758 736.690117529861 6.92524371650341
   endloop
endfacet
facet normal 0.13052619222006 -0.991444861373809 0.0
   outer loop
      vertex 741.307068930313 736.601524678213 6.92524371650341
      vertex 741.97999844758 736.690117529861 12.9252437165034
      vertex 741.307068930313 736.601524678213 12.9252437165034
   endloop
endfacet
facet normal 1.0 -0.0 -0.0
   outer loop
      vertex 746.97999844758 799.090117529861 6.92524371650341
      vertex 746.97999844758 729.090117529861 12.9252437165034
      vertex 746.97999844758 729.090117529861 6.92524371650341
   endloop
endfacet
facet normal 1.0 -0.0 -0.0
   outer loop
      vertex 746.97999844758 729.090117529861 12.9252437165034
      vertex 746.97999844758 799.090117529861 6.92524371650341
      vertex 746.97999844758 799.090117529861 12.9252437165034
   endloop
endfacet
facet normal 1.0 -0.0 -0.0
   outer loop
      vertex 746.97999844758 799.090117529861 12.9252437165034
      vertex 746.97999844758 799.090117529861 6.92524371650341
      vertex 746.97999844758 799.090117529861 10.3370532654782
   endloop
endfacet
facet normal -0.923879532511313 0.382683432365026 0.0
   outer loop
      vertex 744.491405595931 733.417188012595 12.9252437165034
      vertex 744.231664497419 732.790117529861 6.92524371650341
      vertex 744.231664497419 732.790117529861 12.9252437165034
   endloop
endfacet
facet normal -0.923879532511313 0.382683432365026 0.0
   outer loop
      vertex 744.231664497419 732.790117529861 6.92524371650341
      vertex 744.491405595931 733.417188012595 12.9252437165034
      vertex 744.491405595931 733.417188012595 6.92524371650341
   endloop
endfacet
facet normal -0.13052619222006 -0.991444861373809 -0.0
   outer loop
      vertex 742.652927964846 736.601524678213 12.9252437165034
      vertex 741.97999844758 736.690117529861 6.92524371650341
      vertex 742.652927964846 736.601524678213 6.92524371650341
   endloop
endfacet
facet normal -0.13052619222006 -0.991444861373809 -0.0
   outer loop
      vertex 741.97999844758 736.690117529861 6.92524371650341
      vertex 742.652927964846 736.601524678213 12.9252437165034
      vertex 741.97999844758 736.690117529861 12.9252437165034
   endloop
endfacet
facet normal -0.991444861373809 -0.13052619222006 -0.0
   outer loop
      vertex 744.491405595931 734.763047047128 12.9252437165034
      vertex 744.57999844758 734.090117529861 6.92524371650341
      vertex 744.57999844758 734.090117529861 12.9252437165034
   endloop
endfacet
facet normal -0.991444861373809 -0.13052619222006 -0.0
   outer loop
      vertex 744.57999844758 734.090117529861 6.92524371650341
      vertex 744.491405595931 734.763047047128 12.9252437165034
      vertex 744.491405595931 734.763047047128 6.92524371650341
   endloop
endfacet
facet normal -0.382683432365026 -0.923879532511313 -0.0
   outer loop
      vertex 743.27999844758 736.341783579701 12.9252437165034
      vertex 742.652927964846 736.601524678213 6.92524371650341
      vertex 743.27999844758 736.341783579701 6.92524371650341
   endloop
endfacet
facet normal -0.382683432365026 -0.923879532511313 -0.0
   outer loop
      vertex 742.652927964846 736.601524678213 6.92524371650341
      vertex 743.27999844758 736.341783579701 12.9252437165034
      vertex 742.652927964846 736.601524678213 12.9252437165034
   endloop
endfacet
facet normal 0.923879532511313 -0.382683432365026 0.0
   outer loop
      vertex 739.72833239774 735.390117529861 6.92524371650341
      vertex 739.468591299228 734.763047047128 12.9252437165034
      vertex 739.468591299228 734.763047047128 6.92524371650341
   endloop
endfacet
facet normal 0.923879532511313 -0.382683432365026 0.0
   outer loop
      vertex 739.468591299228 734.763047047128 12.9252437165034
      vertex 739.72833239774 735.390117529861 6.92524371650341
      vertex 739.72833239774 735.390117529861 12.9252437165034
   endloop
endfacet
facet normal -0.13052619222006 0.991444861373809 0.0
   outer loop
      vertex 741.97999844758 731.490117529861 12.9252437165034
      vertex 742.652927964846 731.57871038151 6.92524371650341
      vertex 741.97999844758 731.490117529861 6.92524371650341
   endloop
endfacet
facet normal -0.13052619222006 0.991444861373809 0.0
   outer loop
      vertex 742.652927964846 731.57871038151 6.92524371650341
      vertex 741.97999844758 731.490117529861 12.9252437165034
      vertex 742.652927964846 731.57871038151 12.9252437165034
   endloop
endfacet
facet normal 0.608761429008773 -0.793353340291195 0.0
   outer loop
      vertex 740.67999844758 736.341783579701 12.9252437165034
      vertex 740.141520816495 735.928595160946 6.92524371650341
      vertex 740.67999844758 736.341783579701 6.92524371650341
   endloop
endfacet
facet normal 0.608761429008773 -0.793353340291195 0.0
   outer loop
      vertex 740.141520816495 735.928595160946 6.92524371650341
      vertex 740.67999844758 736.341783579701 12.9252437165034
      vertex 740.141520816495 735.928595160946 12.9252437165034
   endloop
endfacet
facet normal 0.793353340291146 -0.608761429008837 0.0
   outer loop
      vertex 740.141520816495 735.928595160946 6.92524371650341
      vertex 739.72833239774 735.390117529861 12.9252437165034
      vertex 739.72833239774 735.390117529861 6.92524371650341
   endloop
endfacet
facet normal 0.793353340291146 -0.608761429008837 0.0
   outer loop
      vertex 739.72833239774 735.390117529861 12.9252437165034
      vertex 740.141520816495 735.928595160946 6.92524371650341
      vertex 740.141520816495 735.928595160946 12.9252437165034
   endloop
endfacet
facet normal 0.991444861373809 -0.13052619222006 0.0
   outer loop
      vertex 739.468591299228 734.763047047128 6.92524371650341
      vertex 739.37999844758 734.090117529861 12.9252437165034
      vertex 739.37999844758 734.090117529861 6.92524371650341
   endloop
endfacet
facet normal 0.991444861373809 -0.13052619222006 0.0
   outer loop
      vertex 739.37999844758 734.090117529861 12.9252437165034
      vertex 739.468591299228 734.763047047128 6.92524371650341
      vertex 739.468591299228 734.763047047128 12.9252437165034
   endloop
endfacet
facet normal -0.608761429008773 0.793353340291195 0.0
   outer loop
      vertex 743.279998447579 731.838451480021 12.9252437165034
      vertex 743.818476078665 732.251639898776 6.92524371650341
      vertex 743.279998447579 731.838451480021 6.92524371650341
   endloop
endfacet
facet normal -0.608761429008773 0.793353340291195 0.0
   outer loop
      vertex 743.818476078665 732.251639898776 6.92524371650341
      vertex 743.279998447579 731.838451480021 12.9252437165034
      vertex 743.818476078665 732.251639898776 12.9252437165034
   endloop
endfacet
facet normal 0.13052619222006 0.991444861373809 0.0
   outer loop
      vertex 741.307068930313 731.57871038151 12.9252437165034
      vertex 741.97999844758 731.490117529861 6.92524371650341
      vertex 741.307068930313 731.57871038151 6.92524371650341
   endloop
endfacet
facet normal 0.13052619222006 0.991444861373809 0.0
   outer loop
      vertex 741.97999844758 731.490117529861 6.92524371650341
      vertex 741.307068930313 731.57871038151 12.9252437165034
      vertex 741.97999844758 731.490117529861 12.9252437165034
   endloop
endfacet
facet normal -0.382683432365073 0.923879532511294 0.0
   outer loop
      vertex 742.652927964846 731.57871038151 12.9252437165034
      vertex 743.279998447579 731.838451480021 6.92524371650341
      vertex 742.652927964846 731.57871038151 6.92524371650341
   endloop
endfacet
facet normal -0.382683432365073 0.923879532511294 0.0
   outer loop
      vertex 743.279998447579 731.838451480021 6.92524371650341
      vertex 742.652927964846 731.57871038151 12.9252437165034
      vertex 743.279998447579 731.838451480021 12.9252437165034
   endloop
endfacet
facet normal -0.793353340291195 -0.608761429008773 -0.0
   outer loop
      vertex 743.818476078665 735.928595160946 12.9252437165034
      vertex 744.231664497419 735.390117529861 6.92524371650341
      vertex 744.231664497419 735.390117529861 12.9252437165034
   endloop
endfacet
facet normal -0.793353340291195 -0.608761429008773 -0.0
   outer loop
      vertex 744.231664497419 735.390117529861 6.92524371650341
      vertex 743.818476078665 735.928595160946 12.9252437165034
      vertex 743.818476078665 735.928595160946 6.92524371650341
   endloop
endfacet
facet normal 0.707106781186548 -0.707106781186547 9.25117414406613e-018
   outer loop
      vertex 744.748616166983 796.858735249264 5.61157210391209
      vertex 746.97999844758 799.090117529861 6.92524371650341
      vertex 744.222847366107 796.332966448389 6.92524371650341
   endloop
endfacet
facet normal 0.707106781186548 -0.707106781186547 9.25117414406613e-018
   outer loop
      vertex 746.97999844758 799.090117529861 6.92524371650341
      vertex 744.748616166983 796.858735249264 5.61157210391209
      vertex 746.042673080528 798.15279216281 3.74994159513874
   endloop
endfacet
facet normal 0.707106781186548 -0.707106781186547 9.25117414406613e-018
   outer loop
      vertex 746.97999844758 799.090117529861 6.92524371650341
      vertex 746.042673080528 798.15279216281 3.74994159513874
      vertex 747.633338103346 799.743457185627 2.42540231200751
   endloop
endfacet
facet normal 0.707106781186548 -0.707106781186547 9.25117414406613e-018
   outer loop
      vertex 746.97999844758 799.090117529861 6.92524371650341
      vertex 747.633338103346 799.743457185627 2.42540231200751
      vertex 746.97999844758 799.090117529861 10.3370532654782
   endloop
endfacet
facet normal 0.707106781186548 -0.707106781186547 9.25117414406613e-018
   outer loop
      vertex 746.97999844758 799.090117529861 10.3370532654782
      vertex 747.633338103346 799.743457185627 2.42540231200751
      vertex 747.333199778562 799.443318860843 9.1311484909908
   endloop
endfacet
facet normal 0.707106781186548 -0.707106781186547 9.25117414406613e-018
   outer loop
      vertex 747.333199778562 799.443318860843 9.1311484909908
      vertex 747.633338103346 799.743457185627 2.42540231200751
      vertex 747.604490836855 799.714609919137 8.6311484909908
   endloop
endfacet
facet normal 0.707106781186548 -0.707106781186547 9.25117414406613e-018
   outer loop
      vertex 747.604490836855 799.714609919137 8.6311484909908
      vertex 747.633338103346 799.743457185627 2.42540231200751
      vertex 747.895061957041 800.005181039322 8.09561458505807
   endloop
endfacet
facet normal 0.707106781186548 -0.707106781186547 9.25117414406613e-018
   outer loop
      vertex 747.895061957041 800.005181039322 8.09561458505807
      vertex 747.633338103346 799.743457185627 2.42540231200751
      vertex 749.412210042828 801.522329125109 1.72821941775912
   endloop
endfacet
facet normal 0.707106781186548 -0.707106781186547 9.25117414406613e-018
   outer loop
      vertex 747.895061957041 800.005181039322 8.09561458505807
      vertex 749.412210042828 801.522329125109 1.72821941775912
      vertex 748.627295004074 800.737414086356 7.30102147206861
   endloop
endfacet
facet normal 0.707106781186548 -0.707106781186547 9.25117414406613e-018
   outer loop
      vertex 748.627295004074 800.737414086356 7.30102147206861
      vertex 749.412210042828 801.522329125109 1.72821941775912
      vertex 749.47999844758 801.590117529861 6.80151935954546
   endloop
endfacet
facet normal 0.707106781186548 -0.707106781186547 9.25117414406613e-018
   outer loop
      vertex 749.47999844758 801.590117529861 6.80151935954546
      vertex 749.412210042828 801.522329125109 1.72821941775912
      vertex 751.258061716024 803.368180798306 1.70590477448739
   endloop
endfacet
facet normal 0.707106781186548 -0.707106781186547 9.25117414406613e-018
   outer loop
      vertex 749.47999844758 801.590117529861 6.80151935954546
      vertex 751.258061716024 803.368180798306 1.70590477448739
      vertex 750.395061957041 802.505181039322 6.6311484909908
   endloop
endfacet
facet normal 0.707106781186548 -0.707106781186547 9.25117414406613e-018
   outer loop
      vertex 750.395061957041 802.505181039322 6.6311484909908
      vertex 751.258061716024 803.368180798306 1.70590477448739
      vertex 751.310125466502 803.420244548783 6.80151935954546
   endloop
endfacet
facet normal 0.707106781186548 -0.707106781186547 9.25117414406613e-018
   outer loop
      vertex 751.310125466502 803.420244548783 6.80151935954546
      vertex 751.258061716024 803.368180798306 1.70590477448739
      vertex 753.04510138182 805.155220464101 2.35997908825461
   endloop
endfacet
facet normal 0.707106781186548 -0.707106781186547 9.25117414406613e-018
   outer loop
      vertex 751.310125466502 803.420244548783 6.80151935954546
      vertex 753.04510138182 805.155220464101 2.35997908825461
      vertex 752.162828910007 804.272947992289 7.30102147206861
   endloop
endfacet
facet normal 0.707106781186548 -0.707106781186547 9.25117414406613e-018
   outer loop
      vertex 752.162828910007 804.272947992289 7.30102147206861
      vertex 753.04510138182 805.155220464101 2.35997908825461
      vertex 752.895061957041 805.005181039322 8.09561458505806
   endloop
endfacet
facet normal 0.707106781186548 -0.707106781186547 9.25117414406613e-018
   outer loop
      vertex 752.895061957041 805.005181039322 8.09561458505806
      vertex 753.04510138182 805.155220464101 2.35997908825461
      vertex 753.185633077226 805.295752159507 8.6311484909908
   endloop
endfacet
facet normal 0.707106781186548 -0.707106781186547 9.25117414406613e-018
   outer loop
      vertex 753.185633077226 805.295752159507 8.6311484909908
      vertex 753.04510138182 805.155220464101 2.35997908825461
      vertex 754.651545240214 806.761664322496 3.64586827548644
   endloop
endfacet
facet normal 0.707106781186548 -0.707106781186547 9.25117414406613e-018
   outer loop
      vertex 753.185633077226 805.295752159507 8.6311484909908
      vertex 754.651545240214 806.761664322496 3.64586827548644
      vertex 753.45692413552 805.567043217801 9.1311484909908
   endloop
endfacet
facet normal 0.707106781186548 -0.707106781186547 9.25117414406613e-018
   outer loop
      vertex 753.45692413552 805.567043217801 9.1311484909908
      vertex 754.651545240214 806.761664322496 3.64586827548644
      vertex 753.810125466502 805.920244548783 10.3370532654782
   endloop
endfacet
facet normal 0.707106781186548 -0.707106781186547 9.25117414406613e-018
   outer loop
      vertex 753.810125466502 805.920244548783 10.3370532654782
      vertex 754.651545240214 806.761664322496 3.64586827548644
      vertex 753.930595862973 806.040714945255 11.6311484909908
   endloop
endfacet
facet normal 0.707106781186548 -0.707106781186547 9.25117414406613e-018
   outer loop
      vertex 746.97999844758 799.090117529861 12.9252437165034
      vertex 743.392633655749 795.502752738031 13.0211109978749
      vertex 743.392054182269 795.502173264551 12.9252437165034
   endloop
endfacet
facet normal 0.707106781186548 -0.707106781186547 9.25117414406613e-018
   outer loop
      vertex 743.392633655749 795.502752738031 13.0211109978749
      vertex 746.97999844758 799.090117529861 12.9252437165034
      vertex 743.885616407999 795.995735490281 15.5368158204155
   endloop
endfacet
facet normal 0.707106781186548 -0.707106781186547 9.25117414406613e-018
   outer loop
      vertex 743.885616407999 795.995735490281 15.5368158204155
      vertex 746.97999844758 799.090117529861 12.9252437165034
      vertex 744.822207117049 796.932326199331 17.7863558688762
   endloop
endfacet
facet normal 0.707106781186548 -0.707106781186547 9.25117414406613e-018
   outer loop
      vertex 744.822207117049 796.932326199331 17.7863558688762
      vertex 746.97999844758 799.090117529861 12.9252437165034
      vertex 746.138578673867 798.248697756148 19.6164287064952
   endloop
endfacet
facet normal 0.707106781186548 -0.707106781186547 9.25117414406613e-018
   outer loop
      vertex 746.138578673867 798.248697756148 19.6164287064952
      vertex 746.97999844758 799.090117529861 12.9252437165034
      vertex 747.745022532261 799.855141614543 20.902317893727
   endloop
endfacet
facet normal 0.707106781186548 -0.707106781186547 9.25117414406613e-018
   outer loop
      vertex 747.745022532261 799.855141614543 20.902317893727
      vertex 746.97999844758 799.090117529861 12.9252437165034
      vertex 747.333199778562 799.443318860843 14.1311484909908
   endloop
endfacet
facet normal 0.707106781186548 -0.707106781186547 9.25117414406613e-018
   outer loop
      vertex 747.745022532261 799.855141614543 20.902317893727
      vertex 747.333199778562 799.443318860843 14.1311484909908
      vertex 747.604490836855 799.714609919137 14.6311484909908
   endloop
endfacet
facet normal 0.707106781186548 -0.707106781186547 9.25117414406613e-018
   outer loop
      vertex 747.745022532261 799.855141614543 20.902317893727
      vertex 747.604490836855 799.714609919137 14.6311484909908
      vertex 747.895061957041 800.005181039322 15.1666823969235
   endloop
endfacet
facet normal 0.707106781186548 -0.707106781186547 9.25117414406613e-018
   outer loop
      vertex 747.745022532261 799.855141614543 20.902317893727
      vertex 747.895061957041 800.005181039322 15.1666823969235
      vertex 749.532062198057 801.642181280339 21.5563922074942
   endloop
endfacet
facet normal 0.707106781186548 -0.707106781186547 9.25117414406613e-018
   outer loop
      vertex 749.532062198057 801.642181280339 21.5563922074942
      vertex 747.895061957041 800.005181039322 15.1666823969235
      vertex 748.627295004074 800.737414086356 15.961275509913
   endloop
endfacet
facet normal 0.707106781186548 -0.707106781186547 9.25117414406613e-018
   outer loop
      vertex 749.532062198057 801.642181280339 21.5563922074942
      vertex 748.627295004074 800.737414086356 15.961275509913
      vertex 749.47999844758 801.590117529861 16.4607776224361
   endloop
endfacet
facet normal 0.707106781186548 -0.707106781186547 9.25117414406613e-018
   outer loop
      vertex 749.532062198057 801.642181280339 21.5563922074942
      vertex 749.47999844758 801.590117529861 16.4607776224361
      vertex 750.395061957041 802.505181039322 16.6311484909908
   endloop
endfacet
facet normal 0.707106781186548 -0.707106781186547 9.25117414406613e-018
   outer loop
      vertex 749.532062198057 801.642181280339 21.5563922074942
      vertex 750.395061957041 802.505181039322 16.6311484909908
      vertex 751.377913871253 803.488032953535 21.5340775642225
   endloop
endfacet
facet normal 0.707106781186548 -0.707106781186547 9.25117414406613e-018
   outer loop
      vertex 751.377913871253 803.488032953535 21.5340775642225
      vertex 750.395061957041 802.505181039322 16.6311484909908
      vertex 751.310125466502 803.420244548783 16.4607776224361
   endloop
endfacet
facet normal 0.707106781186548 -0.707106781186547 9.25117414406613e-018
   outer loop
      vertex 751.377913871253 803.488032953535 21.5340775642225
      vertex 751.310125466502 803.420244548783 16.4607776224361
      vertex 752.162828910007 804.272947992289 15.961275509913
   endloop
endfacet
facet normal 0.707106781186548 -0.707106781186547 9.25117414406613e-018
   outer loop
      vertex 751.377913871253 803.488032953535 21.5340775642225
      vertex 752.162828910007 804.272947992289 15.961275509913
      vertex 753.156785810736 805.266904893017 20.8368946699741
   endloop
endfacet
facet normal 0.707106781186548 -0.707106781186547 9.25117414406613e-018
   outer loop
      vertex 753.156785810736 805.266904893017 20.8368946699741
      vertex 752.162828910007 804.272947992289 15.961275509913
      vertex 752.895061957041 805.005181039322 15.1666823969235
   endloop
endfacet
facet normal 0.707106781186548 -0.707106781186547 9.25117414406613e-018
   outer loop
      vertex 753.156785810736 805.266904893017 20.8368946699741
      vertex 752.895061957041 805.005181039322 15.1666823969235
      vertex 753.185633077226 805.295752159507 14.6311484909908
   endloop
endfacet
facet normal 0.707106781186548 -0.707106781186547 9.25117414406613e-018
   outer loop
      vertex 753.156785810736 805.266904893017 20.8368946699741
      vertex 753.185633077226 805.295752159507 14.6311484909908
      vertex 754.747450833553 806.857569915834 19.5123553868429
   endloop
endfacet
facet normal 0.707106781186548 -0.707106781186547 9.25117414406613e-018
   outer loop
      vertex 754.747450833553 806.857569915834 19.5123553868429
      vertex 753.185633077226 805.295752159507 14.6311484909908
      vertex 753.45692413552 805.567043217801 14.1311484909908
   endloop
endfacet
facet normal 0.707106781186548 -0.707106781186547 9.25117414406613e-018
   outer loop
      vertex 754.747450833553 806.857569915834 19.5123553868429
      vertex 753.45692413552 805.567043217801 14.1311484909908
      vertex 753.810125466502 805.920244548783 12.9252437165034
   endloop
endfacet
facet normal 0.707106781186548 -0.707106781186547 9.25117414406613e-018
   outer loop
      vertex 754.747450833553 806.857569915834 19.5123553868429
      vertex 753.810125466502 805.920244548783 12.9252437165034
      vertex 753.930595862973 806.040714945255 11.6311484909908
   endloop
endfacet
facet normal 0.707106781186548 -0.707106781186547 9.25117414406613e-018
   outer loop
      vertex 754.747450833553 806.857569915834 19.5123553868429
      vertex 753.930595862973 806.040714945255 11.6311484909908
      vertex 754.651545240214 806.761664322496 3.64586827548644
   endloop
endfacet
facet normal 0.707106781186548 -0.707106781186547 9.25117414406613e-018
   outer loop
      vertex 754.747450833553 806.857569915834 19.5123553868429
      vertex 754.651545240214 806.761664322496 3.64586827548644
      vertex 755.967916797032 808.078035879313 5.4759411131054
   endloop
endfacet
facet normal 0.707106781186548 -0.707106781186547 9.25117414406613e-018
   outer loop
      vertex 754.747450833553 806.857569915834 19.5123553868429
      vertex 755.967916797032 808.078035879313 5.4759411131054
      vertex 756.041507747099 808.15162682938 17.6507248780695
   endloop
endfacet
facet normal 0.707106781186548 -0.707106781186547 9.25117414406613e-018
   outer loop
      vertex 756.041507747099 808.15162682938 17.6507248780695
      vertex 755.967916797032 808.078035879313 5.4759411131054
      vertex 756.904507506082 809.014626588363 7.72548116156611
   endloop
endfacet
facet normal 0.707106781186548 -0.707106781186547 9.25117414406613e-018
   outer loop
      vertex 756.041507747099 808.15162682938 17.6507248780695
      vertex 756.904507506082 809.014626588363 7.72548116156611
      vertex 756.950768711245 809.060887793526 15.3788701863371
   endloop
endfacet
facet normal 0.707106781186548 -0.707106781186547 9.25117414406613e-018
   outer loop
      vertex 756.950768711245 809.060887793526 15.3788701863371
      vertex 756.904507506082 809.014626588363 7.72548116156611
      vertex 757.397490258332 809.507609340614 10.2411859841067
   endloop
endfacet
facet normal 0.707106781186548 -0.707106781186547 9.25117414406613e-018
   outer loop
      vertex 756.950768711245 809.060887793526 15.3788701863371
      vertex 757.397490258332 809.507609340614 10.2411859841067
      vertex 757.413269093909 809.523388176191 12.8516144544697
   endloop
endfacet
facet normal -0.991444861373809 0.13052619222006 0.0
   outer loop
      vertex 744.57999844758 734.090117529861 12.9252437165034
      vertex 744.491405595931 733.417188012595 6.92524371650341
      vertex 744.491405595931 733.417188012595 12.9252437165034
   endloop
endfacet
facet normal -0.991444861373809 0.13052619222006 0.0
   outer loop
      vertex 744.491405595931 733.417188012595 6.92524371650341
      vertex 744.57999844758 734.090117529861 12.9252437165034
      vertex 744.57999844758 734.090117529861 6.92524371650341
   endloop
endfacet
facet normal 0.560985526796943 0.560985526796943 0.608761429008698
   outer loop
      vertex 747.604490836855 799.714609919137 8.6311484909908
      vertex 743.652421269921 804.247821726442 8.09561458505807
      vertex 743.361850149736 803.957250606256 8.6311484909908
   endloop
endfacet
facet normal 0.560985526796943 0.560985526796943 0.608761429008698
   outer loop
      vertex 743.652421269921 804.247821726442 8.09561458505807
      vertex 747.604490836855 799.714609919137 8.6311484909908
      vertex 747.895061957041 800.005181039322 8.09561458505807
   endloop
endfacet
facet normal -0.495707754717926 -0.495707754717926 0.71312526517087
   outer loop
      vertex 744.822207117049 796.932326199331 17.7863558688762
      vertex 741.895937986748 802.491338443268 19.6164287064952
      vertex 740.57956642993 801.17496688645 17.7863558688762
   endloop
endfacet
facet normal -0.495707754717926 -0.495707754717926 0.71312526517087
   outer loop
      vertex 741.895937986748 802.491338443268 19.6164287064952
      vertex 744.822207117049 796.932326199331 17.7863558688762
      vertex 746.138578673867 798.248697756148 19.6164287064952
   endloop
endfacet
facet normal 0.348305941007303 0.348305941007303 -0.870267742087477
   outer loop
      vertex 750.408904553095 811.004305009615 3.64586827548644
      vertex 753.04510138182 805.155220464101 2.35997908825461
      vertex 748.802460694701 809.397861151221 2.35997908825461
   endloop
endfacet
facet normal 0.348305941007303 0.348305941007303 -0.870267742087477
   outer loop
      vertex 753.04510138182 805.155220464101 2.35997908825461
      vertex 750.408904553095 811.004305009615 3.64586827548644
      vertex 754.651545240214 806.761664322496 3.64586827548644
   endloop
endfacet
facet normal -0.608761429008837 -0.793353340291146 -0.0
   outer loop
      vertex 743.818476078665 735.928595160946 12.9252437165034
      vertex 743.27999844758 736.341783579701 6.92524371650341
      vertex 743.818476078665 735.928595160946 6.92524371650341
   endloop
endfacet
facet normal -0.608761429008837 -0.793353340291146 -0.0
   outer loop
      vertex 743.27999844758 736.341783579701 6.92524371650341
      vertex 743.818476078665 735.928595160946 12.9252437165034
      vertex 743.27999844758 736.341783579701 12.9252437165034
   endloop
endfacet
facet normal -0.177167653019792 -0.177167653019792 0.968102910566288
   outer loop
      vertex 747.745022532261 799.855141614543 20.902317893727
      vertex 745.289421510938 805.884821967458 21.5563922074942
      vertex 743.502381845142 804.097782301662 20.902317893727
   endloop
endfacet
facet normal -0.177167653019792 -0.177167653019792 0.968102910566288
   outer loop
      vertex 745.289421510938 805.884821967458 21.5563922074942
      vertex 747.745022532261 799.855141614543 20.902317893727
      vertex 749.532062198057 801.642181280339 21.5563922074942
   endloop
endfacet
facet normal 0.684552132947874 0.684552132947845 0.250552897714381
   outer loop
      vertex 757.413269093909 809.523388176191 12.8516144544697
      vertex 752.708128024125 813.303528480646 15.3788701863371
      vertex 756.950768711245 809.060887793526 15.3788701863371
   endloop
endfacet
facet normal 0.684552132947874 0.684552132947845 0.250552897714381
   outer loop
      vertex 752.708128024125 813.303528480646 15.3788701863371
      vertex 757.413269093909 809.523388176191 12.8516144544697
      vertex 753.17062840679 813.76602886331 12.8516144544697
   endloop
endfacet
facet normal 0.358775006425943 0.358775006425943 0.861719785967648
   outer loop
      vertex 753.156785810736 805.266904893017 20.8368946699741
      vertex 750.504810146434 811.100210602954 19.5123553868429
      vertex 748.914145123616 809.509545580136 20.8368946699741
   endloop
endfacet
facet normal 0.358775006425943 0.358775006425943 0.861719785967648
   outer loop
      vertex 750.504810146434 811.100210602954 19.5123553868429
      vertex 753.156785810736 805.266904893017 20.8368946699741
      vertex 754.747450833553 806.857569915834 19.5123553868429
   endloop
endfacet
facet normal -0.504255710837769 -0.504255710837769 -0.70103662969562
   outer loop
      vertex 741.800032393409 802.395432849929 3.74994159513874
      vertex 744.748616166983 796.858735249264 5.61157210391209
      vertex 740.505975479863 801.101375936384 5.61157210391209
   endloop
endfacet
facet normal -0.504255710837769 -0.504255710837769 -0.70103662969562
   outer loop
      vertex 744.748616166983 796.858735249264 5.61157210391209
      vertex 741.800032393409 802.395432849929 3.74994159513874
      vertex 746.042673080528 798.15279216281 3.74994159513874
   endloop
endfacet
facet normal 0.681423363857555 0.681423363857569 -0.267066280870667
   outer loop
      vertex 753.154849571213 813.750250027733 10.2411859841067
      vertex 756.904507506082 809.014626588363 7.72548116156611
      vertex 752.661866818963 813.257267275483 7.72548116156611
   endloop
endfacet
facet normal 0.681423363857555 0.681423363857569 -0.267066280870667
   outer loop
      vertex 756.904507506082 809.014626588363 7.72548116156611
      vertex 753.154849571213 813.750250027733 10.2411859841067
      vertex 757.397490258332 809.507609340614 10.2411859841067
   endloop
endfacet
facet normal -0.348305941007303 -0.348305941007303 0.870267742087477
   outer loop
      vertex 746.138578673867 798.248697756148 19.6164287064952
      vertex 743.502381845142 804.097782301662 20.902317893727
      vertex 741.895937986748 802.491338443268 19.6164287064952
   endloop
endfacet
facet normal -0.348305941007303 -0.348305941007303 0.870267742087477
   outer loop
      vertex 743.502381845142 804.097782301662 20.902317893727
      vertex 746.138578673867 798.248697756148 19.6164287064952
      vertex 747.745022532261 799.855141614543 20.902317893727
   endloop
endfacet
facet normal 0.793353340291195 0.608761429008773 0.0
   outer loop
      vertex 739.72833239774 732.790117529861 6.92524371650341
      vertex 740.141520816495 732.251639898776 12.9252437165034
      vertex 740.141520816495 732.251639898776 6.92524371650341
   endloop
endfacet
facet normal 0.793353340291195 0.608761429008773 0.0
   outer loop
      vertex 740.141520816495 732.251639898776 12.9252437165034
      vertex 739.72833239774 732.790117529861 6.92524371650341
      vertex 739.72833239774 732.790117529861 12.9252437165034
   endloop
endfacet
facet normal 0.495707754717927 0.495707754717927 -0.713125265170869
   outer loop
      vertex 751.725276109912 812.320676566433 5.4759411131054
      vertex 754.651545240214 806.761664322496 3.64586827548644
      vertex 750.408904553095 811.004305009615 3.64586827548644
   endloop
endfacet
facet normal 0.495707754717927 0.495707754717927 -0.713125265170869
   outer loop
      vertex 754.651545240214 806.761664322496 3.64586827548644
      vertex 751.725276109912 812.320676566433 5.4759411131054
      vertex 755.967916797032 808.078035879313 5.4759411131054
   endloop
endfacet
facet normal -0.560985526796948 -0.560985526796948 0.60876142900869
   outer loop
      vertex 752.895061957041 805.005181039322 8.09561458505806
      vertex 748.942992390107 809.538392846627 8.6311484909908
      vertex 748.652421269921 809.247821726441 8.09561458505806
   endloop
endfacet
facet normal -0.560985526796948 -0.560985526796948 0.60876142900869
   outer loop
      vertex 748.942992390107 809.538392846627 8.6311484909908
      vertex 752.895061957041 805.005181039322 8.09561458505806
      vertex 753.185633077226 805.295752159507 8.6311484909908
   endloop
endfacet
facet normal 0.615372221877958 0.615372221877939 0.49257898562768
   outer loop
      vertex 756.950768711245 809.060887793526 15.3788701863371
      vertex 751.798867059979 812.394267516499 17.6507248780695
      vertex 756.041507747099 808.15162682938 17.6507248780695
   endloop
endfacet
facet normal 0.615372221877958 0.615372221877939 0.49257898562768
   outer loop
      vertex 751.798867059979 812.394267516499 17.6507248780695
      vertex 756.950768711245 809.060887793526 15.3788701863371
      vertex 752.708128024125 813.303528480646 15.3788701863371
   endloop
endfacet
facet normal 0.609327904140344 0.609327904140351 -0.507384479928056
   outer loop
      vertex 752.661866818963 813.257267275483 7.72548116156611
      vertex 755.967916797032 808.078035879313 5.4759411131054
      vertex 751.725276109912 812.320676566433 5.4759411131054
   endloop
endfacet
facet normal 0.609327904140344 0.609327904140351 -0.507384479928056
   outer loop
      vertex 755.967916797032 808.078035879313 5.4759411131054
      vertex 752.661866818963 813.257267275483 7.72548116156611
      vertex 756.904507506082 809.014626588363 7.72548116156611
   endloop
endfacet
facet normal 0.188844378229926 0.188844378229926 0.963678162885258
   outer loop
      vertex 751.377913871253 803.488032953535 21.5340775642225
      vertex 748.914145123616 809.509545580136 20.8368946699741
      vertex 747.135273184134 807.730673640654 21.5340775642225
   endloop
endfacet
facet normal 0.188844378229926 0.188844378229926 0.963678162885258
   outer loop
      vertex 748.914145123616 809.509545580136 20.8368946699741
      vertex 751.377913871253 803.488032953535 21.5340775642225
      vertex 753.156785810736 805.266904893017 20.8368946699741
   endloop
endfacet
facet normal 0.56098552679689 0.56098552679689 -0.608761429008796
   outer loop
      vertex 749.2142834484 809.80968390492 9.1311484909908
      vertex 753.185633077226 805.295752159507 8.6311484909908
      vertex 748.942992390107 809.538392846627 8.6311484909908
   endloop
endfacet
facet normal 0.56098552679689 0.56098552679689 -0.608761429008796
   outer loop
      vertex 753.185633077226 805.295752159507 8.6311484909908
      vertex 749.2142834484 809.80968390492 9.1311484909908
      vertex 753.45692413552 805.567043217801 9.1311484909908
   endloop
endfacet
facet normal 0.653281482438178 0.653281482438178 -0.382683432365126
   outer loop
      vertex 749.2142834484 809.80968390492 9.1311484909908
      vertex 753.810125466502 805.920244548783 10.3370532654782
      vertex 753.45692413552 805.567043217801 9.1311484909908
   endloop
endfacet
facet normal 0.653281482438178 0.653281482438178 -0.382683432365126
   outer loop
      vertex 753.810125466502 805.920244548783 10.3370532654782
      vertex 749.2142834484 809.80968390492 9.1311484909908
      vertex 749.567484779383 810.162885235903 10.3370532654782
   endloop
endfacet
facet normal -0.707080947433239 -0.707080947433239 0.00854795611986422
   outer loop
      vertex 743.392633655749 795.502752738031 13.0211109978749
      vertex 739.14941349515 799.74481395167 12.9252437165034
      vertex 743.392054182269 795.502173264551 12.9252437165034
   endloop
endfacet
facet normal -0.707080947433239 -0.707080947433239 0.00854795611986422
   outer loop
      vertex 739.14941349515 799.74481395167 12.9252437165034
      vertex 743.392633655749 795.502752738031 13.0211109978749
      vertex 739.14999296863 799.74539342515 13.0211109978749
   endloop
endfacet
facet normal -0.653281482438178 -0.653281482438178 -0.382683432365125
   outer loop
      vertex 742.73735776046 803.33275821698 10.3370532654782
      vertex 747.333199778562 799.443318860843 9.1311484909908
      vertex 746.97999844758 799.090117529861 10.3370532654782
   endloop
endfacet
facet normal -0.653281482438178 -0.653281482438178 -0.382683432365125
   outer loop
      vertex 747.333199778562 799.443318860843 9.1311484909908
      vertex 742.73735776046 803.33275821698 10.3370532654782
      vertex 743.090559091442 803.685959547963 9.1311484909908
   endloop
endfacet
facet normal -0.61537222187796 -0.61537222187796 -0.492578985627651
   outer loop
      vertex 739.980206678988 800.575607135508 6.92524371650341
      vertex 744.748616166983 796.858735249264 5.61157210391209
      vertex 744.222847366107 796.332966448389 6.92524371650341
   endloop
endfacet
facet normal -0.61537222187796 -0.61537222187796 -0.492578985627651
   outer loop
      vertex 744.748616166983 796.858735249264 5.61157210391209
      vertex 739.980206678988 800.575607135508 6.92524371650341
      vertex 740.505975479863 801.101375936384 5.61157210391209
   endloop
endfacet
facet normal 0.00604431773762125 0.00604431773762125 0.999963465555704
   outer loop
      vertex 749.532062198057 801.642181280339 21.5563922074942
      vertex 747.135273184134 807.730673640654 21.5340775642225
      vertex 745.289421510938 805.884821967458 21.5563922074942
   endloop
endfacet
facet normal 0.00604431773762125 0.00604431773762125 0.999963465555704
   outer loop
      vertex 747.135273184134 807.730673640654 21.5340775642225
      vertex 749.532062198057 801.642181280339 21.5563922074942
      vertex 751.377913871253 803.488032953535 21.5340775642225
   endloop
endfacet
facet normal -0.358775006425943 -0.358775006425943 -0.861719785967648
   outer loop
      vertex 743.390697416226 803.986097872747 2.42540231200751
      vertex 746.042673080528 798.15279216281 3.74994159513874
      vertex 741.800032393409 802.395432849929 3.74994159513874
   endloop
endfacet
facet normal -0.358775006425943 -0.358775006425943 -0.861719785967648
   outer loop
      vertex 746.042673080528 798.15279216281 3.74994159513874
      vertex 743.390697416226 803.986097872747 2.42540231200751
      vertex 747.633338103346 799.743457185627 2.42540231200751
   endloop
endfacet
facet normal -0.188844378229926 -0.188844378229926 -0.963678162885258
   outer loop
      vertex 745.169569355709 805.764969812229 1.72821941775912
      vertex 747.633338103346 799.743457185627 2.42540231200751
      vertex 743.390697416226 803.986097872747 2.42540231200751
   endloop
endfacet
facet normal -0.188844378229926 -0.188844378229926 -0.963678162885258
   outer loop
      vertex 747.633338103346 799.743457185627 2.42540231200751
      vertex 745.169569355709 805.764969812229 1.72821941775912
      vertex 749.412210042828 801.522329125109 1.72821941775912
   endloop
endfacet
facet normal 0.701057384649986 0.701057384649986 -0.130526192219969
   outer loop
      vertex 749.687955175854 810.283355632374 11.6311484909908
      vertex 753.810125466502 805.920244548783 10.3370532654782
      vertex 749.567484779383 810.162885235903 10.3370532654782
   endloop
endfacet
facet normal 0.701057384649986 0.701057384649986 -0.130526192219969
   outer loop
      vertex 753.810125466502 805.920244548783 10.3370532654782
      vertex 749.687955175854 810.283355632374 11.6311484909908
      vertex 753.930595862973 806.040714945255 11.6311484909908
   endloop
endfacet
facet normal 0.504255710837769 0.504255710837769 0.701036629695619
   outer loop
      vertex 754.747450833553 806.857569915834 19.5123553868429
      vertex 751.798867059979 812.394267516499 17.6507248780695
      vertex 750.504810146434 811.100210602954 19.5123553868429
   endloop
endfacet
facet normal 0.504255710837769 0.504255710837769 0.701036629695619
   outer loop
      vertex 751.798867059979 812.394267516499 17.6507248780695
      vertex 754.747450833553 806.857569915834 19.5123553868429
      vertex 756.041507747099 808.15162682938 17.6507248780695
   endloop
endfacet
facet normal 0.707080947433239 0.707080947433239 -0.00854795611987866
   outer loop
      vertex 753.17062840679 813.76602886331 12.8516144544697
      vertex 757.397490258332 809.507609340614 10.2411859841067
      vertex 753.154849571213 813.750250027733 10.2411859841067
   endloop
endfacet
facet normal 0.707080947433239 0.707080947433239 -0.00854795611987866
   outer loop
      vertex 757.397490258332 809.507609340614 10.2411859841067
      vertex 753.17062840679 813.76602886331 12.8516144544697
      vertex 757.413269093909 809.523388176191 12.8516144544697
   endloop
endfacet
facet normal 0.991444861373809 0.13052619222006 0.0
   outer loop
      vertex 739.37999844758 734.090117529861 6.92524371650341
      vertex 739.468591299228 733.417188012595 12.9252437165034
      vertex 739.468591299228 733.417188012595 6.92524371650341
   endloop
endfacet
facet normal 0.991444861373809 0.13052619222006 0.0
   outer loop
      vertex 739.468591299228 733.417188012595 12.9252437165034
      vertex 739.37999844758 734.090117529861 6.92524371650341
      vertex 739.37999844758 734.090117529861 12.9252437165034
   endloop
endfacet
facet normal 0.608761429008837 0.793353340291146 0.0
   outer loop
      vertex 740.141520816495 732.251639898776 12.9252437165034
      vertex 740.679998447579 731.838451480021 6.92524371650341
      vertex 740.141520816495 732.251639898776 6.92524371650341
   endloop
endfacet
facet normal 0.608761429008837 0.793353340291146 0.0
   outer loop
      vertex 740.679998447579 731.838451480021 6.92524371650341
      vertex 740.141520816495 732.251639898776 12.9252437165034
      vertex 740.679998447579 731.838451480021 12.9252437165034
   endloop
endfacet
facet normal 0.923879532511294 0.382683432365073 0.0
   outer loop
      vertex 739.468591299228 733.417188012595 6.92524371650341
      vertex 739.72833239774 732.790117529861 12.9252437165034
      vertex 739.72833239774 732.790117529861 6.92524371650341
   endloop
endfacet
facet normal 0.923879532511294 0.382683432365073 0.0
   outer loop
      vertex 739.72833239774 732.790117529861 12.9252437165034
      vertex 739.468591299228 733.417188012595 6.92524371650341
      vertex 739.468591299228 733.417188012595 12.9252437165034
   endloop
endfacet
facet normal -0.701057384649986 -0.701057384649986 0.130526192219969
   outer loop
      vertex 746.97999844758 799.090117529861 12.9252437165034
      vertex 742.616887363989 803.212287820509 11.6311484909908
      vertex 746.859528051108 798.969647133389 11.6311484909908
   endloop
endfacet
facet normal -0.701057384649986 -0.701057384649986 0.130526192219969
   outer loop
      vertex 742.616887363989 803.212287820509 11.6311484909908
      vertex 746.97999844758 799.090117529861 12.9252437165034
      vertex 742.73735776046 803.33275821698 12.9252437165034
   endloop
endfacet
facet normal -0.270598050073085 -0.270598050073085 0.923879532511295
   outer loop
      vertex 751.310125466502 803.420244548783 6.80151935954546
      vertex 747.920188222888 808.515588679408 7.30102147206861
      vertex 747.067484779382 807.662885235903 6.80151935954546
   endloop
endfacet
facet normal -0.270598050073085 -0.270598050073085 0.923879532511295
   outer loop
      vertex 747.920188222888 808.515588679408 7.30102147206861
      vertex 751.310125466502 803.420244548783 6.80151935954546
      vertex 752.162828910007 804.272947992289 7.30102147206861
   endloop
endfacet
facet normal 0.270598050073085 0.270598050073085 -0.923879532511295
   outer loop
      vertex 745.23735776046 805.83275821698 16.4607776224361
      vertex 748.627295004074 800.737414086356 15.961275509913
      vertex 744.384654316955 804.980054773475 15.961275509913
   endloop
endfacet
facet normal 0.270598050073085 0.270598050073085 -0.923879532511295
   outer loop
      vertex 748.627295004074 800.737414086356 15.961275509913
      vertex 745.23735776046 805.83275821698 16.4607776224361
      vertex 749.47999844758 801.590117529861 16.4607776224361
   endloop
endfacet
facet normal -0.560985526796894 -0.560985526796894 -0.608761429008789
   outer loop
      vertex 743.361850149736 803.957250606256 8.6311484909908
      vertex 747.333199778562 799.443318860843 9.1311484909908
      vertex 743.090559091442 803.685959547963 9.1311484909908
   endloop
endfacet
facet normal -0.560985526796894 -0.560985526796894 -0.608761429008789
   outer loop
      vertex 747.333199778562 799.443318860843 9.1311484909908
      vertex 743.361850149736 803.957250606256 8.6311484909908
      vertex 747.604490836855 799.714609919137 8.6311484909908
   endloop
endfacet
facet normal 0.560985526796944 0.560985526796944 -0.608761429008696
   outer loop
      vertex 743.652421269921 804.247821726442 15.1666823969235
      vertex 747.604490836855 799.714609919137 14.6311484909908
      vertex 743.361850149736 803.957250606256 14.6311484909908
   endloop
endfacet
facet normal 0.560985526796944 0.560985526796944 -0.608761429008696
   outer loop
      vertex 747.604490836855 799.714609919137 14.6311484909908
      vertex 743.652421269921 804.247821726442 15.1666823969235
      vertex 747.895061957041 800.005181039322 15.1666823969235
   endloop
endfacet
facet normal -0.653281482438178 -0.653281482438178 0.382683432365125
   outer loop
      vertex 747.333199778562 799.443318860843 14.1311484909908
      vertex 742.73735776046 803.33275821698 12.9252437165034
      vertex 746.97999844758 799.090117529861 12.9252437165034
   endloop
endfacet
facet normal -0.653281482438178 -0.653281482438178 0.382683432365125
   outer loop
      vertex 742.73735776046 803.33275821698 12.9252437165034
      vertex 747.333199778562 799.443318860843 14.1311484909908
      vertex 743.090559091442 803.685959547963 14.1311484909908
   endloop
endfacet
facet normal -0.560985526796893 -0.560985526796893 0.608761429008791
   outer loop
      vertex 747.333199778562 799.443318860843 14.1311484909908
      vertex 743.361850149736 803.957250606256 14.6311484909908
      vertex 743.090559091442 803.685959547963 14.1311484909908
   endloop
endfacet
facet normal -0.560985526796893 -0.560985526796893 0.608761429008791
   outer loop
      vertex 743.361850149736 803.957250606256 14.6311484909908
      vertex 747.333199778562 799.443318860843 14.1311484909908
      vertex 747.604490836855 799.714609919137 14.6311484909908
   endloop
endfacet
facet normal -0.560985526796946 -0.560985526796946 -0.608761429008692
   outer loop
      vertex 748.942992390107 809.538392846627 14.6311484909908
      vertex 752.895061957041 805.005181039322 15.1666823969235
      vertex 748.652421269921 809.247821726441 15.1666823969235
   endloop
endfacet
facet normal -0.560985526796946 -0.560985526796946 -0.608761429008692
   outer loop
      vertex 752.895061957041 805.005181039322 15.1666823969235
      vertex 748.942992390107 809.538392846627 14.6311484909908
      vertex 753.185633077226 805.295752159507 14.6311484909908
   endloop
endfacet
facet normal -0.701057384649986 -0.701057384649986 -0.130526192219969
   outer loop
      vertex 746.859528051108 798.969647133389 11.6311484909908
      vertex 742.73735776046 803.33275821698 10.3370532654782
      vertex 746.97999844758 799.090117529861 10.3370532654782
   endloop
endfacet
facet normal -0.701057384649986 -0.701057384649986 -0.130526192219969
   outer loop
      vertex 742.73735776046 803.33275821698 10.3370532654782
      vertex 746.859528051108 798.969647133389 11.6311484909908
      vertex 742.616887363989 803.212287820509 11.6311484909908
   endloop
endfacet
facet normal -0.270598050073086 -0.270598050073086 -0.923879532511294
   outer loop
      vertex 747.920188222888 808.515588679408 15.961275509913
      vertex 751.310125466502 803.420244548783 16.4607776224361
      vertex 747.067484779382 807.662885235903 16.4607776224361
   endloop
endfacet
facet normal -0.270598050073086 -0.270598050073086 -0.923879532511294
   outer loop
      vertex 751.310125466502 803.420244548783 16.4607776224361
      vertex 747.920188222888 808.515588679408 15.961275509913
      vertex 752.162828910007 804.272947992289 15.961275509913
   endloop
endfacet
facet normal -0.4304593345769 -0.4304593345769 -0.793353340291213
   outer loop
      vertex 748.652421269921 809.247821726441 15.1666823969235
      vertex 752.162828910007 804.272947992289 15.961275509913
      vertex 747.920188222888 808.515588679408 15.961275509913
   endloop
endfacet
facet normal -0.4304593345769 -0.4304593345769 -0.793353340291213
   outer loop
      vertex 752.162828910007 804.272947992289 15.961275509913
      vertex 748.652421269921 809.247821726441 15.1666823969235
      vertex 752.895061957041 805.005181039322 15.1666823969235
   endloop
endfacet
facet normal -1.0 0.0 0.0
   outer loop
      vertex 736.97999844758 797.575398904099 12.9252437165034
      vertex 736.97999844758 729.090117529861 6.92524371650341
      vertex 736.97999844758 729.090117529861 12.9252437165034
   endloop
endfacet
facet normal -1.0 0.0 0.0
   outer loop
      vertex 736.97999844758 729.090117529861 6.92524371650341
      vertex 736.97999844758 797.575398904099 12.9252437165034
      vertex 736.97999844758 797.575398904099 6.92524371650341
   endloop
endfacet
facet normal -0.0922959556412595 -0.0922959556412595 -0.99144486137381
   outer loop
      vertex 747.067484779382 807.662885235903 16.4607776224361
      vertex 750.395061957041 802.505181039322 16.6311484909908
      vertex 746.152421269921 806.747821726442 16.6311484909908
   endloop
endfacet
facet normal -0.0922959556412595 -0.0922959556412595 -0.99144486137381
   outer loop
      vertex 750.395061957041 802.505181039322 16.6311484909908
      vertex 747.067484779382 807.662885235903 16.4607776224361
      vertex 751.310125466502 803.420244548783 16.4607776224361
   endloop
endfacet
facet normal 0.701057384649986 0.701057384649986 0.130526192219969
   outer loop
      vertex 749.567484779383 810.162885235903 12.9252437165034
      vertex 753.930595862973 806.040714945255 11.6311484909908
      vertex 749.687955175854 810.283355632374 11.6311484909908
   endloop
endfacet
facet normal 0.701057384649986 0.701057384649986 0.130526192219969
   outer loop
      vertex 753.930595862973 806.040714945255 11.6311484909908
      vertex 749.567484779383 810.162885235903 12.9252437165034
      vertex 753.810125466502 805.920244548783 12.9252437165034
   endloop
endfacet
facet normal 0.560985526796892 0.560985526796892 0.608761429008792
   outer loop
      vertex 753.185633077226 805.295752159507 14.6311484909908
      vertex 749.2142834484 809.80968390492 14.1311484909908
      vertex 748.942992390107 809.538392846627 14.6311484909908
   endloop
endfacet
facet normal 0.560985526796892 0.560985526796892 0.608761429008792
   outer loop
      vertex 749.2142834484 809.80968390492 14.1311484909908
      vertex 753.185633077226 805.295752159507 14.6311484909908
      vertex 753.45692413552 805.567043217801 14.1311484909908
   endloop
endfacet
facet normal -8.22544448751522e-017 1.30478884024749e-017 -1.0
   outer loop
      vertex 739.980206678988 800.575607135508 6.92524371650341
      vertex 736.97999844758 729.090117529861 6.92524371650341
      vertex 736.97999844758 797.575398904099 6.92524371650341
   endloop
endfacet
facet normal -8.22544448751522e-017 1.30478884024749e-017 -1.0
   outer loop
      vertex 736.97999844758 729.090117529861 6.92524371650341
      vertex 739.980206678988 800.575607135508 6.92524371650341
      vertex 739.37999844758 734.090117529861 6.92524371650341
   endloop
endfacet
facet normal -8.22544448751522e-017 1.30478884024749e-017 -1.0
   outer loop
      vertex 739.37999844758 734.090117529861 6.92524371650341
      vertex 739.980206678988 800.575607135508 6.92524371650341
      vertex 739.468591299228 734.763047047128 6.92524371650341
   endloop
endfacet
facet normal -8.22544448751522e-017 1.30478884024749e-017 -1.0
   outer loop
      vertex 739.468591299228 734.763047047128 6.92524371650341
      vertex 739.980206678988 800.575607135508 6.92524371650341
      vertex 739.72833239774 735.390117529861 6.92524371650341
   endloop
endfacet
facet normal -8.22544448751522e-017 1.30478884024749e-017 -1.0
   outer loop
      vertex 739.72833239774 735.390117529861 6.92524371650341
      vertex 739.980206678988 800.575607135508 6.92524371650341
      vertex 740.141520816495 735.928595160946 6.92524371650341
   endloop
endfacet
facet normal -8.22544448751522e-017 1.30478884024749e-017 -1.0
   outer loop
      vertex 740.141520816495 735.928595160946 6.92524371650341
      vertex 739.980206678988 800.575607135508 6.92524371650341
      vertex 744.222847366107 796.332966448389 6.92524371650341
   endloop
endfacet
facet normal -8.22544448751522e-017 1.30478884024749e-017 -1.0
   outer loop
      vertex 740.141520816495 735.928595160946 6.92524371650341
      vertex 744.222847366107 796.332966448389 6.92524371650341
      vertex 740.67999844758 736.341783579701 6.92524371650341
   endloop
endfacet
facet normal -8.22544448751522e-017 1.30478884024749e-017 -1.0
   outer loop
      vertex 740.67999844758 736.341783579701 6.92524371650341
      vertex 744.222847366107 796.332966448389 6.92524371650341
      vertex 741.307068930313 736.601524678213 6.92524371650341
   endloop
endfacet
facet normal -8.22544448751522e-017 1.30478884024749e-017 -1.0
   outer loop
      vertex 741.307068930313 736.601524678213 6.92524371650341
      vertex 744.222847366107 796.332966448389 6.92524371650341
      vertex 741.97999844758 736.690117529861 6.92524371650341
   endloop
endfacet
facet normal -8.22544448751522e-017 1.30478884024749e-017 -1.0
   outer loop
      vertex 741.97999844758 736.690117529861 6.92524371650341
      vertex 744.222847366107 796.332966448389 6.92524371650341
      vertex 742.652927964846 736.601524678213 6.92524371650341
   endloop
endfacet
facet normal -8.22544448751522e-017 1.30478884024749e-017 -1.0
   outer loop
      vertex 742.652927964846 736.601524678213 6.92524371650341
      vertex 744.222847366107 796.332966448389 6.92524371650341
      vertex 743.27999844758 736.341783579701 6.92524371650341
   endloop
endfacet
facet normal -8.22544448751522e-017 1.30478884024749e-017 -1.0
   outer loop
      vertex 743.27999844758 736.341783579701 6.92524371650341
      vertex 744.222847366107 796.332966448389 6.92524371650341
      vertex 743.818476078665 735.928595160946 6.92524371650341
   endloop
endfacet
facet normal -8.22544448751522e-017 1.30478884024749e-017 -1.0
   outer loop
      vertex 743.818476078665 735.928595160946 6.92524371650341
      vertex 744.222847366107 796.332966448389 6.92524371650341
      vertex 744.231664497419 735.390117529861 6.92524371650341
   endloop
endfacet
facet normal -8.22544448751522e-017 1.30478884024749e-017 -1.0
   outer loop
      vertex 744.231664497419 735.390117529861 6.92524371650341
      vertex 744.222847366107 796.332966448389 6.92524371650341
      vertex 746.97999844758 799.090117529861 6.92524371650341
   endloop
endfacet
facet normal -8.22544448751522e-017 1.30478884024749e-017 -1.0
   outer loop
      vertex 744.231664497419 735.390117529861 6.92524371650341
      vertex 746.97999844758 799.090117529861 6.92524371650341
      vertex 744.491405595931 734.763047047128 6.92524371650341
   endloop
endfacet
facet normal -8.22544448751522e-017 1.30478884024749e-017 -1.0
   outer loop
      vertex 744.491405595931 734.763047047128 6.92524371650341
      vertex 746.97999844758 799.090117529861 6.92524371650341
      vertex 744.57999844758 734.090117529861 6.92524371650341
   endloop
endfacet
facet normal -8.22544448751522e-017 1.30478884024749e-017 -1.0
   outer loop
      vertex 736.97999844758 729.090117529861 6.92524371650341
      vertex 740.679998447579 731.838451480021 6.92524371650341
      vertex 746.97999844758 729.090117529861 6.92524371650341
   endloop
endfacet
facet normal -8.22544448751522e-017 1.30478884024749e-017 -1.0
   outer loop
      vertex 740.679998447579 731.838451480021 6.92524371650341
      vertex 736.97999844758 729.090117529861 6.92524371650341
      vertex 740.141520816495 732.251639898776 6.92524371650341
   endloop
endfacet
facet normal -8.22544448751522e-017 1.30478884024749e-017 -1.0
   outer loop
      vertex 740.141520816495 732.251639898776 6.92524371650341
      vertex 736.97999844758 729.090117529861 6.92524371650341
      vertex 739.72833239774 732.790117529861 6.92524371650341
   endloop
endfacet
facet normal -8.22544448751522e-017 1.30478884024749e-017 -1.0
   outer loop
      vertex 739.72833239774 732.790117529861 6.92524371650341
      vertex 736.97999844758 729.090117529861 6.92524371650341
      vertex 739.468591299228 733.417188012595 6.92524371650341
   endloop
endfacet
facet normal -8.22544448751522e-017 1.30478884024749e-017 -1.0
   outer loop
      vertex 739.468591299228 733.417188012595 6.92524371650341
      vertex 736.97999844758 729.090117529861 6.92524371650341
      vertex 739.37999844758 734.090117529861 6.92524371650341
   endloop
endfacet
facet normal -8.22544448751522e-017 1.30478884024749e-017 -1.0
   outer loop
      vertex 746.97999844758 729.090117529861 6.92524371650341
      vertex 740.679998447579 731.838451480021 6.92524371650341
      vertex 741.307068930313 731.57871038151 6.92524371650341
   endloop
endfacet
facet normal -8.22544448751522e-017 1.30478884024749e-017 -1.0
   outer loop
      vertex 746.97999844758 729.090117529861 6.92524371650341
      vertex 741.307068930313 731.57871038151 6.92524371650341
      vertex 741.97999844758 731.490117529861 6.92524371650341
   endloop
endfacet
facet normal -8.22544448751522e-017 1.30478884024749e-017 -1.0
   outer loop
      vertex 746.97999844758 729.090117529861 6.92524371650341
      vertex 741.97999844758 731.490117529861 6.92524371650341
      vertex 742.652927964846 731.57871038151 6.92524371650341
   endloop
endfacet
facet normal -8.22544448751522e-017 1.30478884024749e-017 -1.0
   outer loop
      vertex 746.97999844758 729.090117529861 6.92524371650341
      vertex 742.652927964846 731.57871038151 6.92524371650341
      vertex 743.279998447579 731.838451480021 6.92524371650341
   endloop
endfacet
facet normal -8.22544448751522e-017 1.30478884024749e-017 -1.0
   outer loop
      vertex 746.97999844758 729.090117529861 6.92524371650341
      vertex 743.279998447579 731.838451480021 6.92524371650341
      vertex 743.818476078665 732.251639898776 6.92524371650341
   endloop
endfacet
facet normal -8.22544448751522e-017 1.30478884024749e-017 -1.0
   outer loop
      vertex 746.97999844758 729.090117529861 6.92524371650341
      vertex 743.818476078665 732.251639898776 6.92524371650341
      vertex 744.231664497419 732.790117529861 6.92524371650341
   endloop
endfacet
facet normal -8.22544448751522e-017 1.30478884024749e-017 -1.0
   outer loop
      vertex 746.97999844758 729.090117529861 6.92524371650341
      vertex 744.231664497419 732.790117529861 6.92524371650341
      vertex 744.491405595931 733.417188012595 6.92524371650341
   endloop
endfacet
facet normal -8.22544448751522e-017 1.30478884024749e-017 -1.0
   outer loop
      vertex 746.97999844758 729.090117529861 6.92524371650341
      vertex 744.491405595931 733.417188012595 6.92524371650341
      vertex 744.57999844758 734.090117529861 6.92524371650341
   endloop
endfacet
facet normal -8.22544448751522e-017 1.30478884024749e-017 -1.0
   outer loop
      vertex 746.97999844758 729.090117529861 6.92524371650341
      vertex 744.57999844758 734.090117529861 6.92524371650341
      vertex 746.97999844758 799.090117529861 6.92524371650341
   endloop
endfacet
facet normal 0.177167653019792 0.177167653019792 -0.968102910566288
   outer loop
      vertex 748.802460694701 809.397861151221 2.35997908825461
      vertex 751.258061716024 803.368180798306 1.70590477448739
      vertex 747.015421028905 807.610821485425 1.70590477448739
   endloop
endfacet
facet normal 0.177167653019792 0.177167653019792 -0.968102910566288
   outer loop
      vertex 751.258061716024 803.368180798306 1.70590477448739
      vertex 748.802460694701 809.397861151221 2.35997908825461
      vertex 753.04510138182 805.155220464101 2.35997908825461
   endloop
endfacet
facet normal -0.681423363857562 -0.681423363857562 0.267066280870666
   outer loop
      vertex 743.885616407999 795.995735490281 15.5368158204155
      vertex 739.14999296863 799.74539342515 13.0211109978749
      vertex 743.392633655749 795.502752738031 13.0211109978749
   endloop
endfacet
facet normal -0.681423363857562 -0.681423363857562 0.267066280870666
   outer loop
      vertex 739.14999296863 799.74539342515 13.0211109978749
      vertex 743.885616407999 795.995735490281 15.5368158204155
      vertex 739.64297572088 800.2383761774 15.5368158204155
   endloop
endfacet
facet normal -0.4304593345769 -0.4304593345769 0.793353340291213
   outer loop
      vertex 752.162828910007 804.272947992289 7.30102147206861
      vertex 748.652421269921 809.247821726441 8.09561458505806
      vertex 747.920188222888 808.515588679408 7.30102147206861
   endloop
endfacet
facet normal -0.4304593345769 -0.4304593345769 0.793353340291213
   outer loop
      vertex 748.652421269921 809.247821726441 8.09561458505806
      vertex 752.162828910007 804.272947992289 7.30102147206861
      vertex 752.895061957041 805.005181039322 8.09561458505806
   endloop
endfacet
facet normal 0.653281482438178 0.653281482438178 0.382683432365126
   outer loop
      vertex 753.810125466502 805.920244548783 12.9252437165034
      vertex 749.2142834484 809.80968390492 14.1311484909908
      vertex 753.45692413552 805.567043217801 14.1311484909908
   endloop
endfacet
facet normal 0.653281482438178 0.653281482438178 0.382683432365126
   outer loop
      vertex 749.2142834484 809.80968390492 14.1311484909908
      vertex 753.810125466502 805.920244548783 12.9252437165034
      vertex 749.567484779383 810.162885235903 12.9252437165034
   endloop
endfacet
facet normal -0.707106781186553 0.707106781186542 -2.11367660805003e-015
   outer loop
      vertex 741.895937986748 802.491338443268 19.6164287064952
      vertex 742.73735776046 803.33275821698 12.9252437165034
      vertex 742.616887363989 803.212287820509 11.6311484909908
   endloop
endfacet
facet normal -0.707106781186553 0.707106781186542 -2.11367660805003e-015
   outer loop
      vertex 742.73735776046 803.33275821698 12.9252437165034
      vertex 741.895937986748 802.491338443268 19.6164287064952
      vertex 743.502381845142 804.097782301662 20.902317893727
   endloop
endfacet
facet normal -0.707106781186553 0.707106781186542 -2.11367660805003e-015
   outer loop
      vertex 742.73735776046 803.33275821698 12.9252437165034
      vertex 743.502381845142 804.097782301662 20.902317893727
      vertex 743.090559091442 803.685959547963 14.1311484909908
   endloop
endfacet
facet normal -0.707106781186553 0.707106781186542 -2.11367660805003e-015
   outer loop
      vertex 743.090559091442 803.685959547963 14.1311484909908
      vertex 743.502381845142 804.097782301662 20.902317893727
      vertex 743.361850149736 803.957250606256 14.6311484909908
   endloop
endfacet
facet normal -0.707106781186553 0.707106781186542 -2.11367660805003e-015
   outer loop
      vertex 743.361850149736 803.957250606256 14.6311484909908
      vertex 743.502381845142 804.097782301662 20.902317893727
      vertex 743.652421269921 804.247821726442 15.1666823969235
   endloop
endfacet
facet normal -0.707106781186553 0.707106781186542 -2.11367660805003e-015
   outer loop
      vertex 743.652421269921 804.247821726442 15.1666823969235
      vertex 743.502381845142 804.097782301662 20.902317893727
      vertex 745.289421510938 805.884821967458 21.5563922074942
   endloop
endfacet
facet normal -0.707106781186553 0.707106781186542 -2.11367660805003e-015
   outer loop
      vertex 743.652421269921 804.247821726442 15.1666823969235
      vertex 745.289421510938 805.884821967458 21.5563922074942
      vertex 744.384654316955 804.980054773475 15.961275509913
   endloop
endfacet
facet normal -0.707106781186553 0.707106781186542 -2.11367660805003e-015
   outer loop
      vertex 744.384654316955 804.980054773475 15.961275509913
      vertex 745.289421510938 805.884821967458 21.5563922074942
      vertex 745.23735776046 805.83275821698 16.4607776224361
   endloop
endfacet
facet normal -0.707106781186553 0.707106781186542 -2.11367660805003e-015
   outer loop
      vertex 745.23735776046 805.83275821698 16.4607776224361
      vertex 745.289421510938 805.884821967458 21.5563922074942
      vertex 746.152421269921 806.747821726442 16.6311484909908
   endloop
endfacet
facet normal -0.707106781186553 0.707106781186542 -2.11367660805003e-015
   outer loop
      vertex 746.152421269921 806.747821726442 16.6311484909908
      vertex 745.289421510938 805.884821967458 21.5563922074942
      vertex 747.135273184134 807.730673640654 21.5340775642225
   endloop
endfacet
facet normal -0.707106781186553 0.707106781186542 -2.11367660805003e-015
   outer loop
      vertex 746.152421269921 806.747821726442 16.6311484909908
      vertex 747.135273184134 807.730673640654 21.5340775642225
      vertex 747.067484779382 807.662885235903 16.4607776224361
   endloop
endfacet
facet normal -0.707106781186553 0.707106781186542 -2.11367660805003e-015
   outer loop
      vertex 747.067484779382 807.662885235903 16.4607776224361
      vertex 747.135273184134 807.730673640654 21.5340775642225
      vertex 747.920188222888 808.515588679408 15.961275509913
   endloop
endfacet
facet normal -0.707106781186553 0.707106781186542 -2.11367660805003e-015
   outer loop
      vertex 747.920188222888 808.515588679408 15.961275509913
      vertex 747.135273184134 807.730673640654 21.5340775642225
      vertex 748.914145123616 809.509545580136 20.8368946699741
   endloop
endfacet
facet normal -0.707106781186553 0.707106781186542 -2.11367660805003e-015
   outer loop
      vertex 747.920188222888 808.515588679408 15.961275509913
      vertex 748.914145123616 809.509545580136 20.8368946699741
      vertex 748.652421269921 809.247821726441 15.1666823969235
   endloop
endfacet
facet normal -0.707106781186553 0.707106781186542 -2.11367660805003e-015
   outer loop
      vertex 748.652421269921 809.247821726441 15.1666823969235
      vertex 748.914145123616 809.509545580136 20.8368946699741
      vertex 748.942992390107 809.538392846627 14.6311484909908
   endloop
endfacet
facet normal -0.707106781186553 0.707106781186542 -2.11367660805003e-015
   outer loop
      vertex 748.942992390107 809.538392846627 14.6311484909908
      vertex 748.914145123616 809.509545580136 20.8368946699741
      vertex 750.504810146434 811.100210602954 19.5123553868429
   endloop
endfacet
facet normal -0.707106781186553 0.707106781186542 -2.11367660805003e-015
   outer loop
      vertex 748.942992390107 809.538392846627 14.6311484909908
      vertex 750.504810146434 811.100210602954 19.5123553868429
      vertex 749.2142834484 809.80968390492 14.1311484909908
   endloop
endfacet
facet normal -0.707106781186553 0.707106781186542 -2.11367660805003e-015
   outer loop
      vertex 749.2142834484 809.80968390492 14.1311484909908
      vertex 750.504810146434 811.100210602954 19.5123553868429
      vertex 749.567484779383 810.162885235903 12.9252437165034
   endloop
endfacet
facet normal -0.707106781186553 0.707106781186542 -2.11367660805003e-015
   outer loop
      vertex 749.567484779383 810.162885235903 12.9252437165034
      vertex 750.504810146434 811.100210602954 19.5123553868429
      vertex 749.687955175854 810.283355632374 11.6311484909908
   endloop
endfacet
facet normal -0.707106781186553 0.707106781186542 -2.11367660805003e-015
   outer loop
      vertex 749.687955175854 810.283355632374 11.6311484909908
      vertex 750.504810146434 811.100210602954 19.5123553868429
      vertex 750.408904553095 811.004305009615 3.64586827548644
   endloop
endfacet
facet normal -0.707106781186553 0.707106781186542 -2.11367660805003e-015
   outer loop
      vertex 750.408904553095 811.004305009615 3.64586827548644
      vertex 750.504810146434 811.100210602954 19.5123553868429
      vertex 751.725276109912 812.320676566433 5.4759411131054
   endloop
endfacet
facet normal -0.707106781186553 0.707106781186542 -2.11367660805003e-015
   outer loop
      vertex 751.725276109912 812.320676566433 5.4759411131054
      vertex 750.504810146434 811.100210602954 19.5123553868429
      vertex 751.798867059979 812.394267516499 17.6507248780695
   endloop
endfacet
facet normal -0.707106781186553 0.707106781186542 -2.11367660805003e-015
   outer loop
      vertex 751.725276109912 812.320676566433 5.4759411131054
      vertex 751.798867059979 812.394267516499 17.6507248780695
      vertex 752.661866818963 813.257267275483 7.72548116156611
   endloop
endfacet
facet normal -0.707106781186553 0.707106781186542 -2.11367660805003e-015
   outer loop
      vertex 752.661866818963 813.257267275483 7.72548116156611
      vertex 751.798867059979 812.394267516499 17.6507248780695
      vertex 752.708128024125 813.303528480646 15.3788701863371
   endloop
endfacet
facet normal -0.707106781186553 0.707106781186542 -2.11367660805003e-015
   outer loop
      vertex 752.661866818963 813.257267275483 7.72548116156611
      vertex 752.708128024125 813.303528480646 15.3788701863371
      vertex 753.154849571213 813.750250027733 10.2411859841067
   endloop
endfacet
facet normal -0.707106781186553 0.707106781186542 -2.11367660805003e-015
   outer loop
      vertex 753.154849571213 813.750250027733 10.2411859841067
      vertex 752.708128024125 813.303528480646 15.3788701863371
      vertex 753.17062840679 813.76602886331 12.8516144544697
   endloop
endfacet
facet normal -0.707106781186553 0.707106781186542 -2.11367660805003e-015
   outer loop
      vertex 739.14941349515 799.74481395167 12.9252437165034
      vertex 736.97999844758 797.575398904099 6.92524371650341
      vertex 736.97999844758 797.575398904099 12.9252437165034
   endloop
endfacet
facet normal -0.707106781186553 0.707106781186542 -2.11367660805003e-015
   outer loop
      vertex 736.97999844758 797.575398904099 6.92524371650341
      vertex 739.14941349515 799.74481395167 12.9252437165034
      vertex 739.980206678988 800.575607135508 6.92524371650341
   endloop
endfacet
facet normal -0.707106781186553 0.707106781186542 -2.11367660805003e-015
   outer loop
      vertex 739.980206678988 800.575607135508 6.92524371650341
      vertex 739.14941349515 799.74481395167 12.9252437165034
      vertex 739.14999296863 799.74539342515 13.0211109978749
   endloop
endfacet
facet normal -0.707106781186553 0.707106781186542 -2.11367660805003e-015
   outer loop
      vertex 739.980206678988 800.575607135508 6.92524371650341
      vertex 739.14999296863 799.74539342515 13.0211109978749
      vertex 739.64297572088 800.2383761774 15.5368158204155
   endloop
endfacet
facet normal -0.707106781186553 0.707106781186542 -2.11367660805003e-015
   outer loop
      vertex 739.980206678988 800.575607135508 6.92524371650341
      vertex 739.64297572088 800.2383761774 15.5368158204155
      vertex 740.57956642993 801.17496688645 17.7863558688762
   endloop
endfacet
facet normal -0.707106781186553 0.707106781186542 -2.11367660805003e-015
   outer loop
      vertex 739.980206678988 800.575607135508 6.92524371650341
      vertex 740.57956642993 801.17496688645 17.7863558688762
      vertex 740.505975479863 801.101375936384 5.61157210391209
   endloop
endfacet
facet normal -0.707106781186553 0.707106781186542 -2.11367660805003e-015
   outer loop
      vertex 740.505975479863 801.101375936384 5.61157210391209
      vertex 740.57956642993 801.17496688645 17.7863558688762
      vertex 741.800032393409 802.395432849929 3.74994159513874
   endloop
endfacet
facet normal -0.707106781186553 0.707106781186542 -2.11367660805003e-015
   outer loop
      vertex 741.800032393409 802.395432849929 3.74994159513874
      vertex 740.57956642993 801.17496688645 17.7863558688762
      vertex 741.895937986748 802.491338443268 19.6164287064952
   endloop
endfacet
facet normal -0.707106781186553 0.707106781186542 -2.11367660805003e-015
   outer loop
      vertex 741.800032393409 802.395432849929 3.74994159513874
      vertex 741.895937986748 802.491338443268 19.6164287064952
      vertex 743.390697416226 803.986097872747 2.42540231200751
   endloop
endfacet
facet normal -0.707106781186553 0.707106781186542 -2.11367660805003e-015
   outer loop
      vertex 743.390697416226 803.986097872747 2.42540231200751
      vertex 741.895937986748 802.491338443268 19.6164287064952
      vertex 742.616887363989 803.212287820509 11.6311484909908
   endloop
endfacet
facet normal -0.707106781186553 0.707106781186542 -2.11367660805003e-015
   outer loop
      vertex 743.390697416226 803.986097872747 2.42540231200751
      vertex 742.616887363989 803.212287820509 11.6311484909908
      vertex 742.73735776046 803.33275821698 10.3370532654782
   endloop
endfacet
facet normal -0.707106781186553 0.707106781186542 -2.11367660805003e-015
   outer loop
      vertex 743.390697416226 803.986097872747 2.42540231200751
      vertex 742.73735776046 803.33275821698 10.3370532654782
      vertex 743.090559091442 803.685959547963 9.1311484909908
   endloop
endfacet
facet normal -0.707106781186553 0.707106781186542 -2.11367660805003e-015
   outer loop
      vertex 743.390697416226 803.986097872747 2.42540231200751
      vertex 743.090559091442 803.685959547963 9.1311484909908
      vertex 743.361850149736 803.957250606256 8.6311484909908
   endloop
endfacet
facet normal -0.707106781186553 0.707106781186542 -2.11367660805003e-015
   outer loop
      vertex 743.390697416226 803.986097872747 2.42540231200751
      vertex 743.361850149736 803.957250606256 8.6311484909908
      vertex 743.652421269921 804.247821726442 8.09561458505807
   endloop
endfacet
facet normal -0.707106781186553 0.707106781186542 -2.11367660805003e-015
   outer loop
      vertex 743.390697416226 803.986097872747 2.42540231200751
      vertex 743.652421269921 804.247821726442 8.09561458505807
      vertex 745.169569355709 805.764969812229 1.72821941775912
   endloop
endfacet
facet normal -0.707106781186553 0.707106781186542 -2.11367660805003e-015
   outer loop
      vertex 745.169569355709 805.764969812229 1.72821941775912
      vertex 743.652421269921 804.247821726442 8.09561458505807
      vertex 744.384654316955 804.980054773475 7.30102147206861
   endloop
endfacet
facet normal -0.707106781186553 0.707106781186542 -2.11367660805003e-015
   outer loop
      vertex 745.169569355709 805.764969812229 1.72821941775912
      vertex 744.384654316955 804.980054773475 7.30102147206861
      vertex 745.23735776046 805.83275821698 6.80151935954546
   endloop
endfacet
facet normal -0.707106781186553 0.707106781186542 -2.11367660805003e-015
   outer loop
      vertex 745.169569355709 805.764969812229 1.72821941775912
      vertex 745.23735776046 805.83275821698 6.80151935954546
      vertex 747.015421028905 807.610821485425 1.70590477448739
   endloop
endfacet
facet normal -0.707106781186553 0.707106781186542 -2.11367660805003e-015
   outer loop
      vertex 747.015421028905 807.610821485425 1.70590477448739
      vertex 745.23735776046 805.83275821698 6.80151935954546
      vertex 746.152421269921 806.747821726442 6.6311484909908
   endloop
endfacet
facet normal -0.707106781186553 0.707106781186542 -2.11367660805003e-015
   outer loop
      vertex 747.015421028905 807.610821485425 1.70590477448739
      vertex 746.152421269921 806.747821726442 6.6311484909908
      vertex 747.067484779382 807.662885235903 6.80151935954546
   endloop
endfacet
facet normal -0.707106781186553 0.707106781186542 -2.11367660805003e-015
   outer loop
      vertex 747.015421028905 807.610821485425 1.70590477448739
      vertex 747.067484779382 807.662885235903 6.80151935954546
      vertex 748.802460694701 809.397861151221 2.35997908825461
   endloop
endfacet
facet normal -0.707106781186553 0.707106781186542 -2.11367660805003e-015
   outer loop
      vertex 748.802460694701 809.397861151221 2.35997908825461
      vertex 747.067484779382 807.662885235903 6.80151935954546
      vertex 747.920188222888 808.515588679408 7.30102147206861
   endloop
endfacet
facet normal -0.707106781186553 0.707106781186542 -2.11367660805003e-015
   outer loop
      vertex 748.802460694701 809.397861151221 2.35997908825461
      vertex 747.920188222888 808.515588679408 7.30102147206861
      vertex 748.652421269921 809.247821726441 8.09561458505806
   endloop
endfacet
facet normal -0.707106781186553 0.707106781186542 -2.11367660805003e-015
   outer loop
      vertex 748.802460694701 809.397861151221 2.35997908825461
      vertex 748.652421269921 809.247821726441 8.09561458505806
      vertex 748.942992390107 809.538392846627 8.6311484909908
   endloop
endfacet
facet normal -0.707106781186553 0.707106781186542 -2.11367660805003e-015
   outer loop
      vertex 748.802460694701 809.397861151221 2.35997908825461
      vertex 748.942992390107 809.538392846627 8.6311484909908
      vertex 750.408904553095 811.004305009615 3.64586827548644
   endloop
endfacet
facet normal -0.707106781186553 0.707106781186542 -2.11367660805003e-015
   outer loop
      vertex 750.408904553095 811.004305009615 3.64586827548644
      vertex 748.942992390107 809.538392846627 8.6311484909908
      vertex 749.2142834484 809.80968390492 9.1311484909908
   endloop
endfacet
facet normal -0.707106781186553 0.707106781186542 -2.11367660805003e-015
   outer loop
      vertex 750.408904553095 811.004305009615 3.64586827548644
      vertex 749.2142834484 809.80968390492 9.1311484909908
      vertex 749.567484779383 810.162885235903 10.3370532654782
   endloop
endfacet
facet normal -0.707106781186553 0.707106781186542 -2.11367660805003e-015
   outer loop
      vertex 750.408904553095 811.004305009615 3.64586827548644
      vertex 749.567484779383 810.162885235903 10.3370532654782
      vertex 749.687955175854 810.283355632374 11.6311484909908
   endloop
endfacet
facet normal 0.270598050073086 0.270598050073086 0.923879532511294
   outer loop
      vertex 748.627295004074 800.737414086356 7.30102147206861
      vertex 745.23735776046 805.83275821698 6.80151935954546
      vertex 744.384654316955 804.980054773475 7.30102147206861
   endloop
endfacet
facet normal 0.270598050073086 0.270598050073086 0.923879532511294
   outer loop
      vertex 745.23735776046 805.83275821698 6.80151935954546
      vertex 748.627295004074 800.737414086356 7.30102147206861
      vertex 749.47999844758 801.590117529861 6.80151935954546
   endloop
endfacet
facet normal -0.0922959556412595 -0.0922959556412595 0.99144486137381
   outer loop
      vertex 750.395061957041 802.505181039322 6.6311484909908
      vertex 747.067484779382 807.662885235903 6.80151935954546
      vertex 746.152421269921 806.747821726442 6.6311484909908
   endloop
endfacet
facet normal -0.0922959556412595 -0.0922959556412595 0.99144486137381
   outer loop
      vertex 747.067484779382 807.662885235903 6.80151935954546
      vertex 750.395061957041 802.505181039322 6.6311484909908
      vertex 751.310125466502 803.420244548783 6.80151935954546
   endloop
endfacet
facet normal 0.0922959556412595 0.0922959556412595 0.99144486137381
   outer loop
      vertex 749.47999844758 801.590117529861 6.80151935954546
      vertex 746.152421269921 806.747821726442 6.6311484909908
      vertex 745.23735776046 805.83275821698 6.80151935954546
   endloop
endfacet
facet normal 0.0922959556412595 0.0922959556412595 0.99144486137381
   outer loop
      vertex 746.152421269921 806.747821726442 6.6311484909908
      vertex 749.47999844758 801.590117529861 6.80151935954546
      vertex 750.395061957041 802.505181039322 6.6311484909908
   endloop
endfacet
facet normal -0.0 -0.0 1.0
   outer loop
      vertex 736.97999844758 729.090117529861 12.9252437165034
      vertex 739.37999844758 734.090117529861 12.9252437165034
      vertex 736.97999844758 797.575398904099 12.9252437165034
   endloop
endfacet
facet normal -0.0 -0.0 1.0
   outer loop
      vertex 739.37999844758 734.090117529861 12.9252437165034
      vertex 736.97999844758 729.090117529861 12.9252437165034
      vertex 739.468591299228 733.417188012595 12.9252437165034
   endloop
endfacet
facet normal -0.0 -0.0 1.0
   outer loop
      vertex 739.468591299228 733.417188012595 12.9252437165034
      vertex 736.97999844758 729.090117529861 12.9252437165034
      vertex 739.72833239774 732.790117529861 12.9252437165034
   endloop
endfacet
facet normal -0.0 -0.0 1.0
   outer loop
      vertex 739.72833239774 732.790117529861 12.9252437165034
      vertex 736.97999844758 729.090117529861 12.9252437165034
      vertex 740.141520816495 732.251639898776 12.9252437165034
   endloop
endfacet
facet normal -0.0 -0.0 1.0
   outer loop
      vertex 740.141520816495 732.251639898776 12.9252437165034
      vertex 736.97999844758 729.090117529861 12.9252437165034
      vertex 740.679998447579 731.838451480021 12.9252437165034
   endloop
endfacet
facet normal -0.0 -0.0 1.0
   outer loop
      vertex 740.679998447579 731.838451480021 12.9252437165034
      vertex 736.97999844758 729.090117529861 12.9252437165034
      vertex 746.97999844758 729.090117529861 12.9252437165034
   endloop
endfacet
facet normal -0.0 -0.0 1.0
   outer loop
      vertex 736.97999844758 797.575398904099 12.9252437165034
      vertex 739.37999844758 734.090117529861 12.9252437165034
      vertex 739.14941349515 799.74481395167 12.9252437165034
   endloop
endfacet
facet normal -0.0 -0.0 1.0
   outer loop
      vertex 740.679998447579 731.838451480021 12.9252437165034
      vertex 746.97999844758 729.090117529861 12.9252437165034
      vertex 741.307068930313 731.57871038151 12.9252437165034
   endloop
endfacet
facet normal -0.0 -0.0 1.0
   outer loop
      vertex 741.307068930313 731.57871038151 12.9252437165034
      vertex 746.97999844758 729.090117529861 12.9252437165034
      vertex 741.97999844758 731.490117529861 12.9252437165034
   endloop
endfacet
facet normal -0.0 -0.0 1.0
   outer loop
      vertex 741.97999844758 731.490117529861 12.9252437165034
      vertex 746.97999844758 729.090117529861 12.9252437165034
      vertex 742.652927964846 731.57871038151 12.9252437165034
   endloop
endfacet
facet normal -0.0 -0.0 1.0
   outer loop
      vertex 742.652927964846 731.57871038151 12.9252437165034
      vertex 746.97999844758 729.090117529861 12.9252437165034
      vertex 743.279998447579 731.838451480021 12.9252437165034
   endloop
endfacet
facet normal -0.0 -0.0 1.0
   outer loop
      vertex 743.279998447579 731.838451480021 12.9252437165034
      vertex 746.97999844758 729.090117529861 12.9252437165034
      vertex 743.818476078665 732.251639898776 12.9252437165034
   endloop
endfacet
facet normal -0.0 -0.0 1.0
   outer loop
      vertex 743.818476078665 732.251639898776 12.9252437165034
      vertex 746.97999844758 729.090117529861 12.9252437165034
      vertex 744.231664497419 732.790117529861 12.9252437165034
   endloop
endfacet
facet normal -0.0 -0.0 1.0
   outer loop
      vertex 744.231664497419 732.790117529861 12.9252437165034
      vertex 746.97999844758 729.090117529861 12.9252437165034
      vertex 744.491405595931 733.417188012595 12.9252437165034
   endloop
endfacet
facet normal -0.0 -0.0 1.0
   outer loop
      vertex 744.491405595931 733.417188012595 12.9252437165034
      vertex 746.97999844758 729.090117529861 12.9252437165034
      vertex 744.57999844758 734.090117529861 12.9252437165034
   endloop
endfacet
facet normal -0.0 -0.0 1.0
   outer loop
      vertex 739.37999844758 734.090117529861 12.9252437165034
      vertex 743.392054182269 795.502173264551 12.9252437165034
      vertex 739.14941349515 799.74481395167 12.9252437165034
   endloop
endfacet
facet normal -0.0 -0.0 1.0
   outer loop
      vertex 743.392054182269 795.502173264551 12.9252437165034
      vertex 739.37999844758 734.090117529861 12.9252437165034
      vertex 739.468591299228 734.763047047128 12.9252437165034
   endloop
endfacet
facet normal -0.0 -0.0 1.0
   outer loop
      vertex 743.392054182269 795.502173264551 12.9252437165034
      vertex 739.468591299228 734.763047047128 12.9252437165034
      vertex 739.72833239774 735.390117529861 12.9252437165034
   endloop
endfacet
facet normal -0.0 -0.0 1.0
   outer loop
      vertex 743.392054182269 795.502173264551 12.9252437165034
      vertex 739.72833239774 735.390117529861 12.9252437165034
      vertex 740.141520816495 735.928595160946 12.9252437165034
   endloop
endfacet
facet normal -0.0 -0.0 1.0
   outer loop
      vertex 743.392054182269 795.502173264551 12.9252437165034
      vertex 740.141520816495 735.928595160946 12.9252437165034
      vertex 740.67999844758 736.341783579701 12.9252437165034
   endloop
endfacet
facet normal -0.0 -0.0 1.0
   outer loop
      vertex 743.392054182269 795.502173264551 12.9252437165034
      vertex 740.67999844758 736.341783579701 12.9252437165034
      vertex 741.307068930313 736.601524678213 12.9252437165034
   endloop
endfacet
facet normal -0.0 -0.0 1.0
   outer loop
      vertex 743.392054182269 795.502173264551 12.9252437165034
      vertex 741.307068930313 736.601524678213 12.9252437165034
      vertex 741.97999844758 736.690117529861 12.9252437165034
   endloop
endfacet
facet normal -0.0 -0.0 1.0
   outer loop
      vertex 743.392054182269 795.502173264551 12.9252437165034
      vertex 741.97999844758 736.690117529861 12.9252437165034
      vertex 742.652927964846 736.601524678213 12.9252437165034
   endloop
endfacet
facet normal -0.0 -0.0 1.0
   outer loop
      vertex 743.392054182269 795.502173264551 12.9252437165034
      vertex 742.652927964846 736.601524678213 12.9252437165034
      vertex 743.27999844758 736.341783579701 12.9252437165034
   endloop
endfacet
facet normal -0.0 -0.0 1.0
   outer loop
      vertex 743.392054182269 795.502173264551 12.9252437165034
      vertex 743.27999844758 736.341783579701 12.9252437165034
      vertex 743.818476078665 735.928595160946 12.9252437165034
   endloop
endfacet
facet normal -0.0 -0.0 1.0
   outer loop
      vertex 743.392054182269 795.502173264551 12.9252437165034
      vertex 743.818476078665 735.928595160946 12.9252437165034
      vertex 746.97999844758 799.090117529861 12.9252437165034
   endloop
endfacet
facet normal -0.0 -0.0 1.0
   outer loop
      vertex 746.97999844758 799.090117529861 12.9252437165034
      vertex 743.818476078665 735.928595160946 12.9252437165034
      vertex 744.231664497419 735.390117529861 12.9252437165034
   endloop
endfacet
facet normal -0.0 -0.0 1.0
   outer loop
      vertex 746.97999844758 799.090117529861 12.9252437165034
      vertex 744.231664497419 735.390117529861 12.9252437165034
      vertex 744.491405595931 734.763047047128 12.9252437165034
   endloop
endfacet
facet normal -0.0 -0.0 1.0
   outer loop
      vertex 746.97999844758 799.090117529861 12.9252437165034
      vertex 744.491405595931 734.763047047128 12.9252437165034
      vertex 744.57999844758 734.090117529861 12.9252437165034
   endloop
endfacet
facet normal -0.0 -0.0 1.0
   outer loop
      vertex 746.97999844758 799.090117529861 12.9252437165034
      vertex 744.57999844758 734.090117529861 12.9252437165034
      vertex 746.97999844758 729.090117529861 12.9252437165034
   endloop
endfacet
facet normal 0.4304593345769 0.4304593345769 -0.793353340291213
   outer loop
      vertex 744.384654316955 804.980054773475 15.961275509913
      vertex 747.895061957041 800.005181039322 15.1666823969235
      vertex 743.652421269921 804.247821726442 15.1666823969235
   endloop
endfacet
facet normal 0.4304593345769 0.4304593345769 -0.793353340291213
   outer loop
      vertex 747.895061957041 800.005181039322 15.1666823969235
      vertex 744.384654316955 804.980054773475 15.961275509913
      vertex 748.627295004074 800.737414086356 15.961275509913
   endloop
endfacet
facet normal -0.609327904140344 -0.609327904140344 0.507384479928064
   outer loop
      vertex 744.822207117049 796.932326199331 17.7863558688762
      vertex 739.64297572088 800.2383761774 15.5368158204155
      vertex 743.885616407999 795.995735490281 15.5368158204155
   endloop
endfacet
facet normal -0.609327904140344 -0.609327904140344 0.507384479928064
   outer loop
      vertex 739.64297572088 800.2383761774 15.5368158204155
      vertex 744.822207117049 796.932326199331 17.7863558688762
      vertex 740.57956642993 801.17496688645 17.7863558688762
   endloop
endfacet
facet normal -0.00604431773762087 -0.00604431773762087 -0.999963465555704
   outer loop
      vertex 747.015421028905 807.610821485425 1.70590477448739
      vertex 749.412210042828 801.522329125109 1.72821941775912
      vertex 745.169569355709 805.764969812229 1.72821941775912
   endloop
endfacet
facet normal -0.00604431773762087 -0.00604431773762087 -0.999963465555704
   outer loop
      vertex 749.412210042828 801.522329125109 1.72821941775912
      vertex 747.015421028905 807.610821485425 1.70590477448739
      vertex 751.258061716024 803.368180798306 1.70590477448739
   endloop
endfacet
facet normal 0.4304593345769 0.4304593345769 0.793353340291213
   outer loop
      vertex 747.895061957041 800.005181039322 8.09561458505807
      vertex 744.384654316955 804.980054773475 7.30102147206861
      vertex 743.652421269921 804.247821726442 8.09561458505807
   endloop
endfacet
facet normal 0.4304593345769 0.4304593345769 0.793353340291213
   outer loop
      vertex 744.384654316955 804.980054773475 7.30102147206861
      vertex 747.895061957041 800.005181039322 8.09561458505807
      vertex 748.627295004074 800.737414086356 7.30102147206861
   endloop
endfacet
facet normal 0.0922959556412595 0.0922959556412595 -0.99144486137381
   outer loop
      vertex 746.152421269921 806.747821726442 16.6311484909908
      vertex 749.47999844758 801.590117529861 16.4607776224361
      vertex 745.23735776046 805.83275821698 16.4607776224361
   endloop
endfacet
facet normal 0.0922959556412595 0.0922959556412595 -0.99144486137381
   outer loop
      vertex 749.47999844758 801.590117529861 16.4607776224361
      vertex 746.152421269921 806.747821726442 16.6311484909908
      vertex 750.395061957041 802.505181039322 16.6311484909908
   endloop
endfacet
endsolid 12PegCase
