solid pegasys2
facet normal 0.0 0.0 1.0
   outer loop
      vertex 3593.12413825319 -1398.0726918972 100.0
      vertex 3592.02413825319 -1395.9726918972 100.0
      vertex 3592.02413825319 -1398.0726918972 100.0
   endloop
endfacet
facet normal 0.0 0.0 1.0
   outer loop
      vertex 3579.96487996781 -1395.86088226427 100.0
      vertex 3579.96488000637 -1390.6845013862 100.0
      vertex 3579.62413825319 -1393.2726918227 100.0
   endloop
endfacet
facet normal 0.0 0.0 1.0
   outer loop
      vertex 3579.96488000637 -1390.6845013862 100.0
      vertex 3579.96487996781 -1395.86088226427 100.0
      vertex 3580.96388416568 -1398.27269181117 100.0
   endloop
endfacet
facet normal 0.0 0.0 1.0
   outer loop
      vertex 3579.96488000637 -1390.6845013862 100.0
      vertex 3580.96388416568 -1398.27269181117 100.0
      vertex 3580.43099190213 -1393.2726918972 100.0
   endloop
endfacet
facet normal 0.0 0.0 1.0
   outer loop
      vertex 3580.43099190213 -1393.2726918972 100.0
      vertex 3580.96388416568 -1398.27269181117 100.0
      vertex 3580.66682011597 -1395.34161736172 100.0
   endloop
endfacet
facet normal 0.0 0.0 1.0
   outer loop
      vertex 3580.66682011597 -1395.34161736172 100.0
      vertex 3580.96388416568 -1398.27269181117 100.0
      vertex 3581.36220570839 -1397.3043976352 100.0
   endloop
endfacet
facet normal 0.0 0.0 1.0
   outer loop
      vertex 3581.36220570839 -1397.3043976352 100.0
      vertex 3580.96388416568 -1398.27269181117 100.0
      vertex 3582.5530703623 -1400.34375963004 100.0
   endloop
endfacet
facet normal 0.0 0.0 1.0
   outer loop
      vertex 3581.36220570839 -1397.3043976352 100.0
      vertex 3582.5530703623 -1400.34375963004 100.0
      vertex 3582.48147226773 -1399.06033325284 100.0
   endloop
endfacet
facet normal 0.0 0.0 1.0
   outer loop
      vertex 3582.48147226773 -1399.06033325284 100.0
      vertex 3582.5530703623 -1400.34375963004 100.0
      vertex 3583.96719638037 -1400.51933681188 100.0
   endloop
endfacet
facet normal 0.0 0.0 1.0
   outer loop
      vertex 3583.96719638037 -1400.51933681188 100.0
      vertex 3582.5530703623 -1400.34375963004 100.0
      vertex 3584.62413814565 -1401.93294587296 100.0
   endloop
endfacet
facet normal 0.0 0.0 1.0
   outer loop
      vertex 3583.96719638037 -1400.51933681188 100.0
      vertex 3584.62413814565 -1401.93294587296 100.0
      vertex 3585.74315371029 -1401.60655486104 100.0
   endloop
endfacet
facet normal 0.0 0.0 1.0
   outer loop
      vertex 3585.74315371029 -1401.60655486104 100.0
      vertex 3584.62413814565 -1401.93294587296 100.0
      vertex 3587.03594767023 -1402.93195012474 100.0
   endloop
endfacet
facet normal 0.0 0.0 1.0
   outer loop
      vertex 3585.74315371029 -1401.60655486104 100.0
      vertex 3587.03594767023 -1402.93195012474 100.0
      vertex 3587.61154626881 -1402.23057715859 100.0
   endloop
endfacet
facet normal 0.0 0.0 1.0
   outer loop
      vertex 3587.61154626881 -1402.23057715859 100.0
      vertex 3587.03594767023 -1402.93195012474 100.0
      vertex 3589.62413825319 -1403.2726918972 100.0
   endloop
endfacet
facet normal 0.0 0.0 1.0
   outer loop
      vertex 3587.61154626881 -1402.23057715859 100.0
      vertex 3589.62413825319 -1403.2726918972 100.0
      vertex 3588.52413825319 -1402.35379603776 100.0
   endloop
endfacet
facet normal 0.0 0.0 1.0
   outer loop
      vertex 3588.52413825319 -1402.35379603776 100.0
      vertex 3589.62413825319 -1403.2726918972 100.0
      vertex 3588.52413825319 -1397.26924771183 100.0
   endloop
endfacet
facet normal 0.0 0.0 1.0
   outer loop
      vertex 3588.52413825319 -1397.26924771183 100.0
      vertex 3589.62413825319 -1403.2726918972 100.0
      vertex 3589.62413825319 -1397.7726918972 100.0
   endloop
endfacet
facet normal 0.0 0.0 1.0
   outer loop
      vertex 3588.52413825319 -1397.26924771183 100.0
      vertex 3589.62413825319 -1397.7726918972 100.0
      vertex 3591.64646603855 -1394.5726918972 100.0
   endloop
endfacet
facet normal 0.0 0.0 1.0
   outer loop
      vertex 3591.64646603855 -1394.5726918972 100.0
      vertex 3589.62413825319 -1397.7726918972 100.0
      vertex 3591.70834877951 -1395.9726918972 100.0
   endloop
endfacet
facet normal 0.0 0.0 1.0
   outer loop
      vertex 3591.64646603855 -1394.5726918972 100.0
      vertex 3591.70834877951 -1395.9726918972 100.0
      vertex 3593.12413825319 -1394.5726918972 100.0
   endloop
endfacet
facet normal 0.0 0.0 1.0
   outer loop
      vertex 3593.12413825319 -1394.5726918972 100.0
      vertex 3591.70834877951 -1395.9726918972 100.0
      vertex 3592.02413825319 -1395.9726918972 100.0
   endloop
endfacet
facet normal 0.0 0.0 1.0
   outer loop
      vertex 3593.12413825319 -1394.5726918972 100.0
      vertex 3592.02413825319 -1395.9726918972 100.0
      vertex 3593.12413825319 -1398.0726918972 100.0
   endloop
endfacet
facet normal 0.0 0.0 1.0
   outer loop
      vertex 3588.52413825319 -1389.27613608258 100.0
      vertex 3589.62413825319 -1388.7726918972 100.0
      vertex 3588.52413825319 -1384.225416576 100.0
   endloop
endfacet
facet normal 0.0 0.0 1.0
   outer loop
      vertex 3589.62413825319 -1388.7726918972 100.0
      vertex 3588.52413825319 -1389.27613608258 100.0
      vertex 3591.64646603855 -1391.9726918972 100.0
   endloop
endfacet
facet normal 0.0 0.0 1.0
   outer loop
      vertex 3589.62413825319 -1388.7726918972 100.0
      vertex 3591.64646603855 -1391.9726918972 100.0
      vertex 3591.70834877951 -1390.5726918972 100.0
   endloop
endfacet
facet normal 0.0 0.0 1.0
   outer loop
      vertex 3591.70834877951 -1390.5726918972 100.0
      vertex 3591.64646603855 -1391.9726918972 100.0
      vertex 3593.12413825319 -1391.9726918972 100.0
   endloop
endfacet
facet normal 0.0 0.0 1.0
   outer loop
      vertex 3591.70834877951 -1390.5726918972 100.0
      vertex 3593.12413825319 -1391.9726918972 100.0
      vertex 3592.02413825319 -1390.5726918972 100.0
   endloop
endfacet
facet normal 0.0 0.0 1.0
   outer loop
      vertex 3592.02413825319 -1390.5726918972 100.0
      vertex 3593.12413825319 -1391.9726918972 100.0
      vertex 3592.02413825319 -1388.4726918972 100.0
   endloop
endfacet
facet normal 0.0 0.0 1.0
   outer loop
      vertex 3592.02413825319 -1388.4726918972 100.0
      vertex 3593.12413825319 -1391.9726918972 100.0
      vertex 3593.12413825319 -1388.4726918972 100.0
   endloop
endfacet
facet normal 0.0 0.0 1.0
   outer loop
      vertex 3580.43099190213 -1393.2726918972 100.0
      vertex 3580.96388424018 -1388.27269185419 100.0
      vertex 3579.96488000637 -1390.6845013862 100.0
   endloop
endfacet
facet normal 0.0 0.0 1.0
   outer loop
      vertex 3580.96388424018 -1388.27269185419 100.0
      vertex 3580.43099190213 -1393.2726918972 100.0
      vertex 3580.66682011597 -1391.20376643269 100.0
   endloop
endfacet
facet normal 0.0 0.0 1.0
   outer loop
      vertex 3580.96388424018 -1388.27269185419 100.0
      vertex 3580.66682011597 -1391.20376643269 100.0
      vertex 3581.36220570839 -1389.2409861592 100.0
   endloop
endfacet
facet normal 0.0 0.0 1.0
   outer loop
      vertex 3580.96388424018 -1388.27269185419 100.0
      vertex 3581.36220570839 -1389.2409861592 100.0
      vertex 3582.55307046767 -1386.20162405899 100.0
   endloop
endfacet
facet normal 0.0 0.0 1.0
   outer loop
      vertex 3582.55307046767 -1386.20162405899 100.0
      vertex 3581.36220570839 -1389.2409861592 100.0
      vertex 3582.48147226773 -1387.48505054156 100.0
   endloop
endfacet
facet normal 0.0 0.0 1.0
   outer loop
      vertex 3582.55307046767 -1386.20162405899 100.0
      vertex 3582.48147226773 -1387.48505054156 100.0
      vertex 3583.96719638037 -1386.02604698252 100.0
   endloop
endfacet
facet normal 0.0 0.0 1.0
   outer loop
      vertex 3582.55307046767 -1386.20162405899 100.0
      vertex 3583.96719638037 -1386.02604698252 100.0
      vertex 3584.6241382747 -1384.61243784694 100.0
   endloop
endfacet
facet normal 0.0 0.0 1.0
   outer loop
      vertex 3584.6241382747 -1384.61243784694 100.0
      vertex 3583.96719638037 -1386.02604698252 100.0
      vertex 3585.74315371029 -1384.93882893336 100.0
   endloop
endfacet
facet normal 0.0 0.0 1.0
   outer loop
      vertex 3584.6241382747 -1384.61243784694 100.0
      vertex 3585.74315371029 -1384.93882893336 100.0
      vertex 3587.03594781416 -1383.6134336311 100.0
   endloop
endfacet
facet normal 0.0 0.0 1.0
   outer loop
      vertex 3587.03594781416 -1383.6134336311 100.0
      vertex 3585.74315371029 -1384.93882893336 100.0
      vertex 3587.61154626881 -1384.31480663581 100.0
   endloop
endfacet
facet normal 0.0 0.0 1.0
   outer loop
      vertex 3587.03594781416 -1383.6134336311 100.0
      vertex 3587.61154626881 -1384.31480663581 100.0
      vertex 3589.62413825319 -1383.2726918972 100.0
   endloop
endfacet
facet normal 0.0 0.0 1.0
   outer loop
      vertex 3589.62413825319 -1383.2726918972 100.0
      vertex 3587.61154626881 -1384.31480663581 100.0
      vertex 3588.52413825319 -1384.225416576 100.0
   endloop
endfacet
facet normal 0.0 0.0 1.0
   outer loop
      vertex 3589.62413825319 -1383.2726918972 100.0
      vertex 3588.52413825319 -1384.225416576 100.0
      vertex 3589.62413825319 -1388.7726918972 100.0
   endloop
endfacet
facet normal -0.60876143836768 -0.793353333109853 -0.0
   outer loop
      vertex 3584.62413814565 -1401.93294587296 100.0
      vertex 3582.5530703623 -1400.34375963004 -1.40998324127395e-015
      vertex 3584.62413814565 -1401.93294587296 -1.40998324127395e-015
   endloop
endfacet
facet normal -0.60876143836768 -0.793353333109853 -0.0
   outer loop
      vertex 3582.5530703623 -1400.34375963004 -1.40998324127395e-015
      vertex 3584.62413814565 -1401.93294587296 100.0
      vertex 3582.5530703623 -1400.34375963004 100.0
   endloop
endfacet
facet normal -0.0 -1.0 -0.0
   outer loop
      vertex 3593.12413825319 -1391.9726918972 100.0
      vertex 3591.64646603855 -1391.9726918972 -1.40998324127395e-015
      vertex 3593.12413825319 -1391.9726918972 -1.40998324127395e-015
   endloop
endfacet
facet normal -0.0 -1.0 -0.0
   outer loop
      vertex 3591.64646603855 -1391.9726918972 -1.40998324127395e-015
      vertex 3593.12413825319 -1391.9726918972 100.0
      vertex 3591.64646603855 -1391.9726918972 100.0
   endloop
endfacet
facet normal -0.65361987034601 -0.756823007769231 -0.0
   outer loop
      vertex 3591.64646603855 -1391.9726918972 100.0
      vertex 3588.52413825319 -1389.27613608258 -1.40998324127395e-015
      vertex 3591.64646603855 -1391.9726918972 -1.40998324127395e-015
   endloop
endfacet
facet normal -0.65361987034601 -0.756823007769231 -0.0
   outer loop
      vertex 3588.52413825319 -1389.27613608258 -1.40998324127395e-015
      vertex 3591.64646603855 -1391.9726918972 100.0
      vertex 3588.52413825319 -1389.27613608258 100.0
   endloop
endfacet
facet normal -0.991444862427357 -0.13052618421757 -0.0
   outer loop
      vertex 3579.62413825319 -1393.2726918227 100.0
      vertex 3579.96487996781 -1395.86088226427 -1.40998324127395e-015
      vertex 3579.96487996781 -1395.86088226427 100.0
   endloop
endfacet
facet normal -0.991444862427357 -0.13052618421757 -0.0
   outer loop
      vertex 3579.96487996781 -1395.86088226427 -1.40998324127395e-015
      vertex 3579.62413825319 -1393.2726918227 100.0
      vertex 3579.62413825319 -1393.2726918227 -1.40998324127395e-015
   endloop
endfacet
facet normal -1.0 0.0 -0.0
   outer loop
      vertex 3588.52413825319 -1384.225416576 100.0
      vertex 3588.52413825319 -1389.27613608258 -1.40998324127395e-015
      vertex 3588.52413825319 -1389.27613608258 100.0
   endloop
endfacet
facet normal -1.0 0.0 -0.0
   outer loop
      vertex 3588.52413825319 -1389.27613608258 -1.40998324127395e-015
      vertex 3588.52413825319 -1384.225416576 100.0
      vertex 3588.52413825319 -1384.225416576 -1.40998324127395e-015
   endloop
endfacet
facet normal 0.0974852874600098 -0.995236966118542 -0.0
   outer loop
      vertex 3588.52413825319 -1384.225416576 100.0
      vertex 3587.61154626881 -1384.31480663581 -1.40998324127395e-015
      vertex 3588.52413825319 -1384.225416576 -1.40998324127395e-015
   endloop
endfacet
facet normal 0.0974852874600098 -0.995236966118542 -0.0
   outer loop
      vertex 3587.61154626881 -1384.31480663581 -1.40998324127395e-015
      vertex 3588.52413825319 -1384.225416576 100.0
      vertex 3587.61154626881 -1384.31480663581 100.0
   endloop
endfacet
facet normal 0.522117963331078 -0.852873280368782 -0.0
   outer loop
      vertex 3585.74315371029 -1384.93882893336 100.0
      vertex 3583.96719638037 -1386.02604698252 -1.40998324127395e-015
      vertex 3585.74315371029 -1384.93882893336 -1.40998324127395e-015
   endloop
endfacet
facet normal 0.522117963331078 -0.852873280368782 -0.0
   outer loop
      vertex 3583.96719638037 -1386.02604698252 -1.40998324127395e-015
      vertex 3585.74315371029 -1384.93882893336 100.0
      vertex 3583.96719638037 -1386.02604698252 100.0
   endloop
endfacet
facet normal 0.843258193815439 -0.537508714871789 -0.0
   outer loop
      vertex 3582.48147226773 -1387.48505054156 -1.40998324127395e-015
      vertex 3581.36220570839 -1389.2409861592 100.0
      vertex 3581.36220570839 -1389.2409861592 -1.40998324127395e-015
   endloop
endfacet
facet normal 0.843258193815439 -0.537508714871789 -0.0
   outer loop
      vertex 3581.36220570839 -1389.2409861592 100.0
      vertex 3582.48147226773 -1387.48505054156 -1.40998324127395e-015
      vertex 3582.48147226773 -1387.48505054156 100.0
   endloop
endfacet
facet normal -0.382683444411107 -0.923879527521663 -0.0
   outer loop
      vertex 3587.03594767023 -1402.93195012474 100.0
      vertex 3584.62413814565 -1401.93294587296 -1.40998324127395e-015
      vertex 3587.03594767023 -1402.93195012474 -1.40998324127395e-015
   endloop
endfacet
facet normal -0.382683444411107 -0.923879527521663 -0.0
   outer loop
      vertex 3584.62413814565 -1401.93294587296 -1.40998324127395e-015
      vertex 3587.03594767023 -1402.93195012474 100.0
      vertex 3584.62413814565 -1401.93294587296 100.0
   endloop
endfacet
facet normal -0.0 1.0 -0.0
   outer loop
      vertex 3591.70834877951 -1390.5726918972 100.0
      vertex 3592.02413825319 -1390.5726918972 -1.40998324127395e-015
      vertex 3591.70834877951 -1390.5726918972 -1.40998324127395e-015
   endloop
endfacet
facet normal -0.0 1.0 -0.0
   outer loop
      vertex 3592.02413825319 -1390.5726918972 -1.40998324127395e-015
      vertex 3591.70834877951 -1390.5726918972 100.0
      vertex 3592.02413825319 -1390.5726918972 100.0
   endloop
endfacet
facet normal -0.793353337645408 0.60876143245683 -0.0
   outer loop
      vertex 3582.55307046767 -1386.20162405899 100.0
      vertex 3580.96388424018 -1388.27269185419 -1.40998324127395e-015
      vertex 3580.96388424018 -1388.27269185419 100.0
   endloop
endfacet
facet normal -0.793353337645408 0.60876143245683 -0.0
   outer loop
      vertex 3580.96388424018 -1388.27269185419 -1.40998324127395e-015
      vertex 3582.55307046767 -1386.20162405899 100.0
      vertex 3582.55307046767 -1386.20162405899 -1.40998324127395e-015
   endloop
endfacet
facet normal -0.0 1.0 -0.0
   outer loop
      vertex 3592.02413825319 -1388.4726918972 100.0
      vertex 3593.12413825319 -1388.4726918972 -1.40998324127395e-015
      vertex 3592.02413825319 -1388.4726918972 -1.40998324127395e-015
   endloop
endfacet
facet normal -0.0 1.0 -0.0
   outer loop
      vertex 3593.12413825319 -1388.4726918972 -1.40998324127395e-015
      vertex 3592.02413825319 -1388.4726918972 100.0
      vertex 3593.12413825319 -1388.4726918972 100.0
   endloop
endfacet
facet normal 0.700661626549341 -0.713493717618615 -0.0
   outer loop
      vertex 3583.96719638037 -1386.02604698252 100.0
      vertex 3582.48147226773 -1387.48505054156 -1.40998324127395e-015
      vertex 3583.96719638037 -1386.02604698252 -1.40998324127395e-015
   endloop
endfacet
facet normal 0.700661626549341 -0.713493717618615 -0.0
   outer loop
      vertex 3582.48147226773 -1387.48505054156 -1.40998324127395e-015
      vertex 3583.96719638037 -1386.02604698252 100.0
      vertex 3582.48147226773 -1387.48505054156 100.0
   endloop
endfacet
facet normal 0.316787297920571 -0.948496604040406 -0.0
   outer loop
      vertex 3587.61154626881 -1384.31480663581 100.0
      vertex 3585.74315371029 -1384.93882893336 -1.40998324127395e-015
      vertex 3587.61154626881 -1384.31480663581 -1.40998324127395e-015
   endloop
endfacet
facet normal 0.316787297920571 -0.948496604040406 -0.0
   outer loop
      vertex 3585.74315371029 -1384.93882893336 -1.40998324127395e-015
      vertex 3587.61154626881 -1384.31480663581 100.0
      vertex 3585.74315371029 -1384.93882893336 100.0
   endloop
endfacet
facet normal -0.0 -1.0 -0.0
   outer loop
      vertex 3593.12413825319 -1398.0726918972 100.0
      vertex 3592.02413825319 -1398.0726918972 -1.40998324127395e-015
      vertex 3593.12413825319 -1398.0726918972 -1.40998324127395e-015
   endloop
endfacet
facet normal -0.0 -1.0 -0.0
   outer loop
      vertex 3592.02413825319 -1398.0726918972 -1.40998324127395e-015
      vertex 3593.12413825319 -1398.0726918972 100.0
      vertex 3592.02413825319 -1398.0726918972 100.0
   endloop
endfacet
facet normal -0.608761426545759 0.793353342181132 -0.0
   outer loop
      vertex 3582.55307046767 -1386.20162405899 100.0
      vertex 3584.6241382747 -1384.61243784694 -1.40998324127395e-015
      vertex 3582.55307046767 -1386.20162405899 -1.40998324127395e-015
   endloop
endfacet
facet normal -0.608761426545759 0.793353342181132 -0.0
   outer loop
      vertex 3584.6241382747 -1384.61243784694 -1.40998324127395e-015
      vertex 3582.55307046767 -1386.20162405899 100.0
      vertex 3584.6241382747 -1384.61243784694 100.0
   endloop
endfacet
facet normal 1.0 0.0 0.0
   outer loop
      vertex 3593.12413825319 -1388.4726918972 -1.40998324127395e-015
      vertex 3593.12413825319 -1391.9726918972 100.0
      vertex 3593.12413825319 -1391.9726918972 -1.40998324127395e-015
   endloop
endfacet
facet normal 1.0 0.0 0.0
   outer loop
      vertex 3593.12413825319 -1391.9726918972 100.0
      vertex 3593.12413825319 -1388.4726918972 -1.40998324127395e-015
      vertex 3593.12413825319 -1388.4726918972 100.0
   endloop
endfacet
facet normal 1.0 0.0 0.0
   outer loop
      vertex 3589.62413825319 -1397.7726918972 -1.40998324127395e-015
      vertex 3589.62413825319 -1403.2726918972 100.0
      vertex 3589.62413825319 -1403.2726918972 -1.40998324127395e-015
   endloop
endfacet
facet normal 1.0 0.0 0.0
   outer loop
      vertex 3589.62413825319 -1403.2726918972 100.0
      vertex 3589.62413825319 -1397.7726918972 -1.40998324127395e-015
      vertex 3589.62413825319 -1397.7726918972 100.0
   endloop
endfacet
facet normal 0.65361987034599 0.756823007769248 0.0
   outer loop
      vertex 3589.62413825319 -1388.7726918972 100.0
      vertex 3591.70834877951 -1390.5726918972 -1.40998324127395e-015
      vertex 3589.62413825319 -1388.7726918972 -1.40998324127395e-015
   endloop
endfacet
facet normal 0.65361987034599 0.756823007769248 0.0
   outer loop
      vertex 3591.70834877951 -1390.5726918972 -1.40998324127395e-015
      vertex 3589.62413825319 -1388.7726918972 100.0
      vertex 3591.70834877951 -1390.5726918972 100.0
   endloop
endfacet
facet normal -0.991444860482348 0.13052619899138 -0.0
   outer loop
      vertex 3579.96488000637 -1390.6845013862 100.0
      vertex 3579.62413825319 -1393.2726918227 -1.40998324127395e-015
      vertex 3579.62413825319 -1393.2726918227 100.0
   endloop
endfacet
facet normal -0.991444860482348 0.13052619899138 -0.0
   outer loop
      vertex 3579.62413825319 -1393.2726918227 -1.40998324127395e-015
      vertex 3579.96488000637 -1390.6845013862 100.0
      vertex 3579.96488000637 -1390.6845013862 -1.40998324127395e-015
   endloop
endfacet
facet normal -1.0 0.0 -0.0
   outer loop
      vertex 3592.02413825319 -1395.9726918972 100.0
      vertex 3592.02413825319 -1398.0726918972 -1.40998324127395e-015
      vertex 3592.02413825319 -1398.0726918972 100.0
   endloop
endfacet
facet normal -1.0 0.0 -0.0
   outer loop
      vertex 3592.02413825319 -1398.0726918972 -1.40998324127395e-015
      vertex 3592.02413825319 -1395.9726918972 100.0
      vertex 3592.02413825319 -1395.9726918972 -1.40998324127395e-015
   endloop
endfacet
facet normal -0.793353346716728 -0.608761420634855 -0.0
   outer loop
      vertex 3580.96388416568 -1398.27269181117 100.0
      vertex 3582.5530703623 -1400.34375963004 -1.40998324127395e-015
      vertex 3582.5530703623 -1400.34375963004 100.0
   endloop
endfacet
facet normal -0.793353346716728 -0.608761420634855 -0.0
   outer loop
      vertex 3582.5530703623 -1400.34375963004 -1.40998324127395e-015
      vertex 3580.96388416568 -1398.27269181117 100.0
      vertex 3580.96388416568 -1398.27269181117 -1.40998324127395e-015
   endloop
endfacet
facet normal -0.923879530372952 0.382683437527487 -0.0
   outer loop
      vertex 3580.96388424018 -1388.27269185419 100.0
      vertex 3579.96488000637 -1390.6845013862 -1.40998324127395e-015
      vertex 3579.96488000637 -1390.6845013862 100.0
   endloop
endfacet
facet normal -0.923879530372952 0.382683437527487 -0.0
   outer loop
      vertex 3579.96488000637 -1390.6845013862 -1.40998324127395e-015
      vertex 3580.96388424018 -1388.27269185419 100.0
      vertex 3580.96388424018 -1388.27269185419 -1.40998324127395e-015
   endloop
endfacet
facet normal -0.0 -1.0 -0.0
   outer loop
      vertex 3592.02413825319 -1395.9726918972 100.0
      vertex 3591.70834877951 -1395.9726918972 -1.40998324127395e-015
      vertex 3592.02413825319 -1395.9726918972 -1.40998324127395e-015
   endloop
endfacet
facet normal -0.0 -1.0 -0.0
   outer loop
      vertex 3591.70834877951 -1395.9726918972 -1.40998324127395e-015
      vertex 3592.02413825319 -1395.9726918972 100.0
      vertex 3591.70834877951 -1395.9726918972 100.0
   endloop
endfacet
facet normal -0.130526191604488 0.991444861454851 -0.0
   outer loop
      vertex 3587.03594781416 -1383.6134336311 100.0
      vertex 3589.62413825319 -1383.2726918972 -1.40998324127395e-015
      vertex 3587.03594781416 -1383.6134336311 -1.40998324127395e-015
   endloop
endfacet
facet normal -0.130526191604488 0.991444861454851 -0.0
   outer loop
      vertex 3589.62413825319 -1383.2726918972 -1.40998324127395e-015
      vertex 3587.03594781416 -1383.6134336311 100.0
      vertex 3589.62413825319 -1383.2726918972 100.0
   endloop
endfacet
facet normal -0.923879536075304 -0.38268342376079 -0.0
   outer loop
      vertex 3579.96487996781 -1395.86088226427 100.0
      vertex 3580.96388416568 -1398.27269181117 -1.40998324127395e-015
      vertex 3580.96388416568 -1398.27269181117 100.0
   endloop
endfacet
facet normal -0.923879536075304 -0.38268342376079 -0.0
   outer loop
      vertex 3580.96388416568 -1398.27269181117 -1.40998324127395e-015
      vertex 3579.96487996781 -1395.86088226427 100.0
      vertex 3579.96487996781 -1395.86088226427 -1.40998324127395e-015
   endloop
endfacet
facet normal -0.38268343064421 0.923879533224099 -0.0
   outer loop
      vertex 3584.6241382747 -1384.61243784694 100.0
      vertex 3587.03594781416 -1383.6134336311 -1.40998324127395e-015
      vertex 3584.6241382747 -1384.61243784694 -1.40998324127395e-015
   endloop
endfacet
facet normal -0.38268343064421 0.923879533224099 -0.0
   outer loop
      vertex 3587.03594781416 -1383.6134336311 -1.40998324127395e-015
      vertex 3584.6241382747 -1384.61243784694 100.0
      vertex 3587.03594781416 -1383.6134336311 100.0
   endloop
endfacet
facet normal -0.130526198991366 -0.99144486048235 -0.0
   outer loop
      vertex 3589.62413825319 -1403.2726918972 100.0
      vertex 3587.03594767023 -1402.93195012474 -1.40998324127395e-015
      vertex 3589.62413825319 -1403.2726918972 -1.40998324127395e-015
   endloop
endfacet
facet normal -0.130526198991366 -0.99144486048235 -0.0
   outer loop
      vertex 3587.03594767023 -1402.93195012474 -1.40998324127395e-015
      vertex 3589.62413825319 -1403.2726918972 100.0
      vertex 3587.03594767023 -1402.93195012474 100.0
   endloop
endfacet
facet normal 1.0 0.0 0.0
   outer loop
      vertex 3589.62413825319 -1383.2726918972 -1.40998324127395e-015
      vertex 3589.62413825319 -1388.7726918972 100.0
      vertex 3589.62413825319 -1388.7726918972 -1.40998324127395e-015
   endloop
endfacet
facet normal 1.0 0.0 0.0
   outer loop
      vertex 3589.62413825319 -1388.7726918972 100.0
      vertex 3589.62413825319 -1383.2726918972 -1.40998324127395e-015
      vertex 3589.62413825319 -1383.2726918972 100.0
   endloop
endfacet
facet normal -1.0 0.0 -0.0
   outer loop
      vertex 3592.02413825319 -1388.4726918972 100.0
      vertex 3592.02413825319 -1390.5726918972 -1.40998324127395e-015
      vertex 3592.02413825319 -1390.5726918972 100.0
   endloop
endfacet
facet normal -1.0 0.0 -0.0
   outer loop
      vertex 3592.02413825319 -1390.5726918972 -1.40998324127395e-015
      vertex 3592.02413825319 -1388.4726918972 100.0
      vertex 3592.02413825319 -1388.4726918972 -1.40998324127395e-015
   endloop
endfacet
facet normal 0.65361987034599 -0.756823007769248 -0.0
   outer loop
      vertex 3591.70834877951 -1395.9726918972 100.0
      vertex 3589.62413825319 -1397.7726918972 -1.40998324127395e-015
      vertex 3591.70834877951 -1395.9726918972 -1.40998324127395e-015
   endloop
endfacet
facet normal 0.65361987034599 -0.756823007769248 -0.0
   outer loop
      vertex 3589.62413825319 -1397.7726918972 -1.40998324127395e-015
      vertex 3591.70834877951 -1395.9726918972 100.0
      vertex 3589.62413825319 -1397.7726918972 100.0
   endloop
endfacet
facet normal 1.0 0.0 0.0
   outer loop
      vertex 3593.12413825319 -1394.5726918972 -1.40998324127395e-015
      vertex 3593.12413825319 -1398.0726918972 100.0
      vertex 3593.12413825319 -1398.0726918972 -1.40998324127395e-015
   endloop
endfacet
facet normal 1.0 0.0 0.0
   outer loop
      vertex 3593.12413825319 -1398.0726918972 100.0
      vertex 3593.12413825319 -1394.5726918972 -1.40998324127395e-015
      vertex 3593.12413825319 -1394.5726918972 100.0
   endloop
endfacet
facet normal -0.0 1.0 -0.0
   outer loop
      vertex 3591.64646603855 -1394.5726918972 100.0
      vertex 3593.12413825319 -1394.5726918972 -1.40998324127395e-015
      vertex 3591.64646603855 -1394.5726918972 -1.40998324127395e-015
   endloop
endfacet
facet normal -0.0 1.0 -0.0
   outer loop
      vertex 3593.12413825319 -1394.5726918972 -1.40998324127395e-015
      vertex 3591.64646603855 -1394.5726918972 100.0
      vertex 3593.12413825319 -1394.5726918972 100.0
   endloop
endfacet
facet normal -1.0 0.0 -0.0
   outer loop
      vertex 3588.52413825319 -1397.26924771183 100.0
      vertex 3588.52413825319 -1402.35379603776 -1.40998324127395e-015
      vertex 3588.52413825319 -1402.35379603776 100.0
   endloop
endfacet
facet normal -1.0 0.0 -0.0
   outer loop
      vertex 3588.52413825319 -1402.35379603776 -1.40998324127395e-015
      vertex 3588.52413825319 -1397.26924771183 100.0
      vertex 3588.52413825319 -1397.26924771183 -1.40998324127395e-015
   endloop
endfacet
facet normal 0.993566240596563 0.11325248583061 0.0
   outer loop
      vertex 3580.43099190213 -1393.2726918972 -1.40998324127395e-015
      vertex 3580.66682011597 -1395.34161736172 100.0
      vertex 3580.66682011597 -1395.34161736172 -1.40998324127395e-015
   endloop
endfacet
facet normal 0.993566240596563 0.11325248583061 0.0
   outer loop
      vertex 3580.66682011597 -1395.34161736172 100.0
      vertex 3580.43099190213 -1393.2726918972 -1.40998324127395e-015
      vertex 3580.43099190213 -1393.2726918972 100.0
   endloop
endfacet
facet normal 0.843258193815439 0.537508714871789 0.0
   outer loop
      vertex 3581.36220570839 -1397.3043976352 -1.40998324127395e-015
      vertex 3582.48147226773 -1399.06033325284 100.0
      vertex 3582.48147226773 -1399.06033325284 -1.40998324127395e-015
   endloop
endfacet
facet normal 0.843258193815439 0.537508714871789 0.0
   outer loop
      vertex 3582.48147226773 -1399.06033325284 100.0
      vertex 3581.36220570839 -1397.3043976352 -1.40998324127395e-015
      vertex 3581.36220570839 -1397.3043976352 100.0
   endloop
endfacet
facet normal 0.522117963331078 0.852873280368782 0.0
   outer loop
      vertex 3583.96719638037 -1400.51933681188 100.0
      vertex 3585.74315371029 -1401.60655486104 -1.40998324127395e-015
      vertex 3583.96719638037 -1400.51933681188 -1.40998324127395e-015
   endloop
endfacet
facet normal 0.522117963331078 0.852873280368782 0.0
   outer loop
      vertex 3585.74315371029 -1401.60655486104 -1.40998324127395e-015
      vertex 3583.96719638037 -1400.51933681188 100.0
      vertex 3585.74315371029 -1401.60655486104 100.0
   endloop
endfacet
facet normal -0.653619870346022 0.756823007769221 -0.0
   outer loop
      vertex 3588.52413825319 -1397.26924771183 100.0
      vertex 3591.64646603855 -1394.5726918972 -1.40998324127395e-015
      vertex 3588.52413825319 -1397.26924771183 -1.40998324127395e-015
   endloop
endfacet
facet normal -0.653619870346022 0.756823007769221 -0.0
   outer loop
      vertex 3591.64646603855 -1394.5726918972 -1.40998324127395e-015
      vertex 3588.52413825319 -1397.26924771183 100.0
      vertex 3591.64646603855 -1394.5726918972 100.0
   endloop
endfacet
facet normal 0.993566240596563 -0.11325248583061 -0.0
   outer loop
      vertex 3580.66682011597 -1391.20376643269 -1.40998324127395e-015
      vertex 3580.43099190213 -1393.2726918972 100.0
      vertex 3580.43099190213 -1393.2726918972 -1.40998324127395e-015
   endloop
endfacet
facet normal 0.993566240596563 -0.11325248583061 -0.0
   outer loop
      vertex 3580.43099190213 -1393.2726918972 100.0
      vertex 3580.66682011597 -1391.20376643269 -1.40998324127395e-015
      vertex 3580.66682011597 -1391.20376643269 100.0
   endloop
endfacet
facet normal 0.700661626549341 0.713493717618615 0.0
   outer loop
      vertex 3582.48147226773 -1399.06033325284 100.0
      vertex 3583.96719638037 -1400.51933681188 -1.40998324127395e-015
      vertex 3582.48147226773 -1399.06033325284 -1.40998324127395e-015
   endloop
endfacet
facet normal 0.700661626549341 0.713493717618615 0.0
   outer loop
      vertex 3583.96719638037 -1400.51933681188 -1.40998324127395e-015
      vertex 3582.48147226773 -1399.06033325284 100.0
      vertex 3583.96719638037 -1400.51933681188 100.0
   endloop
endfacet
facet normal 0.942591819231934 -0.333947095086981 -0.0
   outer loop
      vertex 3581.36220570839 -1389.2409861592 -1.40998324127395e-015
      vertex 3580.66682011597 -1391.20376643269 100.0
      vertex 3580.66682011597 -1391.20376643269 -1.40998324127395e-015
   endloop
endfacet
facet normal 0.942591819231934 -0.333947095086981 -0.0
   outer loop
      vertex 3580.66682011597 -1391.20376643269 100.0
      vertex 3581.36220570839 -1389.2409861592 -1.40998324127395e-015
      vertex 3581.36220570839 -1389.2409861592 100.0
   endloop
endfacet
facet normal 0.942591819231934 0.333947095086981 0.0
   outer loop
      vertex 3580.66682011597 -1395.34161736172 -1.40998324127395e-015
      vertex 3581.36220570839 -1397.3043976352 100.0
      vertex 3581.36220570839 -1397.3043976352 -1.40998324127395e-015
   endloop
endfacet
facet normal 0.942591819231934 0.333947095086981 0.0
   outer loop
      vertex 3581.36220570839 -1397.3043976352 100.0
      vertex 3580.66682011597 -1395.34161736172 -1.40998324127395e-015
      vertex 3580.66682011597 -1395.34161736172 100.0
   endloop
endfacet
facet normal 0.316787297920653 0.948496604040379 0.0
   outer loop
      vertex 3585.74315371029 -1401.60655486104 100.0
      vertex 3587.61154626881 -1402.23057715859 -1.40998324127395e-015
      vertex 3585.74315371029 -1401.60655486104 -1.40998324127395e-015
   endloop
endfacet
facet normal 0.316787297920653 0.948496604040379 0.0
   outer loop
      vertex 3587.61154626881 -1402.23057715859 -1.40998324127395e-015
      vertex 3585.74315371029 -1401.60655486104 100.0
      vertex 3587.61154626881 -1402.23057715859 100.0
   endloop
endfacet
facet normal 0.133806598226972 0.991007464286181 0.0
   outer loop
      vertex 3587.61154626881 -1402.23057715859 100.0
      vertex 3588.52413825319 -1402.35379603776 -1.40998324127395e-015
      vertex 3587.61154626881 -1402.23057715859 -1.40998324127395e-015
   endloop
endfacet
facet normal 0.133806598226972 0.991007464286181 0.0
   outer loop
      vertex 3588.52413825319 -1402.35379603776 -1.40998324127395e-015
      vertex 3587.61154626881 -1402.23057715859 100.0
      vertex 3588.52413825319 -1402.35379603776 100.0
   endloop
endfacet
endsolid pegasys2
