solid pegasys
facet normal -3.17831409104425e-017 -2.21736511272836e-017 -1.0
   outer loop
      vertex 4466.937718206 2664.88578192623 7.49053596926785e-016
      vertex 4475.39061688549 2661.22537964557 6.60929644347164e-016
      vertex 4466.93774375767 2653.38578192661 1.89466498046187e-015
   endloop
endfacet
facet normal -3.17831409104425e-017 -2.21736511272836e-017 -1.0
   outer loop
      vertex 4475.39061688549 2661.22537964557 6.60929644347164e-016
      vertex 4466.937718206 2664.88578192623 7.49053596926785e-016
      vertex 4475.98416240432 2661.55460076527 6.16867668057353e-016
   endloop
endfacet
facet normal -3.17831409104425e-017 -2.21736511272836e-017 -1.0
   outer loop
      vertex 4475.98416240432 2661.55460076527 6.16867668057353e-016
      vertex 4466.937718206 2664.88578192623 7.49053596926785e-016
      vertex 4476.64269204586 2661.71898306293 5.72805691767542e-016
   endloop
endfacet
facet normal -3.17831409104425e-017 -2.21736511272836e-017 -1.0
   outer loop
      vertex 4476.64269204586 2661.71898306293 5.72805691767542e-016
      vertex 4466.937718206 2664.88578192623 7.49053596926785e-016
      vertex 4501.73726388887 2664.88578192643 0.0
   endloop
endfacet
facet normal -3.17831409104425e-017 -2.21736511272836e-017 -1.0
   outer loop
      vertex 4466.93774375767 2653.38578192661 1.89466498046187e-015
      vertex 4475.39061688549 2661.22537964557 6.60929644347164e-016
      vertex 4474.90250463561 2660.75375557909 7.04991620636974e-016
   endloop
endfacet
facet normal -3.17831409104425e-017 -2.21736511272836e-017 -1.0
   outer loop
      vertex 4466.93774375767 2653.38578192661 1.89466498046187e-015
      vertex 4474.90250463561 2660.75375557909 7.04991620636974e-016
      vertex 4474.55308969785 2660.17186896656 7.93115573216596e-016
   endloop
endfacet
facet normal -3.17831409104425e-017 -2.21736511272836e-017 -1.0
   outer loop
      vertex 4466.93774375767 2653.38578192661 1.89466498046187e-015
      vertex 4474.55308969785 2660.17186896656 7.93115573216596e-016
      vertex 4474.3661841228 2659.51937441901 8.37177549506407e-016
   endloop
endfacet
facet normal -3.17831409104425e-017 -2.21736511272836e-017 -1.0
   outer loop
      vertex 4466.93774375767 2653.38578192661 1.89466498046187e-015
      vertex 4474.3661841228 2659.51937441901 8.37177549506407e-016
      vertex 4474.3545252165 2658.84073836156 8.81239525796218e-016
   endloop
endfacet
facet normal -3.17831409104425e-017 -2.21736511272836e-017 -1.0
   outer loop
      vertex 4476.64269204586 2661.71898306293 5.72805691767542e-016
      vertex 4501.73726388887 2664.88578192643 0.0
      vertex 4477.32132810332 2661.70732415664 5.72805691767542e-016
   endloop
endfacet
facet normal -3.17831409104425e-017 -2.21736511272836e-017 -1.0
   outer loop
      vertex 4477.32132810332 2661.70732415664 5.72805691767542e-016
      vertex 4501.73726388887 2664.88578192643 0.0
      vertex 4477.97382265087 2661.52041858158 5.28743715477731e-016
   endloop
endfacet
facet normal -3.17831409104425e-017 -2.21736511272836e-017 -1.0
   outer loop
      vertex 4477.97382265087 2661.52041858158 5.28743715477731e-016
      vertex 4501.73726388887 2664.88578192643 0.0
      vertex 4478.5557092634 2661.17100364383 5.28743715477731e-016
   endloop
endfacet
facet normal -3.17831409104425e-017 -2.21736511272836e-017 -1.0
   outer loop
      vertex 4478.5557092634 2661.17100364383 5.28743715477731e-016
      vertex 4501.73726388887 2664.88578192643 0.0
      vertex 4479.02733332988 2660.68289139394 5.72805691767542e-016
   endloop
endfacet
facet normal -3.17831409104425e-017 -2.21736511272836e-017 -1.0
   outer loop
      vertex 4479.02733332988 2660.68289139394 5.72805691767542e-016
      vertex 4501.73726388887 2664.88578192643 0.0
      vertex 4479.35655444958 2660.08934587512 6.16867668057353e-016
   endloop
endfacet
facet normal -3.17831409104425e-017 -2.21736511272836e-017 -1.0
   outer loop
      vertex 4479.35655444958 2660.08934587512 6.16867668057353e-016
      vertex 4501.73726388887 2664.88578192643 0.0
      vertex 4479.52093674724 2659.43081623358 6.60929644347164e-016
   endloop
endfacet
facet normal -3.17831409104425e-017 -2.21736511272836e-017 -1.0
   outer loop
      vertex 4479.52093674724 2659.43081623358 6.60929644347164e-016
      vertex 4501.73726388887 2664.88578192643 0.0
      vertex 4499.29800329021 2659.48579552935 0.0
   endloop
endfacet
facet normal -3.17831409104425e-017 -2.21736511272836e-017 -1.0
   outer loop
      vertex 4479.52093674724 2659.43081623358 6.60929644347164e-016
      vertex 4499.29800329021 2659.48579552935 0.0
      vertex 4499.17812116922 2659.19637905201 0.0
   endloop
endfacet
facet normal -3.17831409104425e-017 -2.21736511272836e-017 -1.0
   outer loop
      vertex 4479.52093674724 2659.43081623358 6.60929644347164e-016
      vertex 4499.17812116922 2659.19637905201 0.0
      vertex 4499.13723042874 2658.88579642592 0.0
   endloop
endfacet
facet normal -3.17831409104425e-017 -2.21736511272836e-017 -1.0
   outer loop
      vertex 4499.29800329021 2659.48579552935 0.0
      vertex 4501.73726388887 2664.88578192643 0.0
      vertex 4499.48870702329 2659.73432260328 0.0
   endloop
endfacet
facet normal -3.17831409104425e-017 -2.21736511272836e-017 -1.0
   outer loop
      vertex 4499.48870702329 2659.73432260328 0.0
      vertex 4501.73726388887 2664.88578192643 0.0
      vertex 4499.7372362242 2659.92502356443 0.0
   endloop
endfacet
facet normal -3.17831409104425e-017 -2.21736511272836e-017 -1.0
   outer loop
      vertex 4499.7372362242 2659.92502356443 0.0
      vertex 4501.73726388887 2664.88578192643 0.0
      vertex 4500.02665403862 2660.04490245745 0.0
   endloop
endfacet
facet normal -3.17831409104425e-017 -2.21736511272836e-017 -1.0
   outer loop
      vertex 4500.02665403862 2660.04490245745 0.0
      vertex 4501.73726388887 2664.88578192643 0.0
      vertex 4500.33723712076 2660.08578973387 0.0
   endloop
endfacet
facet normal -3.17831409104425e-017 -2.21736511272836e-017 -1.0
   outer loop
      vertex 4500.33723712076 2660.08578973387 0.0
      vertex 4501.73726388887 2664.88578192643 0.0
      vertex 4500.64781974685 2660.04489899339 0.0
   endloop
endfacet
facet normal -3.17831409104425e-017 -2.21736511272836e-017 -1.0
   outer loop
      vertex 4500.64781974685 2660.04489899339 0.0
      vertex 4501.73726388887 2664.88578192643 0.0
      vertex 4500.93723622418 2659.92501687239 0.0
   endloop
endfacet
facet normal -3.17831409104425e-017 -2.21736511272836e-017 -1.0
   outer loop
      vertex 4500.93723622418 2659.92501687239 0.0
      vertex 4501.73726388887 2664.88578192643 0.0
      vertex 4501.18576329811 2659.73431313931 0.0
   endloop
endfacet
facet normal -3.17831409104425e-017 -2.21736511272836e-017 -1.0
   outer loop
      vertex 4501.18576329811 2659.73431313931 0.0
      vertex 4501.73726388887 2664.88578192643 0.0
      vertex 4501.37646425926 2659.48578393841 0.0
   endloop
endfacet
facet normal -3.17831409104425e-017 -2.21736511272836e-017 -1.0
   outer loop
      vertex 4501.37646425926 2659.48578393841 0.0
      vertex 4501.73726388887 2664.88578192643 0.0
      vertex 4501.49634315228 2659.19636612399 0.0
   endloop
endfacet
facet normal -3.17831409104425e-017 -2.21736511272836e-017 -1.0
   outer loop
      vertex 4501.49634315228 2659.19636612399 0.0
      vertex 4501.73726388887 2664.88578192643 0.0
      vertex 4501.5372304287 2658.88578304185 0.0
   endloop
endfacet
facet normal -3.17831409104425e-017 -2.21736511272836e-017 -1.0
   outer loop
      vertex 4501.5372304287 2658.88578304185 0.0
      vertex 4501.73726388887 2664.88578192643 0.0
      vertex 4501.73719975689 2653.3857819266 0.0
   endloop
endfacet
facet normal -3.17831409104425e-017 -2.21736511272836e-017 -1.0
   outer loop
      vertex 4501.73719975689 2653.3857819266 0.0
      vertex 4501.73726388887 2664.88578192643 0.0
      vertex 4502.25930471659 2653.41999956949 0.0
   endloop
endfacet
facet normal -3.17831409104425e-017 -2.21736511272836e-017 -1.0
   outer loop
      vertex 4502.25930471659 2653.41999956949 0.0
      vertex 4501.73726388887 2664.88578192643 0.0
      vertex 4502.2196066783 2664.85685107861 0.0
   endloop
endfacet
facet normal -3.17831409104425e-017 -2.21736511272836e-017 -1.0
   outer loop
      vertex 4502.25930471659 2653.41999956949 0.0
      vertex 4502.2196066783 2664.85685107861 0.0
      vertex 4502.69503424111 2664.77047866983 0.0
   endloop
endfacet
facet normal -3.17831409104425e-017 -2.21736511272836e-017 -1.0
   outer loop
      vertex 4502.25930471659 2653.41999956949 0.0
      vertex 4502.69503424111 2664.77047866983 0.0
      vertex 4502.77247669736 2653.52207284803 0.0
   endloop
endfacet
facet normal -3.17831409104425e-017 -2.21736511272836e-017 -1.0
   outer loop
      vertex 4502.77247669736 2653.52207284803 0.0
      vertex 4502.69503424111 2664.77047866983 0.0
      vertex 4503.15673081052 2664.62790294169 0.0
   endloop
endfacet
facet normal -3.17831409104425e-017 -2.21736511272836e-017 -1.0
   outer loop
      vertex 4502.77247669736 2653.52207284803 0.0
      vertex 4503.15673081052 2664.62790294169 0.0
      vertex 4503.26793518433 2653.69025526012 0.0
   endloop
endfacet
facet normal -3.17831409104425e-017 -2.21736511272836e-017 -1.0
   outer loop
      vertex 4503.26793518433 2653.69025526012 0.0
      vertex 4503.15673081052 2664.62790294169 0.0
      vertex 4503.59807746841 2664.431167871 0.0
   endloop
endfacet
facet normal -3.17831409104425e-017 -2.21736511272836e-017 -1.0
   outer loop
      vertex 4503.26793518433 2653.69025526012 0.0
      vertex 4503.59807746841 2664.431167871 0.0
      vertex 4503.7372027454 2653.92166915808 0.0
   endloop
endfacet
facet normal -3.17831409104425e-017 -2.21736511272836e-017 -1.0
   outer loop
      vertex 4503.7372027454 2653.92166915808 0.0
      vertex 4503.59807746841 2664.431167871 0.0
      vertex 4504.01274703453 2664.1830938671 0.0
   endloop
endfacet
facet normal -3.17831409104425e-017 -2.21736511272836e-017 -1.0
   outer loop
      vertex 4503.7372027454 2653.92166915808 0.0
      vertex 4504.01274703453 2664.1830938671 0.0
      vertex 4504.1722500825 2654.21235498592 0.0
   endloop
endfacet
facet normal -3.17831409104425e-017 -2.21736511272836e-017 -1.0
   outer loop
      vertex 4504.1722500825 2654.21235498592 0.0
      vertex 4504.01274703453 2664.1830938671 0.0
      vertex 4504.39479477352 2663.88723733838 0.0
   endloop
endfacet
facet normal -3.17831409104425e-017 -2.21736511272836e-017 -1.0
   outer loop
      vertex 4504.1722500825 2654.21235498592 0.0
      vertex 4504.39479477352 2663.88723733838 0.0
      vertex 4504.56563341509 2654.55733902857 0.0
   endloop
endfacet
facet normal -3.17831409104425e-017 -2.21736511272836e-017 -1.0
   outer loop
      vertex 4504.56563341509 2654.55733902857 0.0
      vertex 4504.39479477352 2663.88723733838 0.0
      vertex 4504.73874361911 2663.54783970715 0.0
   endloop
endfacet
facet normal -3.17831409104425e-017 -2.21736511272836e-017 -1.0
   outer loop
      vertex 4504.56563341509 2654.55733902857 0.0
      vertex 4504.73874361911 2663.54783970715 0.0
      vertex 4504.91062184527 2654.95071851339 0.0
   endloop
endfacet
facet normal -3.17831409104425e-017 -2.21736511272836e-017 -1.0
   outer loop
      vertex 4504.91062184527 2654.95071851339 0.0
      vertex 4504.73874361911 2663.54783970715 0.0
      vertex 4505.03966269372 2663.16976660442 0.0
   endloop
endfacet
facet normal -3.17831409104425e-017 -2.21736511272836e-017 -1.0
   outer loop
      vertex 4504.91062184527 2654.95071851339 0.0
      vertex 4505.03966269372 2663.16976660442 0.0
      vertex 4505.20131252535 2655.38576260834 0.0
   endloop
endfacet
facet normal -3.17831409104425e-017 -2.21736511272836e-017 -1.0
   outer loop
      vertex 4505.20131252535 2655.38576260834 0.0
      vertex 4505.03966269372 2663.16976660442 0.0
      vertex 4505.29323799795 2662.75843811579 0.0
   endloop
endfacet
facet normal -3.17831409104425e-017 -2.21736511272836e-017 -1.0
   outer loop
      vertex 4505.20131252535 2655.38576260834 0.0
      vertex 4505.29323799795 2662.75843811579 0.0
      vertex 4505.43273165721 2655.85502758832 0.0
   endloop
endfacet
facet normal -3.17831409104425e-017 -2.21736511272836e-017 -1.0
   outer loop
      vertex 4505.43273165721 2655.85502758832 0.0
      vertex 4505.29323799795 2662.75843811579 0.0
      vertex 4505.49583425637 2662.31975107867 0.0
   endloop
endfacet
facet normal -3.17831409104425e-017 -2.21736511272836e-017 -1.0
   outer loop
      vertex 4505.43273165721 2655.85502758832 0.0
      vertex 4505.49583425637 2662.31975107867 0.0
      vertex 4505.60091959535 2656.35048419944 0.0
   endloop
endfacet
facet normal -3.17831409104425e-017 -2.21736511272836e-017 -1.0
   outer loop
      vertex 4505.60091959535 2656.35048419944 0.0
      vertex 4505.49583425637 2662.31975107867 0.0
      vertex 4505.64454703319 2661.85999454476 0.0
   endloop
endfacet
facet normal -3.17831409104425e-017 -2.21736511272836e-017 -1.0
   outer loop
      vertex 4505.60091959535 2656.35048419944 0.0
      vertex 4505.64454703319 2661.85999454476 0.0
      vertex 4505.70299859748 2656.86365504172 0.0
   endloop
endfacet
facet normal -3.17831409104425e-017 -2.21736511272836e-017 -1.0
   outer loop
      vertex 4505.70299859748 2656.86365504172 0.0
      vertex 4505.64454703319 2661.85999454476 0.0
      vertex 4505.73724437038 2661.3857596197 0.0
   endloop
endfacet
facet normal -3.17831409104425e-017 -2.21736511272836e-017 -1.0
   outer loop
      vertex 4505.70299859748 2656.86365504172 0.0
      vertex 4505.73724437038 2661.3857596197 0.0
      vertex 4505.7372220636 2657.38575961975 0.0
   endloop
endfacet
facet normal -3.17831409104425e-017 -2.21736511272836e-017 -1.0
   outer loop
      vertex 4466.93774375767 2653.38578192661 1.89466498046187e-015
      vertex 4476.55413386043 2656.56423043849 9.6936347837584e-016
      vertex 4501.73719975689 2653.3857819266 0.0
   endloop
endfacet
facet normal -3.17831409104425e-017 -2.21736511272836e-017 -1.0
   outer loop
      vertex 4476.55413386043 2656.56423043849 9.6936347837584e-016
      vertex 4466.93774375767 2653.38578192661 1.89466498046187e-015
      vertex 4475.90163931288 2656.75113601355 9.6936347837584e-016
   endloop
endfacet
facet normal -3.17831409104425e-017 -2.21736511272836e-017 -1.0
   outer loop
      vertex 4475.90163931288 2656.75113601355 9.6936347837584e-016
      vertex 4466.93774375767 2653.38578192661 1.89466498046187e-015
      vertex 4475.31975270034 2657.10055095131 9.6936347837584e-016
   endloop
endfacet
facet normal -3.17831409104425e-017 -2.21736511272836e-017 -1.0
   outer loop
      vertex 4475.31975270034 2657.10055095131 9.6936347837584e-016
      vertex 4466.93774375767 2653.38578192661 1.89466498046187e-015
      vertex 4474.84812863386 2657.58866320119 9.6936347837584e-016
   endloop
endfacet
facet normal -3.17831409104425e-017 -2.21736511272836e-017 -1.0
   outer loop
      vertex 4474.84812863386 2657.58866320119 9.6936347837584e-016
      vertex 4466.93774375767 2653.38578192661 1.89466498046187e-015
      vertex 4474.51890751417 2658.18220872002 9.25301502086029e-016
   endloop
endfacet
facet normal -3.17831409104425e-017 -2.21736511272836e-017 -1.0
   outer loop
      vertex 4474.51890751417 2658.18220872002 9.25301502086029e-016
      vertex 4466.93774375767 2653.38578192661 1.89466498046187e-015
      vertex 4474.3545252165 2658.84073836156 8.81239525796218e-016
   endloop
endfacet
facet normal -3.17831409104425e-017 -2.21736511272836e-017 -1.0
   outer loop
      vertex 4501.73719975689 2653.3857819266 0.0
      vertex 4476.55413386043 2656.56423043849 9.6936347837584e-016
      vertex 4477.23276991788 2656.5525715322 9.25301502086029e-016
   endloop
endfacet
facet normal -3.17831409104425e-017 -2.21736511272836e-017 -1.0
   outer loop
      vertex 4501.73719975689 2653.3857819266 0.0
      vertex 4477.23276991788 2656.5525715322 9.25301502086029e-016
      vertex 4477.89129955942 2656.71695382986 9.25301502086029e-016
   endloop
endfacet
facet normal -3.17831409104425e-017 -2.21736511272836e-017 -1.0
   outer loop
      vertex 4501.73719975689 2653.3857819266 0.0
      vertex 4477.89129955942 2656.71695382986 9.25301502086029e-016
      vertex 4478.48484507824 2657.04617494956 8.37177549506407e-016
   endloop
endfacet
facet normal -3.17831409104425e-017 -2.21736511272836e-017 -1.0
   outer loop
      vertex 4501.73719975689 2653.3857819266 0.0
      vertex 4478.48484507824 2657.04617494956 8.37177549506407e-016
      vertex 4478.97295732813 2657.51779901604 7.93115573216596e-016
   endloop
endfacet
facet normal -3.17831409104425e-017 -2.21736511272836e-017 -1.0
   outer loop
      vertex 4501.73719975689 2653.3857819266 0.0
      vertex 4478.97295732813 2657.51779901604 7.93115573216596e-016
      vertex 4479.32237226589 2658.09968562857 7.49053596926785e-016
   endloop
endfacet
facet normal -3.17831409104425e-017 -2.21736511272836e-017 -1.0
   outer loop
      vertex 4501.73719975689 2653.3857819266 0.0
      vertex 4479.32237226589 2658.09968562857 7.49053596926785e-016
      vertex 4479.50927784094 2658.75218017613 7.04991620636974e-016
   endloop
endfacet
facet normal -3.17831409104425e-017 -2.21736511272836e-017 -1.0
   outer loop
      vertex 4501.73719975689 2653.3857819266 0.0
      vertex 4479.50927784094 2658.75218017613 7.04991620636974e-016
      vertex 4479.52093674724 2659.43081623358 6.60929644347164e-016
   endloop
endfacet
facet normal -3.17831409104425e-017 -2.21736511272836e-017 -1.0
   outer loop
      vertex 4501.73719975689 2653.3857819266 0.0
      vertex 4479.52093674724 2659.43081623358 6.60929644347164e-016
      vertex 4499.29799659818 2658.28579552936 0.0
   endloop
endfacet
facet normal -3.17831409104425e-017 -2.21736511272836e-017 -1.0
   outer loop
      vertex 4499.29799659818 2658.28579552936 0.0
      vertex 4479.52093674724 2659.43081623358 6.60929644347164e-016
      vertex 4499.17811770517 2658.57521334378 0.0
   endloop
endfacet
facet normal -3.17831409104425e-017 -2.21736511272836e-017 -1.0
   outer loop
      vertex 4499.17811770517 2658.57521334378 0.0
      vertex 4479.52093674724 2659.43081623358 6.60929644347164e-016
      vertex 4499.13723042874 2658.88579642592 0.0
   endloop
endfacet
facet normal -3.17831409104425e-017 -2.21736511272836e-017 -1.0
   outer loop
      vertex 4501.73719975689 2653.3857819266 0.0
      vertex 4499.29799659818 2658.28579552936 0.0
      vertex 4499.48869755932 2658.03726632846 0.0
   endloop
endfacet
facet normal -3.17831409104425e-017 -2.21736511272836e-017 -1.0
   outer loop
      vertex 4501.73719975689 2653.3857819266 0.0
      vertex 4499.48869755932 2658.03726632846 0.0
      vertex 4499.73722463326 2657.84656259538 0.0
   endloop
endfacet
facet normal -3.17831409104425e-017 -2.21736511272836e-017 -1.0
   outer loop
      vertex 4501.73719975689 2653.3857819266 0.0
      vertex 4499.73722463326 2657.84656259538 0.0
      vertex 4500.02664111059 2657.72668047438 0.0
   endloop
endfacet
facet normal -3.17831409104425e-017 -2.21736511272836e-017 -1.0
   outer loop
      vertex 4501.73719975689 2653.3857819266 0.0
      vertex 4500.02664111059 2657.72668047438 0.0
      vertex 4500.33722373669 2657.68578973391 0.0
   endloop
endfacet
facet normal -3.17831409104425e-017 -2.21736511272836e-017 -1.0
   outer loop
      vertex 4501.73719975689 2653.3857819266 0.0
      vertex 4500.33722373669 2657.68578973391 0.0
      vertex 4500.64780681883 2657.72667701033 0.0
   endloop
endfacet
facet normal -3.17831409104425e-017 -2.21736511272836e-017 -1.0
   outer loop
      vertex 4501.73719975689 2653.3857819266 0.0
      vertex 4500.64780681883 2657.72667701033 0.0
      vertex 4500.93722463324 2657.84655590335 0.0
   endloop
endfacet
facet normal -3.17831409104425e-017 -2.21736511272836e-017 -1.0
   outer loop
      vertex 4501.73719975689 2653.3857819266 0.0
      vertex 4500.93722463324 2657.84655590335 0.0
      vertex 4501.18575383415 2658.03725686449 0.0
   endloop
endfacet
facet normal -3.17831409104425e-017 -2.21736511272836e-017 -1.0
   outer loop
      vertex 4501.73719975689 2653.3857819266 0.0
      vertex 4501.18575383415 2658.03725686449 0.0
      vertex 4501.37645756723 2658.28578393843 0.0
   endloop
endfacet
facet normal -3.17831409104425e-017 -2.21736511272836e-017 -1.0
   outer loop
      vertex 4501.73719975689 2653.3857819266 0.0
      vertex 4501.37645756723 2658.28578393843 0.0
      vertex 4501.49633968823 2658.57520041577 0.0
   endloop
endfacet
facet normal -3.17831409104425e-017 -2.21736511272836e-017 -1.0
   outer loop
      vertex 4501.73719975689 2653.3857819266 0.0
      vertex 4501.49633968823 2658.57520041577 0.0
      vertex 4501.5372304287 2658.88578304185 0.0
   endloop
endfacet
facet normal 0.917169724621751 -0.398496795767872 -2.03144056717476e-017
   outer loop
      vertex 4474.55308969785 2660.17186896656 7.93115573216596e-016
      vertex 4474.3661841228 2659.51937441901 6.0
      vertex 4474.3661841228 2659.51937441901 8.37177549506407e-016
   endloop
endfacet
facet normal 0.917169724621751 -0.398496795767872 -2.03144056717476e-017
   outer loop
      vertex 4474.3661841228 2659.51937441901 6.0
      vertex 4474.55308969785 2660.17186896656 7.93115573216596e-016
      vertex 4474.55308969785 2660.17186896656 6.0
   endloop
endfacet
facet normal -0.866022615425316 0.50000482954857 1.64379861653259e-017
   outer loop
      vertex 4501.37645756723 2658.28578393843 6.0
      vertex 4501.18575383415 2658.03725686449 0.0
      vertex 4501.18575383415 2658.03725686449 6.0
   endloop
endfacet
facet normal -0.866022615425316 0.50000482954857 1.64379861653259e-017
   outer loop
      vertex 4501.18575383415 2658.03725686449 0.0
      vertex 4501.37645756723 2658.28578393843 6.0
      vertex 4501.37645756723 2658.28578393843 0.0
   endloop
endfacet
facet normal -0.499995170435395 0.866028192116908 -3.31159004190361e-018
   outer loop
      vertex 4500.93722463324 2657.84655590335 6.0
      vertex 4501.18575383415 2658.03725686449 0.0
      vertex 4500.93722463324 2657.84655590335 0.0
   endloop
endfacet
facet normal -0.499995170435395 0.866028192116908 -3.31159004190361e-018
   outer loop
      vertex 4501.18575383415 2658.03725686449 0.0
      vertex 4500.93722463324 2657.84655590335 6.0
      vertex 4501.18575383415 2658.03725686449 6.0
   endloop
endfacet
facet normal -0.258813658433831 0.965927269626495 -1.31922233154779e-017
   outer loop
      vertex 4500.64780681883 2657.72667701033 6.0
      vertex 4500.93722463324 2657.84655590335 0.0
      vertex 4500.64780681883 2657.72667701033 0.0
   endloop
endfacet
facet normal -0.258813658433831 0.965927269626495 -1.31922233154779e-017
   outer loop
      vertex 4500.93722463324 2657.84655590335 0.0
      vertex 4500.64780681883 2657.72667701033 6.0
      vertex 4500.93722463324 2657.84655590335 6.0
   endloop
endfacet
facet normal 5.57668927883442e-006 0.99999999998445 -2.217382837164e-017
   outer loop
      vertex 4500.33722373669 2657.68578973391 6.0
      vertex 4500.64780681883 2657.72667701033 0.0
      vertex 4500.33722373669 2657.68578973391 0.0
   endloop
endfacet
facet normal 5.57668927883442e-006 0.99999999998445 -2.217382837164e-017
   outer loop
      vertex 4500.64780681883 2657.72667701033 0.0
      vertex 4500.33722373669 2657.68578973391 6.0
      vertex 4500.64780681883 2657.72667701033 6.0
   endloop
endfacet
facet normal 0.258824431765147 0.965924382921069 -2.96443236680854e-017
   outer loop
      vertex 4500.02664111059 2657.72668047438 6.0
      vertex 4500.33722373669 2657.68578973391 0.0
      vertex 4500.02664111059 2657.72668047438 0.0
   endloop
endfacet
facet normal 0.258824431765147 0.965924382921069 -2.96443236680854e-017
   outer loop
      vertex 4500.33722373669 2657.68578973391 0.0
      vertex 4500.02664111059 2657.72668047438 6.0
      vertex 4500.33722373669 2657.68578973391 6.0
   endloop
endfacet
facet normal 0.500004829556685 0.866022615420631 -3.50946072963767e-017
   outer loop
      vertex 4499.73722463326 2657.84656259538 6.0
      vertex 4500.02664111059 2657.72668047438 0.0
      vertex 4499.73722463326 2657.84656259538 0.0
   endloop
endfacet
facet normal 0.500004829556685 0.866022615420631 -3.50946072963767e-017
   outer loop
      vertex 4500.02664111059 2657.72668047438 0.0
      vertex 4499.73722463326 2657.84656259538 6.0
      vertex 4500.02664111059 2657.72668047438 6.0
   endloop
endfacet
facet normal 0.707110724495739 0.707102837855365 -3.81532514336502e-017
   outer loop
      vertex 4499.48869755932 2658.03726632846 6.0
      vertex 4499.73722463326 2657.84656259538 0.0
      vertex 4499.48869755932 2658.03726632846 0.0
   endloop
endfacet
facet normal 0.707110724495739 0.707102837855365 -3.81532514336502e-017
   outer loop
      vertex 4499.73722463326 2657.84656259538 0.0
      vertex 4499.48869755932 2658.03726632846 6.0
      vertex 4499.73722463326 2657.84656259538 6.0
   endloop
endfacet
facet normal 0.866028192128047 0.499995170416101 -3.86118145369548e-017
   outer loop
      vertex 4499.29799659818 2658.28579552936 0.0
      vertex 4499.48869755932 2658.03726632846 6.0
      vertex 4499.48869755932 2658.03726632846 0.0
   endloop
endfacet
facet normal 0.866028192128047 0.499995170416101 -3.86118145369548e-017
   outer loop
      vertex 4499.48869755932 2658.03726632846 6.0
      vertex 4499.29799659818 2658.28579552936 0.0
      vertex 4499.29799659818 2658.28579552936 6.0
   endloop
endfacet
facet normal 0.965927269629822 0.258813658421417 -3.6439046288696e-017
   outer loop
      vertex 4499.17811770517 2658.57521334378 0.0
      vertex 4499.29799659818 2658.28579552936 6.0
      vertex 4499.29799659818 2658.28579552936 0.0
   endloop
endfacet
facet normal 0.965927269629822 0.258813658421417 -3.6439046288696e-017
   outer loop
      vertex 4499.29799659818 2658.28579552936 6.0
      vertex 4499.17811770517 2658.57521334378 0.0
      vertex 4499.17811770517 2658.57521334378 6.0
   endloop
endfacet
facet normal 0.99999999998445 -5.57668374613139e-006 -3.17830172545084e-017
   outer loop
      vertex 4499.13723042874 2658.88579642592 0.0
      vertex 4499.17811770517 2658.57521334378 6.0
      vertex 4499.17811770517 2658.57521334378 0.0
   endloop
endfacet
facet normal 0.99999999998445 -5.57668374613139e-006 -3.17830172545084e-017
   outer loop
      vertex 4499.17811770517 2658.57521334378 6.0
      vertex 4499.13723042874 2658.88579642592 0.0
      vertex 4499.13723042874 2658.88579642592 6.0
   endloop
endfacet
facet normal 0.965924382920562 -0.258824431767042 -2.49610281179766e-017
   outer loop
      vertex 4499.17812116922 2659.19637905201 0.0
      vertex 4499.13723042874 2658.88579642592 6.0
      vertex 4499.13723042874 2658.88579642592 0.0
   endloop
endfacet
facet normal 0.965924382920562 -0.258824431767042 -2.49610281179766e-017
   outer loop
      vertex 4499.13723042874 2658.88579642592 6.0
      vertex 4499.17812116922 2659.19637905201 0.0
      vertex 4499.17812116922 2659.19637905201 6.0
   endloop
endfacet
facet normal 0.866022615424052 -0.50000482955076 -1.64379861652371e-017
   outer loop
      vertex 4499.29800329021 2659.48579552935 0.0
      vertex 4499.17812116922 2659.19637905201 6.0
      vertex 4499.17812116922 2659.19637905201 0.0
   endloop
endfacet
facet normal 0.866022615424052 -0.50000482955076 -1.64379861652371e-017
   outer loop
      vertex 4499.17812116922 2659.19637905201 6.0
      vertex 4499.29800329021 2659.48579552935 0.0
      vertex 4499.29800329021 2659.48579552935 6.0
   endloop
endfacet
facet normal 0.707102837862882 -0.707110724488223 -6.79472262080713e-018
   outer loop
      vertex 4499.48870702329 2659.73432260328 0.0
      vertex 4499.29800329021 2659.48579552935 6.0
      vertex 4499.29800329021 2659.48579552935 0.0
   endloop
endfacet
facet normal 0.707102837862882 -0.707110724488223 -6.79472262080713e-018
   outer loop
      vertex 4499.29800329021 2659.48579552935 6.0
      vertex 4499.48870702329 2659.73432260328 0.0
      vertex 4499.48870702329 2659.73432260328 6.0
   endloop
endfacet
facet normal 0.499995170433303 -0.866028192118116 3.31159004199686e-018
   outer loop
      vertex 4499.7372362242 2659.92502356443 6.0
      vertex 4499.48870702329 2659.73432260328 0.0
      vertex 4499.7372362242 2659.92502356443 0.0
   endloop
endfacet
facet normal 0.499995170433303 -0.866028192118116 3.31159004199686e-018
   outer loop
      vertex 4499.48870702329 2659.73432260328 0.0
      vertex 4499.7372362242 2659.92502356443 6.0
      vertex 4499.48870702329 2659.73432260328 6.0
   endloop
endfacet
facet normal 0.258813658409568 -0.965927269632996 1.31922233163932e-017
   outer loop
      vertex 4500.02665403862 2660.04490245745 6.0
      vertex 4499.7372362242 2659.92502356443 0.0
      vertex 4500.02665403862 2660.04490245745 0.0
   endloop
endfacet
facet normal 0.258813658409568 -0.965927269632996 1.31922233163932e-017
   outer loop
      vertex 4499.7372362242 2659.92502356443 0.0
      vertex 4500.02665403862 2660.04490245745 6.0
      vertex 4499.7372362242 2659.92502356443 6.0
   endloop
endfacet
facet normal -5.5767045811465e-006 -0.99999999998445 2.21738283721263e-017
   outer loop
      vertex 4500.33723712076 2660.08578973387 6.0
      vertex 4500.02665403862 2660.04490245745 0.0
      vertex 4500.33723712076 2660.08578973387 0.0
   endloop
endfacet
facet normal -5.5767045811465e-006 -0.99999999998445 2.21738283721263e-017
   outer loop
      vertex 4500.02665403862 2660.04490245745 0.0
      vertex 4500.33723712076 2660.08578973387 6.0
      vertex 4500.02665403862 2660.04490245745 6.0
   endloop
endfacet
facet normal -0.258824431776845 -0.965924382917935 2.96443236683877e-017
   outer loop
      vertex 4500.64781974685 2660.04489899339 6.0
      vertex 4500.33723712076 2660.08578973387 0.0
      vertex 4500.64781974685 2660.04489899339 0.0
   endloop
endfacet
facet normal -0.258824431776845 -0.965924382917935 2.96443236683877e-017
   outer loop
      vertex 4500.33723712076 2660.08578973387 0.0
      vertex 4500.64781974685 2660.04489899339 6.0
      vertex 4500.33723712076 2660.08578973387 6.0
   endloop
endfacet
facet normal -0.500004829549484 -0.866022615424788 3.509460729624e-017
   outer loop
      vertex 4500.93723622418 2659.92501687239 6.0
      vertex 4500.64781974685 2660.04489899339 0.0
      vertex 4500.93723622418 2659.92501687239 0.0
   endloop
endfacet
facet normal -0.500004829549484 -0.866022615424788 3.509460729624e-017
   outer loop
      vertex 4500.64781974685 2660.04489899339 0.0
      vertex 4500.93723622418 2659.92501687239 6.0
      vertex 4500.64781974685 2660.04489899339 6.0
   endloop
endfacet
facet normal -0.707110724494792 -0.707102837856312 3.81532514336411e-017
   outer loop
      vertex 4501.18576329811 2659.73431313931 6.0
      vertex 4500.93723622418 2659.92501687239 0.0
      vertex 4501.18576329811 2659.73431313931 0.0
   endloop
endfacet
facet normal -0.707110724494792 -0.707102837856312 3.81532514336411e-017
   outer loop
      vertex 4500.93723622418 2659.92501687239 0.0
      vertex 4501.18576329811 2659.73431313931 6.0
      vertex 4500.93723622418 2659.92501687239 6.0
   endloop
endfacet
facet normal -0.707110724494792 -0.707102837856312 3.81532514336411e-017
   outer loop
      vertex 4501.18576329811 2659.73431313931 6.0
      vertex 4501.37646425926 2659.48578393841 0.0
      vertex 4501.37646425926 2659.48578393841 6.0
   endloop
endfacet
facet normal -0.707110724494792 -0.707102837856312 3.81532514336411e-017
   outer loop
      vertex 4501.37646425926 2659.48578393841 0.0
      vertex 4501.18576329811 2659.73431313931 6.0
      vertex 4501.18576329811 2659.73431313931 0.0
   endloop
endfacet
facet normal -0.866028192118175 -0.499995170433201 3.86118145370202e-017
   outer loop
      vertex 4501.37646425926 2659.48578393841 6.0
      vertex 4501.49634315228 2659.19636612399 0.0
      vertex 4501.49634315228 2659.19636612399 6.0
   endloop
endfacet
facet normal -0.866028192118175 -0.499995170433201 3.86118145370202e-017
   outer loop
      vertex 4501.49634315228 2659.19636612399 0.0
      vertex 4501.37646425926 2659.48578393841 6.0
      vertex 4501.37646425926 2659.48578393841 0.0
   endloop
endfacet
facet normal -0.965927269629187 -0.258813658423787 3.64390462887284e-017
   outer loop
      vertex 4501.49634315228 2659.19636612399 6.0
      vertex 4501.5372304287 2658.88578304185 0.0
      vertex 4501.5372304287 2658.88578304185 6.0
   endloop
endfacet
facet normal -0.965927269629187 -0.258813658423787 3.64390462887284e-017
   outer loop
      vertex 4501.5372304287 2658.88578304185 0.0
      vertex 4501.49634315228 2659.19636612399 6.0
      vertex 4501.49634315228 2659.19636612399 0.0
   endloop
endfacet
facet normal -0.99999999998445 5.5766940596933e-006 3.17830172542797e-017
   outer loop
      vertex 4501.5372304287 2658.88578304185 6.0
      vertex 4501.49633968823 2658.57520041577 0.0
      vertex 4501.49633968823 2658.57520041577 6.0
   endloop
endfacet
facet normal -0.99999999998445 5.5766940596933e-006 3.17830172542797e-017
   outer loop
      vertex 4501.49633968823 2658.57520041577 0.0
      vertex 4501.5372304287 2658.88578304185 6.0
      vertex 4501.5372304287 2658.88578304185 0.0
   endloop
endfacet
facet normal -0.965924382920497 0.258824431767285 2.49610281179691e-017
   outer loop
      vertex 4501.49633968823 2658.57520041577 6.0
      vertex 4501.37645756723 2658.28578393843 0.0
      vertex 4501.37645756723 2658.28578393843 6.0
   endloop
endfacet
facet normal -0.965924382920497 0.258824431767285 2.49610281179691e-017
   outer loop
      vertex 4501.37645756723 2658.28578393843 0.0
      vertex 4501.49633968823 2658.57520041577 6.0
      vertex 4501.49633968823 2658.57520041577 0.0
   endloop
endfacet
facet normal 0.130520663240933 -0.991445589262037 1.78356119764695e-017
   outer loop
      vertex 4502.25930471659 2653.41999956949 6.0
      vertex 4501.73719975689 2653.3857819266 0.0
      vertex 4502.25930471659 2653.41999956949 0.0
   endloop
endfacet
facet normal 0.130520663240933 -0.991445589262037 1.78356119764695e-017
   outer loop
      vertex 4501.73719975689 2653.3857819266 0.0
      vertex 4502.25930471659 2653.41999956949 6.0
      vertex 4501.73719975689 2653.3857819266 6.0
   endloop
endfacet
facet normal 0.930316718348464 0.366757145208304 -3.77007323368971e-017
   outer loop
      vertex 4474.51890751417 2658.18220872002 9.25301502086029e-016
      vertex 4474.84812863386 2657.58866320119 6.0
      vertex 4474.84812863386 2657.58866320119 9.6936347837584e-016
   endloop
endfacet
facet normal 0.930316718348464 0.366757145208304 -3.77007323368971e-017
   outer loop
      vertex 4474.84812863386 2657.58866320119 6.0
      vertex 4474.51890751417 2658.18220872002 9.25301502086029e-016
      vertex 4474.51890751417 2658.18220872002 6.0
   endloop
endfacet
facet normal -0.930316718348123 -0.366757145209169 3.77007323369054e-017
   outer loop
      vertex 4479.35655444958 2660.08934587512 6.0
      vertex 4479.52093674724 2659.43081623358 6.60929644347164e-016
      vertex 4479.52093674724 2659.43081623358 6.0
   endloop
endfacet
facet normal -0.930316718348123 -0.366757145209169 3.77007323369054e-017
   outer loop
      vertex 4479.52093674724 2659.43081623358 6.60929644347164e-016
      vertex 4479.35655444958 2660.08934587512 6.0
      vertex 4479.35655444958 2660.08934587512 6.16867668057353e-016
   endloop
endfacet
facet normal -0.993540678988616 -0.113476513846872 3.40940320297328e-017
   outer loop
      vertex 4479.52093674724 2659.43081623358 6.0
      vertex 4479.50927784094 2658.75218017613 7.04991620636974e-016
      vertex 4479.50927784094 2658.75218017613 6.0
   endloop
endfacet
facet normal -0.993540678988616 -0.113476513846872 3.40940320297328e-017
   outer loop
      vertex 4479.50927784094 2658.75218017613 7.04991620636974e-016
      vertex 4479.52093674724 2659.43081623358 6.0
      vertex 4479.52093674724 2659.43081623358 6.60929644347164e-016
   endloop
endfacet
facet normal 0.366757145210733 -0.930316718347506 8.97182432437264e-018
   outer loop
      vertex 4475.98416240432 2661.55460076527 6.0
      vertex 4475.39061688549 2661.22537964557 6.60929644347164e-016
      vertex 4475.98416240432 2661.55460076527 6.16867668057353e-016
   endloop
endfacet
facet normal 0.366757145210733 -0.930316718347506 8.97182432437264e-018
   outer loop
      vertex 4475.39061688549 2661.22537964557 6.60929644347164e-016
      vertex 4475.98416240432 2661.55460076527 6.0
      vertex 4475.39061688549 2661.22537964557 6.0
   endloop
endfacet
facet normal -0.622299339047087 -0.782779363947184 3.71357041072106e-017
   outer loop
      vertex 4478.5557092634 2661.17100364383 6.0
      vertex 4479.02733332988 2660.68289139394 5.72805691767542e-016
      vertex 4479.02733332988 2660.68289139394 6.0
   endloop
endfacet
facet normal -0.622299339047087 -0.782779363947184 3.71357041072106e-017
   outer loop
      vertex 4479.02733332988 2660.68289139394 5.72805691767542e-016
      vertex 4478.5557092634 2661.17100364383 6.0
      vertex 4478.5557092634 2661.17100364383 5.28743715477731e-016
   endloop
endfacet
facet normal 0.622299339046847 0.782779363947375 -3.71357041072072e-017
   outer loop
      vertex 4475.31975270034 2657.10055095131 6.0
      vertex 4475.90163931288 2656.75113601355 9.6936347837584e-016
      vertex 4475.31975270034 2657.10055095131 9.6936347837584e-016
   endloop
endfacet
facet normal 0.622299339046847 0.782779363947375 -3.71357041072072e-017
   outer loop
      vertex 4475.90163931288 2656.75113601355 9.6936347837584e-016
      vertex 4475.31975270034 2657.10055095131 6.0
      vertex 4475.90163931288 2656.75113601355 6.0
   endloop
endfacet
facet normal 0.80369321077278 0.59504388322017 -3.87381900387053e-017
   outer loop
      vertex 4474.84812863386 2657.58866320119 9.6936347837584e-016
      vertex 4475.31975270034 2657.10055095131 6.0
      vertex 4475.31975270034 2657.10055095131 9.6936347837584e-016
   endloop
endfacet
facet normal 0.80369321077278 0.59504388322017 -3.87381900387053e-017
   outer loop
      vertex 4475.31975270034 2657.10055095131 6.0
      vertex 4474.84812863386 2657.58866320119 9.6936347837584e-016
      vertex 4474.84812863386 2657.58866320119 6.0
   endloop
endfacet
facet normal 0.59504388322222 -0.803693210771263 -1.09155071934029e-018
   outer loop
      vertex 4475.39061688549 2661.22537964557 6.0
      vertex 4474.90250463561 2660.75375557909 7.04991620636974e-016
      vertex 4475.39061688549 2661.22537964557 6.60929644347164e-016
   endloop
endfacet
facet normal 0.59504388322222 -0.803693210771263 -1.09155071934029e-018
   outer loop
      vertex 4474.90250463561 2660.75375557909 7.04991620636974e-016
      vertex 4475.39061688549 2661.22537964557 6.0
      vertex 4474.90250463561 2660.75375557909 6.0
   endloop
endfacet
facet normal 0.782779363945508 -0.622299339049196 -1.10805383852506e-017
   outer loop
      vertex 4474.90250463561 2660.75375557909 7.04991620636974e-016
      vertex 4474.55308969785 2660.17186896656 6.0
      vertex 4474.55308969785 2660.17186896656 7.93115573216596e-016
   endloop
endfacet
facet normal 0.782779363945508 -0.622299339049196 -1.10805383852506e-017
   outer loop
      vertex 4474.55308969785 2660.17186896656 6.0
      vertex 4474.90250463561 2660.75375557909 7.04991620636974e-016
      vertex 4474.90250463561 2660.75375557909 6.0
   endloop
endfacet
facet normal -0.147537354400162 -0.989056484259924 2.66201939516114e-017
   outer loop
      vertex 4477.32132810332 2661.70732415664 6.0
      vertex 4476.64269204586 2661.71898306293 5.72805691767542e-016
      vertex 4477.32132810332 2661.70732415664 5.72805691767542e-016
   endloop
endfacet
facet normal -0.147537354400162 -0.989056484259924 2.66201939516114e-017
   outer loop
      vertex 4476.64269204586 2661.71898306293 5.72805691767542e-016
      vertex 4477.32132810332 2661.70732415664 6.0
      vertex 4476.64269204586 2661.71898306293 6.0
   endloop
endfacet
facet normal 0.113476513849957 -0.993540678988264 1.84237843669313e-017
   outer loop
      vertex 4476.64269204586 2661.71898306293 6.0
      vertex 4475.98416240432 2661.55460076527 6.16867668057353e-016
      vertex 4476.64269204586 2661.71898306293 5.72805691767542e-016
   endloop
endfacet
facet normal 0.113476513849957 -0.993540678988264 1.84237843669313e-017
   outer loop
      vertex 4475.98416240432 2661.55460076527 6.16867668057353e-016
      vertex 4476.64269204586 2661.71898306293 6.0
      vertex 4475.98416240432 2661.55460076527 6.0
   endloop
endfacet
facet normal -0.803693210770826 -0.59504388322281 3.87381900387018e-017
   outer loop
      vertex 4479.02733332988 2660.68289139394 6.0
      vertex 4479.35655444958 2660.08934587512 6.16867668057353e-016
      vertex 4479.35655444958 2660.08934587512 6.0
   endloop
endfacet
facet normal -0.803693210770826 -0.59504388322281 3.87381900387018e-017
   outer loop
      vertex 4479.35655444958 2660.08934587512 6.16867668057353e-016
      vertex 4479.02733332988 2660.68289139394 6.0
      vertex 4479.02733332988 2660.68289139394 5.72805691767542e-016
   endloop
endfacet
facet normal -0.398496795768877 -0.917169724621315 3.30024813105418e-017
   outer loop
      vertex 4477.97382265087 2661.52041858158 6.0
      vertex 4477.32132810332 2661.70732415664 5.72805691767542e-016
      vertex 4477.97382265087 2661.52041858158 5.28743715477731e-016
   endloop
endfacet
facet normal -0.398496795768877 -0.917169724621315 3.30024813105418e-017
   outer loop
      vertex 4477.32132810332 2661.70732415664 5.72805691767542e-016
      vertex 4477.97382265087 2661.52041858158 6.0
      vertex 4477.32132810332 2661.70732415664 6.0
   endloop
endfacet
facet normal -0.989056484259866 0.147537354400547 2.8163879782898e-017
   outer loop
      vertex 4479.50927784094 2658.75218017613 6.0
      vertex 4479.32237226589 2658.09968562857 7.49053596926785e-016
      vertex 4479.32237226589 2658.09968562857 6.0
   endloop
endfacet
facet normal -0.989056484259866 0.147537354400547 2.8163879782898e-017
   outer loop
      vertex 4479.32237226589 2658.09968562857 7.49053596926785e-016
      vertex 4479.50927784094 2658.75218017613 6.0
      vertex 4479.50927784094 2658.75218017613 7.04991620636974e-016
   endloop
endfacet
facet normal 0.793349945407417 -0.608765853281907 -1.17165914572996e-017
   outer loop
      vertex 4504.91062184527 2654.95071851339 0.0
      vertex 4504.56563341509 2654.55733902857 6.0
      vertex 4504.56563341509 2654.55733902857 0.0
   endloop
endfacet
facet normal 0.793349945407417 -0.608765853281907 -1.17165914572996e-017
   outer loop
      vertex 4504.56563341509 2654.55733902857 6.0
      vertex 4504.91062184527 2654.95071851339 0.0
      vertex 4504.91062184527 2654.95071851339 6.0
   endloop
endfacet
facet normal 0.707102837862157 -0.707110724488948 -6.794722620768e-018
   outer loop
      vertex 4504.56563341509 2654.55733902857 6.0
      vertex 4504.1722500825 2654.21235498592 0.0
      vertex 4504.56563341509 2654.55733902857 0.0
   endloop
endfacet
facet normal 0.707102837862157 -0.707110724488948 -6.794722620768e-018
   outer loop
      vertex 4504.1722500825 2654.21235498592 0.0
      vertex 4504.56563341509 2654.55733902857 6.0
      vertex 4504.1722500825 2654.21235498592 6.0
   endloop
endfacet
facet normal -0.622299339047087 -0.782779363947184 3.71357041072106e-017
   outer loop
      vertex 4478.5557092634 2661.17100364383 6.0
      vertex 4477.97382265087 2661.52041858158 5.28743715477731e-016
      vertex 4478.5557092634 2661.17100364383 5.28743715477731e-016
   endloop
endfacet
facet normal -0.622299339047087 -0.782779363947184 3.71357041072106e-017
   outer loop
      vertex 4477.97382265087 2661.52041858158 5.28743715477731e-016
      vertex 4478.5557092634 2661.17100364383 6.0
      vertex 4477.97382265087 2661.52041858158 6.0
   endloop
endfacet
facet normal 0.382678280169502 -0.923881666603744 8.32311205617171e-018
   outer loop
      vertex 4503.26793518433 2653.69025526012 6.0
      vertex 4502.77247669736 2653.52207284803 0.0
      vertex 4503.26793518433 2653.69025526012 0.0
   endloop
endfacet
facet normal 0.382678280169502 -0.923881666603744 8.32311205617171e-018
   outer loop
      vertex 4502.77247669736 2653.52207284803 0.0
      vertex 4503.26793518433 2653.69025526012 6.0
      vertex 4502.77247669736 2653.52207284803 6.0
   endloop
endfacet
facet normal 0.398496795765531 0.917169724622768 -3.30024813104677e-017
   outer loop
      vertex 4475.90163931288 2656.75113601355 6.0
      vertex 4476.55413386043 2656.56423043849 9.6936347837584e-016
      vertex 4475.90163931288 2656.75113601355 9.6936347837584e-016
   endloop
endfacet
facet normal 0.398496795765531 0.917169724622768 -3.30024813104677e-017
   outer loop
      vertex 4476.55413386043 2656.56423043849 9.6936347837584e-016
      vertex 4475.90163931288 2656.75113601355 6.0
      vertex 4476.55413386043 2656.56423043849 6.0
   endloop
endfacet
facet normal -0.366757145209264 0.930316718348086 -8.97182432443218e-018
   outer loop
      vertex 4477.89129955942 2656.71695382986 9.25301502086029e-016
      vertex 4478.48484507824 2657.04617494956 6.0
      vertex 4478.48484507824 2657.04617494956 8.37177549506407e-016
   endloop
endfacet
facet normal -0.366757145209264 0.930316718348086 -8.97182432443218e-018
   outer loop
      vertex 4478.48484507824 2657.04617494956 6.0
      vertex 4477.89129955942 2656.71695382986 9.25301502086029e-016
      vertex 4477.89129955942 2656.71695382986 6.0
   endloop
endfacet
facet normal 0.258813658423107 -0.965927269629369 1.31922233158825e-017
   outer loop
      vertex 4502.77247669736 2653.52207284803 6.0
      vertex 4502.25930471659 2653.41999956949 0.0
      vertex 4502.77247669736 2653.52207284803 0.0
   endloop
endfacet
facet normal 0.258813658423107 -0.965927269629369 1.31922233158825e-017
   outer loop
      vertex 4502.25930471659 2653.41999956949 0.0
      vertex 4502.77247669736 2653.52207284803 6.0
      vertex 4502.25930471659 2653.41999956949 6.0
   endloop
endfacet
facet normal 0.147537354401018 0.989056484259796 -2.66201939516358e-017
   outer loop
      vertex 4476.55413386043 2656.56423043849 9.6936347837584e-016
      vertex 4477.23276991788 2656.5525715322 6.0
      vertex 4477.23276991788 2656.5525715322 9.25301502086029e-016
   endloop
endfacet
facet normal 0.147537354401018 0.989056484259796 -2.66201939516358e-017
   outer loop
      vertex 4477.23276991788 2656.5525715322 6.0
      vertex 4476.55413386043 2656.56423043849 9.6936347837584e-016
      vertex 4476.55413386043 2656.56423043849 6.0
   endloop
endfacet
facet normal 0.608757004707359 -0.793356735157473 -1.75659419597032e-018
   outer loop
      vertex 4504.1722500825 2654.21235498592 6.0
      vertex 4503.7372027454 2653.92166915808 0.0
      vertex 4504.1722500825 2654.21235498592 0.0
   endloop
endfacet
facet normal 0.608757004707359 -0.793356735157473 -1.75659419597032e-018
   outer loop
      vertex 4503.7372027454 2653.92166915808 0.0
      vertex 4504.1722500825 2654.21235498592 6.0
      vertex 4503.7372027454 2653.92166915808 6.0
   endloop
endfacet
facet normal 0.499995170432175 -0.866028192118767 3.31159004204718e-018
   outer loop
      vertex 4503.7372027454 2653.92166915808 6.0
      vertex 4503.26793518433 2653.69025526012 0.0
      vertex 4503.7372027454 2653.92166915808 0.0
   endloop
endfacet
facet normal 0.499995170432175 -0.866028192118767 3.31159004204718e-018
   outer loop
      vertex 4503.26793518433 2653.69025526012 0.0
      vertex 4503.7372027454 2653.92166915808 6.0
      vertex 4503.26793518433 2653.69025526012 6.0
   endloop
endfacet
facet normal -0.113476513849781 0.993540678988284 -1.84237843669373e-017
   outer loop
      vertex 4477.23276991788 2656.5525715322 6.0
      vertex 4477.89129955942 2656.71695382986 9.25301502086029e-016
      vertex 4477.23276991788 2656.5525715322 9.25301502086029e-016
   endloop
endfacet
facet normal -0.113476513849781 0.993540678988284 -1.84237843669373e-017
   outer loop
      vertex 4477.89129955942 2656.71695382986 9.25301502086029e-016
      vertex 4477.23276991788 2656.5525715322 6.0
      vertex 4477.89129955942 2656.71695382986 6.0
   endloop
endfacet
facet normal -0.595043883220201 0.803693210772757 1.091550719243e-018
   outer loop
      vertex 4478.48484507824 2657.04617494956 8.37177549506407e-016
      vertex 4478.97295732813 2657.51779901604 6.0
      vertex 4478.97295732813 2657.51779901604 7.93115573216596e-016
   endloop
endfacet
facet normal -0.595043883220201 0.803693210772757 1.091550719243e-018
   outer loop
      vertex 4478.97295732813 2657.51779901604 6.0
      vertex 4478.48484507824 2657.04617494956 8.37177549506407e-016
      vertex 4478.48484507824 2657.04617494956 6.0
   endloop
endfacet
facet normal -0.917169724623308 0.398496795764289 2.03144056718766e-017
   outer loop
      vertex 4479.32237226589 2658.09968562857 6.0
      vertex 4478.97295732813 2657.51779901604 7.93115573216596e-016
      vertex 4478.97295732813 2657.51779901604 6.0
   endloop
endfacet
facet normal -0.917169724623308 0.398496795764289 2.03144056718766e-017
   outer loop
      vertex 4478.97295732813 2657.51779901604 7.93115573216596e-016
      vertex 4479.32237226589 2658.09968562857 6.0
      vertex 4479.32237226589 2658.09968562857 7.49053596926785e-016
   endloop
endfacet
facet normal 0.866022615420969 -0.5000048295561 -1.64379861650207e-017
   outer loop
      vertex 4505.20131252535 2655.38576260834 0.0
      vertex 4504.91062184527 2654.95071851339 6.0
      vertex 4504.91062184527 2654.95071851339 0.0
   endloop
endfacet
facet normal 0.866022615420969 -0.5000048295561 -1.64379861650207e-017
   outer loop
      vertex 4504.91062184527 2654.95071851339 6.0
      vertex 4505.20131252535 2655.38576260834 0.0
      vertex 4505.20131252535 2655.38576260834 6.0
   endloop
endfacet
facet normal 0.989056484259953 -0.147537354399966 -2.81638797829137e-017
   outer loop
      vertex 4474.3661841228 2659.51937441901 8.37177549506407e-016
      vertex 4474.3545252165 2658.84073836156 6.0
      vertex 4474.3545252165 2658.84073836156 8.81239525796218e-016
   endloop
endfacet
facet normal 0.989056484259953 -0.147537354399966 -2.81638797829137e-017
   outer loop
      vertex 4474.3545252165 2658.84073836156 6.0
      vertex 4474.3661841228 2659.51937441901 8.37177549506407e-016
      vertex 4474.3661841228 2659.51937441901 6.0
   endloop
endfacet
facet normal 0.99354067898828 0.113476513849813 -3.40940320297873e-017
   outer loop
      vertex 4474.3545252165 2658.84073836156 8.81239525796218e-016
      vertex 4474.51890751417 2658.18220872002 6.0
      vertex 4474.51890751417 2658.18220872002 9.25301502086029e-016
   endloop
endfacet
facet normal 0.99354067898828 0.113476513849813 -3.40940320297873e-017
   outer loop
      vertex 4474.51890751417 2658.18220872002 6.0
      vertex 4474.3545252165 2658.84073836156 8.81239525796218e-016
      vertex 4474.3545252165 2658.84073836156 6.0
   endloop
endfacet
facet normal 3.17831409104425e-017 2.21736511272836e-017 1.0
   outer loop
      vertex 4466.93774375767 2653.38578192661 6.0
      vertex 4474.51890751417 2658.18220872002 6.0
      vertex 4474.3545252165 2658.84073836156 6.0
   endloop
endfacet
facet normal 3.17831409104425e-017 2.21736511272836e-017 1.0
   outer loop
      vertex 4474.51890751417 2658.18220872002 6.0
      vertex 4466.93774375767 2653.38578192661 6.0
      vertex 4474.84812863386 2657.58866320119 6.0
   endloop
endfacet
facet normal 3.17831409104425e-017 2.21736511272836e-017 1.0
   outer loop
      vertex 4474.84812863386 2657.58866320119 6.0
      vertex 4466.93774375767 2653.38578192661 6.0
      vertex 4475.31975270034 2657.10055095131 6.0
   endloop
endfacet
facet normal 3.17831409104425e-017 2.21736511272836e-017 1.0
   outer loop
      vertex 4475.31975270034 2657.10055095131 6.0
      vertex 4466.93774375767 2653.38578192661 6.0
      vertex 4475.90163931288 2656.75113601355 6.0
   endloop
endfacet
facet normal 3.17831409104425e-017 2.21736511272836e-017 1.0
   outer loop
      vertex 4475.90163931288 2656.75113601355 6.0
      vertex 4466.93774375767 2653.38578192661 6.0
      vertex 4476.55413386043 2656.56423043849 6.0
   endloop
endfacet
facet normal 3.17831409104425e-017 2.21736511272836e-017 1.0
   outer loop
      vertex 4476.55413386043 2656.56423043849 6.0
      vertex 4466.93774375767 2653.38578192661 6.0
      vertex 4501.73719975689 2653.3857819266 6.0
   endloop
endfacet
facet normal 3.17831409104425e-017 2.21736511272836e-017 1.0
   outer loop
      vertex 4476.55413386043 2656.56423043849 6.0
      vertex 4501.73719975689 2653.3857819266 6.0
      vertex 4477.23276991788 2656.5525715322 6.0
   endloop
endfacet
facet normal 3.17831409104425e-017 2.21736511272836e-017 1.0
   outer loop
      vertex 4477.23276991788 2656.5525715322 6.0
      vertex 4501.73719975689 2653.3857819266 6.0
      vertex 4477.89129955942 2656.71695382986 6.0
   endloop
endfacet
facet normal 3.17831409104425e-017 2.21736511272836e-017 1.0
   outer loop
      vertex 4477.89129955942 2656.71695382986 6.0
      vertex 4501.73719975689 2653.3857819266 6.0
      vertex 4478.48484507824 2657.04617494956 6.0
   endloop
endfacet
facet normal 3.17831409104425e-017 2.21736511272836e-017 1.0
   outer loop
      vertex 4478.48484507824 2657.04617494956 6.0
      vertex 4501.73719975689 2653.3857819266 6.0
      vertex 4478.97295732813 2657.51779901604 6.0
   endloop
endfacet
facet normal 3.17831409104425e-017 2.21736511272836e-017 1.0
   outer loop
      vertex 4478.97295732813 2657.51779901604 6.0
      vertex 4501.73719975689 2653.3857819266 6.0
      vertex 4479.32237226589 2658.09968562857 6.0
   endloop
endfacet
facet normal 3.17831409104425e-017 2.21736511272836e-017 1.0
   outer loop
      vertex 4479.32237226589 2658.09968562857 6.0
      vertex 4501.73719975689 2653.3857819266 6.0
      vertex 4479.50927784094 2658.75218017613 6.0
   endloop
endfacet
facet normal 3.17831409104425e-017 2.21736511272836e-017 1.0
   outer loop
      vertex 4479.50927784094 2658.75218017613 6.0
      vertex 4501.73719975689 2653.3857819266 6.0
      vertex 4479.52093674724 2659.43081623358 6.0
   endloop
endfacet
facet normal 3.17831409104425e-017 2.21736511272836e-017 1.0
   outer loop
      vertex 4479.52093674724 2659.43081623358 6.0
      vertex 4501.73719975689 2653.3857819266 6.0
      vertex 4499.29799659818 2658.28579552936 6.0
   endloop
endfacet
facet normal 3.17831409104425e-017 2.21736511272836e-017 1.0
   outer loop
      vertex 4479.52093674724 2659.43081623358 6.0
      vertex 4499.29799659818 2658.28579552936 6.0
      vertex 4499.17811770517 2658.57521334378 6.0
   endloop
endfacet
facet normal 3.17831409104425e-017 2.21736511272836e-017 1.0
   outer loop
      vertex 4479.52093674724 2659.43081623358 6.0
      vertex 4499.17811770517 2658.57521334378 6.0
      vertex 4499.13723042874 2658.88579642592 6.0
   endloop
endfacet
facet normal 3.17831409104425e-017 2.21736511272836e-017 1.0
   outer loop
      vertex 4499.29799659818 2658.28579552936 6.0
      vertex 4501.73719975689 2653.3857819266 6.0
      vertex 4499.48869755932 2658.03726632846 6.0
   endloop
endfacet
facet normal 3.17831409104425e-017 2.21736511272836e-017 1.0
   outer loop
      vertex 4499.48869755932 2658.03726632846 6.0
      vertex 4501.73719975689 2653.3857819266 6.0
      vertex 4499.73722463326 2657.84656259538 6.0
   endloop
endfacet
facet normal 3.17831409104425e-017 2.21736511272836e-017 1.0
   outer loop
      vertex 4499.73722463326 2657.84656259538 6.0
      vertex 4501.73719975689 2653.3857819266 6.0
      vertex 4500.02664111059 2657.72668047438 6.0
   endloop
endfacet
facet normal 3.17831409104425e-017 2.21736511272836e-017 1.0
   outer loop
      vertex 4500.02664111059 2657.72668047438 6.0
      vertex 4501.73719975689 2653.3857819266 6.0
      vertex 4500.33722373669 2657.68578973391 6.0
   endloop
endfacet
facet normal 3.17831409104425e-017 2.21736511272836e-017 1.0
   outer loop
      vertex 4500.33722373669 2657.68578973391 6.0
      vertex 4501.73719975689 2653.3857819266 6.0
      vertex 4500.64780681883 2657.72667701033 6.0
   endloop
endfacet
facet normal 3.17831409104425e-017 2.21736511272836e-017 1.0
   outer loop
      vertex 4500.64780681883 2657.72667701033 6.0
      vertex 4501.73719975689 2653.3857819266 6.0
      vertex 4500.93722463324 2657.84655590335 6.0
   endloop
endfacet
facet normal 3.17831409104425e-017 2.21736511272836e-017 1.0
   outer loop
      vertex 4500.93722463324 2657.84655590335 6.0
      vertex 4501.73719975689 2653.3857819266 6.0
      vertex 4501.18575383415 2658.03725686449 6.0
   endloop
endfacet
facet normal 3.17831409104425e-017 2.21736511272836e-017 1.0
   outer loop
      vertex 4501.18575383415 2658.03725686449 6.0
      vertex 4501.73719975689 2653.3857819266 6.0
      vertex 4501.37645756723 2658.28578393843 6.0
   endloop
endfacet
facet normal 3.17831409104425e-017 2.21736511272836e-017 1.0
   outer loop
      vertex 4501.37645756723 2658.28578393843 6.0
      vertex 4501.73719975689 2653.3857819266 6.0
      vertex 4501.49633968823 2658.57520041577 6.0
   endloop
endfacet
facet normal 3.17831409104425e-017 2.21736511272836e-017 1.0
   outer loop
      vertex 4501.49633968823 2658.57520041577 6.0
      vertex 4501.73719975689 2653.3857819266 6.0
      vertex 4501.5372304287 2658.88578304185 6.0
   endloop
endfacet
facet normal 3.17831409104425e-017 2.21736511272836e-017 1.0
   outer loop
      vertex 4466.937718206 2664.88578192623 6.0
      vertex 4476.64269204586 2661.71898306293 6.0
      vertex 4501.73726388887 2664.88578192643 6.0
   endloop
endfacet
facet normal 3.17831409104425e-017 2.21736511272836e-017 1.0
   outer loop
      vertex 4476.64269204586 2661.71898306293 6.0
      vertex 4466.937718206 2664.88578192623 6.0
      vertex 4475.98416240432 2661.55460076527 6.0
   endloop
endfacet
facet normal 3.17831409104425e-017 2.21736511272836e-017 1.0
   outer loop
      vertex 4475.98416240432 2661.55460076527 6.0
      vertex 4466.937718206 2664.88578192623 6.0
      vertex 4475.39061688549 2661.22537964557 6.0
   endloop
endfacet
facet normal 3.17831409104425e-017 2.21736511272836e-017 1.0
   outer loop
      vertex 4475.39061688549 2661.22537964557 6.0
      vertex 4466.937718206 2664.88578192623 6.0
      vertex 4466.93774375767 2653.38578192661 6.0
   endloop
endfacet
facet normal 3.17831409104425e-017 2.21736511272836e-017 1.0
   outer loop
      vertex 4475.39061688549 2661.22537964557 6.0
      vertex 4466.93774375767 2653.38578192661 6.0
      vertex 4474.90250463561 2660.75375557909 6.0
   endloop
endfacet
facet normal 3.17831409104425e-017 2.21736511272836e-017 1.0
   outer loop
      vertex 4474.90250463561 2660.75375557909 6.0
      vertex 4466.93774375767 2653.38578192661 6.0
      vertex 4474.55308969785 2660.17186896656 6.0
   endloop
endfacet
facet normal 3.17831409104425e-017 2.21736511272836e-017 1.0
   outer loop
      vertex 4474.55308969785 2660.17186896656 6.0
      vertex 4466.93774375767 2653.38578192661 6.0
      vertex 4474.3661841228 2659.51937441901 6.0
   endloop
endfacet
facet normal 3.17831409104425e-017 2.21736511272836e-017 1.0
   outer loop
      vertex 4474.3661841228 2659.51937441901 6.0
      vertex 4466.93774375767 2653.38578192661 6.0
      vertex 4474.3545252165 2658.84073836156 6.0
   endloop
endfacet
facet normal 3.17831409104425e-017 2.21736511272836e-017 1.0
   outer loop
      vertex 4501.73726388887 2664.88578192643 6.0
      vertex 4476.64269204586 2661.71898306293 6.0
      vertex 4477.32132810332 2661.70732415664 6.0
   endloop
endfacet
facet normal 3.17831409104425e-017 2.21736511272836e-017 1.0
   outer loop
      vertex 4501.73726388887 2664.88578192643 6.0
      vertex 4477.32132810332 2661.70732415664 6.0
      vertex 4477.97382265087 2661.52041858158 6.0
   endloop
endfacet
facet normal 3.17831409104425e-017 2.21736511272836e-017 1.0
   outer loop
      vertex 4501.73726388887 2664.88578192643 6.0
      vertex 4477.97382265087 2661.52041858158 6.0
      vertex 4478.5557092634 2661.17100364383 6.0
   endloop
endfacet
facet normal 3.17831409104425e-017 2.21736511272836e-017 1.0
   outer loop
      vertex 4501.73726388887 2664.88578192643 6.0
      vertex 4478.5557092634 2661.17100364383 6.0
      vertex 4479.02733332988 2660.68289139394 6.0
   endloop
endfacet
facet normal 3.17831409104425e-017 2.21736511272836e-017 1.0
   outer loop
      vertex 4501.73726388887 2664.88578192643 6.0
      vertex 4479.02733332988 2660.68289139394 6.0
      vertex 4479.35655444958 2660.08934587512 6.0
   endloop
endfacet
facet normal 3.17831409104425e-017 2.21736511272836e-017 1.0
   outer loop
      vertex 4501.73726388887 2664.88578192643 6.0
      vertex 4479.35655444958 2660.08934587512 6.0
      vertex 4479.52093674724 2659.43081623358 6.0
   endloop
endfacet
facet normal 3.17831409104425e-017 2.21736511272836e-017 1.0
   outer loop
      vertex 4501.73726388887 2664.88578192643 6.0
      vertex 4479.52093674724 2659.43081623358 6.0
      vertex 4499.29800329021 2659.48579552935 6.0
   endloop
endfacet
facet normal 3.17831409104425e-017 2.21736511272836e-017 1.0
   outer loop
      vertex 4499.29800329021 2659.48579552935 6.0
      vertex 4479.52093674724 2659.43081623358 6.0
      vertex 4499.17812116922 2659.19637905201 6.0
   endloop
endfacet
facet normal 3.17831409104425e-017 2.21736511272836e-017 1.0
   outer loop
      vertex 4499.17812116922 2659.19637905201 6.0
      vertex 4479.52093674724 2659.43081623358 6.0
      vertex 4499.13723042874 2658.88579642592 6.0
   endloop
endfacet
facet normal 3.17831409104425e-017 2.21736511272836e-017 1.0
   outer loop
      vertex 4501.73726388887 2664.88578192643 6.0
      vertex 4499.29800329021 2659.48579552935 6.0
      vertex 4499.48870702329 2659.73432260328 6.0
   endloop
endfacet
facet normal 3.17831409104425e-017 2.21736511272836e-017 1.0
   outer loop
      vertex 4501.73726388887 2664.88578192643 6.0
      vertex 4499.48870702329 2659.73432260328 6.0
      vertex 4499.7372362242 2659.92502356443 6.0
   endloop
endfacet
facet normal 3.17831409104425e-017 2.21736511272836e-017 1.0
   outer loop
      vertex 4501.73726388887 2664.88578192643 6.0
      vertex 4499.7372362242 2659.92502356443 6.0
      vertex 4500.02665403862 2660.04490245745 6.0
   endloop
endfacet
facet normal 3.17831409104425e-017 2.21736511272836e-017 1.0
   outer loop
      vertex 4501.73726388887 2664.88578192643 6.0
      vertex 4500.02665403862 2660.04490245745 6.0
      vertex 4500.33723712076 2660.08578973387 6.0
   endloop
endfacet
facet normal 3.17831409104425e-017 2.21736511272836e-017 1.0
   outer loop
      vertex 4501.73726388887 2664.88578192643 6.0
      vertex 4500.33723712076 2660.08578973387 6.0
      vertex 4500.64781974685 2660.04489899339 6.0
   endloop
endfacet
facet normal 3.17831409104425e-017 2.21736511272836e-017 1.0
   outer loop
      vertex 4501.73726388887 2664.88578192643 6.0
      vertex 4500.64781974685 2660.04489899339 6.0
      vertex 4500.93723622418 2659.92501687239 6.0
   endloop
endfacet
facet normal 3.17831409104425e-017 2.21736511272836e-017 1.0
   outer loop
      vertex 4501.73726388887 2664.88578192643 6.0
      vertex 4500.93723622418 2659.92501687239 6.0
      vertex 4501.18576329811 2659.73431313931 6.0
   endloop
endfacet
facet normal 3.17831409104425e-017 2.21736511272836e-017 1.0
   outer loop
      vertex 4501.73726388887 2664.88578192643 6.0
      vertex 4501.18576329811 2659.73431313931 6.0
      vertex 4501.37646425926 2659.48578393841 6.0
   endloop
endfacet
facet normal 3.17831409104425e-017 2.21736511272836e-017 1.0
   outer loop
      vertex 4501.73726388887 2664.88578192643 6.0
      vertex 4501.37646425926 2659.48578393841 6.0
      vertex 4501.49634315228 2659.19636612399 6.0
   endloop
endfacet
facet normal 3.17831409104425e-017 2.21736511272836e-017 1.0
   outer loop
      vertex 4501.73726388887 2664.88578192643 6.0
      vertex 4501.49634315228 2659.19636612399 6.0
      vertex 4501.5372304287 2658.88578304185 6.0
   endloop
endfacet
facet normal 3.17831409104425e-017 2.21736511272836e-017 1.0
   outer loop
      vertex 4501.73726388887 2664.88578192643 6.0
      vertex 4501.5372304287 2658.88578304185 6.0
      vertex 4501.73719975689 2653.3857819266 6.0
   endloop
endfacet
facet normal 3.17831409104425e-017 2.21736511272836e-017 1.0
   outer loop
      vertex 4501.73726388887 2664.88578192643 6.0
      vertex 4501.73719975689 2653.3857819266 6.0
      vertex 4502.25930471659 2653.41999956949 6.0
   endloop
endfacet
facet normal 3.17831409104425e-017 2.21736511272836e-017 1.0
   outer loop
      vertex 4501.73726388887 2664.88578192643 6.0
      vertex 4502.25930471659 2653.41999956949 6.0
      vertex 4502.2196066783 2664.85685107861 6.0
   endloop
endfacet
facet normal 3.17831409104425e-017 2.21736511272836e-017 1.0
   outer loop
      vertex 4502.2196066783 2664.85685107861 6.0
      vertex 4502.25930471659 2653.41999956949 6.0
      vertex 4502.69503424111 2664.77047866983 6.0
   endloop
endfacet
facet normal 3.17831409104425e-017 2.21736511272836e-017 1.0
   outer loop
      vertex 4502.69503424111 2664.77047866983 6.0
      vertex 4502.25930471659 2653.41999956949 6.0
      vertex 4502.77247669736 2653.52207284803 6.0
   endloop
endfacet
facet normal 3.17831409104425e-017 2.21736511272836e-017 1.0
   outer loop
      vertex 4502.69503424111 2664.77047866983 6.0
      vertex 4502.77247669736 2653.52207284803 6.0
      vertex 4503.15673081052 2664.62790294169 6.0
   endloop
endfacet
facet normal 3.17831409104425e-017 2.21736511272836e-017 1.0
   outer loop
      vertex 4503.15673081052 2664.62790294169 6.0
      vertex 4502.77247669736 2653.52207284803 6.0
      vertex 4503.26793518433 2653.69025526012 6.0
   endloop
endfacet
facet normal 3.17831409104425e-017 2.21736511272836e-017 1.0
   outer loop
      vertex 4503.15673081052 2664.62790294169 6.0
      vertex 4503.26793518433 2653.69025526012 6.0
      vertex 4503.59807746841 2664.431167871 6.0
   endloop
endfacet
facet normal 3.17831409104425e-017 2.21736511272836e-017 1.0
   outer loop
      vertex 4503.59807746841 2664.431167871 6.0
      vertex 4503.26793518433 2653.69025526012 6.0
      vertex 4503.7372027454 2653.92166915808 6.0
   endloop
endfacet
facet normal 3.17831409104425e-017 2.21736511272836e-017 1.0
   outer loop
      vertex 4503.59807746841 2664.431167871 6.0
      vertex 4503.7372027454 2653.92166915808 6.0
      vertex 4504.01274703453 2664.1830938671 6.0
   endloop
endfacet
facet normal 3.17831409104425e-017 2.21736511272836e-017 1.0
   outer loop
      vertex 4504.01274703453 2664.1830938671 6.0
      vertex 4503.7372027454 2653.92166915808 6.0
      vertex 4504.1722500825 2654.21235498592 6.0
   endloop
endfacet
facet normal 3.17831409104425e-017 2.21736511272836e-017 1.0
   outer loop
      vertex 4504.01274703453 2664.1830938671 6.0
      vertex 4504.1722500825 2654.21235498592 6.0
      vertex 4504.39479477352 2663.88723733838 6.0
   endloop
endfacet
facet normal 3.17831409104425e-017 2.21736511272836e-017 1.0
   outer loop
      vertex 4504.39479477352 2663.88723733838 6.0
      vertex 4504.1722500825 2654.21235498592 6.0
      vertex 4504.56563341509 2654.55733902857 6.0
   endloop
endfacet
facet normal 3.17831409104425e-017 2.21736511272836e-017 1.0
   outer loop
      vertex 4504.39479477352 2663.88723733838 6.0
      vertex 4504.56563341509 2654.55733902857 6.0
      vertex 4504.73874361911 2663.54783970715 6.0
   endloop
endfacet
facet normal 3.17831409104425e-017 2.21736511272836e-017 1.0
   outer loop
      vertex 4504.73874361911 2663.54783970715 6.0
      vertex 4504.56563341509 2654.55733902857 6.0
      vertex 4504.91062184527 2654.95071851339 6.0
   endloop
endfacet
facet normal 3.17831409104425e-017 2.21736511272836e-017 1.0
   outer loop
      vertex 4504.73874361911 2663.54783970715 6.0
      vertex 4504.91062184527 2654.95071851339 6.0
      vertex 4505.03966269372 2663.16976660442 6.0
   endloop
endfacet
facet normal 3.17831409104425e-017 2.21736511272836e-017 1.0
   outer loop
      vertex 4505.03966269372 2663.16976660442 6.0
      vertex 4504.91062184527 2654.95071851339 6.0
      vertex 4505.20131252535 2655.38576260834 6.0
   endloop
endfacet
facet normal 3.17831409104425e-017 2.21736511272836e-017 1.0
   outer loop
      vertex 4505.03966269372 2663.16976660442 6.0
      vertex 4505.20131252535 2655.38576260834 6.0
      vertex 4505.29323799795 2662.75843811579 6.0
   endloop
endfacet
facet normal 3.17831409104425e-017 2.21736511272836e-017 1.0
   outer loop
      vertex 4505.29323799795 2662.75843811579 6.0
      vertex 4505.20131252535 2655.38576260834 6.0
      vertex 4505.43273165721 2655.85502758832 6.0
   endloop
endfacet
facet normal 3.17831409104425e-017 2.21736511272836e-017 1.0
   outer loop
      vertex 4505.29323799795 2662.75843811579 6.0
      vertex 4505.43273165721 2655.85502758832 6.0
      vertex 4505.49583425637 2662.31975107867 6.0
   endloop
endfacet
facet normal 3.17831409104425e-017 2.21736511272836e-017 1.0
   outer loop
      vertex 4505.49583425637 2662.31975107867 6.0
      vertex 4505.43273165721 2655.85502758832 6.0
      vertex 4505.60091959535 2656.35048419944 6.0
   endloop
endfacet
facet normal 3.17831409104425e-017 2.21736511272836e-017 1.0
   outer loop
      vertex 4505.49583425637 2662.31975107867 6.0
      vertex 4505.60091959535 2656.35048419944 6.0
      vertex 4505.64454703319 2661.85999454476 6.0
   endloop
endfacet
facet normal 3.17831409104425e-017 2.21736511272836e-017 1.0
   outer loop
      vertex 4505.64454703319 2661.85999454476 6.0
      vertex 4505.60091959535 2656.35048419944 6.0
      vertex 4505.70299859748 2656.86365504172 6.0
   endloop
endfacet
facet normal 3.17831409104425e-017 2.21736511272836e-017 1.0
   outer loop
      vertex 4505.64454703319 2661.85999454476 6.0
      vertex 4505.70299859748 2656.86365504172 6.0
      vertex 4505.73724437038 2661.3857596197 6.0
   endloop
endfacet
facet normal 3.17831409104425e-017 2.21736511272836e-017 1.0
   outer loop
      vertex 4505.73724437038 2661.3857596197 6.0
      vertex 4505.70299859748 2656.86365504172 6.0
      vertex 4505.7372220636 2657.38575961975 6.0
   endloop
endfacet
facet normal -3.21546032300108e-013 -1.0 2.21736511272938e-017
   outer loop
      vertex 4501.73719975689 2653.3857819266 6.0
      vertex 4466.93774375767 2653.38578192661 1.89466498046187e-015
      vertex 4501.73719975689 2653.3857819266 0.0
   endloop
endfacet
facet normal -3.21546032300108e-013 -1.0 2.21736511272938e-017
   outer loop
      vertex 4466.93774375767 2653.38578192661 1.89466498046187e-015
      vertex 4501.73719975689 2653.3857819266 6.0
      vertex 4466.93774375767 2653.38578192661 6.0
   endloop
endfacet
facet normal -0.999999999997532 -2.22188490552443e-006 3.17831901776648e-017
   outer loop
      vertex 4466.937718206 2664.88578192623 6.0
      vertex 4466.93774375767 2653.38578192661 1.89466498046187e-015
      vertex 4466.93774375767 2653.38578192661 6.0
   endloop
endfacet
facet normal -0.999999999997532 -2.22188490552443e-006 3.17831901776648e-017
   outer loop
      vertex 4466.93774375767 2653.38578192661 1.89466498046187e-015
      vertex 4466.937718206 2664.88578192623 6.0
      vertex 4466.937718206 2664.88578192623 7.49053596926785e-016
   endloop
endfacet
facet normal -5.632227276446e-012 1.0 -2.21736511271046e-017
   outer loop
      vertex 4466.937718206 2664.88578192623 7.49053596926785e-016
      vertex 4501.73726388887 2664.88578192643 6.0
      vertex 4501.73726388887 2664.88578192643 0.0
   endloop
endfacet
facet normal -5.632227276446e-012 1.0 -2.21736511271046e-017
   outer loop
      vertex 4501.73726388887 2664.88578192643 6.0
      vertex 4466.937718206 2664.88578192623 7.49053596926785e-016
      vertex 4466.937718206 2664.88578192623 6.0
   endloop
endfacet
facet normal 0.0598722483040734 0.998206047809276 -2.40368007617408e-017
   outer loop
      vertex 4501.73726388887 2664.88578192643 6.0
      vertex 4502.2196066783 2664.85685107861 0.0
      vertex 4501.73726388887 2664.88578192643 0.0
   endloop
endfacet
facet normal 0.0598722483040734 0.998206047809276 -2.40368007617408e-017
   outer loop
      vertex 4502.2196066783 2664.85685107861 0.0
      vertex 4501.73726388887 2664.88578192643 6.0
      vertex 4502.2196066783 2664.85685107861 6.0
   endloop
endfacet
facet normal 0.119524143988932 0.992831294331375 -2.58135474593536e-017
   outer loop
      vertex 4502.2196066783 2664.85685107861 6.0
      vertex 4502.69503424111 2664.77047866983 0.0
      vertex 4502.2196066783 2664.85685107861 0.0
   endloop
endfacet
facet normal 0.119524143988932 0.992831294331375 -2.58135474593536e-017
   outer loop
      vertex 4502.69503424111 2664.77047866983 0.0
      vertex 4502.2196066783 2664.85685107861 6.0
      vertex 4502.69503424111 2664.77047866983 6.0
   endloop
endfacet
facet normal 0.237329203797524 0.971429281535632 -2.90832015100587e-017
   outer loop
      vertex 4502.69503424111 2664.77047866983 6.0
      vertex 4503.15673081052 2664.62790294169 0.0
      vertex 4502.69503424111 2664.77047866983 0.0
   endloop
endfacet
facet normal 0.237329203797524 0.971429281535632 -2.90832015100587e-017
   outer loop
      vertex 4503.15673081052 2664.62790294169 0.0
      vertex 4502.69503424111 2664.77047866983 6.0
      vertex 4503.15673081052 2664.62790294169 6.0
   endloop
endfacet
facet normal 0.351731893561085 0.936100782529282 -3.19359165075302e-017
   outer loop
      vertex 4503.15673081052 2664.62790294169 6.0
      vertex 4503.59807746841 2664.431167871 0.0
      vertex 4503.15673081052 2664.62790294169 0.0
   endloop
endfacet
facet normal 0.351731893561085 0.936100782529282 -3.19359165075302e-017
   outer loop
      vertex 4503.59807746841 2664.431167871 0.0
      vertex 4503.15673081052 2664.62790294169 6.0
      vertex 4503.59807746841 2664.431167871 6.0
   endloop
endfacet
facet normal 0.461092127383142 0.887352269431531 -3.43307957066922e-017
   outer loop
      vertex 4503.59807746841 2664.431167871 6.0
      vertex 4504.01274703453 2664.1830938671 0.0
      vertex 4503.59807746841 2664.431167871 0.0
   endloop
endfacet
facet normal 0.461092127383142 0.887352269431531 -3.43307957066922e-017
   outer loop
      vertex 4504.01274703453 2664.1830938671 0.0
      vertex 4503.59807746841 2664.431167871 6.0
      vertex 4504.01274703453 2664.1830938671 6.0
   endloop
endfacet
facet normal 0.563842108367794 0.825882604751644 -3.62335059313498e-017
   outer loop
      vertex 4504.01274703453 2664.1830938671 6.0
      vertex 4504.39479477352 2663.88723733838 0.0
      vertex 4504.01274703453 2664.1830938671 0.0
   endloop
endfacet
facet normal 0.563842108367794 0.825882604751644 -3.62335059313498e-017
   outer loop
      vertex 4504.39479477352 2663.88723733838 0.0
      vertex 4504.01274703453 2664.1830938671 6.0
      vertex 4504.39479477352 2663.88723733838 6.0
   endloop
endfacet
facet normal 0.658508804739204 0.752573022424366 -3.76167697788364e-017
   outer loop
      vertex 4504.39479477352 2663.88723733838 6.0
      vertex 4504.73874361911 2663.54783970715 0.0
      vertex 4504.39479477352 2663.88723733838 0.0
   endloop
endfacet
facet normal 0.658508804739204 0.752573022424366 -3.76167697788364e-017
   outer loop
      vertex 4504.73874361911 2663.54783970715 0.0
      vertex 4504.39479477352 2663.88723733838 6.0
      vertex 4504.73874361911 2663.54783970715 6.0
   endloop
endfacet
facet normal 0.743735067372526 0.668474494322995 -3.84607566709438e-017
   outer loop
      vertex 4504.73874361911 2663.54783970715 0.0
      vertex 4505.03966269372 2663.16976660442 6.0
      vertex 4505.03966269372 2663.16976660442 0.0
   endloop
endfacet
facet normal 0.743735067372526 0.668474494322995 -3.84607566709438e-017
   outer loop
      vertex 4505.03966269372 2663.16976660442 6.0
      vertex 4504.73874361911 2663.54783970715 0.0
      vertex 4504.73874361911 2663.54783970715 6.0
   endloop
endfacet
facet normal 0.818299085862466 0.574792663555002 -3.87533671450437e-017
   outer loop
      vertex 4505.03966269372 2663.16976660442 0.0
      vertex 4505.29323799795 2662.75843811579 6.0
      vertex 4505.29323799795 2662.75843811579 0.0
   endloop
endfacet
facet normal 0.818299085862466 0.574792663555002 -3.87533671450437e-017
   outer loop
      vertex 4505.29323799795 2662.75843811579 6.0
      vertex 4505.03966269372 2663.16976660442 0.0
      vertex 4505.03966269372 2663.16976660442 6.0
   endloop
endfacet
facet normal 0.881131904602048 0.472870560187847 -3.84904063146219e-017
   outer loop
      vertex 4505.29323799795 2662.75843811579 0.0
      vertex 4505.49583425637 2662.31975107867 6.0
      vertex 4505.49583425637 2662.31975107867 0.0
   endloop
endfacet
facet normal 0.881131904602048 0.472870560187847 -3.84904063146219e-017
   outer loop
      vertex 4505.49583425637 2662.31975107867 6.0
      vertex 4505.29323799795 2662.75843811579 0.0
      vertex 4505.29323799795 2662.75843811579 6.0
   endloop
endfacet
facet normal 0.931332747400813 0.364169347445461 -3.76756440066558e-017
   outer loop
      vertex 4505.49583425637 2662.31975107867 0.0
      vertex 4505.64454703319 2661.85999454476 6.0
      vertex 4505.64454703319 2661.85999454476 0.0
   endloop
endfacet
facet normal 0.931332747400813 0.364169347445461 -3.76756440066558e-017
   outer loop
      vertex 4505.64454703319 2661.85999454476 6.0
      vertex 4505.49583425637 2662.31975107867 0.0
      vertex 4505.49583425637 2662.31975107867 6.0
   endloop
endfacet
facet normal 0.968181931039462 0.250247374429182 -3.63207607172829e-017
   outer loop
      vertex 4505.64454703319 2661.85999454476 0.0
      vertex 4505.73724437038 2661.3857596197 6.0
      vertex 4505.73724437038 2661.3857596197 0.0
   endloop
endfacet
facet normal 0.968181931039462 0.250247374429182 -3.63207607172829e-017
   outer loop
      vertex 4505.73724437038 2661.3857596197 6.0
      vertex 4505.64454703319 2661.85999454476 0.0
      vertex 4505.64454703319 2661.85999454476 6.0
   endloop
endfacet
facet normal 0.99999999998445 -5.57669406616435e-006 -3.17830172542796e-017
   outer loop
      vertex 4505.73724437038 2661.3857596197 0.0
      vertex 4505.7372220636 2657.38575961975 6.0
      vertex 4505.7372220636 2657.38575961975 0.0
   endloop
endfacet
facet normal 0.99999999998445 -5.57669406616435e-006 -3.17830172542796e-017
   outer loop
      vertex 4505.7372220636 2657.38575961975 6.0
      vertex 4505.73724437038 2661.3857596197 0.0
      vertex 4505.73724437038 2661.3857596197 6.0
   endloop
endfacet
facet normal 0.997858558490007 -0.0654086939805757 -3.02647296121624e-017
   outer loop
      vertex 4505.7372220636 2657.38575961975 0.0
      vertex 4505.70299859748 2656.86365504172 6.0
      vertex 4505.70299859748 2656.86365504172 0.0
   endloop
endfacet
facet normal 0.997858558490007 -0.0654086939805757 -3.02647296121624e-017
   outer loop
      vertex 4505.70299859748 2656.86365504172 6.0
      vertex 4505.7372220636 2657.38575961975 0.0
      vertex 4505.7372220636 2657.38575961975 6.0
   endloop
endfacet
facet normal 0.991444133454758 -0.130531721195054 -2.86168437516011e-017
   outer loop
      vertex 4505.70299859748 2656.86365504172 0.0
      vertex 4505.60091959535 2656.35048419944 6.0
      vertex 4505.60091959535 2656.35048419944 0.0
   endloop
endfacet
facet normal 0.991444133454758 -0.130531721195054 -2.86168437516011e-017
   outer loop
      vertex 4505.60091959535 2656.35048419944 6.0
      vertex 4505.70299859748 2656.86365504172 0.0
      vertex 4505.70299859748 2656.86365504172 6.0
   endloop
endfacet
facet normal 0.965924382917863 -0.258824431777113 -2.49610281176675e-017
   outer loop
      vertex 4505.60091959535 2656.35048419944 0.0
      vertex 4505.43273165721 2655.85502758832 6.0
      vertex 4505.43273165721 2655.85502758832 0.0
   endloop
endfacet
facet normal 0.965924382917863 -0.258824431777113 -2.49610281176675e-017
   outer loop
      vertex 4505.43273165721 2655.85502758832 6.0
      vertex 4505.60091959535 2656.35048419944 0.0
      vertex 4505.60091959535 2656.35048419944 6.0
   endloop
endfacet
facet normal 0.923877398380317 -0.382688584572387 -2.08781223719925e-017
   outer loop
      vertex 4505.43273165721 2655.85502758832 0.0
      vertex 4505.20131252535 2655.38576260834 6.0
      vertex 4505.20131252535 2655.38576260834 0.0
   endloop
endfacet
facet normal 0.923877398380317 -0.382688584572387 -2.08781223719925e-017
   outer loop
      vertex 4505.20131252535 2655.38576260834 6.0
      vertex 4505.43273165721 2655.85502758832 0.0
      vertex 4505.43273165721 2655.85502758832 6.0
   endloop
endfacet
endsolid pegasys
