solid pegasys
facet normal -2.27491779603127e-005 5.55112796763645e-005 -0.999999998200486
   outer loop
      vertex 4411.5073887213 2706.29251882386 0.0057536785076989
      vertex 4416.81453621763 2671.88001716031 0.00422576732537438
      vertex 4411.5073887213 2665.28777837479 0.00337767662675254
   endloop
endfacet
facet normal -2.27491779603127e-005 5.55112796763645e-005 -0.999999998200486
   outer loop
      vertex 4416.81453621763 2671.88001716031 0.00422576732537438
      vertex 4411.5073887213 2706.29251882386 0.0057536785076989
      vertex 4417.28063837991 2672.2374381762 0.00420250717042122
   endloop
endfacet
facet normal -2.27491779603127e-005 5.55112796763645e-005 -0.999999998200486
   outer loop
      vertex 4417.28063837991 2672.2374381762 0.00420250717042122
      vertex 4411.5073887213 2706.29251882386 0.0057536785076989
      vertex 4452.40441215318 2697.29211127672 0.0
   endloop
endfacet
facet normal -2.27491779603127e-005 5.55112796763645e-005 -0.999999998200486
   outer loop
      vertex 4452.40441215318 2697.29211127672 0.0
      vertex 4411.5073887213 2706.29251882386 0.0057536785076989
      vertex 4466.77785592158 2703.74059869848 0.00350804632215959
   endloop
endfacet
facet normal -2.27491779603127e-005 5.55112796763645e-005 -0.999999998200486
   outer loop
      vertex 4466.77785592158 2703.74059869848 0.00350804632215959
      vertex 4411.5073887213 2706.29251882386 0.0057536785076989
      vertex 4467.32049619798 2703.96541537504 0.00347357008043583
   endloop
endfacet
facet normal -2.27491779603127e-005 5.55112796763645e-005 -0.999999998200486
   outer loop
      vertex 4467.32049619798 2703.96541537504 0.00347357008043583
      vertex 4411.5073887213 2706.29251882386 0.0057536785076989
      vertex 4473.00369641124 2706.29251882386 0.00812968038864526
   endloop
endfacet
facet normal -2.27491779603127e-005 5.55112796763645e-005 -0.999999998200486
   outer loop
      vertex 4411.5073887213 2665.28777837479 0.00337767662675254
      vertex 4416.81453621763 2671.88001716031 0.00422576732537438
      vertex 4416.45682346745 2671.41413885473 0.00426545582710547
   endloop
endfacet
facet normal -2.27491779603127e-005 5.55112796763645e-005 -0.999999998200486
   outer loop
      vertex 4411.5073887213 2665.28777837479 0.00337767662675254
      vertex 4416.45682346745 2671.41413885473 0.00426545582710547
      vertex 4416.23187766214 2670.8715520961 0.00431886796959952
   endloop
endfacet
facet normal -2.27491779603127e-005 5.55112796763645e-005 -0.999999998200486
   outer loop
      vertex 4411.5073887213 2665.28777837479 0.00337767662675254
      vertex 4416.23187766214 2670.8715520961 0.00431886796959952
      vertex 4416.15502848659 2670.28923327535 0.00438236380527339
   endloop
endfacet
facet normal -2.27491779603127e-005 5.55112796763645e-005 -0.999999998200486
   outer loop
      vertex 4417.28063837991 2672.2374381762 0.00420250717042122
      vertex 4452.40441215318 2697.29211127672 0.0
      vertex 4417.82336586219 2672.46204425084 0.00419726050484005
   endloop
endfacet
facet normal -2.27491779603127e-005 5.55112796763645e-005 -0.999999998200486
   outer loop
      vertex 4417.82336586219 2672.46204425084 0.00419726050484005
      vertex 4452.40441215318 2697.29211127672 0.0
      vertex 4418.40573268347 2672.53852885142 0.00421038487854301
   endloop
endfacet
facet normal -2.27491779603127e-005 5.55112796763645e-005 -0.999999998200486
   outer loop
      vertex 4418.40573268347 2672.53852885142 0.00421038487854301
      vertex 4452.40441215318 2697.29211127672 0.0
      vertex 4418.98805150727 2672.46167967882 0.00424098588767867
   endloop
endfacet
facet normal -2.27491779603127e-005 5.55112796763645e-005 -0.999999998200486
   outer loop
      vertex 4418.98805150727 2672.46167967882 0.00424098588767867
      vertex 4452.40441215318 2697.29211127672 0.0
      vertex 4422.90453444092 2675.28884618681 0.00266512035745199
   endloop
endfacet
facet normal -2.27491779603127e-005 5.55112796763645e-005 -0.999999998200486
   outer loop
      vertex 4418.98805150727 2672.46167967882 0.00424098588767867
      vertex 4422.90453444092 2675.28884618681 0.00266512035745199
      vertex 4419.53063826809 2672.23673387713 0.00428697812435005
   endloop
endfacet
facet normal -2.27491779603127e-005 5.55112796763645e-005 -0.999999998200486
   outer loop
      vertex 4419.53063826809 2672.23673387713 0.00428697812435005
      vertex 4422.90453444092 2675.28884618681 0.00266512035745199
      vertex 4419.99651657483 2671.87902113101 0.00434522729326965
   endloop
endfacet
facet normal -2.27491779603127e-005 5.55112796763645e-005 -0.999999998200486
   outer loop
      vertex 4419.99651657483 2671.87902113101 0.00434522729326965
      vertex 4422.90453444092 2675.28884618681 0.00266512035745199
      vertex 4420.3539375908 2671.41291897296 0.00441176381127143
   endloop
endfacet
facet normal -2.27491779603127e-005 5.55112796763645e-005 -0.999999998200486
   outer loop
      vertex 4420.3539375908 2671.41291897296 0.00441176381127143
      vertex 4422.90453444092 2675.28884618681 0.00266512035745199
      vertex 4420.57854366442 2670.87019149478 0.00448205332159675
   endloop
endfacet
facet normal -2.27491779603127e-005 5.55112796763645e-005 -0.999999998200486
   outer loop
      vertex 4420.57854366442 2670.87019149478 0.00448205332159675
      vertex 4422.90453444092 2675.28884618681 0.00266512035745199
      vertex 4420.65502826296 2670.2878246772 0.00455130571313109
   endloop
endfacet
facet normal -2.27491779603127e-005 5.55112796763645e-005 -0.999999998200486
   outer loop
      vertex 4452.40441215318 2697.29211127672 0.0
      vertex 4466.77785592158 2703.74059869848 0.00350804632215959
      vertex 4466.31189250235 2703.38299682673 0.00355374678533275
   endloop
endfacet
facet normal -2.27491779603127e-005 5.55112796763645e-005 -0.999999998200486
   outer loop
      vertex 4452.40441215318 2697.29211127672 0.0
      vertex 4466.31189250235 2703.38299682673 0.00355374678533275
      vertex 4465.95436057727 2702.91697973641 0.00360755705737199
   endloop
endfacet
facet normal -2.27491779603127e-005 5.55112796763645e-005 -0.999999998200486
   outer loop
      vertex 4452.40441215318 2697.29211127672 0.0
      vertex 4465.95436057727 2702.91697973641 0.00360755705737199
      vertex 4465.72962535619 2702.37430572207 0.00366581005729259
   endloop
endfacet
facet normal -2.27491779603127e-005 5.55112796763645e-005 -0.999999998200486
   outer loop
      vertex 4452.40441215318 2697.29211127672 0.0
      vertex 4465.72962535619 2702.37430572207 0.00366581005729259
      vertex 4465.65300217302 2701.79195712099 0.00372453594176976
   endloop
endfacet
facet normal -2.27491779603127e-005 5.55112796763645e-005 -0.999999998200486
   outer loop
      vertex 4467.32049619798 2703.96541537504 0.00347357008043583
      vertex 4473.00369641124 2706.29251882386 0.00812968038864526
      vertex 4467.90283329347 2704.04212597145 0.00345266755958878
   endloop
endfacet
facet normal -2.27491779603127e-005 5.55112796763645e-005 -0.999999998200486
   outer loop
      vertex 4467.90283329347 2704.04212597145 0.00345266755958878
      vertex 4473.00369641124 2706.29251882386 0.00812968038864526
      vertex 4468.48518189735 2703.96550278732 0.00344676322972672
   endloop
endfacet
facet normal -2.27491779603127e-005 5.55112796763645e-005 -0.999999998200486
   outer loop
      vertex 4468.48518189735 2703.96550278732 0.00344676322972672
      vertex 4473.00369641124 2706.29251882386 0.00812968038864526
      vertex 4469.02785591465 2703.74076756603 0.00345625946451242
   endloop
endfacet
facet normal -2.27491779603127e-005 5.55112796763645e-005 -0.999999998200486
   outer loop
      vertex 4469.02785591465 2703.74076756603 0.00345625946451242
      vertex 4473.00369641124 2706.29251882386 0.00812968038864526
      vertex 4469.49387300788 2703.38323564152 0.00348050910555134
   endloop
endfacet
facet normal -2.27491779603127e-005 5.55112796763645e-005 -0.999999998200486
   outer loop
      vertex 4452.40441215318 2697.29211127672 0.0
      vertex 4465.72971277109 2701.20962002796 0.00377973263675074
      vertex 4465.95452944989 2700.66697975351 0.00382763857910839
   endloop
endfacet
facet normal -2.27491779603127e-005 5.55112796763645e-005 -0.999999998200486
   outer loop
      vertex 4465.72971277109 2701.20962002796 0.00377973263675074
      vertex 4452.40441215318 2697.29211127672 0.0
      vertex 4465.65300217302 2701.79195712099 0.00372453594176976
   endloop
endfacet
facet normal -2.27491779603127e-005 5.55112796763645e-005 -0.999999998200486
   outer loop
      vertex 4452.40628615514 2675.29211146021 0.00214333811917342
      vertex 4422.90453444092 2675.28884618681 0.00266512035745199
      vertex 4452.40441215318 2697.29211127672 0.0
   endloop
endfacet
facet normal -2.27491779603127e-005 5.55112796763645e-005 -0.999999998200486
   outer loop
      vertex 4411.5073887213 2665.28777837479 0.00337767662675254
      vertex 4417.27941848146 2668.34032407541 0.00464669139324224
      vertex 4422.90527215521 2665.28884627899 0.00380504273482989
   endloop
endfacet
facet normal -2.27491779603127e-005 5.55112796763645e-005 -0.999999998200486
   outer loop
      vertex 4417.27941848146 2668.34032407541 0.00464669139324224
      vertex 4411.5073887213 2665.28777837479 0.00337767662675254
      vertex 4416.81354017472 2668.69803682154 0.00458844222477383
   endloop
endfacet
facet normal -2.27491779603127e-005 5.55112796763645e-005 -0.999999998200486
   outer loop
      vertex 4416.81354017472 2668.69803682154 0.00458844222477383
      vertex 4411.5073887213 2665.28777837479 0.00337767662675254
      vertex 4416.45611915875 2669.16413897959 0.00452190570767444
   endloop
endfacet
facet normal -2.27491779603127e-005 5.55112796763645e-005 -0.999999998200486
   outer loop
      vertex 4416.45611915875 2669.16413897959 0.00452190570767444
      vertex 4411.5073887213 2665.28777837479 0.00337767662675254
      vertex 4416.23151308512 2669.70686645777 0.00445161619653697
   endloop
endfacet
facet normal -2.27491779603127e-005 5.55112796763645e-005 -0.999999998200486
   outer loop
      vertex 4416.23151308512 2669.70686645777 0.00445161619653697
      vertex 4411.5073887213 2665.28777837479 0.00337767662675254
      vertex 4416.15502848659 2670.28923327535 0.00438236380527339
   endloop
endfacet
facet normal -2.27491779603127e-005 5.55112796763645e-005 -0.999999998200486
   outer loop
      vertex 4422.90527215521 2665.28884627899 0.00380504273482989
      vertex 4417.27941848146 2668.34032407541 0.00464669139324224
      vertex 4417.82200524227 2668.11537827373 0.00469268363027456
   endloop
endfacet
facet normal -2.27491779603127e-005 5.55112796763645e-005 -0.999999998200486
   outer loop
      vertex 4422.90527215521 2665.28884627899 0.00380504273482989
      vertex 4417.82200524227 2668.11537827373 0.00469268363027456
      vertex 4418.40432406608 2668.03852910112 0.00472328463922975
   endloop
endfacet
facet normal -2.27491779603127e-005 5.55112796763645e-005 -0.999999998200486
   outer loop
      vertex 4422.90527215521 2665.28884627899 0.00380504273482989
      vertex 4418.40432406608 2668.03852910112 0.00472328463922975
      vertex 4418.98669088736 2668.1150137017 0.00473640901284247
   endloop
endfacet
facet normal -2.27491779603127e-005 5.55112796763645e-005 -0.999999998200486
   outer loop
      vertex 4422.90527215521 2665.28884627899 0.00380504273482989
      vertex 4418.98669088736 2668.1150137017 0.00473640901284247
      vertex 4419.52941836964 2668.33961977634 0.00473116234708087
   endloop
endfacet
facet normal -2.27491779603127e-005 5.55112796763645e-005 -0.999999998200486
   outer loop
      vertex 4422.90527215521 2665.28884627899 0.00380504273482989
      vertex 4419.52941836964 2668.33961977634 0.00473116234708087
      vertex 4419.99552053192 2668.69704079223 0.00470790219303005
   endloop
endfacet
facet normal -2.27491779603127e-005 5.55112796763645e-005 -0.999999998200486
   outer loop
      vertex 4422.90527215521 2665.28884627899 0.00380504273482989
      vertex 4419.99552053192 2668.69704079223 0.00470790219303005
      vertex 4420.3532332821 2669.16291909781 0.0046682136913892
   endloop
endfacet
facet normal -2.27491779603127e-005 5.55112796763645e-005 -0.999999998200486
   outer loop
      vertex 4422.90527215521 2665.28884627899 0.00380504273482989
      vertex 4420.3532332821 2669.16291909781 0.0046682136913892
      vertex 4420.57817908741 2669.70550585644 0.00461480154871468
   endloop
endfacet
facet normal -2.27491779603127e-005 5.55112796763645e-005 -0.999999998200486
   outer loop
      vertex 4422.90527215521 2665.28884627899 0.00380504273482989
      vertex 4420.57817908741 2669.70550585644 0.00461480154871468
      vertex 4420.65502826296 2670.2878246772 0.00455130571313109
   endloop
endfacet
facet normal -2.27491779603127e-005 5.55112796763645e-005 -0.999999998200486
   outer loop
      vertex 4422.90527215521 2665.28884627899 0.00380504273482989
      vertex 4420.65502826296 2670.2878246772 0.00455130571313109
      vertex 4422.90453444092 2675.28884618681 0.00266512035745199
   endloop
endfacet
facet normal 0.000308008407757075 0.999999951025047 5.55042701195015e-005
   outer loop
      vertex 4418.40446056115 2668.03819603344 6.00472327384215
      vertex 4418.98669088736 2668.1150137017 0.00473640901284247
      vertex 4418.40432406608 2668.03852910112 0.00472328463922975
   endloop
endfacet
facet normal 0.000308008407757075 0.999999951025047 5.55042701195015e-005
   outer loop
      vertex 4418.98669088736 2668.1150137017 0.00473640901284247
      vertex 4418.40446056115 2668.03819603344 6.00472327384215
      vertex 4418.98682738243 2668.11468063402 6.00473639821576
   endloop
endfacet
facet normal 0.259113188129312 0.965846961718154 4.77207888737598e-005
   outer loop
      vertex 4417.82214173734 2668.11504520605 6.00469267283319
      vertex 4418.40432406608 2668.03852910112 0.00472328463922975
      vertex 4417.82200524227 2668.11537827373 0.00469268363027456
   endloop
endfacet
facet normal 0.259113188129312 0.965846961718154 4.77207888737598e-005
   outer loop
      vertex 4418.40432406608 2668.03852910112 0.00472328463922975
      vertex 4417.82214173734 2668.11504520605 6.00469267283319
      vertex 4418.40446056115 2668.03819603344 6.00472327384215
   endloop
endfacet
facet normal 0.500261201040132 0.865874545986932 3.66852730638396e-005
   outer loop
      vertex 4417.27955497653 2668.33999100774 6.00464668059616
      vertex 4417.82200524227 2668.11537827373 0.00469268363027456
      vertex 4417.27941848146 2668.34032407541 0.00464669139324224
   endloop
endfacet
facet normal 0.500261201040132 0.865874545986932 3.66852730638396e-005
   outer loop
      vertex 4417.82200524227 2668.11537827373 0.00469268363027456
      vertex 4417.27955497653 2668.33999100774 6.00464668059616
      vertex 4417.82214173734 2668.11504520605 6.00469267283319
   endloop
endfacet
facet normal 0.707318539618997 0.706894958940393 2.31497284767895e-005
   outer loop
      vertex 4416.81367666979 2668.69770375386 6.00458843142769
      vertex 4417.27941848146 2668.34032407541 0.00464669139324224
      vertex 4416.81354017472 2668.69803682154 0.00458844222477383
   endloop
endfacet
facet normal 0.707318539618997 0.706894958940393 2.31497284767895e-005
   outer loop
      vertex 4417.27941848146 2668.34032407541 0.00464669139324224
      vertex 4416.81367666979 2668.69770375386 6.00458843142769
      vertex 4417.27955497653 2668.33999100774 6.00464668059616
   endloop
endfacet
facet normal 0.707337628258513 0.706875858346981 2.31482339275466e-005
   outer loop
      vertex 4416.81354017472 2668.69803682154 0.00458844222477383
      vertex 4416.45625565381 2669.16380591191 6.00452189491059
      vertex 4416.81367666979 2668.69770375386 6.00458843142769
   endloop
endfacet
facet normal 0.707337628258513 0.706875858346981 2.31482339275466e-005
   outer loop
      vertex 4416.45625565381 2669.16380591191 6.00452189491059
      vertex 4416.81354017472 2668.69803682154 0.00458844222477383
      vertex 4416.45611915875 2669.16413897959 0.00452190570767444
   endloop
endfacet
facet normal 4.38709132281378e-005 -0.99999998790161 0.000149238477315604
   outer loop
      vertex 4467.9010573557 2699.54302134373 6.00389239149542
      vertex 4467.32082243483 2699.61874918977 0.00389873493229199
      vertex 4467.90317103871 2699.54212600565 0.0038928306026104
   endloop
endfacet
facet normal 4.38709132281378e-005 -0.99999998790161 0.000149238477315604
   outer loop
      vertex 4467.32082243483 2699.61874918977 0.00389873493229199
      vertex 4467.9010573557 2699.54302134373 6.00389239149542
      vertex 4467.31870875182 2699.61964452785 6.0038982958251
   endloop
endfacet
facet normal 0.866189219117332 0.499716156052962 8.03479061890794e-006
   outer loop
      vertex 4416.45611915875 2669.16413897959 0.00452190570767444
      vertex 4416.23164958019 2669.70653339009 6.00445160539946
      vertex 4416.45625565381 2669.16380591191 6.00452189491059
   endloop
endfacet
facet normal 0.866189219117332 0.499716156052962 8.03479061890794e-006
   outer loop
      vertex 4416.23164958019 2669.70653339009 6.00445160539946
      vertex 4416.45611915875 2669.16413897959 0.00452190570767444
      vertex 4416.23151308512 2669.70686645777 0.00445161619653697
   endloop
endfacet
facet normal 0.966010647719061 0.258502279361793 -7.62615582361105e-006
   outer loop
      vertex 4416.23151308512 2669.70686645777 0.00445161619653697
      vertex 4416.15516498166 2670.28890020767 6.00438235300819
      vertex 4416.23164958019 2669.70653339009 6.00445160539946
   endloop
endfacet
facet normal 0.966010647719061 0.258502279361793 -7.62615582361105e-006
   outer loop
      vertex 4416.15516498166 2670.28890020767 6.00438235300819
      vertex 4416.23151308512 2669.70686645777 0.00445161619653697
      vertex 4416.15502848659 2670.28923327535 0.00438236380527339
   endloop
endfacet
facet normal 0.999999946239767 -0.000327111772828333 -2.27673351713887e-005
   outer loop
      vertex 4416.15502848659 2670.28923327535 0.00438236380527339
      vertex 4416.2320141572 2670.87121902843 6.00431885717252
      vertex 4416.15516498166 2670.28890020767 6.00438235300819
   endloop
endfacet
facet normal 0.999999946239767 -0.000327111772828333 -2.27673351713887e-005
   outer loop
      vertex 4416.2320141572 2670.87121902843 6.00431885717252
      vertex 4416.15502848659 2670.28923327535 0.00438236380527339
      vertex 4416.23187766214 2670.8715520961 0.00431886796959952
   endloop
endfacet
facet normal 0.965841571116737 -0.259133282657645 -3.63569219752904e-005
   outer loop
      vertex 4416.23187766214 2670.8715520961 0.00431886796959952
      vertex 4416.45695996251 2671.41380578706 6.00426544503002
      vertex 4416.2320141572 2670.87121902843 6.00431885717252
   endloop
endfacet
facet normal 0.965841571116737 -0.259133282657645 -3.63569219752904e-005
   outer loop
      vertex 4416.45695996251 2671.41380578706 6.00426544503002
      vertex 4416.23187766214 2670.8715520961 0.00431886796959952
      vertex 4416.45682346745 2671.41413885473 0.00426545582710547
   endloop
endfacet
facet normal 0.865863996787137 -0.500279458717339 -4.74688471869575e-005
   outer loop
      vertex 4416.45682346745 2671.41413885473 0.00426545582710547
      vertex 4416.8146727127 2671.87968409263 6.00422575652829
      vertex 4416.45695996251 2671.41380578706 6.00426544503002
   endloop
endfacet
facet normal 0.865863996787137 -0.500279458717339 -4.74688471869575e-005
   outer loop
      vertex 4416.8146727127 2671.87968409263 6.00422575652829
      vertex 4416.45682346745 2671.41413885473 0.00426545582710547
      vertex 4416.81453621763 2671.88001716031 0.00422576732537438
   endloop
endfacet
facet normal 0.99999997713344 0.000136335990596786 0.000164759271457012
   outer loop
      vertex 4452.40628615514 2675.29211146021 0.00214333811917342
      vertex 4452.40229847017 2697.2930066148 5.99999956089281
      vertex 4452.40642265021 2675.29177839253 6.00214332732209
   endloop
endfacet
facet normal 0.99999997713344 0.000136335990596786 0.000164759271457012
   outer loop
      vertex 4452.40229847017 2697.2930066148 5.99999956089281
      vertex 4452.40628615514 2675.29211146021 0.00214333811917342
      vertex 4452.40441215318 2697.29211127672 0.0
   endloop
endfacet
facet normal 0.241682124585302 -0.970355449195738 0.000229939281126412
   outer loop
      vertex 4465.95452944989 2700.66697975351 0.00382763857910839
      vertex 4452.40229847017 2697.2930066148 5.99999956089281
      vertex 4452.40441215318 2697.29211127672 0.0
   endloop
endfacet
facet normal 0.241682124585302 -0.970355449195738 0.000229939281126412
   outer loop
      vertex 4452.40229847017 2697.2930066148 5.99999956089281
      vertex 4465.95452944989 2700.66697975351 0.00382763857910839
      vertex 4465.95241576688 2700.66787509159 6.00382719947191
   endloop
endfacet
facet normal 0.966086685660436 0.258217954801566 6.00643826797248e-005
   outer loop
      vertex 4465.72971277109 2701.20962002796 0.00377973263675074
      vertex 4465.95241576688 2700.66787509159 6.00382719947191
      vertex 4465.95452944989 2700.66697975351 0.00382763857910839
   endloop
endfacet
facet normal 0.966086685660436 0.258217954801566 6.00643826797248e-005
   outer loop
      vertex 4465.95241576688 2700.66787509159 6.00382719947191
      vertex 4465.72971277109 2701.20962002796 0.00377973263675074
      vertex 4465.72984926615 2701.20928696028 6.00377972183967
   endloop
endfacet
facet normal 0.966086685660436 0.258217954801566 6.00643826797248e-005
   outer loop
      vertex 4465.72971277109 2701.20962002796 0.00377973263675074
      vertex 4465.65313866809 2701.79162405332 6.00372452514469
      vertex 4465.72984926615 2701.20928696028 6.00377972183967
   endloop
endfacet
facet normal 0.966086685660436 0.258217954801566 6.00643826797248e-005
   outer loop
      vertex 4465.65313866809 2701.79162405332 6.00372452514469
      vertex 4465.72971277109 2701.20962002796 0.00377973263675074
      vertex 4465.65300217302 2701.79195712099 0.00372453594176976
   endloop
endfacet
facet normal 0.999999997799956 6.23114769044532e-005 -2.27457189613733e-005
   outer loop
      vertex 4465.65300217302 2701.79195712099 0.00372453594176976
      vertex 4465.72976185126 2702.37397265439 6.00366579926021
      vertex 4465.65313866809 2701.79162405332 6.00372452514469
   endloop
endfacet
facet normal 0.999999997799956 6.23114769044532e-005 -2.27457189613733e-005
   outer loop
      vertex 4465.72976185126 2702.37397265439 6.00366579926021
      vertex 4465.65300217302 2701.79195712099 0.00372453594176976
      vertex 4465.72962535619 2702.37430572207 0.00366581005729259
   endloop
endfacet
facet normal -0.25871638300268 -0.965953327214533 5.30017328462907e-005
   outer loop
      vertex 4467.32082243483 2699.61874918977 0.00389873493229199
      vertex 4466.77603473452 2699.84437974915 6.00388879959293
      vertex 4466.77814841754 2699.84348441107 0.00388923870012325
   endloop
endfacet
facet normal -0.25871638300268 -0.965953327214533 5.30017328462907e-005
   outer loop
      vertex 4466.77603473452 2699.84437974915 6.00388879959293
      vertex 4467.32082243483 2699.61874918977 0.00389873493229199
      vertex 4467.31870875182 2699.61964452785 6.0038982958251
   endloop
endfacet
facet normal 0.965942061314437 -0.258758445008345 -3.63384003270643e-005
   outer loop
      vertex 4465.72962535619 2702.37430572207 0.00366581005729259
      vertex 4465.95449707234 2702.91664666873 6.00360754626029
      vertex 4465.72976185126 2702.37397265439 6.00366579926021
   endloop
endfacet
facet normal 0.965942061314437 -0.258758445008345 -3.63384003270643e-005
   outer loop
      vertex 4465.95449707234 2702.91664666873 6.00360754626029
      vertex 4465.72962535619 2702.37430572207 0.00366581005729259
      vertex 4465.95436057727 2702.91697973641 0.00360755705737199
   endloop
endfacet
facet normal 0.866057402232651 -0.499944570713683 -4.74546569401992e-005
   outer loop
      vertex 4465.95436057727 2702.91697973641 0.00360755705737199
      vertex 4466.31202899742 2703.38266375905 6.00355373598825
      vertex 4465.95449707234 2702.91664666873 6.00360754626029
   endloop
endfacet
facet normal 0.866057402232651 -0.499944570713683 -4.74546569401992e-005
   outer loop
      vertex 4466.31202899742 2703.38266375905 6.00355373598825
      vertex 4465.95436057727 2702.91697973641 0.00360755705737199
      vertex 4466.31189250235 2703.38299682673 0.00355374678533275
   endloop
endfacet
facet normal 0.500070523783329 -0.865984680989791 -5.9448111267103e-005
   outer loop
      vertex 4466.77799241665 2703.7402656308 6.00350803552508
      vertex 4466.31189250235 2703.38299682673 0.00355374678533275
      vertex 4466.77785592158 2703.74059869848 0.00350804632215959
   endloop
endfacet
facet normal 0.500070523783329 -0.865984680989791 -5.9448111267103e-005
   outer loop
      vertex 4466.31189250235 2703.38299682673 0.00355374678533275
      vertex 4466.77799241665 2703.7402656308 6.00350803552508
      vertex 4466.31202899742 2703.38266375905 6.00355373598825
   endloop
endfacet
facet normal 0.258894741368754 -0.965905538523498 -5.95082951414003e-005
   outer loop
      vertex 4467.32063269305 2703.96508230736 6.00347355928335
      vertex 4466.77785592158 2703.74059869848 0.00350804632215959
      vertex 4467.32049619798 2703.96541537504 0.00347357008043583
   endloop
endfacet
facet normal 0.258894741368754 -0.965905538523498 -5.95082951414003e-005
   outer loop
      vertex 4466.77785592158 2703.74059869848 0.00350804632215959
      vertex 4467.32063269305 2703.96508230736 6.00347355928335
      vertex 4466.77799241665 2703.7402656308 6.00350803552508
   endloop
endfacet
facet normal 0.000352280501913132 -0.000149223013331683 -0.999999926815468
   outer loop
      vertex 4473.00369641124 2706.29251882386 0.00812968038864526
      vertex 4469.85147488229 2702.91727222359 0.00351785958651987
      vertex 4469.49387300788 2703.38323564152 0.00348050910555134
   endloop
endfacet
facet normal 0.000352280501913132 -0.000149223013331683 -0.999999926815468
   outer loop
      vertex 4469.85147488229 2702.91727222359 0.00351785958651987
      vertex 4473.00369641124 2706.29251882386 0.00812968038864526
      vertex 4470.0762915611 2702.37463194914 0.00356576552914828
   endloop
endfacet
facet normal 0.000352280501913132 -0.000149223013331683 -0.999999926815468
   outer loop
      vertex 4470.0762915611 2702.37463194914 0.00356576552914828
      vertex 4473.00369641124 2706.29251882386 0.00812968038864526
      vertex 4470.15300215916 2701.7922948561 0.00362096222322687
   endloop
endfacet
facet normal 0.000352280501913132 -0.000149223013331683 -0.999999926815468
   outer loop
      vertex 4452.40441215318 2697.29211127672 0.0
      vertex 4467.32082243483 2699.61874918977 0.00389873493229199
      vertex 4473.0044573592 2697.29251882947 0.00901000103905645
   endloop
endfacet
facet normal 0.000352280501913132 -0.000149223013331683 -0.999999926815468
   outer loop
      vertex 4467.32082243483 2699.61874918977 0.00389873493229199
      vertex 4452.40441215318 2697.29211127672 0.0
      vertex 4466.77814841754 2699.84348441107 0.00388923870012325
   endloop
endfacet
facet normal 0.000352280501913132 -0.000149223013331683 -0.999999926815468
   outer loop
      vertex 4466.77814841754 2699.84348441107 0.00388923870012325
      vertex 4452.40441215318 2697.29211127672 0.0
      vertex 4466.3121313243 2700.20101633558 0.00386498905800147
   endloop
endfacet
facet normal 0.000352280501913132 -0.000149223013331683 -0.999999926815468
   outer loop
      vertex 4466.3121313243 2700.20101633558 0.00386498905800147
      vertex 4452.40441215318 2697.29211127672 0.0
      vertex 4465.95452944989 2700.66697975351 0.00382763857910839
   endloop
endfacet
facet normal 0.000352280501913132 -0.000149223013331683 -0.999999926815468
   outer loop
      vertex 4473.0044573592 2697.29251882947 0.00901000103905645
      vertex 4467.32082243483 2699.61874918977 0.00389873493229199
      vertex 4467.90317103871 2699.54212600565 0.0038928306026104
   endloop
endfacet
facet normal 0.000352280501913132 -0.000149223013331683 -0.999999926815468
   outer loop
      vertex 4473.0044573592 2697.29251882947 0.00901000103905645
      vertex 4467.90317103871 2699.54212600565 0.0038928306026104
      vertex 4468.4855081342 2699.61883660205 0.00387192808149263
   endloop
endfacet
facet normal 0.000352280501913132 -0.000149223013331683 -0.999999926815468
   outer loop
      vertex 4473.0044573592 2697.29251882947 0.00901000103905645
      vertex 4468.4855081342 2699.61883660205 0.00387192808149263
      vertex 4469.0281484106 2699.84365327862 0.00383745184139321
   endloop
endfacet
facet normal 0.000352280501913132 -0.000149223013331683 -0.999999926815468
   outer loop
      vertex 4473.0044573592 2697.29251882947 0.00901000103905645
      vertex 4469.0281484106 2699.84365327862 0.00383745184139321
      vertex 4469.49411182983 2700.20125515036 0.00379175137984437
   endloop
endfacet
facet normal 0.000352280501913132 -0.000149223013331683 -0.999999926815468
   outer loop
      vertex 4473.0044573592 2697.29251882947 0.00901000103905645
      vertex 4469.49411182983 2700.20125515036 0.00379175137984437
      vertex 4469.85164375491 2700.66727224069 0.00373794110780508
   endloop
endfacet
facet normal 0.000352280501913132 -0.000149223013331683 -0.999999926815468
   outer loop
      vertex 4473.0044573592 2697.29251882947 0.00901000103905645
      vertex 4469.85164375491 2700.66727224069 0.00373794110780508
      vertex 4470.07637897599 2701.20994625503 0.00367968810752357
   endloop
endfacet
facet normal 0.000352280501913132 -0.000149223013331683 -0.999999926815468
   outer loop
      vertex 4473.0044573592 2697.29251882947 0.00901000103905645
      vertex 4470.07637897599 2701.20994625503 0.00367968810752357
      vertex 4470.15300215916 2701.7922948561 0.00362096222322687
   endloop
endfacet
facet normal 0.000352280501913132 -0.000149223013331683 -0.999999926815468
   outer loop
      vertex 4473.0044573592 2697.29251882947 0.00901000103905645
      vertex 4470.15300215916 2701.7922948561 0.00362096222322687
      vertex 4473.00369641124 2706.29251882386 0.00812968038864526
   endloop
endfacet
facet normal 7.50735192385143e-005 -0.999999995641138 -5.55129873951441e-005
   outer loop
      vertex 4467.90296978854 2704.04179290377 6.00345265676251
      vertex 4467.32049619798 2703.96541537504 0.00347357008043583
      vertex 4467.90283329347 2704.04212597145 0.00345266755958878
   endloop
endfacet
facet normal 7.50735192385143e-005 -0.999999995641138 -5.55129873951441e-005
   outer loop
      vertex 4467.32049619798 2703.96541537504 0.00347357008043583
      vertex 4467.90296978854 2704.04179290377 6.00345265676251
      vertex 4467.32063269305 2703.96508230736 6.00347355928335
   endloop
endfacet
facet normal -0.258749712075623 -0.965944400171253 -4.77344665884354e-005
   outer loop
      vertex 4468.48531839242 2703.96516971964 6.00344675243265
      vertex 4467.90283329347 2704.04212597145 0.00345266755958878
      vertex 4468.48518189735 2703.96550278732 0.00344676322972672
   endloop
endfacet
facet normal -0.258749712075623 -0.965944400171253 -4.77344665884354e-005
   outer loop
      vertex 4467.90283329347 2704.04212597145 0.00345266755958878
      vertex 4468.48531839242 2703.96516971964 6.00344675243265
      vertex 4467.90296978854 2704.04179290377 6.00345265676251
   endloop
endfacet
facet normal -0.500075075692094 -0.865982052831934 -5.33341965482994e-005
   outer loop
      vertex 4469.02785591465 2703.74076756603 0.00345625946451242
      vertex 4468.48531839242 2703.96516971964 6.00344675243265
      vertex 4468.48518189735 2703.96550278732 0.00344676322972672
   endloop
endfacet
facet normal -0.500075075692094 -0.865982052831934 -5.33341965482994e-005
   outer loop
      vertex 4468.48531839242 2703.96516971964 6.00344675243265
      vertex 4469.02785591465 2703.74076756603 0.00345625946451242
      vertex 4469.02799240971 2703.74043449835 6.00345624866743
   endloop
endfacet
facet normal -0.60896859785362 -0.793194328546027 -6.31713078586365e-005
   outer loop
      vertex 4469.49387300788 2703.38323564152 0.00348050910555134
      vertex 4469.02799240971 2703.74043449835 6.00345624866743
      vertex 4469.02785591465 2703.74076756603 0.00345625946451242
   endloop
endfacet
facet normal -0.60896859785362 -0.793194328546027 -6.31713078586365e-005
   outer loop
      vertex 4469.02799240971 2703.74043449835 6.00345624866743
      vertex 4469.49387300788 2703.38323564152 0.00348050910555134
      vertex 4469.49175932487 2703.3841309796 6.00348006999836
   endloop
endfacet
facet normal 0.638166314222997 -0.769898460834186 0.000339700142639715
   outer loop
      vertex 4473.00369641124 2706.29251882386 0.00812968038864526
      vertex 4469.49175932487 2703.3841309796 6.00348006999836
      vertex 4469.49387300788 2703.38323564152 0.00348050910555134
   endloop
endfacet
facet normal 0.638166314222997 -0.769898460834186 0.000339700142639715
   outer loop
      vertex 4469.49175932487 2703.3841309796 6.00348006999836
      vertex 4473.00369641124 2706.29251882386 0.00812968038864526
      vertex 4473.00158272823 2706.29341416194 6.00812924128145
   endloop
endfacet
facet normal -9.98582802052504e-006 0.999999998852328 -4.68575109328981e-005
   outer loop
      vertex 4411.50752521637 2706.29218575618 6.00575366771062
      vertex 4473.00369641124 2706.29251882386 0.00812968038864526
      vertex 4411.5073887213 2706.29251882386 0.0057536785076989
   endloop
endfacet
facet normal -9.98582802052504e-006 0.999999998852328 -4.68575109328981e-005
   outer loop
      vertex 4473.00369641124 2706.29251882386 0.00812968038864526
      vertex 4411.50752521637 2706.29218575618 6.00575366771062
      vertex 4473.00158272823 2706.29341416194 6.00812924128145
   endloop
endfacet
facet normal -0.999999999741237 -1.31819123694326e-009 2.27491779221891e-005
   outer loop
      vertex 4411.50752521637 2706.29218575618 6.00575366771062
      vertex 4411.5073887213 2665.28777837479 0.00337767662675254
      vertex 4411.50752521637 2665.28744530711 6.00337766582967
   endloop
endfacet
facet normal -0.999999999741237 -1.31819123694326e-009 2.27491779221891e-005
   outer loop
      vertex 4411.5073887213 2665.28777837479 0.00337767662675254
      vertex 4411.50752521637 2706.29218575618 6.00575366771062
      vertex 4411.5073887213 2706.29251882386 0.0057536785076989
   endloop
endfacet
facet normal 2.27517768952539e-005 -5.55106690687136e-005 0.999999998200461
   outer loop
      vertex 4411.50752521637 2665.28744530711 6.00337766582967
      vertex 4416.15516498166 2670.28890020767 6.00438235300819
      vertex 4411.50752521637 2706.29218575618 6.00575366771062
   endloop
endfacet
facet normal 2.27517768952539e-005 -5.55106690687136e-005 0.999999998200461
   outer loop
      vertex 4416.15516498166 2670.28890020767 6.00438235300819
      vertex 4411.50752521637 2665.28744530711 6.00337766582967
      vertex 4416.23164958019 2669.70653339009 6.00445160539946
   endloop
endfacet
facet normal 2.27517768952539e-005 -5.55106690687136e-005 0.999999998200461
   outer loop
      vertex 4416.23164958019 2669.70653339009 6.00445160539946
      vertex 4411.50752521637 2665.28744530711 6.00337766582967
      vertex 4416.45625565381 2669.16380591191 6.00452189491059
   endloop
endfacet
facet normal 2.27517768952539e-005 -5.55106690687136e-005 0.999999998200461
   outer loop
      vertex 4416.45625565381 2669.16380591191 6.00452189491059
      vertex 4411.50752521637 2665.28744530711 6.00337766582967
      vertex 4416.81367666979 2668.69770375386 6.00458843142769
   endloop
endfacet
facet normal 2.27517768952539e-005 -5.55106690687136e-005 0.999999998200461
   outer loop
      vertex 4416.81367666979 2668.69770375386 6.00458843142769
      vertex 4411.50752521637 2665.28744530711 6.00337766582967
      vertex 4417.27955497653 2668.33999100774 6.00464668059616
   endloop
endfacet
facet normal 2.27517768952539e-005 -5.55106690687136e-005 0.999999998200461
   outer loop
      vertex 4417.27955497653 2668.33999100774 6.00464668059616
      vertex 4411.50752521637 2665.28744530711 6.00337766582967
      vertex 4422.90540865027 2665.28851321131 6.00380503193775
   endloop
endfacet
facet normal 2.27517768952539e-005 -5.55106690687136e-005 0.999999998200461
   outer loop
      vertex 4417.27955497653 2668.33999100774 6.00464668059616
      vertex 4422.90540865027 2665.28851321131 6.00380503193775
      vertex 4417.82214173734 2668.11504520605 6.00469267283319
   endloop
endfacet
facet normal 2.27517768952539e-005 -5.55106690687136e-005 0.999999998200461
   outer loop
      vertex 4417.82214173734 2668.11504520605 6.00469267283319
      vertex 4422.90540865027 2665.28851321131 6.00380503193775
      vertex 4418.40446056115 2668.03819603344 6.00472327384215
   endloop
endfacet
facet normal 2.27517768952539e-005 -5.55106690687136e-005 0.999999998200461
   outer loop
      vertex 4418.40446056115 2668.03819603344 6.00472327384215
      vertex 4422.90540865027 2665.28851321131 6.00380503193775
      vertex 4418.98682738243 2668.11468063402 6.00473639821576
   endloop
endfacet
facet normal 2.27517768952539e-005 -5.55106690687136e-005 0.999999998200461
   outer loop
      vertex 4418.98682738243 2668.11468063402 6.00473639821576
      vertex 4422.90540865027 2665.28851321131 6.00380503193775
      vertex 4419.52955486471 2668.33928670867 6.00473115155
   endloop
endfacet
facet normal 2.27517768952539e-005 -5.55106690687136e-005 0.999999998200461
   outer loop
      vertex 4419.52955486471 2668.33928670867 6.00473115155
      vertex 4422.90540865027 2665.28851321131 6.00380503193775
      vertex 4419.99565702699 2668.69670772456 6.00470789139595
   endloop
endfacet
facet normal 2.27517768952539e-005 -5.55106690687136e-005 0.999999998200461
   outer loop
      vertex 4419.99565702699 2668.69670772456 6.00470789139595
      vertex 4422.90540865027 2665.28851321131 6.00380503193775
      vertex 4420.35336977717 2669.16258603013 6.00466820289431
   endloop
endfacet
facet normal 2.27517768952539e-005 -5.55106690687136e-005 0.999999998200461
   outer loop
      vertex 4420.35336977717 2669.16258603013 6.00466820289431
      vertex 4422.90540865027 2665.28851321131 6.00380503193775
      vertex 4420.57831558248 2669.70517278876 6.00461479075163
   endloop
endfacet
facet normal 2.27517768952539e-005 -5.55106690687136e-005 0.999999998200461
   outer loop
      vertex 4420.57831558248 2669.70517278876 6.00461479075163
      vertex 4422.90540865027 2665.28851321131 6.00380503193775
      vertex 4420.65516475802 2670.28749160952 6.00455129491605
   endloop
endfacet
facet normal 2.27517768952539e-005 -5.55106690687136e-005 0.999999998200461
   outer loop
      vertex 4420.65516475802 2670.28749160952 6.00455129491605
      vertex 4422.90540865027 2665.28851321131 6.00380503193775
      vertex 4422.90467093599 2675.28851311913 6.00266510956037
   endloop
endfacet
facet normal 2.27517768952539e-005 -5.55106690687136e-005 0.999999998200461
   outer loop
      vertex 4452.40642265021 2675.29177839253 6.00214332732209
      vertex 4452.40229847017 2697.2930066148 5.99999956089281
      vertex 4422.90467093599 2675.28851311913 6.00266510956037
   endloop
endfacet
facet normal 2.27517768952539e-005 -5.55106690687136e-005 0.999999998200461
   outer loop
      vertex 4452.40229847017 2697.2930066148 5.99999956089281
      vertex 4465.72984926615 2701.20928696028 6.00377972183967
      vertex 4465.65313866809 2701.79162405332 6.00372452514469
   endloop
endfacet
facet normal 2.27517768952539e-005 -5.55106690687136e-005 0.999999998200461
   outer loop
      vertex 4465.72984926615 2701.20928696028 6.00377972183967
      vertex 4452.40229847017 2697.2930066148 5.99999956089281
      vertex 4465.95241576688 2700.66787509159 6.00382719947191
   endloop
endfacet
facet normal 2.27517768952539e-005 -5.55106690687136e-005 0.999999998200461
   outer loop
      vertex 4411.50752521637 2706.29218575618 6.00575366771062
      vertex 4467.32063269305 2703.96508230736 6.00347355928335
      vertex 4473.00158272823 2706.29341416194 6.00812924128145
   endloop
endfacet
facet normal 2.27517768952539e-005 -5.55106690687136e-005 0.999999998200461
   outer loop
      vertex 4467.32063269305 2703.96508230736 6.00347355928335
      vertex 4411.50752521637 2706.29218575618 6.00575366771062
      vertex 4466.77799241665 2703.7402656308 6.00350803552508
   endloop
endfacet
facet normal 2.27517768952539e-005 -5.55106690687136e-005 0.999999998200461
   outer loop
      vertex 4466.77799241665 2703.7402656308 6.00350803552508
      vertex 4411.50752521637 2706.29218575618 6.00575366771062
      vertex 4452.40229847017 2697.2930066148 5.99999956089281
   endloop
endfacet
facet normal 2.27517768952539e-005 -5.55106690687136e-005 0.999999998200461
   outer loop
      vertex 4452.40229847017 2697.2930066148 5.99999956089281
      vertex 4411.50752521637 2706.29218575618 6.00575366771062
      vertex 4417.28077487498 2672.23710510852 6.00420249637334
   endloop
endfacet
facet normal 2.27517768952539e-005 -5.55106690687136e-005 0.999999998200461
   outer loop
      vertex 4417.28077487498 2672.23710510852 6.00420249637334
      vertex 4411.50752521637 2706.29218575618 6.00575366771062
      vertex 4416.8146727127 2671.87968409263 6.00422575652829
   endloop
endfacet
facet normal 2.27517768952539e-005 -5.55106690687136e-005 0.999999998200461
   outer loop
      vertex 4416.8146727127 2671.87968409263 6.00422575652829
      vertex 4411.50752521637 2706.29218575618 6.00575366771062
      vertex 4416.45695996251 2671.41380578706 6.00426544503002
   endloop
endfacet
facet normal 2.27517768952539e-005 -5.55106690687136e-005 0.999999998200461
   outer loop
      vertex 4416.45695996251 2671.41380578706 6.00426544503002
      vertex 4411.50752521637 2706.29218575618 6.00575366771062
      vertex 4416.2320141572 2670.87121902843 6.00431885717252
   endloop
endfacet
facet normal 2.27517768952539e-005 -5.55106690687136e-005 0.999999998200461
   outer loop
      vertex 4416.2320141572 2670.87121902843 6.00431885717252
      vertex 4411.50752521637 2706.29218575618 6.00575366771062
      vertex 4416.15516498166 2670.28890020767 6.00438235300819
   endloop
endfacet
facet normal 2.27517768952539e-005 -5.55106690687136e-005 0.999999998200461
   outer loop
      vertex 4452.40229847017 2697.2930066148 5.99999956089281
      vertex 4417.28077487498 2672.23710510852 6.00420249637334
      vertex 4417.82350235726 2672.46171118316 6.00419724970776
   endloop
endfacet
facet normal 2.27517768952539e-005 -5.55106690687136e-005 0.999999998200461
   outer loop
      vertex 4452.40229847017 2697.2930066148 5.99999956089281
      vertex 4417.82350235726 2672.46171118316 6.00419724970776
      vertex 4418.40586917854 2672.53819578375 6.00421037408146
   endloop
endfacet
facet normal 2.27517768952539e-005 -5.55106690687136e-005 0.999999998200461
   outer loop
      vertex 4452.40229847017 2697.2930066148 5.99999956089281
      vertex 4418.40586917854 2672.53819578375 6.00421037408146
      vertex 4418.98818800234 2672.46134661114 6.0042409750906
   endloop
endfacet
facet normal 2.27517768952539e-005 -5.55106690687136e-005 0.999999998200461
   outer loop
      vertex 4452.40229847017 2697.2930066148 5.99999956089281
      vertex 4418.98818800234 2672.46134661114 6.0042409750906
      vertex 4422.90467093599 2675.28851311913 6.00266510956037
   endloop
endfacet
facet normal 2.27517768952539e-005 -5.55106690687136e-005 0.999999998200461
   outer loop
      vertex 4422.90467093599 2675.28851311913 6.00266510956037
      vertex 4418.98818800234 2672.46134661114 6.0042409750906
      vertex 4419.53077476316 2672.23640080945 6.00428696732727
   endloop
endfacet
facet normal 2.27517768952539e-005 -5.55106690687136e-005 0.999999998200461
   outer loop
      vertex 4422.90467093599 2675.28851311913 6.00266510956037
      vertex 4419.53077476316 2672.23640080945 6.00428696732727
      vertex 4419.9966530699 2671.87868806333 6.00434521649619
   endloop
endfacet
facet normal 2.27517768952539e-005 -5.55106690687136e-005 0.999999998200461
   outer loop
      vertex 4422.90467093599 2675.28851311913 6.00266510956037
      vertex 4419.9966530699 2671.87868806333 6.00434521649619
      vertex 4420.35407408587 2671.41258590528 6.00441175301419
   endloop
endfacet
facet normal 2.27517768952539e-005 -5.55106690687136e-005 0.999999998200461
   outer loop
      vertex 4422.90467093599 2675.28851311913 6.00266510956037
      vertex 4420.35407408587 2671.41258590528 6.00441175301419
      vertex 4420.57868015949 2670.8698584271 6.00448204252451
   endloop
endfacet
facet normal 2.27517768952539e-005 -5.55106690687136e-005 0.999999998200461
   outer loop
      vertex 4422.90467093599 2675.28851311913 6.00266510956037
      vertex 4420.57868015949 2670.8698584271 6.00448204252451
      vertex 4420.65516475802 2670.28749160952 6.00455129491605
   endloop
endfacet
facet normal 2.27517768952539e-005 -5.55106690687136e-005 0.999999998200461
   outer loop
      vertex 4466.77799241665 2703.7402656308 6.00350803552508
      vertex 4452.40229847017 2697.2930066148 5.99999956089281
      vertex 4466.31202899742 2703.38266375905 6.00355373598825
   endloop
endfacet
facet normal 2.27517768952539e-005 -5.55106690687136e-005 0.999999998200461
   outer loop
      vertex 4466.31202899742 2703.38266375905 6.00355373598825
      vertex 4452.40229847017 2697.2930066148 5.99999956089281
      vertex 4465.95449707234 2702.91664666873 6.00360754626029
   endloop
endfacet
facet normal 2.27517768952539e-005 -5.55106690687136e-005 0.999999998200461
   outer loop
      vertex 4465.95449707234 2702.91664666873 6.00360754626029
      vertex 4452.40229847017 2697.2930066148 5.99999956089281
      vertex 4465.72976185126 2702.37397265439 6.00366579926021
   endloop
endfacet
facet normal 2.27517768952539e-005 -5.55106690687136e-005 0.999999998200461
   outer loop
      vertex 4465.72976185126 2702.37397265439 6.00366579926021
      vertex 4452.40229847017 2697.2930066148 5.99999956089281
      vertex 4465.65313866809 2701.79162405332 6.00372452514469
   endloop
endfacet
facet normal 2.27517768952539e-005 -5.55106690687136e-005 0.999999998200461
   outer loop
      vertex 4473.00158272823 2706.29341416194 6.00812924128145
      vertex 4467.32063269305 2703.96508230736 6.00347355928335
      vertex 4467.90296978854 2704.04179290377 6.00345265676251
   endloop
endfacet
facet normal 2.27517768952539e-005 -5.55106690687136e-005 0.999999998200461
   outer loop
      vertex 4473.00158272823 2706.29341416194 6.00812924128145
      vertex 4467.90296978854 2704.04179290377 6.00345265676251
      vertex 4468.48531839242 2703.96516971964 6.00344675243265
   endloop
endfacet
facet normal 2.27517768952539e-005 -5.55106690687136e-005 0.999999998200461
   outer loop
      vertex 4473.00158272823 2706.29341416194 6.00812924128145
      vertex 4468.48531839242 2703.96516971964 6.00344675243265
      vertex 4469.02799240971 2703.74043449835 6.00345624866743
   endloop
endfacet
facet normal 2.27517768952539e-005 -5.55106690687136e-005 0.999999998200461
   outer loop
      vertex 4473.00158272823 2706.29341416194 6.00812924128145
      vertex 4469.02799240971 2703.74043449835 6.00345624866743
      vertex 4469.49175932487 2703.3841309796 6.00348006999836
   endloop
endfacet
facet normal 0.499731225525721 -0.866180523159063 -5.94512639600956e-005
   outer loop
      vertex 4417.28077487498 2672.23710510852 6.00420249637334
      vertex 4416.81453621763 2671.88001716031 0.00422576732537438
      vertex 4417.28063837991 2672.2374381762 0.00420250717042122
   endloop
endfacet
facet normal 0.499731225525721 -0.866180523159063 -5.94512639600956e-005
   outer loop
      vertex 4416.81453621763 2671.88001716031 0.00422576732537438
      vertex 4417.28077487498 2672.23710510852 6.00420249637334
      vertex 4416.8146727127 2671.87968409263 6.00422575652829
   endloop
endfacet
facet normal 0.25851551977883 -0.966007102713329 -5.95053061201061e-005
   outer loop
      vertex 4417.82350235726 2672.46171118316 6.00419724970776
      vertex 4417.28063837991 2672.2374381762 0.00420250717042122
      vertex 4417.82336586219 2672.46204425084 0.00419726050484005
   endloop
endfacet
facet normal 0.25851551977883 -0.966007102713329 -5.95053061201061e-005
   outer loop
      vertex 4417.28063837991 2672.2374381762 0.00420250717042122
      vertex 4417.82350235726 2672.46171118316 6.00419724970776
      vertex 4417.28077487498 2672.23710510852 6.00420249637334
   endloop
endfacet
facet normal -0.000308008402031929 -0.999999951025049 -5.55042701196318e-005
   outer loop
      vertex 4418.40573268347 2672.53852885142 0.00421038487854301
      vertex 4417.82350235726 2672.46171118316 6.00419724970776
      vertex 4417.82336586219 2672.46204425084 0.00419726050484005
   endloop
endfacet
facet normal -0.000308008402031929 -0.999999951025049 -5.55042701196318e-005
   outer loop
      vertex 4417.82350235726 2672.46171118316 6.00419724970776
      vertex 4418.40573268347 2672.53852885142 0.00421038487854301
      vertex 4418.40586917854 2672.53819578375 6.00421037408146
   endloop
endfacet
facet normal -0.499909756635734 -0.866077498278085 -4.68697693372289e-005
   outer loop
      vertex 4466.77814841754 2699.84348441107 0.00388923870012325
      vertex 4466.31001764129 2700.20191167366 6.00386454995081
      vertex 4466.3121313243 2700.20101633558 0.00386498905800147
   endloop
endfacet
facet normal -0.499909756635734 -0.866077498278085 -4.68697693372289e-005
   outer loop
      vertex 4466.31001764129 2700.20191167366 6.00386454995081
      vertex 4466.77814841754 2699.84348441107 0.00388923870012325
      vertex 4466.77603473452 2699.84437974915 6.00388879959293
   endloop
endfacet
facet normal -0.259113188130474 -0.965846961717843 -4.77207888737161e-005
   outer loop
      vertex 4418.98805150727 2672.46167967882 0.00424098588767867
      vertex 4418.40586917854 2672.53819578375 6.00421037408146
      vertex 4418.40573268347 2672.53852885142 0.00421038487854301
   endloop
endfacet
facet normal -0.259113188130474 -0.965846961717843 -4.77207888737161e-005
   outer loop
      vertex 4418.40586917854 2672.53819578375 6.00421037408146
      vertex 4418.98805150727 2672.46167967882 0.00424098588767867
      vertex 4418.98818800234 2672.46134661114 6.0042409750906
   endloop
endfacet
facet normal -0.500261201042325 -0.865874545985665 -3.66852730637193e-005
   outer loop
      vertex 4419.53063826809 2672.23673387713 0.00428697812435005
      vertex 4418.98818800234 2672.46134661114 6.0042409750906
      vertex 4418.98805150727 2672.46167967882 0.00424098588767867
   endloop
endfacet
facet normal -0.500261201042325 -0.865874545985665 -3.66852730637193e-005
   outer loop
      vertex 4418.98818800234 2672.46134661114 6.0042409750906
      vertex 4419.53063826809 2672.23673387713 0.00428697812435005
      vertex 4419.53077476316 2672.23640080945 6.00428696732727
   endloop
endfacet
facet normal -0.707318539617382 -0.706894958942008 -2.31497284769159e-005
   outer loop
      vertex 4419.99651657483 2671.87902113101 0.00434522729326965
      vertex 4419.53077476316 2672.23640080945 6.00428696732727
      vertex 4419.53063826809 2672.23673387713 0.00428697812435005
   endloop
endfacet
facet normal -0.707318539617382 -0.706894958942008 -2.31497284769159e-005
   outer loop
      vertex 4419.53077476316 2672.23640080945 6.00428696732727
      vertex 4419.99651657483 2671.87902113101 0.00434522729326965
      vertex 4419.9966530699 2671.87868806333 6.00434521649619
   endloop
endfacet
facet normal -0.707337628257036 -0.706875858348459 -2.31482339276622e-005
   outer loop
      vertex 4419.9966530699 2671.87868806333 6.00434521649619
      vertex 4420.3539375908 2671.41291897296 0.00441176381127143
      vertex 4420.35407408587 2671.41258590528 6.00441175301419
   endloop
endfacet
facet normal -0.707337628257036 -0.706875858348459 -2.31482339276622e-005
   outer loop
      vertex 4420.3539375908 2671.41291897296 0.00441176381127143
      vertex 4419.9966530699 2671.87868806333 6.00434521649619
      vertex 4419.99651657483 2671.87902113101 0.00434522729326965
   endloop
endfacet
facet normal -0.866189219118387 -0.499716156051133 -8.03479061878242e-006
   outer loop
      vertex 4420.35407408587 2671.41258590528 6.00441175301419
      vertex 4420.57854366442 2670.87019149478 0.00448205332159675
      vertex 4420.57868015949 2670.8698584271 6.00448204252451
   endloop
endfacet
facet normal -0.866189219118387 -0.499716156051133 -8.03479061878242e-006
   outer loop
      vertex 4420.57854366442 2670.87019149478 0.00448205332159675
      vertex 4420.35407408587 2671.41258590528 6.00441175301419
      vertex 4420.3539375908 2671.41291897296 0.00441176381127143
   endloop
endfacet
facet normal -0.966010647719433 -0.258502279360401 7.62615582369684e-006
   outer loop
      vertex 4420.57868015949 2670.8698584271 6.00448204252451
      vertex 4420.65502826296 2670.2878246772 0.00455130571313109
      vertex 4420.65516475802 2670.28749160952 6.00455129491605
   endloop
endfacet
facet normal -0.966010647719433 -0.258502279360401 7.62615582369684e-006
   outer loop
      vertex 4420.65502826296 2670.2878246772 0.00455130571313109
      vertex 4420.57868015949 2670.8698584271 6.00448204252451
      vertex 4420.57854366442 2670.87019149478 0.00448205332159675
   endloop
endfacet
facet normal -0.999999946239767 0.000327111771718287 2.27673351713271e-005
   outer loop
      vertex 4420.65516475802 2670.28749160952 6.00455129491605
      vertex 4420.57817908741 2669.70550585644 0.00461480154871468
      vertex 4420.57831558248 2669.70517278876 6.00461479075163
   endloop
endfacet
facet normal -0.999999946239767 0.000327111771718287 2.27673351713271e-005
   outer loop
      vertex 4420.57817908741 2669.70550585644 0.00461480154871468
      vertex 4420.65516475802 2670.28749160952 6.00455129491605
      vertex 4420.65502826296 2670.2878246772 0.00455130571313109
   endloop
endfacet
facet normal -0.965841571117126 0.259133282656197 3.63569219752189e-005
   outer loop
      vertex 4420.57831558248 2669.70517278876 6.00461479075163
      vertex 4420.3532332821 2669.16291909781 0.0046682136913892
      vertex 4420.35336977717 2669.16258603013 6.00466820289431
   endloop
endfacet
facet normal -0.965841571117126 0.259133282656197 3.63569219752189e-005
   outer loop
      vertex 4420.3532332821 2669.16291909781 0.0046682136913892
      vertex 4420.57831558248 2669.70517278876 6.00461479075163
      vertex 4420.57817908741 2669.70550585644 0.00461480154871468
   endloop
endfacet
facet normal -0.865863996787861 0.500279458716086 4.74688471869044e-005
   outer loop
      vertex 4420.35336977717 2669.16258603013 6.00466820289431
      vertex 4419.99552053192 2668.69704079223 0.00470790219303005
      vertex 4419.99565702699 2668.69670772456 6.00470789139595
   endloop
endfacet
facet normal -0.865863996787861 0.500279458716086 4.74688471869044e-005
   outer loop
      vertex 4419.99552053192 2668.69704079223 0.00470790219303005
      vertex 4420.35336977717 2669.16258603013 6.00466820289431
      vertex 4420.3532332821 2669.16291909781 0.0046682136913892
   endloop
endfacet
facet normal -0.707071424119561 -0.707142121912174 -0.000143565608398315
   outer loop
      vertex 4466.31001764129 2700.20191167366 6.00386454995081
      vertex 4465.95452944989 2700.66697975351 0.00382763857910839
      vertex 4466.3121313243 2700.20101633558 0.00386498905800147
   endloop
endfacet
facet normal -0.707071424119561 -0.707142121912174 -0.000143565608398315
   outer loop
      vertex 4465.95452944989 2700.66697975351 0.00382763857910839
      vertex 4466.31001764129 2700.20191167366 6.00386454995081
      vertex 4465.95241576688 2700.66787509159 6.00382719947191
   endloop
endfacet
facet normal -0.49973122552654 0.866180523158591 5.9451263960088e-005
   outer loop
      vertex 4419.52941836964 2668.33961977634 0.00473116234708087
      vertex 4419.99565702699 2668.69670772456 6.00470789139595
      vertex 4419.99552053192 2668.69704079223 0.00470790219303005
   endloop
endfacet
facet normal -0.49973122552654 0.866180523158591 5.9451263960088e-005
   outer loop
      vertex 4419.99565702699 2668.69670772456 6.00470789139595
      vertex 4419.52941836964 2668.33961977634 0.00473116234708087
      vertex 4419.52955486471 2668.33928670867 6.00473115155
   endloop
endfacet
facet normal -1.97188006961402e-005 0.999999988670793 -0.000149229969123885
   outer loop
      vertex 4452.40229847017 2697.2930066148 5.99999956089281
      vertex 4473.0044573592 2697.29251882947 0.00901000103905645
      vertex 4452.40441215318 2697.29211127672 0.0
   endloop
endfacet
facet normal -1.97188006961402e-005 0.999999988670793 -0.000149229969123885
   outer loop
      vertex 4473.0044573592 2697.29251882947 0.00901000103905645
      vertex 4452.40229847017 2697.2930066148 5.99999956089281
      vertex 4473.00234367619 2697.29341416755 6.00900956193186
   endloop
endfacet
facet normal -0.999999934376422 -8.45842238166958e-005 -0.000352267882671965
   outer loop
      vertex 4473.00234367619 2697.29341416755 6.00900956193186
      vertex 4473.00369641124 2706.29251882386 0.00812968038864526
      vertex 4473.0044573592 2697.29251882947 0.00901000103905645
   endloop
endfacet
facet normal -0.999999934376422 -8.45842238166958e-005 -0.000352267882671965
   outer loop
      vertex 4473.00369641124 2706.29251882386 0.00812968038864526
      vertex 4473.00234367619 2697.29341416755 6.00900956193186
      vertex 4473.00158272823 2706.29341416194 6.00812924128145
   endloop
endfacet
facet normal 0.000352280501913138 -0.000149223013331687 -0.999999926815468
   outer loop
      vertex 4473.00158272823 2706.29341416194 6.00812924128145
      vertex 4469.84936119928 2702.91816756167 6.00351742047933
      vertex 4469.49175932487 2703.3841309796 6.00348006999836
   endloop
endfacet
facet normal 0.000352280501913138 -0.000149223013331687 -0.999999926815468
   outer loop
      vertex 4469.84936119928 2702.91816756167 6.00351742047933
      vertex 4473.00158272823 2706.29341416194 6.00812924128145
      vertex 4470.07417787808 2702.37552728722 6.00356532642195
   endloop
endfacet
facet normal 0.000352280501913138 -0.000149223013331687 -0.999999926815468
   outer loop
      vertex 4470.07417787808 2702.37552728722 6.00356532642195
      vertex 4473.00158272823 2706.29341416194 6.00812924128145
      vertex 4470.15088847615 2701.79319019418 6.00362052311603
   endloop
endfacet
facet normal 0.000352280501913138 -0.000149223013331687 -0.999999926815468
   outer loop
      vertex 4452.40229847017 2697.2930066148 5.99999956089281
      vertex 4467.31870875182 2699.61964452785 6.0038982958251
      vertex 4473.00234367619 2697.29341416755 6.00900956193186
   endloop
endfacet
facet normal 0.000352280501913138 -0.000149223013331687 -0.999999926815468
   outer loop
      vertex 4467.31870875182 2699.61964452785 6.0038982958251
      vertex 4452.40229847017 2697.2930066148 5.99999956089281
      vertex 4466.77603473452 2699.84437974915 6.00388879959293
   endloop
endfacet
facet normal 0.000352280501913138 -0.000149223013331687 -0.999999926815468
   outer loop
      vertex 4466.77603473452 2699.84437974915 6.00388879959293
      vertex 4452.40229847017 2697.2930066148 5.99999956089281
      vertex 4466.31001764129 2700.20191167366 6.00386454995081
   endloop
endfacet
facet normal 0.000352280501913138 -0.000149223013331687 -0.999999926815468
   outer loop
      vertex 4466.31001764129 2700.20191167366 6.00386454995081
      vertex 4452.40229847017 2697.2930066148 5.99999956089281
      vertex 4465.95241576688 2700.66787509159 6.00382719947191
   endloop
endfacet
facet normal 0.000352280501913138 -0.000149223013331687 -0.999999926815468
   outer loop
      vertex 4473.00234367619 2697.29341416755 6.00900956193186
      vertex 4467.31870875182 2699.61964452785 6.0038982958251
      vertex 4467.9010573557 2699.54302134373 6.00389239149542
   endloop
endfacet
facet normal 0.000352280501913138 -0.000149223013331687 -0.999999926815468
   outer loop
      vertex 4473.00234367619 2697.29341416755 6.00900956193186
      vertex 4467.9010573557 2699.54302134373 6.00389239149542
      vertex 4468.48339445119 2699.61973194013 6.0038714889743
   endloop
endfacet
facet normal 0.000352280501913138 -0.000149223013331687 -0.999999926815468
   outer loop
      vertex 4473.00234367619 2697.29341416755 6.00900956193186
      vertex 4468.48339445119 2699.61973194013 6.0038714889743
      vertex 4469.02603472759 2699.8445486167 6.0038370127342
   endloop
endfacet
facet normal 0.000352280501913138 -0.000149223013331687 -0.999999926815468
   outer loop
      vertex 4473.00234367619 2697.29341416755 6.00900956193186
      vertex 4469.02603472759 2699.8445486167 6.0038370127342
      vertex 4469.49199814682 2700.20215048844 6.00379131227265
   endloop
endfacet
facet normal 0.000352280501913138 -0.000149223013331687 -0.999999926815468
   outer loop
      vertex 4473.00234367619 2697.29341416755 6.00900956193186
      vertex 4469.49199814682 2700.20215048844 6.00379131227265
      vertex 4469.8495300719 2700.66816757877 6.00373750200061
   endloop
endfacet
facet normal 0.000352280501913138 -0.000149223013331687 -0.999999926815468
   outer loop
      vertex 4473.00234367619 2697.29341416755 6.00900956193186
      vertex 4469.8495300719 2700.66816757877 6.00373750200061
      vertex 4470.07426529298 2701.21084159311 6.00367924900033
   endloop
endfacet
facet normal 0.000352280501913138 -0.000149223013331687 -0.999999926815468
   outer loop
      vertex 4473.00234367619 2697.29341416755 6.00900956193186
      vertex 4470.07426529298 2701.21084159311 6.00367924900033
      vertex 4470.15088847615 2701.79319019418 6.00362052311603
   endloop
endfacet
facet normal 0.000352280501913138 -0.000149223013331687 -0.999999926815468
   outer loop
      vertex 4473.00234367619 2697.29341416755 6.00900956193186
      vertex 4470.15088847615 2701.79319019418 6.00362052311603
      vertex 4473.00158272823 2706.29341416194 6.00812924128145
   endloop
endfacet
facet normal 0.793307625536018 0.608820971789028 0.000188616722308802
   outer loop
      vertex 4469.49387300788 2703.38323564152 0.00348050910555134
      vertex 4469.84936119928 2702.91816756167 6.00351742047933
      vertex 4469.85147488229 2702.91727222359 0.00351785958651987
   endloop
endfacet
facet normal 0.793307625536018 0.608820971789028 0.000188616722308802
   outer loop
      vertex 4469.84936119928 2702.91816756167 6.00351742047933
      vertex 4469.49387300788 2703.38323564152 0.00348050910555134
      vertex 4469.49175932487 2703.3841309796 6.00348006999836
   endloop
endfacet
facet normal 0.865997489570386 0.500048292615951 0.000230455334111373
   outer loop
      vertex 4469.85147488229 2702.91727222359 0.00351785958651987
      vertex 4470.07417787808 2702.37552728722 6.00356532642195
      vertex 4470.0762915611 2702.37463194914 0.00356576552914828
   endloop
endfacet
facet normal 0.865997489570386 0.500048292615951 0.000230455334111373
   outer loop
      vertex 4470.07417787808 2702.37552728722 6.00356532642195
      vertex 4469.85147488229 2702.91727222359 0.00351785958651987
      vertex 4469.84936119928 2702.91816756167 6.00351742047933
   endloop
endfacet
facet normal 0.965909505088888 0.258879773238615 0.000301640287477493
   outer loop
      vertex 4470.0762915611 2702.37463194914 0.00356576552914828
      vertex 4470.15088847615 2701.79319019418 6.00362052311603
      vertex 4470.15300215916 2701.7922948561 0.00362096222322687
   endloop
endfacet
facet normal 0.965909505088888 0.258879773238615 0.000301640287477493
   outer loop
      vertex 4470.15088847615 2701.79319019418 6.00362052311603
      vertex 4470.0762915611 2702.37463194914 0.00356576552914828
      vertex 4470.07417787808 2702.37552728722 6.00356532642195
   endloop
endfacet
facet normal 0.999999935445555 7.08150865308949e-005 0.000352269937711969
   outer loop
      vertex 4470.15300215916 2701.7922948561 0.00362096222322687
      vertex 4470.07426529298 2701.21084159311 6.00367924900033
      vertex 4470.07637897599 2701.20994625503 0.00367968810752357
   endloop
endfacet
facet normal 0.999999935445555 7.08150865308949e-005 0.000352269937711969
   outer loop
      vertex 4470.07426529298 2701.21084159311 6.00367924900033
      vertex 4470.15300215916 2701.7922948561 0.00362096222322687
      vertex 4470.15088847615 2701.79319019418 6.00362052311603
   endloop
endfacet
facet normal 0.965946209396933 -0.25874268490283 0.00037889440631538
   outer loop
      vertex 4470.07637897599 2701.20994625503 0.00367968810752357
      vertex 4469.8495300719 2700.66816757877 6.00373750200061
      vertex 4469.85164375491 2700.66727224069 0.00373794110780508
   endloop
endfacet
facet normal 0.965946209396933 -0.25874268490283 0.00037889440631538
   outer loop
      vertex 4469.8495300719 2700.66816757877 6.00373750200061
      vertex 4470.07637897599 2701.20994625503 0.00367968810752357
      vertex 4470.07426529298 2701.21084159311 6.00367924900033
   endloop
endfacet
facet normal -0.258515519779275 0.96600710271321 5.95053061201096e-005
   outer loop
      vertex 4418.98669088736 2668.1150137017 0.00473640901284247
      vertex 4419.52955486471 2668.33928670867 6.00473115155
      vertex 4419.52941836964 2668.33961977634 0.00473116234708087
   endloop
endfacet
facet normal -0.258515519779275 0.96600710271321 5.95053061201096e-005
   outer loop
      vertex 4419.52955486471 2668.33928670867 6.00473115155
      vertex 4418.98669088736 2668.1150137017 0.00473640901284247
      vertex 4418.98682738243 2668.11468063402 6.00473639821576
   endloop
endfacet
facet normal 0.866068827501928 -0.499924636178058 0.000379699449681059
   outer loop
      vertex 4469.85164375491 2700.66727224069 0.00373794110780508
      vertex 4469.49199814682 2700.20215048844 6.00379131227265
      vertex 4469.49411182983 2700.20125515036 0.00379175137984437
   endloop
endfacet
facet normal 0.866068827501928 -0.499924636178058 0.000379699449681059
   outer loop
      vertex 4469.49199814682 2700.20215048844 6.00379131227265
      vertex 4469.85164375491 2700.66727224069 0.00373794110780508
      vertex 4469.8495300719 2700.66816757877 6.00373750200061
   endloop
endfacet
facet normal 0.707146370431535 -0.707067100795185 0.00035462458766306
   outer loop
      vertex 4469.49199814682 2700.20215048844 6.00379131227265
      vertex 4469.0281484106 2699.84365327862 0.00383745184139321
      vertex 4469.49411182983 2700.20125515036 0.00379175137984437
   endloop
endfacet
facet normal 0.707146370431535 -0.707067100795185 0.00035462458766306
   outer loop
      vertex 4469.0281484106 2699.84365327862 0.00383745184139321
      vertex 4469.49199814682 2700.20215048844 6.00379131227265
      vertex 4469.02603472759 2699.8445486167 6.0038370127342
   endloop
endfacet
facet normal 0.500043451885665 -0.866000261528624 0.000305382749129278
   outer loop
      vertex 4469.02603472759 2699.8445486167 6.0038370127342
      vertex 4468.4855081342 2699.61883660205 0.00387192808149263
      vertex 4469.0281484106 2699.84365327862 0.00383745184139321
   endloop
endfacet
facet normal 0.500043451885665 -0.866000261528624 0.000305382749129278
   outer loop
      vertex 4468.4855081342 2699.61883660205 0.00387192808149263
      vertex 4469.02603472759 2699.8445486167 6.0038370127342
      vertex 4468.48339445119 2699.61973194013 6.0038714889743
   endloop
endfacet
facet normal 0.2588635148363 -0.96591388089559 0.000235329166082125
   outer loop
      vertex 4468.48339445119 2699.61973194013 6.0038714889743
      vertex 4467.90317103871 2699.54212600565 0.0038928306026104
      vertex 4468.4855081342 2699.61883660205 0.00387192808149263
   endloop
endfacet
facet normal 0.2588635148363 -0.96591388089559 0.000235329166082125
   outer loop
      vertex 4467.90317103871 2699.54212600565 0.0038928306026104
      vertex 4468.48339445119 2699.61973194013 6.0038714889743
      vertex 4467.9010573557 2699.54302134373 6.00389239149542
   endloop
endfacet
facet normal 9.36952835482371e-005 -0.999999994069727 -5.55134109377441e-005
   outer loop
      vertex 4422.90527215521 2665.28884627899 0.00380504273482989
      vertex 4411.50752521637 2665.28744530711 6.00337766582967
      vertex 4411.5073887213 2665.28777837479 0.00337767662675254
   endloop
endfacet
facet normal 9.36952835482371e-005 -0.999999994069727 -5.55134109377441e-005
   outer loop
      vertex 4411.50752521637 2665.28744530711 6.00337766582967
      vertex 4422.90527215521 2665.28884627899 0.00380504273482989
      vertex 4422.90540865027 2665.28851321131 6.00380503193775
   endloop
endfacet
facet normal 0.99999999702041 7.3768836199337e-005 -2.2745082930962e-005
   outer loop
      vertex 4422.90527215521 2665.28884627899 0.00380504273482989
      vertex 4422.90467093599 2675.28851311913 6.00266510956037
      vertex 4422.90540865027 2665.28851321131 6.00380503193775
   endloop
endfacet
facet normal 0.99999999702041 7.3768836199337e-005 -2.2745082930962e-005
   outer loop
      vertex 4422.90467093599 2675.28851311913 6.00266510956037
      vertex 4422.90527215521 2665.28884627899 0.00380504273482989
      vertex 4422.90453444092 2675.28884618681 0.00266512035745199
   endloop
endfacet
facet normal 0.000110679679097546 -0.999999992334114 -5.55137972224355e-005
   outer loop
      vertex 4452.40642265021 2675.29177839253 6.00214332732209
      vertex 4422.90453444092 2675.28884618681 0.00266512035745199
      vertex 4452.40628615514 2675.29211146021 0.00214333811917342
   endloop
endfacet
facet normal 0.000110679679097546 -0.999999992334114 -5.55137972224355e-005
   outer loop
      vertex 4422.90453444092 2675.28884618681 0.00266512035745199
      vertex 4452.40642265021 2675.29177839253 6.00214332732209
      vertex 4422.90467093599 2675.28851311913 6.00266510956037
   endloop
endfacet
endsolid pegasys
