solid HotEndMountingPlate (repaired)
 facet normal 0.000000 0.000000 -1.000000
  outer loop
   vertex 4111.274414 2693.041016 0.007396
   vertex 4115.324219 2702.222168 0.007396
   vertex 4135.374023 2693.041016 0.007396
  endloop
 endfacet
 facet normal 0.000000 0.000000 -1.000000
  outer loop
   vertex 4115.324219 2702.222168 0.007396
   vertex 4111.274414 2693.041016 0.007396
   vertex 4114.889160 2702.555908 0.007396
  endloop
 endfacet
 facet normal 0.000000 0.000000 -1.000000
  outer loop
   vertex 4114.889160 2702.555908 0.007396
   vertex 4111.274414 2693.041016 0.007396
   vertex 4114.555664 2702.990967 0.007396
  endloop
 endfacet
 facet normal 0.000000 0.000000 -1.000000
  outer loop
   vertex 4114.555664 2702.990967 0.007396
   vertex 4111.274414 2693.041016 0.007396
   vertex 4114.345703 2703.497314 0.007396
  endloop
 endfacet
 facet normal 0.000000 0.000000 -1.000000
  outer loop
   vertex 4114.345703 2703.497314 0.007396
   vertex 4111.274414 2693.041016 0.007396
   vertex 4114.274414 2704.041016 0.007396
  endloop
 endfacet
 facet normal 0.000000 0.000000 -1.000000
  outer loop
   vertex 4135.374023 2693.041016 0.007396
   vertex 4115.324219 2702.222168 0.007396
   vertex 4115.830566 2702.012451 0.007396
  endloop
 endfacet
 facet normal 0.000000 0.000000 -1.000000
  outer loop
   vertex 4135.374023 2693.041016 0.007396
   vertex 4115.830566 2702.012451 0.007396
   vertex 4116.374023 2701.940918 0.007396
  endloop
 endfacet
 facet normal 0.000000 0.000000 -1.000000
  outer loop
   vertex 4135.374023 2693.041016 0.007396
   vertex 4116.374023 2701.940918 0.007396
   vertex 4116.917480 2702.012451 0.007396
  endloop
 endfacet
 facet normal 0.000000 0.000000 -1.000000
  outer loop
   vertex 4135.374023 2693.041016 0.007396
   vertex 4116.917480 2702.012451 0.007396
   vertex 4117.424316 2702.222168 0.007396
  endloop
 endfacet
 facet normal 0.000000 0.000000 -1.000000
  outer loop
   vertex 4135.374023 2693.041016 0.007396
   vertex 4117.424316 2702.222168 0.007396
   vertex 4117.858887 2702.555908 0.007396
  endloop
 endfacet
 facet normal 0.000000 0.000000 -1.000000
  outer loop
   vertex 4135.374023 2693.041016 0.007396
   vertex 4117.858887 2702.555908 0.007396
   vertex 4118.192871 2702.990967 0.007396
  endloop
 endfacet
 facet normal 0.000000 0.000000 -1.000000
  outer loop
   vertex 4135.374023 2693.041016 0.007396
   vertex 4118.192871 2702.990967 0.007396
   vertex 4118.402832 2703.497314 0.007396
  endloop
 endfacet
 facet normal 0.000000 0.000000 -1.000000
  outer loop
   vertex 4135.374023 2693.041016 0.007396
   vertex 4118.402832 2703.497314 0.007396
   vertex 4118.474121 2704.041016 0.007396
  endloop
 endfacet
 facet normal 0.000000 0.000000 -1.000000
  outer loop
   vertex 4135.374023 2693.041016 0.007396
   vertex 4118.474121 2704.041016 0.007396
   vertex 4135.374023 2704.041016 0.007396
  endloop
 endfacet
 facet normal 0.000000 0.000000 -1.000000
  outer loop
   vertex 4111.274414 2715.041016 0.007396
   vertex 4114.345703 2704.584473 0.007396
   vertex 4111.274414 2693.041016 0.007396
  endloop
 endfacet
 facet normal 0.000000 0.000000 -1.000000
  outer loop
   vertex 4114.345703 2704.584473 0.007396
   vertex 4111.274414 2715.041016 0.007396
   vertex 4114.555664 2705.090820 0.007396
  endloop
 endfacet
 facet normal 0.000000 0.000000 -1.000000
  outer loop
   vertex 4114.555664 2705.090820 0.007396
   vertex 4111.274414 2715.041016 0.007396
   vertex 4114.889160 2705.525879 0.007396
  endloop
 endfacet
 facet normal 0.000000 0.000000 -1.000000
  outer loop
   vertex 4114.889160 2705.525879 0.007396
   vertex 4111.274414 2715.041016 0.007396
   vertex 4115.324219 2705.859619 0.007396
  endloop
 endfacet
 facet normal 0.000000 0.000000 -1.000000
  outer loop
   vertex 4115.324219 2705.859619 0.007396
   vertex 4111.274414 2715.041016 0.007396
   vertex 4115.830566 2706.069336 0.007396
  endloop
 endfacet
 facet normal 0.000000 0.000000 -1.000000
  outer loop
   vertex 4115.830566 2706.069336 0.007396
   vertex 4111.274414 2715.041016 0.007396
   vertex 4162.474121 2715.041016 0.007396
  endloop
 endfacet
 facet normal 0.000000 0.000000 -1.000000
  outer loop
   vertex 4111.274414 2693.041016 0.007396
   vertex 4114.345703 2704.584473 0.007396
   vertex 4114.274414 2704.041016 0.007396
  endloop
 endfacet
 facet normal 0.000000 0.000000 -1.000000
  outer loop
   vertex 4115.830566 2706.069336 0.007396
   vertex 4162.474121 2715.041016 0.007396
   vertex 4116.374023 2706.140869 0.007396
  endloop
 endfacet
 facet normal 0.000000 0.000000 -1.000000
  outer loop
   vertex 4116.374023 2706.140869 0.007396
   vertex 4162.474121 2715.041016 0.007396
   vertex 4116.917480 2706.069336 0.007396
  endloop
 endfacet
 facet normal 0.000000 0.000000 -1.000000
  outer loop
   vertex 4116.917480 2706.069336 0.007396
   vertex 4162.474121 2715.041016 0.007396
   vertex 4117.424316 2705.859619 0.007396
  endloop
 endfacet
 facet normal 0.000000 0.000000 -1.000000
  outer loop
   vertex 4117.424316 2705.859619 0.007396
   vertex 4162.474121 2715.041016 0.007396
   vertex 4117.858887 2705.525879 0.007396
  endloop
 endfacet
 facet normal 0.000000 0.000000 -1.000000
  outer loop
   vertex 4117.858887 2705.525879 0.007396
   vertex 4162.474121 2715.041016 0.007396
   vertex 4118.192871 2705.090820 0.007396
  endloop
 endfacet
 facet normal 0.000000 0.000000 -1.000000
  outer loop
   vertex 4118.192871 2705.090820 0.007396
   vertex 4162.474121 2715.041016 0.007396
   vertex 4139.821289 2709.836426 0.007396
  endloop
 endfacet
 facet normal 0.000000 0.000000 -1.000000
  outer loop
   vertex 4118.192871 2705.090820 0.007396
   vertex 4139.821289 2709.836426 0.007396
   vertex 4118.402832 2704.584473 0.007396
  endloop
 endfacet
 facet normal 0.000000 0.000000 -1.000000
  outer loop
   vertex 4118.402832 2704.584473 0.007396
   vertex 4139.821289 2709.836426 0.007396
   vertex 4118.474121 2704.041016 0.007396
  endloop
 endfacet
 facet normal 0.000000 0.000000 -1.000000
  outer loop
   vertex 4118.474121 2704.041016 0.007396
   vertex 4139.821289 2709.836426 0.007396
   vertex 4138.374023 2709.237061 0.007396
  endloop
 endfacet
 facet normal 0.000000 0.000000 -1.000000
  outer loop
   vertex 4118.474121 2704.041016 0.007396
   vertex 4138.374023 2709.237061 0.007396
   vertex 4137.131348 2708.283447 0.007396
  endloop
 endfacet
 facet normal 0.000000 0.000000 -1.000000
  outer loop
   vertex 4118.474121 2704.041016 0.007396
   vertex 4137.131348 2708.283447 0.007396
   vertex 4136.178223 2707.041016 0.007396
  endloop
 endfacet
 facet normal 0.000000 0.000000 -1.000000
  outer loop
   vertex 4118.474121 2704.041016 0.007396
   vertex 4136.178223 2707.041016 0.007396
   vertex 4135.578613 2705.593750 0.007396
  endloop
 endfacet
 facet normal 0.000000 0.000000 -1.000000
  outer loop
   vertex 4118.474121 2704.041016 0.007396
   vertex 4135.578613 2705.593750 0.007396
   vertex 4135.374023 2704.041016 0.007396
  endloop
 endfacet
 facet normal 0.000000 0.000000 -1.000000
  outer loop
   vertex 4139.821289 2709.836426 0.007396
   vertex 4162.474121 2715.041016 0.007396
   vertex 4141.374023 2710.041016 0.007396
  endloop
 endfacet
 facet normal 0.000000 0.000000 -1.000000
  outer loop
   vertex 4141.374023 2710.041016 0.007396
   vertex 4162.474121 2715.041016 0.007396
   vertex 4142.927246 2709.836426 0.007396
  endloop
 endfacet
 facet normal 0.000000 0.000000 -1.000000
  outer loop
   vertex 4142.927246 2709.836426 0.007396
   vertex 4162.474121 2715.041016 0.007396
   vertex 4144.374023 2709.237061 0.007396
  endloop
 endfacet
 facet normal 0.000000 0.000000 -1.000000
  outer loop
   vertex 4144.374023 2709.237061 0.007396
   vertex 4162.474121 2715.041016 0.007396
   vertex 4145.616699 2708.283447 0.007396
  endloop
 endfacet
 facet normal 0.000000 0.000000 -1.000000
  outer loop
   vertex 4145.616699 2708.283447 0.007396
   vertex 4162.474121 2715.041016 0.007396
   vertex 4146.570313 2707.041016 0.007396
  endloop
 endfacet
 facet normal 0.000000 0.000000 -1.000000
  outer loop
   vertex 4146.570313 2707.041016 0.007396
   vertex 4162.474121 2715.041016 0.007396
   vertex 4147.169922 2705.593750 0.007396
  endloop
 endfacet
 facet normal 0.000000 0.000000 -1.000000
  outer loop
   vertex 4147.169922 2705.593750 0.007396
   vertex 4162.474121 2715.041016 0.007396
   vertex 4147.374023 2704.041016 0.007396
  endloop
 endfacet
 facet normal 0.000000 0.000000 -1.000000
  outer loop
   vertex 4147.374023 2704.041016 0.007396
   vertex 4162.474121 2715.041016 0.007396
   vertex 4155.753906 2705.376709 0.007396
  endloop
 endfacet
 facet normal 0.000000 0.000000 -1.000000
  outer loop
   vertex 4147.374023 2704.041016 0.007396
   vertex 4155.753906 2705.376709 0.007396
   vertex 4147.374023 2693.041016 0.007396
  endloop
 endfacet
 facet normal 0.000000 0.000000 -1.000000
  outer loop
   vertex 4147.374023 2693.041016 0.007396
   vertex 4155.753906 2705.376709 0.007396
   vertex 4155.463379 2704.911865 0.007396
  endloop
 endfacet
 facet normal 0.000000 0.000000 -1.000000
  outer loop
   vertex 4147.374023 2693.041016 0.007396
   vertex 4155.463379 2704.911865 0.007396
   vertex 4155.303223 2704.387695 0.007396
  endloop
 endfacet
 facet normal 0.000000 0.000000 -1.000000
  outer loop
   vertex 4147.374023 2693.041016 0.007396
   vertex 4155.303223 2704.387695 0.007396
   vertex 4155.291016 2704.041016 0.007396
  endloop
 endfacet
 facet normal 0.000000 0.000000 -1.000000
  outer loop
   vertex 4147.374023 2693.041016 0.007396
   vertex 4155.291016 2704.041016 0.007396
   vertex 4155.283691 2703.839844 0.007396
  endloop
 endfacet
 facet normal 0.000000 0.000000 -1.000000
  outer loop
   vertex 4155.753906 2705.376709 0.007396
   vertex 4162.474121 2715.041016 0.007396
   vertex 4156.154785 2705.750732 0.007396
  endloop
 endfacet
 facet normal 0.000000 0.000000 -1.000000
  outer loop
   vertex 4156.154785 2705.750732 0.007396
   vertex 4162.474121 2715.041016 0.007396
   vertex 4156.639160 2706.008057 0.007396
  endloop
 endfacet
 facet normal 0.000000 0.000000 -1.000000
  outer loop
   vertex 4156.639160 2706.008057 0.007396
   vertex 4162.474121 2715.041016 0.007396
   vertex 4157.173340 2706.131348 0.007396
  endloop
 endfacet
 facet normal 0.000000 0.000000 -1.000000
  outer loop
   vertex 4157.173340 2706.131348 0.007396
   vertex 4162.474121 2715.041016 0.007396
   vertex 4157.721191 2706.112061 0.007396
  endloop
 endfacet
 facet normal 0.000000 0.000000 -1.000000
  outer loop
   vertex 4157.721191 2706.112061 0.007396
   vertex 4162.474121 2715.041016 0.007396
   vertex 4158.245117 2705.951660 0.007396
  endloop
 endfacet
 facet normal 0.000000 0.000000 -1.000000
  outer loop
   vertex 4158.245117 2705.951660 0.007396
   vertex 4162.474121 2715.041016 0.007396
   vertex 4158.709961 2705.661133 0.007396
  endloop
 endfacet
 facet normal 0.000000 0.000000 -1.000000
  outer loop
   vertex 4158.709961 2705.661133 0.007396
   vertex 4162.474121 2715.041016 0.007396
   vertex 4159.083984 2705.260254 0.007396
  endloop
 endfacet
 facet normal 0.000000 0.000000 -1.000000
  outer loop
   vertex 4159.083984 2705.260254 0.007396
   vertex 4162.474121 2715.041016 0.007396
   vertex 4159.341309 2704.776123 0.007396
  endloop
 endfacet
 facet normal 0.000000 0.000000 -1.000000
  outer loop
   vertex 4159.341309 2704.776123 0.007396
   vertex 4162.474121 2715.041016 0.007396
   vertex 4159.464355 2704.241943 0.007396
  endloop
 endfacet
 facet normal 0.000000 0.000000 -1.000000
  outer loop
   vertex 4147.374023 2693.041016 0.007396
   vertex 4155.664551 2702.821533 0.007396
   vertex 4162.474121 2693.041016 0.007396
  endloop
 endfacet
 facet normal 0.000000 0.000000 -1.000000
  outer loop
   vertex 4155.664551 2702.821533 0.007396
   vertex 4147.374023 2693.041016 0.007396
   vertex 4155.407227 2703.305664 0.007396
  endloop
 endfacet
 facet normal 0.000000 0.000000 -1.000000
  outer loop
   vertex 4155.407227 2703.305664 0.007396
   vertex 4147.374023 2693.041016 0.007396
   vertex 4155.283691 2703.839844 0.007396
  endloop
 endfacet
 facet normal 0.000000 0.000000 -1.000000
  outer loop
   vertex 4162.474121 2693.041016 0.007396
   vertex 4155.664551 2702.821533 0.007396
   vertex 4156.038086 2702.420654 0.007396
  endloop
 endfacet
 facet normal 0.000000 0.000000 -1.000000
  outer loop
   vertex 4162.474121 2693.041016 0.007396
   vertex 4156.038086 2702.420654 0.007396
   vertex 4156.502930 2702.130127 0.007396
  endloop
 endfacet
 facet normal 0.000000 0.000000 -1.000000
  outer loop
   vertex 4162.474121 2693.041016 0.007396
   vertex 4156.502930 2702.130127 0.007396
   vertex 4157.027344 2701.969727 0.007396
  endloop
 endfacet
 facet normal 0.000000 0.000000 -1.000000
  outer loop
   vertex 4162.474121 2693.041016 0.007396
   vertex 4157.027344 2701.969727 0.007396
   vertex 4157.575195 2701.950439 0.007396
  endloop
 endfacet
 facet normal 0.000000 0.000000 -1.000000
  outer loop
   vertex 4162.474121 2693.041016 0.007396
   vertex 4157.575195 2701.950439 0.007396
   vertex 4158.109375 2702.073730 0.007396
  endloop
 endfacet
 facet normal 0.000000 0.000000 -1.000000
  outer loop
   vertex 4162.474121 2693.041016 0.007396
   vertex 4158.109375 2702.073730 0.007396
   vertex 4158.593262 2702.331055 0.007396
  endloop
 endfacet
 facet normal 0.000000 0.000000 -1.000000
  outer loop
   vertex 4162.474121 2693.041016 0.007396
   vertex 4158.593262 2702.331055 0.007396
   vertex 4158.994629 2702.705078 0.007396
  endloop
 endfacet
 facet normal 0.000000 0.000000 -1.000000
  outer loop
   vertex 4162.474121 2693.041016 0.007396
   vertex 4158.994629 2702.705078 0.007396
   vertex 4159.285156 2703.169922 0.007396
  endloop
 endfacet
 facet normal 0.000000 0.000000 -1.000000
  outer loop
   vertex 4162.474121 2693.041016 0.007396
   vertex 4159.285156 2703.169922 0.007396
   vertex 4159.445313 2703.694092 0.007396
  endloop
 endfacet
 facet normal 0.000000 0.000000 -1.000000
  outer loop
   vertex 4162.474121 2693.041016 0.007396
   vertex 4159.445313 2703.694092 0.007396
   vertex 4159.457520 2704.041016 0.007396
  endloop
 endfacet
 facet normal 0.000000 0.000000 -1.000000
  outer loop
   vertex 4162.474121 2693.041016 0.007396
   vertex 4159.457520 2704.041016 0.007396
   vertex 4159.464355 2704.241943 0.007396
  endloop
 endfacet
 facet normal 0.000000 0.000000 -1.000000
  outer loop
   vertex 4162.474121 2693.041016 0.007396
   vertex 4159.464355 2704.241943 0.007396
   vertex 4162.474121 2715.041016 0.007396
  endloop
 endfacet
 facet normal -1.000000 0.000000 0.000000
  outer loop
   vertex 4111.274414 2715.041016 6.007396
   vertex 4111.274414 2693.041016 0.007396
   vertex 4111.274414 2693.041016 6.007396
  endloop
 endfacet
 facet normal -1.000000 0.000000 0.000000
  outer loop
   vertex 4111.274414 2693.041016 0.007396
   vertex 4111.274414 2715.041016 6.007396
   vertex 4111.274414 2715.041016 0.007396
  endloop
 endfacet
 facet normal 1.000000 0.000000 0.000000
  outer loop
   vertex 4162.474121 2715.041016 0.007396
   vertex 4162.474121 2693.041016 6.007396
   vertex 4162.474121 2693.041016 0.007396
  endloop
 endfacet
 facet normal 1.000000 0.000000 0.000000
  outer loop
   vertex 4162.474121 2693.041016 6.007396
   vertex 4162.474121 2715.041016 0.007396
   vertex 4162.474121 2715.041016 6.007396
  endloop
 endfacet
 facet normal 0.000000 -1.000000 0.000000
  outer loop
   vertex 4162.474121 2693.041016 6.007396
   vertex 4147.374023 2693.041016 0.007396
   vertex 4162.474121 2693.041016 0.007396
  endloop
 endfacet
 facet normal 0.000000 -1.000000 0.000000
  outer loop
   vertex 4147.374023 2693.041016 0.007396
   vertex 4162.474121 2693.041016 6.007396
   vertex 4147.374023 2693.041016 6.007396
  endloop
 endfacet
 facet normal 0.382623 -0.923905 0.000000
  outer loop
   vertex 4139.821289 2709.836426 6.007396
   vertex 4138.374023 2709.237061 0.007396
   vertex 4139.821289 2709.836426 0.007396
  endloop
 endfacet
 facet normal 0.382623 -0.923905 0.000000
  outer loop
   vertex 4138.374023 2709.237061 0.007396
   vertex 4139.821289 2709.836426 6.007396
   vertex 4138.374023 2709.237061 6.007396
  endloop
 endfacet
 facet normal 0.883018 0.469340 0.000000
  outer loop
   vertex 4155.407227 2703.305664 0.007396
   vertex 4155.664551 2702.821533 6.007396
   vertex 4155.664551 2702.821533 0.007396
  endloop
 endfacet
 facet normal 0.883018 0.469340 0.000000
  outer loop
   vertex 4155.664551 2702.821533 6.007396
   vertex 4155.407227 2703.305664 0.007396
   vertex 4155.407227 2703.305664 6.007396
  endloop
 endfacet
 facet normal 0.999381 -0.035189 0.000000
  outer loop
   vertex 4155.303223 2704.387695 0.007396
   vertex 4155.291016 2704.041016 6.007396
   vertex 4155.291016 2704.041016 0.007396
  endloop
 endfacet
 facet normal 0.999381 -0.035189 0.000000
  outer loop
   vertex 4155.291016 2704.041016 6.007396
   vertex 4155.303223 2704.387695 0.007396
   vertex 4155.303223 2704.387695 6.007396
  endloop
 endfacet
 facet normal -1.000000 0.000000 0.000000
  outer loop
   vertex 4147.374023 2704.041016 6.007396
   vertex 4147.374023 2693.041016 0.007396
   vertex 4147.374023 2693.041016 6.007396
  endloop
 endfacet
 facet normal -1.000000 0.000000 0.000000
  outer loop
   vertex 4147.374023 2693.041016 0.007396
   vertex 4147.374023 2704.041016 6.007396
   vertex 4147.374023 2704.041016 0.007396
  endloop
 endfacet
 facet normal 0.000000 1.000000 0.000000
  outer loop
   vertex 4111.274414 2715.041016 6.007396
   vertex 4162.474121 2715.041016 0.007396
   vertex 4111.274414 2715.041016 0.007396
  endloop
 endfacet
 facet normal 0.000000 1.000000 0.000000
  outer loop
   vertex 4162.474121 2715.041016 0.007396
   vertex 4111.274414 2715.041016 6.007396
   vertex 4162.474121 2715.041016 6.007396
  endloop
 endfacet
 facet normal 0.731618 0.681715 0.000000
  outer loop
   vertex 4155.664551 2702.821533 0.007396
   vertex 4156.038086 2702.420654 6.007396
   vertex 4156.038086 2702.420654 0.007396
  endloop
 endfacet
 facet normal 0.731618 0.681715 0.000000
  outer loop
   vertex 4156.038086 2702.420654 6.007396
   vertex 4155.664551 2702.821533 0.007396
   vertex 4155.664551 2702.821533 6.007396
  endloop
 endfacet
 facet normal -0.923850 -0.382756 0.000000
  outer loop
   vertex 4146.570313 2707.041016 6.007396
   vertex 4147.169922 2705.593750 0.007396
   vertex 4147.169922 2705.593750 6.007396
  endloop
 endfacet
 facet normal -0.923850 -0.382756 0.000000
  outer loop
   vertex 4147.169922 2705.593750 0.007396
   vertex 4146.570313 2707.041016 6.007396
   vertex 4146.570313 2707.041016 0.007396
  endloop
 endfacet
 facet normal 0.000000 -1.000000 0.000000
  outer loop
   vertex 4135.374023 2693.041016 6.007396
   vertex 4111.274414 2693.041016 0.007396
   vertex 4135.374023 2693.041016 0.007396
  endloop
 endfacet
 facet normal 0.000000 -1.000000 0.000000
  outer loop
   vertex 4111.274414 2693.041016 0.007396
   vertex 4135.374023 2693.041016 6.007396
   vertex 4111.274414 2693.041016 6.007396
  endloop
 endfacet
 facet normal -0.793273 -0.608867 0.000000
  outer loop
   vertex 4145.616699 2708.283447 6.007396
   vertex 4146.570313 2707.041016 0.007396
   vertex 4146.570313 2707.041016 6.007396
  endloop
 endfacet
 facet normal -0.793273 -0.608867 0.000000
  outer loop
   vertex 4146.570313 2707.041016 0.007396
   vertex 4145.616699 2708.283447 6.007396
   vertex 4145.616699 2708.283447 0.007396
  endloop
 endfacet
 facet normal 0.000000 0.000000 1.000000
  outer loop
   vertex 4111.274414 2693.041016 6.007396
   vertex 4114.345703 2703.497314 6.007396
   vertex 4111.274414 2715.041016 6.007396
  endloop
 endfacet
 facet normal 0.000000 0.000000 1.000000
  outer loop
   vertex 4114.345703 2703.497314 6.007396
   vertex 4111.274414 2693.041016 6.007396
   vertex 4114.555664 2702.990967 6.007396
  endloop
 endfacet
 facet normal 0.000000 0.000000 1.000000
  outer loop
   vertex 4114.555664 2702.990967 6.007396
   vertex 4111.274414 2693.041016 6.007396
   vertex 4114.889160 2702.555908 6.007396
  endloop
 endfacet
 facet normal 0.000000 0.000000 1.000000
  outer loop
   vertex 4114.889160 2702.555908 6.007396
   vertex 4111.274414 2693.041016 6.007396
   vertex 4115.324219 2702.222168 6.007396
  endloop
 endfacet
 facet normal 0.000000 0.000000 1.000000
  outer loop
   vertex 4115.324219 2702.222168 6.007396
   vertex 4111.274414 2693.041016 6.007396
   vertex 4135.374023 2693.041016 6.007396
  endloop
 endfacet
 facet normal 0.000000 0.000000 1.000000
  outer loop
   vertex 4111.274414 2715.041016 6.007396
   vertex 4114.345703 2703.497314 6.007396
   vertex 4114.274414 2704.041016 6.007396
  endloop
 endfacet
 facet normal 0.000000 0.000000 1.000000
  outer loop
   vertex 4115.324219 2702.222168 6.007396
   vertex 4135.374023 2693.041016 6.007396
   vertex 4115.830566 2702.012451 6.007396
  endloop
 endfacet
 facet normal 0.000000 0.000000 1.000000
  outer loop
   vertex 4115.830566 2702.012451 6.007396
   vertex 4135.374023 2693.041016 6.007396
   vertex 4116.374023 2701.940918 6.007396
  endloop
 endfacet
 facet normal 0.000000 0.000000 1.000000
  outer loop
   vertex 4116.374023 2701.940918 6.007396
   vertex 4135.374023 2693.041016 6.007396
   vertex 4116.917480 2702.012451 6.007396
  endloop
 endfacet
 facet normal 0.000000 0.000000 1.000000
  outer loop
   vertex 4116.917480 2702.012451 6.007396
   vertex 4135.374023 2693.041016 6.007396
   vertex 4117.424316 2702.222168 6.007396
  endloop
 endfacet
 facet normal 0.000000 0.000000 1.000000
  outer loop
   vertex 4117.424316 2702.222168 6.007396
   vertex 4135.374023 2693.041016 6.007396
   vertex 4117.858887 2702.555908 6.007396
  endloop
 endfacet
 facet normal 0.000000 0.000000 1.000000
  outer loop
   vertex 4117.858887 2702.555908 6.007396
   vertex 4135.374023 2693.041016 6.007396
   vertex 4118.192871 2702.990967 6.007396
  endloop
 endfacet
 facet normal 0.000000 0.000000 1.000000
  outer loop
   vertex 4118.192871 2702.990967 6.007396
   vertex 4135.374023 2693.041016 6.007396
   vertex 4118.402832 2703.497314 6.007396
  endloop
 endfacet
 facet normal 0.000000 0.000000 1.000000
  outer loop
   vertex 4118.402832 2703.497314 6.007396
   vertex 4135.374023 2693.041016 6.007396
   vertex 4118.474121 2704.041016 6.007396
  endloop
 endfacet
 facet normal 0.000000 0.000000 1.000000
  outer loop
   vertex 4162.474121 2693.041016 6.007396
   vertex 4147.374023 2704.041016 6.007396
   vertex 4147.374023 2693.041016 6.007396
  endloop
 endfacet
 facet normal 0.000000 0.000000 1.000000
  outer loop
   vertex 4147.374023 2704.041016 6.007396
   vertex 4162.474121 2693.041016 6.007396
   vertex 4155.664551 2702.821533 6.007396
  endloop
 endfacet
 facet normal 0.000000 0.000000 1.000000
  outer loop
   vertex 4147.374023 2704.041016 6.007396
   vertex 4155.664551 2702.821533 6.007396
   vertex 4155.407227 2703.305664 6.007396
  endloop
 endfacet
 facet normal 0.000000 0.000000 1.000000
  outer loop
   vertex 4147.374023 2704.041016 6.007396
   vertex 4155.407227 2703.305664 6.007396
   vertex 4155.283691 2703.839844 6.007396
  endloop
 endfacet
 facet normal 0.000000 0.000000 1.000000
  outer loop
   vertex 4155.664551 2702.821533 6.007396
   vertex 4162.474121 2693.041016 6.007396
   vertex 4156.038086 2702.420654 6.007396
  endloop
 endfacet
 facet normal 0.000000 0.000000 1.000000
  outer loop
   vertex 4156.038086 2702.420654 6.007396
   vertex 4162.474121 2693.041016 6.007396
   vertex 4156.502930 2702.130127 6.007396
  endloop
 endfacet
 facet normal 0.000000 0.000000 1.000000
  outer loop
   vertex 4156.502930 2702.130127 6.007396
   vertex 4162.474121 2693.041016 6.007396
   vertex 4157.027344 2701.969727 6.007396
  endloop
 endfacet
 facet normal 0.000000 0.000000 1.000000
  outer loop
   vertex 4157.027344 2701.969727 6.007396
   vertex 4162.474121 2693.041016 6.007396
   vertex 4157.575195 2701.950439 6.007396
  endloop
 endfacet
 facet normal 0.000000 0.000000 1.000000
  outer loop
   vertex 4157.575195 2701.950439 6.007396
   vertex 4162.474121 2693.041016 6.007396
   vertex 4158.109375 2702.073730 6.007396
  endloop
 endfacet
 facet normal 0.000000 0.000000 1.000000
  outer loop
   vertex 4158.109375 2702.073730 6.007396
   vertex 4162.474121 2693.041016 6.007396
   vertex 4158.593262 2702.331055 6.007396
  endloop
 endfacet
 facet normal 0.000000 0.000000 1.000000
  outer loop
   vertex 4158.593262 2702.331055 6.007396
   vertex 4162.474121 2693.041016 6.007396
   vertex 4158.994629 2702.705078 6.007396
  endloop
 endfacet
 facet normal 0.000000 0.000000 1.000000
  outer loop
   vertex 4158.994629 2702.705078 6.007396
   vertex 4162.474121 2693.041016 6.007396
   vertex 4159.285156 2703.169922 6.007396
  endloop
 endfacet
 facet normal 0.000000 0.000000 1.000000
  outer loop
   vertex 4159.285156 2703.169922 6.007396
   vertex 4162.474121 2693.041016 6.007396
   vertex 4159.445313 2703.694092 6.007396
  endloop
 endfacet
 facet normal 0.000000 0.000000 1.000000
  outer loop
   vertex 4159.445313 2703.694092 6.007396
   vertex 4162.474121 2693.041016 6.007396
   vertex 4159.457520 2704.041016 6.007396
  endloop
 endfacet
 facet normal 0.000000 0.000000 1.000000
  outer loop
   vertex 4159.457520 2704.041016 6.007396
   vertex 4162.474121 2693.041016 6.007396
   vertex 4159.464355 2704.241943 6.007396
  endloop
 endfacet
 facet normal 0.000000 0.000000 1.000000
  outer loop
   vertex 4111.274414 2715.041016 6.007396
   vertex 4115.830566 2706.069336 6.007396
   vertex 4162.474121 2715.041016 6.007396
  endloop
 endfacet
 facet normal 0.000000 0.000000 1.000000
  outer loop
   vertex 4115.830566 2706.069336 6.007396
   vertex 4111.274414 2715.041016 6.007396
   vertex 4115.324219 2705.859619 6.007396
  endloop
 endfacet
 facet normal 0.000000 0.000000 1.000000
  outer loop
   vertex 4115.324219 2705.859619 6.007396
   vertex 4111.274414 2715.041016 6.007396
   vertex 4114.889160 2705.525879 6.007396
  endloop
 endfacet
 facet normal 0.000000 0.000000 1.000000
  outer loop
   vertex 4114.889160 2705.525879 6.007396
   vertex 4111.274414 2715.041016 6.007396
   vertex 4114.555664 2705.090820 6.007396
  endloop
 endfacet
 facet normal 0.000000 0.000000 1.000000
  outer loop
   vertex 4114.555664 2705.090820 6.007396
   vertex 4111.274414 2715.041016 6.007396
   vertex 4114.345703 2704.584473 6.007396
  endloop
 endfacet
 facet normal 0.000000 0.000000 1.000000
  outer loop
   vertex 4114.345703 2704.584473 6.007396
   vertex 4111.274414 2715.041016 6.007396
   vertex 4114.274414 2704.041016 6.007396
  endloop
 endfacet
 facet normal 0.000000 0.000000 1.000000
  outer loop
   vertex 4162.474121 2715.041016 6.007396
   vertex 4115.830566 2706.069336 6.007396
   vertex 4116.374023 2706.140869 6.007396
  endloop
 endfacet
 facet normal 0.000000 0.000000 1.000000
  outer loop
   vertex 4162.474121 2715.041016 6.007396
   vertex 4116.374023 2706.140869 6.007396
   vertex 4116.917480 2706.069336 6.007396
  endloop
 endfacet
 facet normal 0.000000 0.000000 1.000000
  outer loop
   vertex 4162.474121 2715.041016 6.007396
   vertex 4116.917480 2706.069336 6.007396
   vertex 4117.424316 2705.859619 6.007396
  endloop
 endfacet
 facet normal 0.000000 0.000000 1.000000
  outer loop
   vertex 4162.474121 2715.041016 6.007396
   vertex 4117.424316 2705.859619 6.007396
   vertex 4117.858887 2705.525879 6.007396
  endloop
 endfacet
 facet normal 0.000000 0.000000 1.000000
  outer loop
   vertex 4162.474121 2715.041016 6.007396
   vertex 4117.858887 2705.525879 6.007396
   vertex 4118.192871 2705.090820 6.007396
  endloop
 endfacet
 facet normal 0.000000 0.000000 1.000000
  outer loop
   vertex 4162.474121 2715.041016 6.007396
   vertex 4118.192871 2705.090820 6.007396
   vertex 4139.821289 2709.836426 6.007396
  endloop
 endfacet
 facet normal 0.000000 0.000000 1.000000
  outer loop
   vertex 4139.821289 2709.836426 6.007396
   vertex 4118.192871 2705.090820 6.007396
   vertex 4118.402832 2704.584473 6.007396
  endloop
 endfacet
 facet normal 0.000000 0.000000 1.000000
  outer loop
   vertex 4139.821289 2709.836426 6.007396
   vertex 4118.402832 2704.584473 6.007396
   vertex 4118.474121 2704.041016 6.007396
  endloop
 endfacet
 facet normal 0.000000 0.000000 1.000000
  outer loop
   vertex 4139.821289 2709.836426 6.007396
   vertex 4118.474121 2704.041016 6.007396
   vertex 4138.374023 2709.237061 6.007396
  endloop
 endfacet
 facet normal 0.000000 0.000000 1.000000
  outer loop
   vertex 4138.374023 2709.237061 6.007396
   vertex 4118.474121 2704.041016 6.007396
   vertex 4137.131348 2708.283447 6.007396
  endloop
 endfacet
 facet normal 0.000000 0.000000 1.000000
  outer loop
   vertex 4137.131348 2708.283447 6.007396
   vertex 4118.474121 2704.041016 6.007396
   vertex 4136.178223 2707.041016 6.007396
  endloop
 endfacet
 facet normal 0.000000 0.000000 1.000000
  outer loop
   vertex 4136.178223 2707.041016 6.007396
   vertex 4118.474121 2704.041016 6.007396
   vertex 4135.578613 2705.593750 6.007396
  endloop
 endfacet
 facet normal 0.000000 0.000000 1.000000
  outer loop
   vertex 4135.578613 2705.593750 6.007396
   vertex 4118.474121 2704.041016 6.007396
   vertex 4135.374023 2704.041016 6.007396
  endloop
 endfacet
 facet normal 0.000000 0.000000 1.000000
  outer loop
   vertex 4135.374023 2704.041016 6.007396
   vertex 4118.474121 2704.041016 6.007396
   vertex 4135.374023 2693.041016 6.007396
  endloop
 endfacet
 facet normal 0.000000 0.000000 1.000000
  outer loop
   vertex 4162.474121 2715.041016 6.007396
   vertex 4139.821289 2709.836426 6.007396
   vertex 4141.374023 2710.041016 6.007396
  endloop
 endfacet
 facet normal 0.000000 0.000000 1.000000
  outer loop
   vertex 4162.474121 2715.041016 6.007396
   vertex 4141.374023 2710.041016 6.007396
   vertex 4142.927246 2709.836426 6.007396
  endloop
 endfacet
 facet normal 0.000000 0.000000 1.000000
  outer loop
   vertex 4162.474121 2715.041016 6.007396
   vertex 4142.927246 2709.836426 6.007396
   vertex 4144.374023 2709.237061 6.007396
  endloop
 endfacet
 facet normal 0.000000 0.000000 1.000000
  outer loop
   vertex 4162.474121 2715.041016 6.007396
   vertex 4144.374023 2709.237061 6.007396
   vertex 4145.616699 2708.283447 6.007396
  endloop
 endfacet
 facet normal 0.000000 0.000000 1.000000
  outer loop
   vertex 4162.474121 2715.041016 6.007396
   vertex 4145.616699 2708.283447 6.007396
   vertex 4146.570313 2707.041016 6.007396
  endloop
 endfacet
 facet normal 0.000000 0.000000 1.000000
  outer loop
   vertex 4162.474121 2715.041016 6.007396
   vertex 4146.570313 2707.041016 6.007396
   vertex 4147.169922 2705.593750 6.007396
  endloop
 endfacet
 facet normal 0.000000 0.000000 1.000000
  outer loop
   vertex 4162.474121 2715.041016 6.007396
   vertex 4147.169922 2705.593750 6.007396
   vertex 4147.374023 2704.041016 6.007396
  endloop
 endfacet
 facet normal 0.000000 0.000000 1.000000
  outer loop
   vertex 4162.474121 2715.041016 6.007396
   vertex 4147.374023 2704.041016 6.007396
   vertex 4155.753906 2705.376709 6.007396
  endloop
 endfacet
 facet normal 0.000000 0.000000 1.000000
  outer loop
   vertex 4155.753906 2705.376709 6.007396
   vertex 4147.374023 2704.041016 6.007396
   vertex 4155.463379 2704.911865 6.007396
  endloop
 endfacet
 facet normal 0.000000 0.000000 1.000000
  outer loop
   vertex 4155.463379 2704.911865 6.007396
   vertex 4147.374023 2704.041016 6.007396
   vertex 4155.303223 2704.387695 6.007396
  endloop
 endfacet
 facet normal 0.000000 0.000000 1.000000
  outer loop
   vertex 4155.303223 2704.387695 6.007396
   vertex 4147.374023 2704.041016 6.007396
   vertex 4155.291016 2704.041016 6.007396
  endloop
 endfacet
 facet normal 0.000000 0.000000 1.000000
  outer loop
   vertex 4155.291016 2704.041016 6.007396
   vertex 4147.374023 2704.041016 6.007396
   vertex 4155.283691 2703.839844 6.007396
  endloop
 endfacet
 facet normal 0.000000 0.000000 1.000000
  outer loop
   vertex 4162.474121 2715.041016 6.007396
   vertex 4155.753906 2705.376709 6.007396
   vertex 4156.154785 2705.750732 6.007396
  endloop
 endfacet
 facet normal 0.000000 0.000000 1.000000
  outer loop
   vertex 4162.474121 2715.041016 6.007396
   vertex 4156.154785 2705.750732 6.007396
   vertex 4156.639160 2706.008057 6.007396
  endloop
 endfacet
 facet normal 0.000000 0.000000 1.000000
  outer loop
   vertex 4162.474121 2715.041016 6.007396
   vertex 4156.639160 2706.008057 6.007396
   vertex 4157.173340 2706.131348 6.007396
  endloop
 endfacet
 facet normal 0.000000 0.000000 1.000000
  outer loop
   vertex 4162.474121 2715.041016 6.007396
   vertex 4157.173340 2706.131348 6.007396
   vertex 4157.721191 2706.112061 6.007396
  endloop
 endfacet
 facet normal 0.000000 0.000000 1.000000
  outer loop
   vertex 4162.474121 2715.041016 6.007396
   vertex 4157.721191 2706.112061 6.007396
   vertex 4158.245117 2705.951660 6.007396
  endloop
 endfacet
 facet normal 0.000000 0.000000 1.000000
  outer loop
   vertex 4162.474121 2715.041016 6.007396
   vertex 4158.245117 2705.951660 6.007396
   vertex 4158.709961 2705.661133 6.007396
  endloop
 endfacet
 facet normal 0.000000 0.000000 1.000000
  outer loop
   vertex 4162.474121 2715.041016 6.007396
   vertex 4158.709961 2705.661133 6.007396
   vertex 4159.083984 2705.260254 6.007396
  endloop
 endfacet
 facet normal 0.000000 0.000000 1.000000
  outer loop
   vertex 4162.474121 2715.041016 6.007396
   vertex 4159.083984 2705.260254 6.007396
   vertex 4159.341309 2704.776123 6.007396
  endloop
 endfacet
 facet normal 0.000000 0.000000 1.000000
  outer loop
   vertex 4162.474121 2715.041016 6.007396
   vertex 4159.341309 2704.776123 6.007396
   vertex 4159.464355 2704.241943 6.007396
  endloop
 endfacet
 facet normal 0.000000 0.000000 1.000000
  outer loop
   vertex 4162.474121 2715.041016 6.007396
   vertex 4159.464355 2704.241943 6.007396
   vertex 4162.474121 2693.041016 6.007396
  endloop
 endfacet
 facet normal 0.923850 -0.382756 0.000000
  outer loop
   vertex 4136.178223 2707.041016 0.007396
   vertex 4135.578613 2705.593750 6.007396
   vertex 4135.578613 2705.593750 0.007396
  endloop
 endfacet
 facet normal 0.923850 -0.382756 0.000000
  outer loop
   vertex 4135.578613 2705.593750 6.007396
   vertex 4136.178223 2707.041016 0.007396
   vertex 4136.178223 2707.041016 6.007396
  endloop
 endfacet
 facet normal 0.608791 -0.793330 0.000000
  outer loop
   vertex 4138.374023 2709.237061 6.007396
   vertex 4137.131348 2708.283447 0.007396
   vertex 4138.374023 2709.237061 0.007396
  endloop
 endfacet
 facet normal 0.608791 -0.793330 0.000000
  outer loop
   vertex 4137.131348 2708.283447 0.007396
   vertex 4138.374023 2709.237061 6.007396
   vertex 4137.131348 2708.283447 6.007396
  endloop
 endfacet
 facet normal -0.130592 -0.991436 0.000000
  outer loop
   vertex 4142.927246 2709.836426 6.007396
   vertex 4141.374023 2710.041016 0.007396
   vertex 4142.927246 2709.836426 0.007396
  endloop
 endfacet
 facet normal -0.130592 -0.991436 0.000000
  outer loop
   vertex 4141.374023 2710.041016 0.007396
   vertex 4142.927246 2709.836426 6.007396
   vertex 4141.374023 2710.041016 6.007396
  endloop
 endfacet
 facet normal 0.974286 0.225315 0.000000
  outer loop
   vertex 4155.283691 2703.839844 0.007396
   vertex 4155.407227 2703.305664 6.007396
   vertex 4155.407227 2703.305664 0.007396
  endloop
 endfacet
 facet normal 0.974286 0.225315 0.000000
  outer loop
   vertex 4155.407227 2703.305664 6.007396
   vertex 4155.283691 2703.839844 0.007396
   vertex 4155.283691 2703.839844 6.007396
  endloop
 endfacet
 facet normal 0.529999 0.847998 0.000000
  outer loop
   vertex 4156.038086 2702.420654 6.007396
   vertex 4156.502930 2702.130127 0.007396
   vertex 4156.038086 2702.420654 0.007396
  endloop
 endfacet
 facet normal 0.529999 0.847998 0.000000
  outer loop
   vertex 4156.502930 2702.130127 0.007396
   vertex 4156.038086 2702.420654 6.007396
   vertex 4156.502930 2702.130127 6.007396
  endloop
 endfacet
 facet normal -0.224892 0.974384 0.000000
  outer loop
   vertex 4157.575195 2701.950439 6.007396
   vertex 4158.109375 2702.073730 0.007396
   vertex 4157.575195 2701.950439 0.007396
  endloop
 endfacet
 facet normal -0.224892 0.974384 0.000000
  outer loop
   vertex 4158.109375 2702.073730 0.007396
   vertex 4157.575195 2701.950439 6.007396
   vertex 4158.109375 2702.073730 6.007396
  endloop
 endfacet
 facet normal 0.130632 -0.991431 0.000000
  outer loop
   vertex 4141.374023 2710.041016 6.007396
   vertex 4139.821289 2709.836426 0.007396
   vertex 4141.374023 2710.041016 0.007396
  endloop
 endfacet
 facet normal 0.130632 -0.991431 0.000000
  outer loop
   vertex 4139.821289 2709.836426 0.007396
   vertex 4141.374023 2710.041016 6.007396
   vertex 4139.821289 2709.836426 6.007396
  endloop
 endfacet
 facet normal -0.991471 -0.130325 0.000000
  outer loop
   vertex 4147.169922 2705.593750 6.007396
   vertex 4147.374023 2704.041016 0.007396
   vertex 4147.374023 2704.041016 6.007396
  endloop
 endfacet
 facet normal -0.991471 -0.130325 0.000000
  outer loop
   vertex 4147.374023 2704.041016 0.007396
   vertex 4147.169922 2705.593750 6.007396
   vertex 4147.169922 2705.593750 0.007396
  endloop
 endfacet
 facet normal 1.000000 0.000000 0.000000
  outer loop
   vertex 4135.374023 2704.041016 0.007396
   vertex 4135.374023 2693.041016 6.007396
   vertex 4135.374023 2693.041016 0.007396
  endloop
 endfacet
 facet normal 1.000000 0.000000 0.000000
  outer loop
   vertex 4135.374023 2693.041016 6.007396
   vertex 4135.374023 2704.041016 0.007396
   vertex 4135.374023 2704.041016 6.007396
  endloop
 endfacet
 facet normal -0.382733 -0.923859 0.000000
  outer loop
   vertex 4144.374023 2709.237061 6.007396
   vertex 4142.927246 2709.836426 0.007396
   vertex 4144.374023 2709.237061 0.007396
  endloop
 endfacet
 facet normal -0.382733 -0.923859 0.000000
  outer loop
   vertex 4142.927246 2709.836426 0.007396
   vertex 4144.374023 2709.237061 6.007396
   vertex 4142.927246 2709.836426 6.007396
  endloop
 endfacet
 facet normal 0.035183 0.999381 0.000000
  outer loop
   vertex 4157.027344 2701.969727 6.007396
   vertex 4157.575195 2701.950439 0.007396
   vertex 4157.027344 2701.969727 0.007396
  endloop
 endfacet
 facet normal 0.035183 0.999381 0.000000
  outer loop
   vertex 4157.575195 2701.950439 0.007396
   vertex 4157.027344 2701.969727 6.007396
   vertex 4157.575195 2701.950439 6.007396
  endloop
 endfacet
 facet normal 0.793423 -0.608670 0.000000
  outer loop
   vertex 4137.131348 2708.283447 0.007396
   vertex 4136.178223 2707.041016 6.007396
   vertex 4136.178223 2707.041016 0.007396
  endloop
 endfacet
 facet normal 0.793423 -0.608670 0.000000
  outer loop
   vertex 4136.178223 2707.041016 6.007396
   vertex 4137.131348 2708.283447 0.007396
   vertex 4137.131348 2708.283447 6.007396
  endloop
 endfacet
 facet normal -0.469524 0.882920 0.000000
  outer loop
   vertex 4158.109375 2702.073730 6.007396
   vertex 4158.593262 2702.331055 0.007396
   vertex 4158.109375 2702.073730 0.007396
  endloop
 endfacet
 facet normal -0.469524 0.882920 0.000000
  outer loop
   vertex 4158.593262 2702.331055 0.007396
   vertex 4158.109375 2702.073730 6.007396
   vertex 4158.593262 2702.331055 6.007396
  endloop
 endfacet
 facet normal 0.991431 -0.130632 0.000000
  outer loop
   vertex 4135.578613 2705.593750 0.007396
   vertex 4135.374023 2704.041016 6.007396
   vertex 4135.374023 2704.041016 0.007396
  endloop
 endfacet
 facet normal 0.991431 -0.130632 0.000000
  outer loop
   vertex 4135.374023 2704.041016 6.007396
   vertex 4135.578613 2705.593750 0.007396
   vertex 4135.578613 2705.593750 6.007396
  endloop
 endfacet
 facet normal -0.681747 0.731588 0.000000
  outer loop
   vertex 4158.593262 2702.331055 6.007396
   vertex 4158.994629 2702.705078 0.007396
   vertex 4158.593262 2702.331055 0.007396
  endloop
 endfacet
 facet normal -0.681747 0.731588 0.000000
  outer loop
   vertex 4158.994629 2702.705078 0.007396
   vertex 4158.593262 2702.331055 6.007396
   vertex 4158.994629 2702.705078 6.007396
  endloop
 endfacet
 facet normal -0.608791 -0.793330 0.000000
  outer loop
   vertex 4145.616699 2708.283447 6.007396
   vertex 4144.374023 2709.237061 0.007396
   vertex 4145.616699 2708.283447 0.007396
  endloop
 endfacet
 facet normal -0.608791 -0.793330 0.000000
  outer loop
   vertex 4144.374023 2709.237061 0.007396
   vertex 4145.616699 2708.283447 6.007396
   vertex 4144.374023 2709.237061 6.007396
  endloop
 endfacet
 facet normal -0.847998 0.529999 0.000000
  outer loop
   vertex 4159.285156 2703.169922 6.007396
   vertex 4158.994629 2702.705078 0.007396
   vertex 4158.994629 2702.705078 6.007396
  endloop
 endfacet
 facet normal -0.847998 0.529999 0.000000
  outer loop
   vertex 4158.994629 2702.705078 0.007396
   vertex 4159.285156 2703.169922 6.007396
   vertex 4159.285156 2703.169922 0.007396
  endloop
 endfacet
 facet normal 0.292490 0.956269 0.000000
  outer loop
   vertex 4156.502930 2702.130127 6.007396
   vertex 4157.027344 2701.969727 0.007396
   vertex 4156.502930 2702.130127 0.007396
  endloop
 endfacet
 facet normal 0.292490 0.956269 0.000000
  outer loop
   vertex 4157.027344 2701.969727 0.007396
   vertex 4156.502930 2702.130127 6.007396
   vertex 4157.027344 2701.969727 6.007396
  endloop
 endfacet
 facet normal 0.999338 -0.036384 0.000000
  outer loop
   vertex 4155.291016 2704.041016 0.007396
   vertex 4155.283691 2703.839844 6.007396
   vertex 4155.283691 2703.839844 0.007396
  endloop
 endfacet
 facet normal 0.999338 -0.036384 0.000000
  outer loop
   vertex 4155.283691 2703.839844 6.007396
   vertex 4155.291016 2704.041016 0.007396
   vertex 4155.291016 2704.041016 6.007396
  endloop
 endfacet
 facet normal -0.292739 -0.956192 0.000000
  outer loop
   vertex 4158.245117 2705.951660 6.007396
   vertex 4157.721191 2706.112061 0.007396
   vertex 4158.245117 2705.951660 0.007396
  endloop
 endfacet
 facet normal -0.292739 -0.956192 0.000000
  outer loop
   vertex 4157.721191 2706.112061 0.007396
   vertex 4158.245117 2705.951660 6.007396
   vertex 4157.721191 2706.112061 6.007396
  endloop
 endfacet
 facet normal -0.923734 -0.383034 0.000000
  outer loop
   vertex 4118.192871 2705.090820 6.007396
   vertex 4118.402832 2704.584473 0.007396
   vertex 4118.402832 2704.584473 6.007396
  endloop
 endfacet
 facet normal -0.923734 -0.383034 0.000000
  outer loop
   vertex 4118.402832 2704.584473 0.007396
   vertex 4118.192871 2705.090820 6.007396
   vertex 4118.192871 2705.090820 0.007396
  endloop
 endfacet
 facet normal 0.130501 0.991448 0.000000
  outer loop
   vertex 4115.830566 2702.012451 6.007396
   vertex 4116.374023 2701.940918 0.007396
   vertex 4115.830566 2702.012451 0.007396
  endloop
 endfacet
 facet normal 0.130501 0.991448 0.000000
  outer loop
   vertex 4116.374023 2701.940918 0.007396
   vertex 4115.830566 2702.012451 6.007396
   vertex 4116.374023 2701.940918 6.007396
  endloop
 endfacet
 facet normal 0.682191 -0.731174 0.000000
  outer loop
   vertex 4156.154785 2705.750732 6.007396
   vertex 4155.753906 2705.376709 0.007396
   vertex 4156.154785 2705.750732 0.007396
  endloop
 endfacet
 facet normal 0.682191 -0.731174 0.000000
  outer loop
   vertex 4155.753906 2705.376709 0.007396
   vertex 4156.154785 2705.750732 6.007396
   vertex 4155.753906 2705.376709 6.007396
  endloop
 endfacet
 facet normal -0.793219 -0.608936 0.000000
  outer loop
   vertex 4117.858887 2705.525879 6.007396
   vertex 4118.192871 2705.090820 0.007396
   vertex 4118.192871 2705.090820 6.007396
  endloop
 endfacet
 facet normal -0.793219 -0.608936 0.000000
  outer loop
   vertex 4118.192871 2705.090820 0.007396
   vertex 4117.858887 2705.525879 6.007396
   vertex 4117.858887 2705.525879 0.007396
  endloop
 endfacet
 facet normal -0.956355 0.292207 0.000000
  outer loop
   vertex 4159.445313 2703.694092 6.007396
   vertex 4159.285156 2703.169922 0.007396
   vertex 4159.285156 2703.169922 6.007396
  endloop
 endfacet
 facet normal -0.956355 0.292207 0.000000
  outer loop
   vertex 4159.285156 2703.169922 0.007396
   vertex 4159.445313 2703.694092 6.007396
   vertex 4159.445313 2703.694092 0.007396
  endloop
 endfacet
 facet normal -0.999382 0.035165 0.000000
  outer loop
   vertex 4159.457520 2704.041016 6.007396
   vertex 4159.445313 2703.694092 0.007396
   vertex 4159.445313 2703.694092 6.007396
  endloop
 endfacet
 facet normal -0.999382 0.035165 0.000000
  outer loop
   vertex 4159.445313 2703.694092 0.007396
   vertex 4159.457520 2704.041016 6.007396
   vertex 4159.457520 2704.041016 0.007396
  endloop
 endfacet
 facet normal -0.382339 -0.924022 0.000000
  outer loop
   vertex 4117.424316 2705.859619 6.007396
   vertex 4116.917480 2706.069336 0.007396
   vertex 4117.424316 2705.859619 0.007396
  endloop
 endfacet
 facet normal -0.382339 -0.924022 0.000000
  outer loop
   vertex 4116.917480 2706.069336 0.007396
   vertex 4117.424316 2705.859619 6.007396
   vertex 4116.917480 2706.069336 6.007396
  endloop
 endfacet
 facet normal -0.974481 -0.224469 0.000000
  outer loop
   vertex 4159.341309 2704.776123 6.007396
   vertex 4159.464355 2704.241943 0.007396
   vertex 4159.464355 2704.241943 6.007396
  endloop
 endfacet
 facet normal -0.974481 -0.224469 0.000000
  outer loop
   vertex 4159.464355 2704.241943 0.007396
   vertex 4159.341309 2704.776123 6.007396
   vertex 4159.341309 2704.776123 0.007396
  endloop
 endfacet
 facet normal 0.608656 0.793434 0.000000
  outer loop
   vertex 4114.889160 2702.555908 6.007396
   vertex 4115.324219 2702.222168 0.007396
   vertex 4114.889160 2702.555908 0.007396
  endloop
 endfacet
 facet normal 0.608656 0.793434 0.000000
  outer loop
   vertex 4115.324219 2702.222168 0.007396
   vertex 4114.889160 2702.555908 6.007396
   vertex 4115.324219 2702.222168 6.007396
  endloop
 endfacet
 facet normal -0.609086 0.793104 0.000000
  outer loop
   vertex 4117.424316 2702.222168 6.007396
   vertex 4117.858887 2702.555908 0.007396
   vertex 4117.424316 2702.222168 0.007396
  endloop
 endfacet
 facet normal -0.609086 0.793104 0.000000
  outer loop
   vertex 4117.858887 2702.555908 0.007396
   vertex 4117.424316 2702.222168 6.007396
   vertex 4117.858887 2702.555908 6.007396
  endloop
 endfacet
 facet normal -0.609086 -0.793104 0.000000
  outer loop
   vertex 4117.858887 2705.525879 6.007396
   vertex 4117.424316 2705.859619 0.007396
   vertex 4117.858887 2705.525879 0.007396
  endloop
 endfacet
 facet normal -0.609086 -0.793104 0.000000
  outer loop
   vertex 4117.424316 2705.859619 0.007396
   vertex 4117.858887 2705.525879 6.007396
   vertex 4117.424316 2705.859619 6.007396
  endloop
 endfacet
 facet normal -0.991513 0.130005 0.000000
  outer loop
   vertex 4118.474121 2704.041016 6.007396
   vertex 4118.402832 2703.497314 0.007396
   vertex 4118.402832 2703.497314 6.007396
  endloop
 endfacet
 facet normal -0.991513 0.130005 0.000000
  outer loop
   vertex 4118.402832 2703.497314 0.007396
   vertex 4118.474121 2704.041016 6.007396
   vertex 4118.474121 2704.041016 0.007396
  endloop
 endfacet
 facet normal 0.991513 0.130005 0.000000
  outer loop
   vertex 4114.274414 2704.041016 0.007396
   vertex 4114.345703 2703.497314 6.007396
   vertex 4114.345703 2703.497314 0.007396
  endloop
 endfacet
 facet normal 0.991513 0.130005 0.000000
  outer loop
   vertex 4114.345703 2703.497314 6.007396
   vertex 4114.274414 2704.041016 0.007396
   vertex 4114.274414 2704.041016 6.007396
  endloop
 endfacet
 facet normal 0.382653 0.923892 0.000000
  outer loop
   vertex 4115.324219 2702.222168 6.007396
   vertex 4115.830566 2702.012451 0.007396
   vertex 4115.324219 2702.222168 0.007396
  endloop
 endfacet
 facet normal 0.382653 0.923892 0.000000
  outer loop
   vertex 4115.830566 2702.012451 0.007396
   vertex 4115.324219 2702.222168 6.007396
   vertex 4115.830566 2702.012451 6.007396
  endloop
 endfacet
 facet normal -0.793219 0.608936 0.000000
  outer loop
   vertex 4118.192871 2702.990967 6.007396
   vertex 4117.858887 2702.555908 0.007396
   vertex 4117.858887 2702.555908 6.007396
  endloop
 endfacet
 facet normal -0.793219 0.608936 0.000000
  outer loop
   vertex 4117.858887 2702.555908 0.007396
   vertex 4118.192871 2702.990967 6.007396
   vertex 4118.192871 2702.990967 0.007396
  endloop
 endfacet
 facet normal -0.923734 0.383034 0.000000
  outer loop
   vertex 4118.402832 2703.497314 6.007396
   vertex 4118.192871 2702.990967 0.007396
   vertex 4118.192871 2702.990967 6.007396
  endloop
 endfacet
 facet normal -0.923734 0.383034 0.000000
  outer loop
   vertex 4118.192871 2702.990967 0.007396
   vertex 4118.402832 2703.497314 6.007396
   vertex 4118.402832 2703.497314 0.007396
  endloop
 endfacet
 facet normal -0.035183 -0.999381 0.000000
  outer loop
   vertex 4157.721191 2706.112061 6.007396
   vertex 4157.173340 2706.131348 0.007396
   vertex 4157.721191 2706.112061 0.007396
  endloop
 endfacet
 facet normal -0.035183 -0.999381 0.000000
  outer loop
   vertex 4157.173340 2706.131348 0.007396
   vertex 4157.721191 2706.112061 6.007396
   vertex 4157.173340 2706.131348 6.007396
  endloop
 endfacet
 facet normal 0.847998 -0.529999 0.000000
  outer loop
   vertex 4155.753906 2705.376709 0.007396
   vertex 4155.463379 2704.911865 6.007396
   vertex 4155.463379 2704.911865 0.007396
  endloop
 endfacet
 facet normal 0.847998 -0.529999 0.000000
  outer loop
   vertex 4155.463379 2704.911865 6.007396
   vertex 4155.753906 2705.376709 0.007396
   vertex 4155.753906 2705.376709 6.007396
  endloop
 endfacet
 facet normal -0.731174 -0.682191 0.000000
  outer loop
   vertex 4158.709961 2705.661133 6.007396
   vertex 4159.083984 2705.260254 0.007396
   vertex 4159.083984 2705.260254 6.007396
  endloop
 endfacet
 facet normal -0.731174 -0.682191 0.000000
  outer loop
   vertex 4159.083984 2705.260254 0.007396
   vertex 4158.709961 2705.661133 6.007396
   vertex 4158.709961 2705.661133 0.007396
  endloop
 endfacet
 facet normal 0.224892 -0.974384 0.000000
  outer loop
   vertex 4157.173340 2706.131348 6.007396
   vertex 4156.639160 2706.008057 0.007396
   vertex 4157.173340 2706.131348 0.007396
  endloop
 endfacet
 facet normal 0.224892 -0.974384 0.000000
  outer loop
   vertex 4156.639160 2706.008057 0.007396
   vertex 4157.173340 2706.131348 6.007396
   vertex 4156.639160 2706.008057 6.007396
  endloop
 endfacet
 facet normal -0.883018 -0.469340 0.000000
  outer loop
   vertex 4159.083984 2705.260254 6.007396
   vertex 4159.341309 2704.776123 0.007396
   vertex 4159.341309 2704.776123 6.007396
  endloop
 endfacet
 facet normal -0.883018 -0.469340 0.000000
  outer loop
   vertex 4159.341309 2704.776123 0.007396
   vertex 4159.083984 2705.260254 6.007396
   vertex 4159.083984 2705.260254 0.007396
  endloop
 endfacet
 facet normal 0.469155 -0.883116 0.000000
  outer loop
   vertex 4156.639160 2706.008057 6.007396
   vertex 4156.154785 2705.750732 0.007396
   vertex 4156.639160 2706.008057 0.007396
  endloop
 endfacet
 facet normal 0.469155 -0.883116 0.000000
  outer loop
   vertex 4156.154785 2705.750732 0.007396
   vertex 4156.639160 2706.008057 6.007396
   vertex 4156.154785 2705.750732 6.007396
  endloop
 endfacet
 facet normal 0.991506 -0.130063 0.000000
  outer loop
   vertex 4114.345703 2704.584473 0.007396
   vertex 4114.274414 2704.041016 6.007396
   vertex 4114.274414 2704.041016 0.007396
  endloop
 endfacet
 facet normal 0.991506 -0.130063 0.000000
  outer loop
   vertex 4114.274414 2704.041016 6.007396
   vertex 4114.345703 2704.584473 0.007396
   vertex 4114.345703 2704.584473 6.007396
  endloop
 endfacet
 facet normal -0.382339 0.924022 0.000000
  outer loop
   vertex 4116.917480 2702.012451 6.007396
   vertex 4117.424316 2702.222168 0.007396
   vertex 4116.917480 2702.012451 0.007396
  endloop
 endfacet
 facet normal -0.382339 0.924022 0.000000
  outer loop
   vertex 4117.424316 2702.222168 0.007396
   vertex 4116.917480 2702.012451 6.007396
   vertex 4117.424316 2702.222168 6.007396
  endloop
 endfacet
 facet normal -0.529999 -0.847998 0.000000
  outer loop
   vertex 4158.709961 2705.661133 6.007396
   vertex 4158.245117 2705.951660 0.007396
   vertex 4158.709961 2705.661133 0.007396
  endloop
 endfacet
 facet normal -0.529999 -0.847998 0.000000
  outer loop
   vertex 4158.245117 2705.951660 0.007396
   vertex 4158.709961 2705.661133 6.007396
   vertex 4158.245117 2705.951660 6.007396
  endloop
 endfacet
 facet normal 0.793649 0.608375 0.000000
  outer loop
   vertex 4114.555664 2702.990967 0.007396
   vertex 4114.889160 2702.555908 6.007396
   vertex 4114.889160 2702.555908 0.007396
  endloop
 endfacet
 facet normal 0.793649 0.608375 0.000000
  outer loop
   vertex 4114.889160 2702.555908 6.007396
   vertex 4114.555664 2702.990967 0.007396
   vertex 4114.555664 2702.990967 6.007396
  endloop
 endfacet
 facet normal 0.956355 -0.292207 0.000000
  outer loop
   vertex 4155.463379 2704.911865 0.007396
   vertex 4155.303223 2704.387695 6.007396
   vertex 4155.303223 2704.387695 0.007396
  endloop
 endfacet
 facet normal 0.956355 -0.292207 0.000000
  outer loop
   vertex 4155.303223 2704.387695 6.007396
   vertex 4155.463379 2704.911865 0.007396
   vertex 4155.463379 2704.911865 6.007396
  endloop
 endfacet
 facet normal -0.991506 -0.130063 0.000000
  outer loop
   vertex 4118.402832 2704.584473 6.007396
   vertex 4118.474121 2704.041016 0.007396
   vertex 4118.474121 2704.041016 6.007396
  endloop
 endfacet
 facet normal -0.991506 -0.130063 0.000000
  outer loop
   vertex 4118.474121 2704.041016 0.007396
   vertex 4118.402832 2704.584473 6.007396
   vertex 4118.402832 2704.584473 0.007396
  endloop
 endfacet
 facet normal -0.130501 0.991448 0.000000
  outer loop
   vertex 4116.374023 2701.940918 6.007396
   vertex 4116.917480 2702.012451 0.007396
   vertex 4116.374023 2701.940918 0.007396
  endloop
 endfacet
 facet normal -0.130501 0.991448 0.000000
  outer loop
   vertex 4116.917480 2702.012451 0.007396
   vertex 4116.374023 2701.940918 6.007396
   vertex 4116.917480 2702.012451 6.007396
  endloop
 endfacet
 facet normal -0.999422 0.034002 0.000000
  outer loop
   vertex 4159.464355 2704.241943 6.007396
   vertex 4159.457520 2704.041016 0.007396
   vertex 4159.457520 2704.041016 6.007396
  endloop
 endfacet
 facet normal -0.999422 0.034002 0.000000
  outer loop
   vertex 4159.457520 2704.041016 0.007396
   vertex 4159.464355 2704.241943 6.007396
   vertex 4159.464355 2704.241943 0.007396
  endloop
 endfacet
 facet normal 0.923734 0.383034 0.000000
  outer loop
   vertex 4114.345703 2703.497314 0.007396
   vertex 4114.555664 2702.990967 6.007396
   vertex 4114.555664 2702.990967 0.007396
  endloop
 endfacet
 facet normal 0.923734 0.383034 0.000000
  outer loop
   vertex 4114.555664 2702.990967 6.007396
   vertex 4114.345703 2703.497314 0.007396
   vertex 4114.345703 2703.497314 6.007396
  endloop
 endfacet
 facet normal -0.130501 -0.991448 0.000000
  outer loop
   vertex 4116.917480 2706.069336 6.007396
   vertex 4116.374023 2706.140869 0.007396
   vertex 4116.917480 2706.069336 0.007396
  endloop
 endfacet
 facet normal -0.130501 -0.991448 0.000000
  outer loop
   vertex 4116.374023 2706.140869 0.007396
   vertex 4116.917480 2706.069336 6.007396
   vertex 4116.374023 2706.140869 6.007396
  endloop
 endfacet
 facet normal 0.608656 -0.793434 0.000000
  outer loop
   vertex 4115.324219 2705.859619 6.007396
   vertex 4114.889160 2705.525879 0.007396
   vertex 4115.324219 2705.859619 0.007396
  endloop
 endfacet
 facet normal 0.608656 -0.793434 0.000000
  outer loop
   vertex 4114.889160 2705.525879 0.007396
   vertex 4115.324219 2705.859619 6.007396
   vertex 4114.889160 2705.525879 6.007396
  endloop
 endfacet
 facet normal 0.130501 -0.991448 0.000000
  outer loop
   vertex 4116.374023 2706.140869 6.007396
   vertex 4115.830566 2706.069336 0.007396
   vertex 4116.374023 2706.140869 0.007396
  endloop
 endfacet
 facet normal 0.130501 -0.991448 0.000000
  outer loop
   vertex 4115.830566 2706.069336 0.007396
   vertex 4116.374023 2706.140869 6.007396
   vertex 4115.830566 2706.069336 6.007396
  endloop
 endfacet
 facet normal 0.382653 -0.923892 0.000000
  outer loop
   vertex 4115.830566 2706.069336 6.007396
   vertex 4115.324219 2705.859619 0.007396
   vertex 4115.830566 2706.069336 0.007396
  endloop
 endfacet
 facet normal 0.382653 -0.923892 0.000000
  outer loop
   vertex 4115.324219 2705.859619 0.007396
   vertex 4115.830566 2706.069336 6.007396
   vertex 4115.324219 2705.859619 6.007396
  endloop
 endfacet
 facet normal 0.793649 -0.608375 0.000000
  outer loop
   vertex 4114.889160 2705.525879 0.007396
   vertex 4114.555664 2705.090820 6.007396
   vertex 4114.555664 2705.090820 0.007396
  endloop
 endfacet
 facet normal 0.793649 -0.608375 0.000000
  outer loop
   vertex 4114.555664 2705.090820 6.007396
   vertex 4114.889160 2705.525879 0.007396
   vertex 4114.889160 2705.525879 6.007396
  endloop
 endfacet
 facet normal 0.923734 -0.383034 0.000000
  outer loop
   vertex 4114.555664 2705.090820 0.007396
   vertex 4114.345703 2704.584473 6.007396
   vertex 4114.345703 2704.584473 0.007396
  endloop
 endfacet
 facet normal 0.923734 -0.383034 0.000000
  outer loop
   vertex 4114.345703 2704.584473 6.007396
   vertex 4114.555664 2705.090820 0.007396
   vertex 4114.555664 2705.090820 6.007396
  endloop
 endfacet
endsolid HotEndMountingPlate (repaired)
