solid pegasys2
facet normal 4.14164668125104e-005 -0.00201239657533353 -0.999997974270298
   outer loop
      vertex 3121.72200457247 -1004.57718925069 0.9116729247991
      vertex 3129.21872181636 -1008.53305934854 0.920089836610546
      vertex 3121.7187241051 -1008.52717964331 0.919737402423308
   endloop
endfacet
facet normal 4.14164668125104e-005 -0.00201239657533353 -0.999997974270298
   outer loop
      vertex 3129.21872181636 -1008.53305934854 0.920089836610546
      vertex 3121.72200457247 -1004.57718925069 0.9116729247991
      vertex 3121.72366556861 -1002.57719411519 0.907589644988909
   endloop
endfacet
facet normal 4.14164668125104e-005 -0.00201239657533353 -0.999997974270298
   outer loop
      vertex 3129.21872181636 -1008.53305934854 0.920089836610546
      vertex 3121.72366556861 -1002.57719411519 0.907589644988909
      vertex 3121.77564679521 -1001.79407910805 0.905993132197395
   endloop
endfacet
facet normal 4.14164668125104e-005 -0.00201239657533353 -0.999997974270298
   outer loop
      vertex 3129.21872181636 -1008.53305934854 0.920089836610546
      vertex 3121.77564679521 -1001.79407910805 0.905993132197395
      vertex 3121.92940024079 -1001.02444389852 0.904428760369925
   endloop
endfacet
facet normal 4.14164668125104e-005 -0.00201239657533353 -0.999997974270298
   outer loop
      vertex 3129.21872181636 -1008.53305934854 0.920089836610546
      vertex 3121.92940024079 -1001.02444389852 0.904428760369925
      vertex 3122.18229514128 -1000.2814571584 0.902923296356911
   endloop
endfacet
facet normal 4.14164668125104e-005 -0.00201239657533353 -0.999997974270298
   outer loop
      vertex 3129.21872181636 -1008.53305934854 0.920089836610546
      vertex 3122.18229514128 -1000.2814571584 0.902923296356911
      vertex 3122.53000439481 -999.577831596837 0.901502499061607
   endloop
endfacet
facet normal 4.14164668125104e-005 -0.00201239657533353 -0.999997974270298
   outer loop
      vertex 3129.21872181636 -1008.53305934854 0.920089836610546
      vertex 3122.53000439481 -999.577831596837 0.901502499061607
      vertex 3122.96657859964 -998.925606442242 0.900190678711735
   endloop
endfacet
facet normal 4.14164668125104e-005 -0.00201239657533353 -0.999997974270298
   outer loop
      vertex 3129.21872181636 -1008.53305934854 0.920089836610546
      vertex 3122.96657859964 -998.925606442242 0.900190678711735
      vertex 3123.48454785011 -998.335941447851 0.899010280928783
   endloop
endfacet
facet normal 4.14164668125104e-005 -0.00201239657533353 -0.999997974270298
   outer loop
      vertex 3129.21872181636 -1008.53305934854 0.920089836610546
      vertex 3123.48454785011 -998.335941447851 0.899010280928783
      vertex 3124.0750495487 -997.818925945203 0.897981502638643
   endloop
endfacet
facet normal 4.14164668125104e-005 -0.00201239657533353 -0.999997974270298
   outer loop
      vertex 3129.21872181636 -1008.53305934854 0.920089836610546
      vertex 3124.0750495487 -997.818925945203 0.897981502638643
      vertex 3124.72798004766 -997.383406212898 0.897121946532317
   endloop
endfacet
facet normal 4.14164668125104e-005 -0.00201239657533353 -0.999997974270298
   outer loop
      vertex 3129.21872181636 -1008.53305934854 0.920089836610546
      vertex 3124.72798004766 -997.383406212898 0.897121946532317
      vertex 3125.43216752512 -997.036834114303 0.896446319834664
   endloop
endfacet
facet normal 4.14164668125104e-005 -0.00201239657533353 -0.999997974270298
   outer loop
      vertex 3129.21872181636 -1008.53305934854 0.920089836610546
      vertex 3125.43216752512 -997.036834114303 0.896446319834664
      vertex 3126.17556313809 -996.785139594108 0.895966182729094
   endloop
endfacet
facet normal 4.14164668125104e-005 -0.00201239657533353 -0.999997974270298
   outer loop
      vertex 3129.21872181636 -1008.53305934854 0.920089836610546
      vertex 3126.17556313809 -996.785139594108 0.895966182729094
      vertex 3126.94544718154 -996.632629215336 0.895689750472272
   endloop
endfacet
facet normal 4.14164668125104e-005 -0.00201239657533353 -0.999997974270298
   outer loop
      vertex 3129.21872181636 -1008.53305934854 0.920089836610546
      vertex 3126.94544718154 -996.632629215336 0.895689750472272
      vertex 3127.72864672603 -996.581912472853 0.895621752913755
   endloop
endfacet
facet normal 4.14164668125104e-005 -0.00201239657533353 -0.999997974270298
   outer loop
      vertex 3129.21872181636 -1008.53305934854 0.920089836610546
      vertex 3127.72864672603 -996.581912472853 0.895621752913755
      vertex 3262.52732980343 -996.687196256824 0.903163475669188
   endloop
endfacet
facet normal 4.14164668125104e-005 -0.00201239657533353 -0.999997974270298
   outer loop
      vertex 3129.21872181636 -1008.53305934854 0.920089836610546
      vertex 3262.52732980343 -996.687196256824 0.903163475669188
      vertex 3246.71843680992 -1008.92517400077 0.926223797469734
   endloop
endfacet
facet normal 4.14164668125104e-005 -0.00201239657533353 -0.999997974270298
   outer loop
      vertex 3129.21872181636 -1008.53305934854 0.920089836610546
      vertex 3246.71843680992 -1008.92517400077 0.926223797469734
      vertex 3245.7173989925 -1010.17438699976 0.928728856126193
   endloop
endfacet
facet normal 4.14164668125104e-005 -0.00201239657533353 -0.999997974270298
   outer loop
      vertex 3129.21872181636 -1008.53305934854 0.920089836610546
      vertex 3245.7173989925 -1010.17438699976 0.928728856126193
      vertex 3245.71490749829 -1013.17437970302 0.934853775838232
   endloop
endfacet
facet normal 4.14164668125104e-005 -0.00201239657533353 -0.999997974270298
   outer loop
      vertex 3245.7173989925 -1010.17438699976 0.928728856126193
      vertex 3246.71843680992 -1008.92517400077 0.926223797469734
      vertex 3246.71739868733 -1010.17517096046 0.92877584735318
   endloop
endfacet
facet normal 4.14164668125104e-005 -0.00201239657533353 -0.999997974270298
   outer loop
      vertex 3246.71843680992 -1008.92517400077 0.926223797469734
      vertex 3262.52732980343 -996.687196256824 0.903163475669188
      vertex 3249.01843610803 -1008.92697711037 0.926331877287905
   endloop
endfacet
facet normal 4.14164668125104e-005 -0.00201239657533353 -0.999997974270298
   outer loop
      vertex 3249.01843610803 -1008.92697711037 0.926331877287905
      vertex 3262.52732980343 -996.687196256824 0.903163475669188
      vertex 3256.52196343608 -1004.68286715265 0.91800734187677
   endloop
endfacet
facet normal 4.14164668125104e-005 -0.00201239657533353 -0.999997974270298
   outer loop
      vertex 3249.01843610803 -1008.92697711037 0.926331877287905
      vertex 3256.52196343608 -1004.68286715265 0.91800734187677
      vertex 3256.5173956967 -1010.18285377529 0.929236361350647
   endloop
endfacet
facet normal 4.14164668125104e-005 -0.00201239657533353 -0.999997974270298
   outer loop
      vertex 3256.52196343608 -1004.68286715265 0.91800734187677
      vertex 3262.52732980343 -996.687196256824 0.903163475669188
      vertex 3262.52196160508 -1004.68757091684 0.918289289223529
   endloop
endfacet
facet normal 4.14164668125104e-005 -0.00201239657533353 -0.999997974270298
   outer loop
      vertex 3256.5173956967 -1010.18285377529 0.929236361350647
      vertex 3249.01739798545 -1010.17697407006 0.928883927167018
      vertex 3249.01843610803 -1008.92697711037 0.926331877287905
   endloop
endfacet
facet normal 4.14164668125104e-005 -0.00201239657533353 -0.999997974270298
   outer loop
      vertex 3246.71490719313 -1013.17516366372 0.934900767063053
      vertex 3246.71386907054 -1014.42516062341 0.93745281694722
      vertex 3245.71490749829 -1013.17437970302 0.934853775838232
   endloop
endfacet
facet normal 4.14164668125104e-005 -0.00201239657533353 -0.999997974270298
   outer loop
      vertex 3256.5149042025 -1013.18284647855 0.935361281067017
      vertex 3256.50950596505 -1019.68283066893 0.948631940444906
      vertex 3249.01490649124 -1013.17696677331 0.935008846879779
   endloop
endfacet
facet normal 4.14164668125104e-005 -0.00201239657533353 -0.999997974270298
   outer loop
      vertex 3262.50950413405 -1019.68753443311 0.948913887794552
      vertex 3262.50908888502 -1020.18753321699 0.949934707750529
      vertex 3256.50950596505 -1019.68283066893 0.948631940444906
   endloop
endfacet
facet normal 4.14164668125104e-005 -0.00201239657533353 -0.999997974270298
   outer loop
      vertex 3121.70954710144 -1019.57715276696 0.942297523366514
      vertex 3121.75939744215 -1021.36033703613 0.945940482350468
      vertex 3121.70871660338 -1020.57715033191 0.944339163271249
   endloop
endfacet
facet normal 4.14164668125104e-005 -0.00201239657533353 -0.999997974270298
   outer loop
      vertex 3121.75939744215 -1021.36033703613 0.945940482350468
      vertex 3121.70954710144 -1019.57715276696 0.942297523366514
      vertex 3121.71365806688 -1014.6271648066 0.932191405843346
   endloop
endfacet
facet normal 4.14164668125104e-005 -0.00201239657533353 -0.999997974270298
   outer loop
      vertex 3121.75939744215 -1021.36033703613 0.945940482350468
      vertex 3121.71365806688 -1014.6271648066 0.932191405843346
      vertex 3129.21365577814 -1014.63304451182 0.932543840027697
   endloop
endfacet
facet normal 4.14164668125104e-005 -0.00201239657533353 -0.999997974270298
   outer loop
      vertex 3121.75939744215 -1021.36033703613 0.945940482350468
      vertex 3129.21365577814 -1014.63304451182 0.932543840027697
      vertex 3121.91187356797 -1022.13020316124 0.947519225582599
   endloop
endfacet
facet normal 4.14164668125104e-005 -0.00201239657533353 -0.999997974270298
   outer loop
      vertex 3121.91187356797 -1022.13020316124 0.947519225582599
      vertex 3129.21365577814 -1014.63304451182 0.932543840027697
      vertex 3122.16353597066 -1022.87357557249 0.949048379192479
   endloop
endfacet
facet normal 4.14164668125104e-005 -0.00201239657533353 -0.999997974270298
   outer loop
      vertex 3122.16353597066 -1022.87357557249 0.949048379192479
      vertex 3129.21365577814 -1014.63304451182 0.932543840027697
      vertex 3122.51007846938 -1023.57773446744 0.950501777920138
   endloop
endfacet
facet normal 4.14164668125104e-005 -0.00201239657533353 -0.999997974270298
   outer loop
      vertex 3122.51007846938 -1023.57773446744 0.950501777920138
      vertex 3129.21365577814 -1014.63304451182 0.932543840027697
      vertex 3122.94557139545 -1024.23063102395 0.951854552740875
   endloop
endfacet
facet normal 4.14164668125104e-005 -0.00201239657533353 -0.999997974270298
   outer loop
      vertex 3122.94557139545 -1024.23063102395 0.951854552740875
      vertex 3129.21365577814 -1014.63304451182 0.932543840027697
      vertex 3123.46256305458 -1024.82109356672 0.95308355640677
   endloop
endfacet
facet normal 4.14164668125104e-005 -0.00201239657533353 -0.999997974270298
   outer loop
      vertex 3123.46256305458 -1024.82109356672 0.95308355640677
      vertex 3129.21365577814 -1014.63304451182 0.932543840027697
      vertex 3124.05220723232 -1025.33901872529 0.9541677594974
   endloop
endfacet
facet normal 4.14164668125104e-005 -0.00201239657533353 -0.999997974270298
   outer loop
      vertex 3124.05220723232 -1025.33901872529 0.9541677594974
      vertex 3129.21365577814 -1014.63304451182 0.932543840027697
      vertex 3124.70441456123 -1025.7755443122 0.955088610281851
   endloop
endfacet
facet normal 4.14164668125104e-005 -0.00201239657533353 -0.999997974270298
   outer loop
      vertex 3124.70441456123 -1025.7755443122 0.955088610281851
      vertex 3129.21365577814 -1014.63304451182 0.932543840027697
      vertex 3125.40802515936 -1026.12320096334 0.955830352143167
   endloop
endfacet
facet normal 4.14164668125104e-005 -0.00201239657533353 -0.999997974270298
   outer loop
      vertex 3125.40802515936 -1026.12320096334 0.955830352143167
      vertex 3129.21365577814 -1014.63304451182 0.932543840027697
      vertex 3126.1509995864 -1026.37603994583 0.956380293172563
   endloop
endfacet
facet normal 4.14164668125104e-005 -0.00201239657533353 -0.999997974270298
   outer loop
      vertex 3126.1509995864 -1026.37603994583 0.956380293172563
      vertex 3129.21365577814 -1014.63304451182 0.932543840027697
      vertex 3126.92062484985 -1026.52973494643 0.956729023357198
   endloop
endfacet
facet normal 4.14164668125104e-005 -0.00201239657533353 -0.999997974270298
   outer loop
      vertex 3126.92062484985 -1026.52973494643 0.956729023357198
      vertex 3129.21365577814 -1014.63304451182 0.932543840027697
      vertex 3127.67059763294 -1026.5794592458 0.956864586338057
   endloop
endfacet
facet normal 4.14164668125104e-005 -0.00201239657533353 -0.999997974270298
   outer loop
      vertex 3127.67059763294 -1026.5794592458 0.956864586338057
      vertex 3129.21365577814 -1014.63304451182 0.932543840027697
      vertex 3127.70373193628 -1026.58165609888 0.956870575603236
   endloop
endfacet
facet normal 4.14164668125104e-005 -0.00201239657533353 -0.999997974270298
   outer loop
      vertex 3127.70373193628 -1026.58165609888 0.956870575603236
      vertex 3129.21365577814 -1014.63304451182 0.932543840027697
      vertex 3262.50950413405 -1026.58165609888 0.952892231698894
   endloop
endfacet
facet normal 4.14164668125104e-005 -0.00201239657533353 -0.999997974270298
   outer loop
      vertex 3262.50950413405 -1026.58165609888 0.952892231698894
      vertex 3129.21365577814 -1014.63304451182 0.932543840027697
      vertex 3129.21872181636 -1008.53305934854 0.920089836610546
   endloop
endfacet
facet normal 4.14164668125104e-005 -0.00201239657533353 -0.999997974270298
   outer loop
      vertex 3262.50950413405 -1026.58165609888 0.952892231698894
      vertex 3129.21872181636 -1008.53305934854 0.920089836610546
      vertex 3246.71386907054 -1014.42516062341 0.93745281694722
   endloop
endfacet
facet normal 4.14164668125104e-005 -0.00201239657533353 -0.999997974270298
   outer loop
      vertex 3246.71386907054 -1014.42516062341 0.93745281694722
      vertex 3129.21872181636 -1008.53305934854 0.920089836610546
      vertex 3245.71490749829 -1013.17437970302 0.934853775838232
   endloop
endfacet
facet normal 4.14164668125104e-005 -0.00201239657533353 -0.999997974270298
   outer loop
      vertex 3262.50950413405 -1026.58165609888 0.952892231698894
      vertex 3246.71386907054 -1014.42516062341 0.93745281694722
      vertex 3249.01386836866 -1014.42696373301 0.937560896764668
   endloop
endfacet
facet normal 4.14164668125104e-005 -0.00201239657533353 -0.999997974270298
   outer loop
      vertex 3262.50950413405 -1026.58165609888 0.952892231698894
      vertex 3249.01386836866 -1014.42696373301 0.937560896764668
      vertex 3249.01490649124 -1013.17696677331 0.935008846879779
   endloop
endfacet
facet normal 4.14164668125104e-005 -0.00201239657533353 -0.999997974270298
   outer loop
      vertex 3262.50950413405 -1026.58165609888 0.952892231698894
      vertex 3249.01490649124 -1013.17696677331 0.935008846879779
      vertex 3256.50950596505 -1019.68283066893 0.948631940444906
   endloop
endfacet
facet normal 4.14164668125104e-005 -0.00201239657533353 -0.999997974270298
   outer loop
      vertex 3262.50950413405 -1026.58165609888 0.952892231698894
      vertex 3256.50950596505 -1019.68283066893 0.948631940444906
      vertex 3262.50908888502 -1020.18753321699 0.949934707750529
   endloop
endfacet
facet normal 0.000781155371500301 0.999997670091778 -0.00201236361044342
   outer loop
      vertex 3127.72839822722 -996.569838093401 6.89560959853555
      vertex 3262.52732980343 -996.687196256824 0.903163475669188
      vertex 3127.72864672603 -996.581912472853 0.895621752913755
   endloop
endfacet
facet normal 0.000781155371500301 0.999997670091778 -0.00201236361044342
   outer loop
      vertex 3262.52732980343 -996.687196256824 0.903163475669188
      vertex 3127.72839822722 -996.569838093401 6.89560959853555
      vertex 3262.52708130463 -996.675121877372 6.90315132129098
   endloop
endfacet
facet normal -0.751305285734856 0.659953422737341 -0.0013592071716153
   outer loop
      vertex 3122.96633010084 -998.91353206279 6.90017852433352
      vertex 3123.48454785011 -998.335941447851 0.899010280928783
      vertex 3122.96657859964 -998.925606442242 0.900190678711735
   endloop
endfacet
facet normal -0.751305285734856 0.659953422737341 -0.0013592071716153
   outer loop
      vertex 3123.48454785011 -998.335941447851 0.899010280928783
      vertex 3122.96633010084 -998.91353206279 6.90017852433352
      vertex 3123.4842993513 -998.323867068399 6.89899812655057
   endloop
endfacet
facet normal -0.441577203414096 0.897221403539089 -0.00182385754203076
   outer loop
      vertex 3124.72798004766 -997.383406212898 0.897121946532317
      vertex 3125.43191902632 -997.024759734851 6.89643416545645
      vertex 3125.43216752512 -997.036834114303 0.896446319834664
   endloop
endfacet
facet normal -0.441577203414096 0.897221403539089 -0.00182385754203076
   outer loop
      vertex 3125.43191902632 -997.024759734851 6.89643416545645
      vertex 3124.72798004766 -997.383406212898 0.897121946532317
      vertex 3124.72773154886 -997.371331833446 6.89710979215411
   endloop
endfacet
facet normal -0.194319538160152 0.980936281533537 -0.00198208485744989
   outer loop
      vertex 3126.17556313809 -996.785139594108 0.895966182729094
      vertex 3126.94519868274 -996.620554835884 6.89567759609406
      vertex 3126.94544718154 -996.632629215336 0.895689750472272
   endloop
endfacet
facet normal -0.194319538160152 0.980936281533537 -0.00198208485744989
   outer loop
      vertex 3126.94519868274 -996.620554835884 6.89567759609406
      vertex 3126.17556313809 -996.785139594108 0.895966182729094
      vertex 3126.17531463929 -996.773065214656 6.89595402835088
   endloop
endfacet
facet normal -0.831015897804581 0.556247468593961 -0.00115381058049689
   outer loop
      vertex 3122.52975589601 -999.565757217385 6.9014903446834
      vertex 3122.96657859964 -998.925606442242 0.900190678711735
      vertex 3122.53000439481 -999.577831596837 0.901502499061607
   endloop
endfacet
facet normal -0.831015897804581 0.556247468593961 -0.00115381058049689
   outer loop
      vertex 3122.96657859964 -998.925606442242 0.900190678711735
      vertex 3122.52975589601 -999.565757217385 6.9014903446834
      vertex 3122.96633010084 -998.91353206279 6.90017852433352
   endloop
endfacet
facet normal -0.896509136003857 0.44302427318232 -0.000928672652259916
   outer loop
      vertex 3122.18204664248 -1000.26938277895 6.9029111419787
      vertex 3122.53000439481 -999.577831596837 0.901502499061607
      vertex 3122.18229514128 -1000.2814571584 0.902923296356911
   endloop
endfacet
facet normal -0.896509136003857 0.44302427318232 -0.000928672652259916
   outer loop
      vertex 3122.53000439481 -999.577831596837 0.901502499061607
      vertex 3122.18204664248 -1000.26938277895 6.9029111419787
      vertex 3122.52975589601 -999.565757217385 6.9014903446834
   endloop
endfacet
facet normal -0.997912800251524 -0.0645758100239645 8.86222960930354e-005
   outer loop
      vertex 3121.75914894335 -1021.34826265667 6.94592832797226
      vertex 3121.70871660338 -1020.57715033191 0.944339163271249
      vertex 3121.75939744215 -1021.36033703613 0.945940482350468
   endloop
endfacet
facet normal -0.997912800251524 -0.0645758100239645 8.86222960930354e-005
   outer loop
      vertex 3121.70871660338 -1020.57715033191 0.944339163271249
      vertex 3121.75914894335 -1021.34826265667 6.94592832797226
      vertex 3121.70846810458 -1020.56507595246 6.94432700889304
   endloop
endfacet
facet normal -0.946664393306342 0.322220504610143 -0.000687644327389188
   outer loop
      vertex 3121.92915174199 -1001.01236951906 6.90441660599171
      vertex 3122.18229514128 -1000.2814571584 0.902923296356911
      vertex 3121.92940024079 -1001.02444389852 0.904428760369925
   endloop
endfacet
facet normal -0.946664393306342 0.322220504610143 -0.000687644327389188
   outer loop
      vertex 3122.18229514128 -1000.2814571584 0.902923296356911
      vertex 3121.92915174199 -1001.01236951906 6.90441660599171
      vertex 3122.18204664248 -1000.26938277895 6.9029111419787
   endloop
endfacet
facet normal -0.999999654279762 0.000830411831885375 -4.30876577045502e-005
   outer loop
      vertex 3121.70929860264 -1019.56507838751 6.9422853689883
      vertex 3121.71365806688 -1014.6271648066 0.932191405843346
      vertex 3121.70954710144 -1019.57715276696 0.942297523366514
   endloop
endfacet
facet normal -0.999999654279762 0.000830411831885375 -4.30876577045502e-005
   outer loop
      vertex 3121.71365806688 -1014.6271648066 0.932191405843346
      vertex 3121.70929860264 -1019.56507838751 6.9422853689883
      vertex 3121.71340956808 -1014.61509042714 6.93217925146514
   endloop
endfacet
facet normal -0.980945877244756 -0.194280887314951 0.000350343589617005
   outer loop
      vertex 3121.91162506917 -1022.11812878179 6.94750707120439
      vertex 3121.75939744215 -1021.36033703613 0.945940482350468
      vertex 3121.91187356797 -1022.13020316124 0.947519225582599
   endloop
endfacet
facet normal -0.980945877244756 -0.194280887314951 0.000350343589617005
   outer loop
      vertex 3121.75939744215 -1021.36033703613 0.945940482350468
      vertex 3121.91162506917 -1022.11812878179 6.94750707120439
      vertex 3121.75914894335 -1021.34826265667 6.94592832797226
   endloop
endfacet
facet normal -0.999999654279761 0.000830411832460873 -4.30876577057084e-005
   outer loop
      vertex 3121.7184756063 -1008.51510526386 6.9197252480451
      vertex 3121.72200457247 -1004.57718925069 0.9116729247991
      vertex 3121.7187241051 -1008.52717964331 0.919737402423308
   endloop
endfacet
facet normal -0.999999654279761 0.000830411832460873 -4.30876577057084e-005
   outer loop
      vertex 3121.72200457247 -1004.57718925069 0.9116729247991
      vertex 3121.7184756063 -1008.51510526386 6.9197252480451
      vertex 3121.72175607367 -1004.56511487124 6.91166077042089
   endloop
endfacet
facet normal -0.947193175163281 -0.320662940795812 0.000606072836929431
   outer loop
      vertex 3122.16328747186 -1022.86150119303 6.94903622481427
      vertex 3121.91187356797 -1022.13020316124 0.947519225582599
      vertex 3122.16353597066 -1022.87357557249 0.949048379192479
   endloop
endfacet
facet normal -0.947193175163281 -0.320662940795812 0.000606072836929431
   outer loop
      vertex 3121.91187356797 -1022.13020316124 0.947519225582599
      vertex 3122.16328747186 -1022.86150119303 6.94903622481427
      vertex 3121.91162506917 -1022.11812878179 6.94750707120439
   endloop
endfacet
facet normal -0.554906216687708 0.831911179430822 -0.00169712090128398
   outer loop
      vertex 3124.0750495487 -997.818925945203 0.897981502638643
      vertex 3124.72773154886 -997.371331833446 6.89710979215411
      vertex 3124.72798004766 -997.383406212898 0.897121946532317
   endloop
endfacet
facet normal -0.554906216687708 0.831911179430822 -0.00169712090128398
   outer loop
      vertex 3124.72773154886 -997.371331833446 6.89710979215411
      vertex 3124.0750495487 -997.818925945203 0.897981502638643
      vertex 3124.0748010499 -997.806851565751 6.89796934826043
   endloop
endfacet
facet normal -0.980623265493021 0.195902583139091 -0.000434848519224527
   outer loop
      vertex 3121.77539829641 -1001.7820047286 6.90598097781919
      vertex 3121.92940024079 -1001.02444389852 0.904428760369925
      vertex 3121.77564679521 -1001.79407910805 0.905993132197395
   endloop
endfacet
facet normal -0.980623265493021 0.195902583139091 -0.000434848519224527
   outer loop
      vertex 3121.92940024079 -1001.02444389852 0.904428760369925
      vertex 3121.77539829641 -1001.7820047286 6.90598097781919
      vertex 3121.92915174199 -1001.01236951906 6.90441660599171
   endloop
endfacet
facet normal -0.99780427429795 0.0662314102535763 -0.000174609744497795
   outer loop
      vertex 3121.72341706981 -1002.56511973573 6.9075774906107
      vertex 3121.77564679521 -1001.79407910805 0.905993132197395
      vertex 3121.72366556861 -1002.57719411519 0.907589644988909
   endloop
endfacet
facet normal -0.99780427429795 0.0662314102535763 -0.000174609744497795
   outer loop
      vertex 3121.77564679521 -1001.79407910805 0.905993132197395
      vertex 3121.72341706981 -1002.56511973573 6.9075774906107
      vertex 3121.77539829641 -1001.7820047286 6.90598097781919
   endloop
endfacet
facet normal -0.000784053671823014 -0.999997667823801 0.00201236348584174
   outer loop
      vertex 3129.21872181636 -1008.53305934854 0.920089836610546
      vertex 3121.7184756063 -1008.51510526386 6.9197252480451
      vertex 3121.7187241051 -1008.52717964331 0.919737402423308
   endloop
endfacet
facet normal -0.000784053671823014 -0.999997667823801 0.00201236348584174
   outer loop
      vertex 3121.7184756063 -1008.51510526386 6.9197252480451
      vertex 3129.21872181636 -1008.53305934854 0.920089836610546
      vertex 3129.21847331756 -1008.52098496909 6.92007768223234
   endloop
endfacet
facet normal -0.999999654279761 0.000830411832426643 -4.30876577056395e-005
   outer loop
      vertex 3129.21340727934 -1014.62097013237 6.93253168564949
      vertex 3129.21872181636 -1008.53305934854 0.920089836610546
      vertex 3129.21365577814 -1014.63304451182 0.932543840027697
   endloop
endfacet
facet normal -0.999999654279761 0.000830411832426643 -4.30876577056395e-005
   outer loop
      vertex 3129.21872181636 -1008.53305934854 0.920089836610546
      vertex 3129.21340727934 -1014.62097013237 6.93253168564949
      vertex 3129.21847331756 -1008.52098496909 6.92007768223234
   endloop
endfacet
facet normal -0.999999654279762 0.000830411831213741 -4.30876577031987e-005
   outer loop
      vertex 3121.70846810458 -1020.56507595246 6.94432700889304
      vertex 3121.70954710144 -1019.57715276696 0.942297523366514
      vertex 3121.70871660338 -1020.57715033191 0.944339163271249
   endloop
endfacet
facet normal -0.999999654279762 0.000830411831213741 -4.30876577031987e-005
   outer loop
      vertex 3121.70954710144 -1019.57715276696 0.942297523366514
      vertex 3121.70846810458 -1020.56507595246 6.94432700889304
      vertex 3121.70929860264 -1019.56507838751 6.9422853689883
   endloop
endfacet
facet normal -0.897231801310116 -0.441559021852051 0.000851433417034562
   outer loop
      vertex 3122.50982997058 -1023.56566008799 6.95048962354193
      vertex 3122.16353597066 -1022.87357557249 0.949048379192479
      vertex 3122.51007846938 -1023.57773446744 0.950501777920138
   endloop
endfacet
facet normal -0.897231801310116 -0.441559021852051 0.000851433417034562
   outer loop
      vertex 3122.16353597066 -1022.87357557249 0.949048379192479
      vertex 3122.50982997058 -1023.56566008799 6.95048962354193
      vertex 3122.16328747186 -1022.86150119303 6.94903622481427
   endloop
endfacet
facet normal -0.831916407182495 -0.554899919127563 0.00108222585093335
   outer loop
      vertex 3122.94532289665 -1024.2185566445 6.95184239836266
      vertex 3122.51007846938 -1023.57773446744 0.950501777920138
      vertex 3122.94557139545 -1024.23063102395 0.951854552740875
   endloop
endfacet
facet normal -0.831916407182495 -0.554899919127563 0.00108222585093335
   outer loop
      vertex 3122.51007846938 -1023.57773446744 0.950501777920138
      vertex 3122.94532289665 -1024.2185566445 6.95184239836266
      vertex 3122.50982997058 -1023.56566008799 6.95048962354193
   endloop
endfacet
facet normal -0.0646205353549486 0.997907882935603 -0.00201086683384854
   outer loop
      vertex 3126.94544718154 -996.632629215336 0.895689750472272
      vertex 3127.72839822722 -996.569838093401 6.89560959853555
      vertex 3127.72864672603 -996.581912472853 0.895621752913755
   endloop
endfacet
facet normal -0.0646205353549486 0.997907882935603 -0.00201086683384854
   outer loop
      vertex 3127.72839822722 -996.569838093401 6.89560959853555
      vertex 3126.94544718154 -996.632629215336 0.895689750472272
      vertex 3126.94519868274 -996.620554835884 6.89567759609406
   endloop
endfacet
facet normal -0.65874093584719 0.752368263340455 -0.0015413491610003
   outer loop
      vertex 3123.48454785011 -998.335941447851 0.899010280928783
      vertex 3124.0748010499 -997.806851565751 6.89796934826043
      vertex 3124.0750495487 -997.818925945203 0.897981502638643
   endloop
endfacet
facet normal -0.65874093584719 0.752368263340455 -0.0015413491610003
   outer loop
      vertex 3124.0748010499 -997.806851565751 6.89796934826043
      vertex 3123.48454785011 -998.335941447851 0.899010280928783
      vertex 3123.4842993513 -998.323867068399 6.89899812655057
   endloop
endfacet
facet normal -0.000784053671822676 -0.999997667823801 0.00201236348584174
   outer loop
      vertex 3262.52196160508 -1004.68757091684 0.918289289223529
      vertex 3256.52171493728 -1004.6707927732 6.91799518749856
      vertex 3256.52196343608 -1004.68286715265 0.91800734187677
   endloop
endfacet
facet normal -0.000784053671822676 -0.999997667823801 0.00201236348584174
   outer loop
      vertex 3256.52171493728 -1004.6707927732 6.91799518749856
      vertex 3262.52196160508 -1004.68757091684 0.918289289223529
      vertex 3262.52171310628 -1004.67549653739 6.91827713484532
   endloop
endfacet
facet normal -0.752364600297656 -0.658745650831288 0.00129449983055636
   outer loop
      vertex 3123.46231455578 -1024.80901918727 6.95307140202856
      vertex 3122.94557139545 -1024.23063102395 0.951854552740875
      vertex 3123.46256305458 -1024.82109356672 0.95308355640677
   endloop
endfacet
facet normal -0.752364600297656 -0.658745650831288 0.00129449983055636
   outer loop
      vertex 3122.94557139545 -1024.23063102395 0.951854552740875
      vertex 3123.46231455578 -1024.80901918727 6.95307140202856
      vertex 3122.94532289665 -1024.2185566445 6.95184239836266
   endloop
endfacet
facet normal -0.659937820989133 -0.751318752811105 0.00148462199972249
   outer loop
      vertex 3124.05220723232 -1025.33901872529 0.9541677594974
      vertex 3123.46231455578 -1024.80901918727 6.95307140202856
      vertex 3123.46256305458 -1024.82109356672 0.95308355640677
   endloop
endfacet
facet normal -0.659937820989133 -0.751318752811105 0.00148462199972249
   outer loop
      vertex 3123.46231455578 -1024.80901918727 6.95307140202856
      vertex 3124.05220723232 -1025.33901872529 0.9541677594974
      vertex 3124.05195873352 -1025.32694434584 6.95415560511919
   endloop
endfacet
facet normal -0.556218011216283 -0.831034778864144 0.00164933829928078
   outer loop
      vertex 3124.70441456123 -1025.7755443122 0.955088610281851
      vertex 3124.05195873352 -1025.32694434584 6.95415560511919
      vertex 3124.05220723232 -1025.33901872529 0.9541677594974
   endloop
endfacet
facet normal -0.556218011216283 -0.831034778864144 0.00164933829928078
   outer loop
      vertex 3124.05195873352 -1025.32694434584 6.95415560511919
      vertex 3124.70441456123 -1025.7755443122 0.955088610281851
      vertex 3124.70416606242 -1025.76346993275 6.95507645590364
   endloop
endfacet
facet normal 0.999999774023781 -0.000670912361103682 4.27666858249536e-005
   outer loop
      vertex 3262.52732980343 -996.687196256824 0.903163475669188
      vertex 3262.52171310628 -1004.67549653739 6.91827713484532
      vertex 3262.52196160508 -1004.68757091684 0.918289289223529
   endloop
endfacet
facet normal 0.999999774023781 -0.000670912361103682 4.27666858249536e-005
   outer loop
      vertex 3262.52171310628 -1004.67549653739 6.91827713484532
      vertex 3262.52732980343 -996.687196256824 0.903163475669188
      vertex 3262.52708130463 -996.675121877372 6.90315132129098
   endloop
endfacet
facet normal -0.320692374734924 0.947181459239337 -0.00191939055805435
   outer loop
      vertex 3125.43216752512 -997.036834114303 0.896446319834664
      vertex 3126.17531463929 -996.773065214656 6.89595402835088
      vertex 3126.17556313809 -996.785139594108 0.895966182729094
   endloop
endfacet
facet normal -0.320692374734924 0.947181459239337 -0.00191939055805435
   outer loop
      vertex 3126.17531463929 -996.773065214656 6.89595402835088
      vertex 3125.43216752512 -997.036834114303 0.896446319834664
      vertex 3125.43191902632 -997.024759734851 6.89643416545645
   endloop
endfacet
facet normal -0.999999654279761 0.000830411832137 -4.30876577050566e-005
   outer loop
      vertex 3121.72175607367 -1004.56511487124 6.91166077042089
      vertex 3121.72366556861 -1002.57719411519 0.907589644988909
      vertex 3121.72200457247 -1004.57718925069 0.9116729247991
   endloop
endfacet
facet normal -0.999999654279761 0.000830411832137 -4.30876577050566e-005
   outer loop
      vertex 3121.72366556861 -1002.57719411519 0.907589644988909
      vertex 3121.72175607367 -1004.56511487124 6.91166077042089
      vertex 3121.72341706981 -1002.56511973573 6.9075774906107
   endloop
endfacet
facet normal 0.000784053671341494 0.999997667823801 -0.00201236348584176
   outer loop
      vertex 3121.71340956808 -1014.61509042714 6.93217925146514
      vertex 3129.21365577814 -1014.63304451182 0.932543840027697
      vertex 3121.71365806688 -1014.6271648066 0.932191405843346
   endloop
endfacet
facet normal 0.000784053671341494 0.999997667823801 -0.00201236348584176
   outer loop
      vertex 3129.21365577814 -1014.63304451182 0.932543840027697
      vertex 3121.71340956808 -1014.61509042714 6.93217925146514
      vertex 3129.21340727934 -1014.62097013237 6.93253168564949
   endloop
endfacet
facet normal -4.14164668125105e-005 0.00201239657533353 0.999997974270298
   outer loop
      vertex 3256.5171471979 -1010.17077939583 6.92922420697244
      vertex 3249.01818760923 -1008.91490273092 6.92631972290969
      vertex 3249.01714948665 -1010.16489969061 6.92887177278881
   endloop
endfacet
facet normal -4.14164668125105e-005 0.00201239657533353 0.999997974270298
   outer loop
      vertex 3129.21847331756 -1008.52098496909 6.92007768223234
      vertex 3121.72175607367 -1004.56511487124 6.91166077042089
      vertex 3121.7184756063 -1008.51510526386 6.9197252480451
   endloop
endfacet
facet normal -4.14164668125105e-005 0.00201239657533353 0.999997974270298
   outer loop
      vertex 3121.72175607367 -1004.56511487124 6.91166077042089
      vertex 3129.21847331756 -1008.52098496909 6.92007768223234
      vertex 3121.72341706981 -1002.56511973573 6.9075774906107
   endloop
endfacet
facet normal -4.14164668125105e-005 0.00201239657533353 0.999997974270298
   outer loop
      vertex 3121.72341706981 -1002.56511973573 6.9075774906107
      vertex 3129.21847331756 -1008.52098496909 6.92007768223234
      vertex 3121.77539829641 -1001.7820047286 6.90598097781919
   endloop
endfacet
facet normal -4.14164668125105e-005 0.00201239657533353 0.999997974270298
   outer loop
      vertex 3121.77539829641 -1001.7820047286 6.90598097781919
      vertex 3129.21847331756 -1008.52098496909 6.92007768223234
      vertex 3121.92915174199 -1001.01236951906 6.90441660599171
   endloop
endfacet
facet normal -4.14164668125105e-005 0.00201239657533353 0.999997974270298
   outer loop
      vertex 3121.92915174199 -1001.01236951906 6.90441660599171
      vertex 3129.21847331756 -1008.52098496909 6.92007768223234
      vertex 3122.18204664248 -1000.26938277895 6.9029111419787
   endloop
endfacet
facet normal -4.14164668125105e-005 0.00201239657533353 0.999997974270298
   outer loop
      vertex 3122.18204664248 -1000.26938277895 6.9029111419787
      vertex 3129.21847331756 -1008.52098496909 6.92007768223234
      vertex 3122.52975589601 -999.565757217385 6.9014903446834
   endloop
endfacet
facet normal -4.14164668125105e-005 0.00201239657533353 0.999997974270298
   outer loop
      vertex 3122.52975589601 -999.565757217385 6.9014903446834
      vertex 3129.21847331756 -1008.52098496909 6.92007768223234
      vertex 3122.96633010084 -998.91353206279 6.90017852433352
   endloop
endfacet
facet normal -4.14164668125105e-005 0.00201239657533353 0.999997974270298
   outer loop
      vertex 3122.96633010084 -998.91353206279 6.90017852433352
      vertex 3129.21847331756 -1008.52098496909 6.92007768223234
      vertex 3123.4842993513 -998.323867068399 6.89899812655057
   endloop
endfacet
facet normal -4.14164668125105e-005 0.00201239657533353 0.999997974270298
   outer loop
      vertex 3123.4842993513 -998.323867068399 6.89899812655057
      vertex 3129.21847331756 -1008.52098496909 6.92007768223234
      vertex 3124.0748010499 -997.806851565751 6.89796934826043
   endloop
endfacet
facet normal -4.14164668125105e-005 0.00201239657533353 0.999997974270298
   outer loop
      vertex 3124.0748010499 -997.806851565751 6.89796934826043
      vertex 3129.21847331756 -1008.52098496909 6.92007768223234
      vertex 3124.72773154886 -997.371331833446 6.89710979215411
   endloop
endfacet
facet normal -4.14164668125105e-005 0.00201239657533353 0.999997974270298
   outer loop
      vertex 3124.72773154886 -997.371331833446 6.89710979215411
      vertex 3129.21847331756 -1008.52098496909 6.92007768223234
      vertex 3125.43191902632 -997.024759734851 6.89643416545645
   endloop
endfacet
facet normal -4.14164668125105e-005 0.00201239657533353 0.999997974270298
   outer loop
      vertex 3125.43191902632 -997.024759734851 6.89643416545645
      vertex 3129.21847331756 -1008.52098496909 6.92007768223234
      vertex 3126.17531463929 -996.773065214656 6.89595402835088
   endloop
endfacet
facet normal -4.14164668125105e-005 0.00201239657533353 0.999997974270298
   outer loop
      vertex 3126.17531463929 -996.773065214656 6.89595402835088
      vertex 3129.21847331756 -1008.52098496909 6.92007768223234
      vertex 3126.94519868274 -996.620554835884 6.89567759609406
   endloop
endfacet
facet normal -4.14164668125105e-005 0.00201239657533353 0.999997974270298
   outer loop
      vertex 3126.94519868274 -996.620554835884 6.89567759609406
      vertex 3129.21847331756 -1008.52098496909 6.92007768223234
      vertex 3127.72839822722 -996.569838093401 6.89560959853555
   endloop
endfacet
facet normal -4.14164668125105e-005 0.00201239657533353 0.999997974270298
   outer loop
      vertex 3127.72839822722 -996.569838093401 6.89560959853555
      vertex 3129.21847331756 -1008.52098496909 6.92007768223234
      vertex 3262.52708130463 -996.675121877372 6.90315132129098
   endloop
endfacet
facet normal -4.14164668125105e-005 0.00201239657533353 0.999997974270298
   outer loop
      vertex 3262.52708130463 -996.675121877372 6.90315132129098
      vertex 3129.21847331756 -1008.52098496909 6.92007768223234
      vertex 3246.71818831112 -1008.91309962132 6.92621164309152
   endloop
endfacet
facet normal -4.14164668125105e-005 0.00201239657533353 0.999997974270298
   outer loop
      vertex 3246.71818831112 -1008.91309962132 6.92621164309152
      vertex 3129.21847331756 -1008.52098496909 6.92007768223234
      vertex 3245.7171504937 -1010.1623126203 6.92871670174798
   endloop
endfacet
facet normal -4.14164668125105e-005 0.00201239657533353 0.999997974270298
   outer loop
      vertex 3245.7171504937 -1010.1623126203 6.92871670174798
      vertex 3129.21847331756 -1008.52098496909 6.92007768223234
      vertex 3245.71465899949 -1013.16230532356 6.93484162146002
   endloop
endfacet
facet normal -4.14164668125105e-005 0.00201239657533353 0.999997974270298
   outer loop
      vertex 3246.71818831112 -1008.91309962132 6.92621164309152
      vertex 3245.7171504937 -1010.1623126203 6.92871670174798
      vertex 3246.71715018853 -1010.16309658101 6.92876369297497
   endloop
endfacet
facet normal -4.14164668125105e-005 0.00201239657533353 0.999997974270298
   outer loop
      vertex 3262.52708130463 -996.675121877372 6.90315132129098
      vertex 3246.71818831112 -1008.91309962132 6.92621164309152
      vertex 3249.01818760923 -1008.91490273092 6.92631972290969
   endloop
endfacet
facet normal -4.14164668125105e-005 0.00201239657533353 0.999997974270298
   outer loop
      vertex 3262.52708130463 -996.675121877372 6.90315132129098
      vertex 3249.01818760923 -1008.91490273092 6.92631972290969
      vertex 3256.52171493728 -1004.6707927732 6.91799518749856
   endloop
endfacet
facet normal -4.14164668125105e-005 0.00201239657533353 0.999997974270298
   outer loop
      vertex 3256.52171493728 -1004.6707927732 6.91799518749856
      vertex 3249.01818760923 -1008.91490273092 6.92631972290969
      vertex 3256.5171471979 -1010.17077939583 6.92922420697244
   endloop
endfacet
facet normal -4.14164668125105e-005 0.00201239657533353 0.999997974270298
   outer loop
      vertex 3262.52708130463 -996.675121877372 6.90315132129098
      vertex 3256.52171493728 -1004.6707927732 6.91799518749856
      vertex 3262.52171310628 -1004.67549653739 6.91827713484532
   endloop
endfacet
facet normal -4.14164668125105e-005 0.00201239657533353 0.999997974270298
   outer loop
      vertex 3121.75914894335 -1021.34826265667 6.94592832797226
      vertex 3121.70929860264 -1019.56507838751 6.9422853689883
      vertex 3121.70846810458 -1020.56507595246 6.94432700889304
   endloop
endfacet
facet normal -4.14164668125105e-005 0.00201239657533353 0.999997974270298
   outer loop
      vertex 3121.70929860264 -1019.56507838751 6.9422853689883
      vertex 3121.75914894335 -1021.34826265667 6.94592832797226
      vertex 3121.71340956808 -1014.61509042714 6.93217925146514
   endloop
endfacet
facet normal -4.14164668125105e-005 0.00201239657533353 0.999997974270298
   outer loop
      vertex 3121.71340956808 -1014.61509042714 6.93217925146514
      vertex 3121.75914894335 -1021.34826265667 6.94592832797226
      vertex 3129.21340727934 -1014.62097013237 6.93253168564949
   endloop
endfacet
facet normal -4.14164668125105e-005 0.00201239657533353 0.999997974270298
   outer loop
      vertex 3129.21340727934 -1014.62097013237 6.93253168564949
      vertex 3121.75914894335 -1021.34826265667 6.94592832797226
      vertex 3121.91162506917 -1022.11812878179 6.94750707120439
   endloop
endfacet
facet normal -4.14164668125105e-005 0.00201239657533353 0.999997974270298
   outer loop
      vertex 3129.21340727934 -1014.62097013237 6.93253168564949
      vertex 3121.91162506917 -1022.11812878179 6.94750707120439
      vertex 3122.16328747186 -1022.86150119303 6.94903622481427
   endloop
endfacet
facet normal -4.14164668125105e-005 0.00201239657533353 0.999997974270298
   outer loop
      vertex 3129.21340727934 -1014.62097013237 6.93253168564949
      vertex 3122.16328747186 -1022.86150119303 6.94903622481427
      vertex 3122.50982997058 -1023.56566008799 6.95048962354193
   endloop
endfacet
facet normal -4.14164668125105e-005 0.00201239657533353 0.999997974270298
   outer loop
      vertex 3129.21340727934 -1014.62097013237 6.93253168564949
      vertex 3122.50982997058 -1023.56566008799 6.95048962354193
      vertex 3122.94532289665 -1024.2185566445 6.95184239836266
   endloop
endfacet
facet normal -4.14164668125105e-005 0.00201239657533353 0.999997974270298
   outer loop
      vertex 3129.21340727934 -1014.62097013237 6.93253168564949
      vertex 3122.94532289665 -1024.2185566445 6.95184239836266
      vertex 3123.46231455578 -1024.80901918727 6.95307140202856
   endloop
endfacet
facet normal -4.14164668125105e-005 0.00201239657533353 0.999997974270298
   outer loop
      vertex 3129.21340727934 -1014.62097013237 6.93253168564949
      vertex 3123.46231455578 -1024.80901918727 6.95307140202856
      vertex 3124.05195873352 -1025.32694434584 6.95415560511919
   endloop
endfacet
facet normal -4.14164668125105e-005 0.00201239657533353 0.999997974270298
   outer loop
      vertex 3129.21340727934 -1014.62097013237 6.93253168564949
      vertex 3124.05195873352 -1025.32694434584 6.95415560511919
      vertex 3124.70416606242 -1025.76346993275 6.95507645590364
   endloop
endfacet
facet normal -4.14164668125105e-005 0.00201239657533353 0.999997974270298
   outer loop
      vertex 3129.21340727934 -1014.62097013237 6.93253168564949
      vertex 3124.70416606242 -1025.76346993275 6.95507645590364
      vertex 3125.40777666055 -1026.11112658389 6.95581819776496
   endloop
endfacet
facet normal -4.14164668125105e-005 0.00201239657533353 0.999997974270298
   outer loop
      vertex 3129.21340727934 -1014.62097013237 6.93253168564949
      vertex 3125.40777666055 -1026.11112658389 6.95581819776496
      vertex 3126.1507510876 -1026.36396556638 6.95636813879435
   endloop
endfacet
facet normal -4.14164668125105e-005 0.00201239657533353 0.999997974270298
   outer loop
      vertex 3129.21340727934 -1014.62097013237 6.93253168564949
      vertex 3126.1507510876 -1026.36396556638 6.95636813879435
      vertex 3126.92037635105 -1026.51766056698 6.95671686897899
   endloop
endfacet
facet normal -4.14164668125105e-005 0.00201239657533353 0.999997974270298
   outer loop
      vertex 3129.21340727934 -1014.62097013237 6.93253168564949
      vertex 3126.92037635105 -1026.51766056698 6.95671686897899
      vertex 3127.67034913414 -1026.56738486635 6.95685243195985
   endloop
endfacet
facet normal -4.14164668125105e-005 0.00201239657533353 0.999997974270298
   outer loop
      vertex 3129.21340727934 -1014.62097013237 6.93253168564949
      vertex 3127.67034913414 -1026.56738486635 6.95685243195985
      vertex 3127.70348343748 -1026.56958171943 6.95685842122503
   endloop
endfacet
facet normal -4.14164668125105e-005 0.00201239657533353 0.999997974270298
   outer loop
      vertex 3129.21340727934 -1014.62097013237 6.93253168564949
      vertex 3127.70348343748 -1026.56958171943 6.95685842122503
      vertex 3262.50925563525 -1026.56958171943 6.95288007732068
   endloop
endfacet
facet normal -4.14164668125105e-005 0.00201239657533353 0.999997974270298
   outer loop
      vertex 3129.21340727934 -1014.62097013237 6.93253168564949
      vertex 3262.50925563525 -1026.56958171943 6.95288007732068
      vertex 3129.21847331756 -1008.52098496909 6.92007768223234
   endloop
endfacet
facet normal -4.14164668125105e-005 0.00201239657533353 0.999997974270298
   outer loop
      vertex 3129.21847331756 -1008.52098496909 6.92007768223234
      vertex 3262.50925563525 -1026.56958171943 6.95288007732068
      vertex 3246.71362057174 -1014.41308624396 6.93744066256901
   endloop
endfacet
facet normal -4.14164668125105e-005 0.00201239657533353 0.999997974270298
   outer loop
      vertex 3129.21847331756 -1008.52098496909 6.92007768223234
      vertex 3246.71362057174 -1014.41308624396 6.93744066256901
      vertex 3245.71465899949 -1013.16230532356 6.93484162146002
   endloop
endfacet
facet normal -4.14164668125105e-005 0.00201239657533353 0.999997974270298
   outer loop
      vertex 3246.71362057174 -1014.41308624396 6.93744066256901
      vertex 3262.50925563525 -1026.56958171943 6.95288007732068
      vertex 3249.01361986986 -1014.41488935356 6.93754874238646
   endloop
endfacet
facet normal -4.14164668125105e-005 0.00201239657533353 0.999997974270298
   outer loop
      vertex 3249.01361986986 -1014.41488935356 6.93754874238646
      vertex 3262.50925563525 -1026.56958171943 6.95288007732068
      vertex 3249.01465799244 -1013.16489239386 6.93499669250157
   endloop
endfacet
facet normal -4.14164668125105e-005 0.00201239657533353 0.999997974270298
   outer loop
      vertex 3249.01465799244 -1013.16489239386 6.93499669250157
      vertex 3262.50925563525 -1026.56958171943 6.95288007732068
      vertex 3256.50925746625 -1019.67075628948 6.9486197860667
   endloop
endfacet
facet normal -4.14164668125105e-005 0.00201239657533353 0.999997974270298
   outer loop
      vertex 3256.50925746625 -1019.67075628948 6.9486197860667
      vertex 3262.50925563525 -1026.56958171943 6.95288007732068
      vertex 3262.50884038622 -1020.17545883754 6.94992255337232
   endloop
endfacet
facet normal -4.14164668125105e-005 0.00201239657533353 0.999997974270298
   outer loop
      vertex 3262.50925563525 -1019.67546005366 6.94890173341634
      vertex 3256.50925746625 -1019.67075628948 6.9486197860667
      vertex 3262.50884038622 -1020.17545883754 6.94992255337232
   endloop
endfacet
facet normal -4.14164668125105e-005 0.00201239657533353 0.999997974270298
   outer loop
      vertex 3256.5146557037 -1013.1707720991 6.93534912668881
      vertex 3249.01465799244 -1013.16489239386 6.93499669250157
      vertex 3256.50925746625 -1019.67075628948 6.9486197860667
   endloop
endfacet
facet normal -4.14164668125105e-005 0.00201239657533353 0.999997974270298
   outer loop
      vertex 3246.71465869433 -1013.16308928426 6.93488861268484
      vertex 3245.71465899949 -1013.16230532356 6.93484162146002
      vertex 3246.71362057174 -1014.41308624396 6.93744066256901
   endloop
endfacet
facet normal 0.999999654279762 -0.000830411831972874 4.30876577047263e-005
   outer loop
      vertex 3256.52196343608 -1004.68286715265 0.91800734187677
      vertex 3256.5171471979 -1010.17077939583 6.92922420697244
      vertex 3256.5173956967 -1010.18285377529 0.929236361350647
   endloop
endfacet
facet normal 0.999999654279762 -0.000830411831972874 4.30876577047263e-005
   outer loop
      vertex 3256.5171471979 -1010.17077939583 6.92922420697244
      vertex 3256.52196343608 -1004.68286715265 0.91800734187677
      vertex 3256.52171493728 -1004.6707927732 6.91799518749856
   endloop
endfacet
facet normal -0.0661564515889477 -0.997807247364783 0.0020052479830486
   outer loop
      vertex 3127.67059763294 -1026.5794592458 0.956864586338057
      vertex 3126.92037635105 -1026.51766056698 6.95671686897899
      vertex 3126.92062484985 -1026.52973494643 0.956729023357198
   endloop
endfacet
facet normal -0.0661564515889477 -0.997807247364783 0.0020052479830486
   outer loop
      vertex 3126.92037635105 -1026.51766056698 6.95671686897899
      vertex 3127.67059763294 -1026.5794592458 0.956864586338057
      vertex 3127.67034913414 -1026.56738486635 6.95685243195985
   endloop
endfacet
facet normal 0.999999654279762 -0.000830411831342544 4.30876577034579e-005
   outer loop
      vertex 3246.71843680992 -1008.92517400077 0.926223797469734
      vertex 3246.71715018853 -1010.16309658101 6.92876369297497
      vertex 3246.71739868733 -1010.17517096046 0.92877584735318
   endloop
endfacet
facet normal 0.999999654279762 -0.000830411831342544 4.30876577034579e-005
   outer loop
      vertex 3246.71715018853 -1010.16309658101 6.92876369297497
      vertex 3246.71843680992 -1008.92517400077 0.926223797469734
      vertex 3246.71818831112 -1008.91309962132 6.92621164309152
   endloop
endfacet
facet normal -0.999999654279762 0.000830411831917823 -4.30876577046156e-005
   outer loop
      vertex 3249.01714948665 -1010.16489969061 6.92887177278881
      vertex 3249.01843610803 -1008.92697711037 0.926331877287905
      vertex 3249.01739798545 -1010.17697407006 0.928883927167018
   endloop
endfacet
facet normal -0.999999654279762 0.000830411831917823 -4.30876577046156e-005
   outer loop
      vertex 3249.01843610803 -1008.92697711037 0.926331877287905
      vertex 3249.01714948665 -1010.16489969061 6.92887177278881
      vertex 3249.01818760923 -1008.91490273092 6.92631972290969
   endloop
endfacet
facet normal -0.322163440967236 -0.946682173986999 0.00189176092559601
   outer loop
      vertex 3126.1509995864 -1026.37603994583 0.956380293172563
      vertex 3125.40777666055 -1026.11112658389 6.95581819776496
      vertex 3125.40802515936 -1026.12320096334 0.955830352143167
   endloop
endfacet
facet normal -0.322163440967236 -0.946682173986999 0.00189176092559601
   outer loop
      vertex 3125.40777666055 -1026.11112658389 6.95581819776496
      vertex 3126.1509995864 -1026.37603994583 0.956380293172563
      vertex 3126.1507510876 -1026.36396556638 6.95636813879435
   endloop
endfacet
facet normal 0.999999997037749 6.4961394223379e-005 4.12858222364768e-005
   outer loop
      vertex 3262.50908888502 -1020.18753321699 0.949934707750529
      vertex 3262.50925563525 -1026.56958171943 6.95288007732068
      vertex 3262.50950413405 -1026.58165609888 0.952892231698894
   endloop
endfacet
facet normal 0.999999997037749 6.4961394223379e-005 4.12858222364768e-005
   outer loop
      vertex 3262.50925563525 -1026.56958171943 6.95288007732068
      vertex 3262.50908888502 -1020.18753321699 0.949934707750529
      vertex 3262.50884038622 -1020.17545883754 6.94992255337232
   endloop
endfacet
facet normal 0.00078405367302734 0.9999976678238 -0.00201236348584169
   outer loop
      vertex 3245.71465899949 -1013.16230532356 6.93484162146002
      vertex 3246.71490719313 -1013.17516366372 0.934900767063053
      vertex 3245.71490749829 -1013.17437970302 0.934853775838232
   endloop
endfacet
facet normal 0.00078405367302734 0.9999976678238 -0.00201236348584169
   outer loop
      vertex 3246.71490719313 -1013.17516366372 0.934900767063053
      vertex 3245.71465899949 -1013.16230532356 6.93484162146002
      vertex 3246.71465869433 -1013.16308928426 6.93488861268484
   endloop
endfacet
facet normal 0.00078405367098691 0.999997667823801 -0.00201236348584177
   outer loop
      vertex 3246.71362057174 -1014.41308624396 6.93744066256901
      vertex 3249.01386836866 -1014.42696373301 0.937560896764668
      vertex 3246.71386907054 -1014.42516062341 0.93745281694722
   endloop
endfacet
facet normal 0.00078405367098691 0.999997667823801 -0.00201236348584177
   outer loop
      vertex 3249.01386836866 -1014.42696373301 0.937560896764668
      vertex 3246.71362057174 -1014.41308624396 6.93744066256901
      vertex 3249.01361986986 -1014.41488935356 6.93754874238646
   endloop
endfacet
facet normal -0.195834752757385 -0.980634940806897 0.00196531959420016
   outer loop
      vertex 3126.92062484985 -1026.52973494643 0.956729023357198
      vertex 3126.1507510876 -1026.36396556638 6.95636813879435
      vertex 3126.1509995864 -1026.37603994583 0.956380293172563
   endloop
endfacet
facet normal -0.195834752757385 -0.980634940806897 0.00196531959420016
   outer loop
      vertex 3126.1507510876 -1026.36396556638 6.95636813879435
      vertex 3126.92062484985 -1026.52973494643 0.956729023357198
      vertex 3126.92037635105 -1026.51766056698 6.95671686897899
   endloop
endfacet
facet normal 5.93891903493798e-008 -0.999997975127952 0.00201239657951916
   outer loop
      vertex 3262.50925563525 -1026.56958171943 6.95288007732068
      vertex 3127.70373193628 -1026.58165609888 0.956870575603236
      vertex 3262.50950413405 -1026.58165609888 0.952892231698894
   endloop
endfacet
facet normal 5.93891903493798e-008 -0.999997975127952 0.00201239657951916
   outer loop
      vertex 3127.70373193628 -1026.58165609888 0.956870575603236
      vertex 3262.50925563525 -1026.56958171943 6.95288007732068
      vertex 3127.70348343748 -1026.56958171943 6.95685842122503
   endloop
endfacet
facet normal 0.999999654279761 -0.000830411832494737 4.30876577057765e-005
   outer loop
      vertex 3262.50950413405 -1019.68753443311 0.948913887794552
      vertex 3262.50884038622 -1020.17545883754 6.94992255337232
      vertex 3262.50908888502 -1020.18753321699 0.949934707750529
   endloop
endfacet
facet normal 0.999999654279761 -0.000830411832494737 4.30876577057765e-005
   outer loop
      vertex 3262.50884038622 -1020.17545883754 6.94992255337232
      vertex 3262.50950413405 -1019.68753443311 0.948913887794552
      vertex 3262.50925563525 -1019.67546005366 6.94890173341634
   endloop
endfacet
facet normal 0.999999654279762 -0.000830411831831502 4.30876577044418e-005
   outer loop
      vertex 3256.5149042025 -1013.18284647855 0.935361281067017
      vertex 3256.50925746625 -1019.67075628948 6.9486197860667
      vertex 3256.50950596505 -1019.68283066893 0.948631940444906
   endloop
endfacet
facet normal 0.999999654279762 -0.000830411831831502 4.30876577044418e-005
   outer loop
      vertex 3256.50925746625 -1019.67075628948 6.9486197860667
      vertex 3256.5149042025 -1013.18284647855 0.935361281067017
      vertex 3256.5146557037 -1013.1707720991 6.93534912668881
   endloop
endfacet
facet normal 0.000784053672112306 0.9999976678238 -0.00201236348584172
   outer loop
      vertex 3249.01465799244 -1013.16489239386 6.93499669250157
      vertex 3256.5149042025 -1013.18284647855 0.935361281067017
      vertex 3249.01490649124 -1013.17696677331 0.935008846879779
   endloop
endfacet
facet normal 0.000784053672112306 0.9999976678238 -0.00201236348584172
   outer loop
      vertex 3256.5149042025 -1013.18284647855 0.935361281067017
      vertex 3249.01465799244 -1013.16489239386 6.93499669250157
      vertex 3256.5146557037 -1013.1707720991 6.93534912668881
   endloop
endfacet
facet normal 0.999999654279762 -0.00083041183191621 4.30876577046123e-005
   outer loop
      vertex 3246.71490719313 -1013.17516366372 0.934900767063053
      vertex 3246.71362057174 -1014.41308624396 6.93744066256901
      vertex 3246.71386907054 -1014.42516062341 0.93745281694722
   endloop
endfacet
facet normal 0.999999654279762 -0.00083041183191621 4.30876577046123e-005
   outer loop
      vertex 3246.71362057174 -1014.41308624396 6.93744066256901
      vertex 3246.71490719313 -1013.17516366372 0.934900767063053
      vertex 3246.71465869433 -1013.16308928426 6.93488861268484
   endloop
endfacet
facet normal 0.999999654279763 -0.00083041183105221 4.30876577028736e-005
   outer loop
      vertex 3245.7173989925 -1010.17438699976 0.928728856126193
      vertex 3245.71465899949 -1013.16230532356 6.93484162146002
      vertex 3245.71490749829 -1013.17437970302 0.934853775838232
   endloop
endfacet
facet normal 0.999999654279763 -0.00083041183105221 4.30876577028736e-005
   outer loop
      vertex 3245.71465899949 -1013.16230532356 6.93484162146002
      vertex 3245.7173989925 -1010.17438699976 0.928728856126193
      vertex 3245.7171504937 -1010.1623126203 6.92871670174798
   endloop
endfacet
facet normal -0.442980480162564 -0.896529478046836 0.0017858297825602
   outer loop
      vertex 3125.40802515936 -1026.12320096334 0.955830352143167
      vertex 3124.70416606242 -1025.76346993275 6.95507645590364
      vertex 3124.70441456123 -1025.7755443122 0.955088610281851
   endloop
endfacet
facet normal -0.442980480162564 -0.896529478046836 0.0017858297825602
   outer loop
      vertex 3124.70416606242 -1025.76346993275 6.95507645590364
      vertex 3125.40802515936 -1026.12320096334 0.955830352143167
      vertex 3125.40777666055 -1026.11112658389 6.95581819776496
   endloop
endfacet
facet normal -0.000784053670763547 -0.999997667823802 0.00201236348584178
   outer loop
      vertex 3256.5173956967 -1010.18285377529 0.929236361350647
      vertex 3249.01714948665 -1010.16489969061 6.92887177278881
      vertex 3249.01739798545 -1010.17697407006 0.928883927167018
   endloop
endfacet
facet normal -0.000784053670763547 -0.999997667823802 0.00201236348584178
   outer loop
      vertex 3249.01714948665 -1010.16489969061 6.92887177278881
      vertex 3256.5173956967 -1010.18285377529 0.929236361350647
      vertex 3256.5171471979 -1010.17077939583 6.92922420697244
   endloop
endfacet
facet normal -0.000784053675918204 -0.999997667823798 0.00201236348584156
   outer loop
      vertex 3246.71739868733 -1010.17517096046 0.92877584735318
      vertex 3245.7171504937 -1010.1623126203 6.92871670174798
      vertex 3245.7173989925 -1010.17438699976 0.928728856126193
   endloop
endfacet
facet normal -0.000784053675918204 -0.999997667823798 0.00201236348584156
   outer loop
      vertex 3245.7171504937 -1010.1623126203 6.92871670174798
      vertex 3246.71739868733 -1010.17517096046 0.92877584735318
      vertex 3246.71715018853 -1010.16309658101 6.92876369297497
   endloop
endfacet
facet normal -0.000784053670673422 -0.999997667823802 0.00201236348584179
   outer loop
      vertex 3249.01843610803 -1008.92697711037 0.926331877287905
      vertex 3246.71818831112 -1008.91309962132 6.92621164309152
      vertex 3246.71843680992 -1008.92517400077 0.926223797469734
   endloop
endfacet
facet normal -0.000784053670673422 -0.999997667823802 0.00201236348584179
   outer loop
      vertex 3246.71818831112 -1008.91309962132 6.92621164309152
      vertex 3249.01843610803 -1008.92697711037 0.926331877287905
      vertex 3249.01818760923 -1008.91490273092 6.92631972290969
   endloop
endfacet
facet normal -0.0661564517275686 -0.997807247355592 0.00200524798302436
   outer loop
      vertex 3127.70373193628 -1026.58165609888 0.956870575603236
      vertex 3127.67034913414 -1026.56738486635 6.95685243195985
      vertex 3127.67059763294 -1026.5794592458 0.956864586338057
   endloop
endfacet
facet normal -0.0661564517275686 -0.997807247355592 0.00200524798302436
   outer loop
      vertex 3127.67034913414 -1026.56738486635 6.95685243195985
      vertex 3127.70373193628 -1026.58165609888 0.956870575603236
      vertex 3127.70348343748 -1026.56958171943 6.95685842122503
   endloop
endfacet
facet normal 0.00078405367134256 0.999997667823801 -0.00201236348584176
   outer loop
      vertex 3256.50925746625 -1019.67075628948 6.9486197860667
      vertex 3262.50950413405 -1019.68753443311 0.948913887794552
      vertex 3256.50950596505 -1019.68283066893 0.948631940444906
   endloop
endfacet
facet normal 0.00078405367134256 0.999997667823801 -0.00201236348584176
   outer loop
      vertex 3262.50950413405 -1019.68753443311 0.948913887794552
      vertex 3256.50925746625 -1019.67075628948 6.9486197860667
      vertex 3262.50925563525 -1019.67546005366 6.94890173341634
   endloop
endfacet
facet normal -0.999999654279761 0.000830411832491794 -4.30876577057706e-005
   outer loop
      vertex 3249.01361986986 -1014.41488935356 6.93754874238646
      vertex 3249.01490649124 -1013.17696677331 0.935008846879779
      vertex 3249.01386836866 -1014.42696373301 0.937560896764668
   endloop
endfacet
facet normal -0.999999654279761 0.000830411832491794 -4.30876577057706e-005
   outer loop
      vertex 3249.01490649124 -1013.17696677331 0.935008846879779
      vertex 3249.01361986986 -1014.41488935356 6.93754874238646
      vertex 3249.01465799244 -1013.16489239386 6.93499669250157
   endloop
endfacet
endsolid pegasys2
