solid pegasys2
facet normal 0.0020361419627809 5.45035761239027e-005 -0.999997925575482
   outer loop
      vertex 3000.22299674081 -1131.23246410681 0.699261815050007
      vertex 3000.1716660184 -1134.4156188784 0.69900743552882
      vertex 3000.17166601673 -1132.01561887328 0.699120214467668
   endloop
endfacet
facet normal 0.0020361419627809 5.45035761239027e-005 -0.999997925575482
   outer loop
      vertex 3000.1716660184 -1134.4156188784 0.69900743552882
      vertex 3000.22299674081 -1131.23246410681 0.699261815050007
      vertex 3000.17166601882 -1135.01561887968 0.698979240793206
   endloop
endfacet
facet normal 0.0020361419627809 5.45035761239027e-005 -0.999997925575482
   outer loop
      vertex 3030.17160335886 -1126.01701502946 0.760651358944922
      vertex 3022.67161902272 -1132.01666600001 0.745057112314096
      vertex 3017.69007771387 -1126.01643415122 0.735168524895967
   endloop
endfacet
facet normal 0.0020361419627809 5.45035761239027e-005 -0.999997925575482
   outer loop
      vertex 3022.67161902272 -1132.01666600001 0.745057112314096
      vertex 3030.17160335886 -1126.01701502946 0.760651358944922
      vertex 3030.17160335921 -1132.01701504225 0.760369411601052
   endloop
endfacet
facet normal 0.0020361419627809 5.45035761239027e-005 -0.999997925575482
   outer loop
      vertex 3030.17160335957 -1138.01701505503 0.76008746425285
      vertex 3022.67161902752 -1213.01666617262 0.741250823133943
      vertex 3022.67161902307 -1138.01666601279 0.744775164967338
   endloop
endfacet
facet normal 0.0020361419627809 5.45035761239027e-005 -0.999997925575482
   outer loop
      vertex 3022.67161902752 -1213.01666617262 0.741250823133943
      vertex 3030.17160335957 -1138.01701505503 0.76008746425285
      vertex 3030.17160336403 -1213.01701521487 0.756563122418733
   endloop
endfacet
facet normal 0.0020361419627809 5.45035761239027e-005 -0.999997925575482
   outer loop
      vertex 3000.17166601876 -1215.01561905016 0.695219942827767
      vertex 3000.2229967433 -1219.79877860256 0.695099975491333
      vertex 3000.17166601875 -1219.01561905869 0.695031977927762
   endloop
endfacet
facet normal 0.0020361419627809 5.45035761239027e-005 -0.999997925575482
   outer loop
      vertex 3000.2229967433 -1219.79877860256 0.695099975491333
      vertex 3000.17166601876 -1215.01561905016 0.695219942827767
      vertex 3000.17166601882 -1135.01561887968 0.698979240793206
   endloop
endfacet
facet normal 0.0020361419627809 5.45035761239027e-005 -0.999997925575482
   outer loop
      vertex 3000.2229967433 -1219.79877860256 0.695099975491333
      vertex 3000.17166601882 -1135.01561887968 0.698979240793206
      vertex 3000.22299674081 -1131.23246410681 0.699261815050007
   endloop
endfacet
facet normal 0.0020361419627809 5.45035761239027e-005 -0.999997925575482
   outer loop
      vertex 3000.2229967433 -1219.79877860256 0.695099975491333
      vertex 3000.22299674081 -1131.23246410681 0.699261815050007
      vertex 3000.37611063124 -1130.46271411325 0.69961059096412
   endloop
endfacet
facet normal 0.0020361419627809 5.45035761239027e-005 -0.999997925575482
   outer loop
      vertex 3000.2229967433 -1219.79877860256 0.695099975491333
      vertex 3000.37611063124 -1130.46271411325 0.69961059096412
      vertex 3000.37611063404 -1220.56854284728 0.695376407739493
   endloop
endfacet
facet normal 0.0020361419627809 5.45035761239027e-005 -0.999997925575482
   outer loop
      vertex 3000.37611063404 -1220.56854284728 0.695376407739493
      vertex 3000.37611063124 -1130.46271411325 0.69961059096412
      vertex 3000.62838786688 -1129.71953952844 0.700160574546586
   endloop
endfacet
facet normal 0.0020361419627809 5.45035761239027e-005 -0.999997925575482
   outer loop
      vertex 3000.37611063404 -1220.56854284728 0.695376407739493
      vertex 3000.62838786688 -1129.71953952844 0.700160574546586
      vertex 3000.62838786984 -1221.3117409132 0.695856544854446
   endloop
endfacet
facet normal 0.0020361419627809 5.45035761239027e-005 -0.999997925575482
   outer loop
      vertex 3000.62838786984 -1221.3117409132 0.695856544854446
      vertex 3000.62838786688 -1129.71953952844 0.700160574546586
      vertex 3000.97551191428 -1129.01565627561 0.700902355427936
   endloop
endfacet
facet normal 0.0020361419627809 5.45035761239027e-005 -0.999997925575482
   outer loop
      vertex 3000.62838786984 -1221.3117409132 0.695856544854446
      vertex 3000.97551191428 -1129.01565627561 0.700902355427936
      vertex 3000.97551191724 -1222.01565647536 0.696532171541994
   endloop
endfacet
facet normal 0.0020361419627809 5.45035761239027e-005 -0.999997925575482
   outer loop
      vertex 3000.97551191724 -1222.01565647536 0.696532171541994
      vertex 3000.97551191428 -1129.01565627561 0.700902355427936
      vertex 3001.41154338476 -1128.36310799238 0.701823241530458
   endloop
endfacet
facet normal 0.0020361419627809 5.45035761239027e-005 -0.999997925575482
   outer loop
      vertex 3000.97551191724 -1222.01565647536 0.696532171541994
      vertex 3001.41154338476 -1128.36310799238 0.701823241530458
      vertex 3001.41154338756 -1222.66824534333 0.697391727658426
   endloop
endfacet
facet normal 0.0020361419627809 5.45035761239027e-005 -0.999997925575482
   outer loop
      vertex 3001.41154338756 -1222.66824534333 0.697391727658426
      vertex 3001.41154338476 -1128.36310799238 0.701823241530458
      vertex 3001.92902165891 -1127.77305996081 0.702907476243697
   endloop
endfacet
facet normal 0.0020361419627809 5.45035761239027e-005 -0.999997925575482
   outer loop
      vertex 3001.41154338756 -1222.66824534333 0.697391727658426
      vertex 3001.92902165891 -1127.77305996081 0.702907476243697
      vertex 3001.92902166144 -1223.25834154064 0.698420505945679
   endloop
endfacet
facet normal 0.0020361419627809 5.45035761239027e-005 -0.999997925575482
   outer loop
      vertex 3001.92902166144 -1223.25834154064 0.698420505945679
      vertex 3001.92902165891 -1127.77305996081 0.702907476243697
      vertex 3002.51909254 -1127.25560806637 0.704136508007828
   endloop
endfacet
facet normal 0.0020361419627809 5.45035761239027e-005 -0.999997925575482
   outer loop
      vertex 3001.92902166144 -1223.25834154064 0.698420505945679
      vertex 3002.51909254 -1127.25560806637 0.704136508007828
      vertex 3002.51909254216 -1223.77584835775 0.699600903731518
   endloop
endfacet
facet normal 0.0020361419627809 5.45035761239027e-005 -0.999997925575482
   outer loop
      vertex 3002.51909254216 -1223.77584835775 0.699600903731518
      vertex 3002.51909254 -1127.25560806637 0.704136508007828
      vertex 3003.17165975163 -1126.81960605443 0.705489307743172
   endloop
endfacet
facet normal 0.0020361419627809 5.45035761239027e-005 -0.999997925575482
   outer loop
      vertex 3002.51909254216 -1223.77584835775 0.699600903731518
      vertex 3003.17165975163 -1126.81960605443 0.705489307743172
      vertex 3003.17165975335 -1224.21191110955 0.700912724076337
   endloop
endfacet
facet normal 0.0020361419627809 5.45035761239027e-005 -0.999997925575482
   outer loop
      vertex 3003.17165975335 -1224.21191110955 0.700912724076337
      vertex 3003.17165975163 -1126.81960605443 0.705489307743172
      vertex 3003.87555768784 -1126.47251404032 0.706942728680436
   endloop
endfacet
facet normal 0.0020361419627809 5.45035761239027e-005 -0.999997925575482
   outer loop
      vertex 3003.17165975335 -1224.21191110955 0.700912724076337
      vertex 3003.87555768784 -1126.47251404032 0.706942728680436
      vertex 3003.87555768908 -1224.55906864143 0.702333521375972
   endloop
endfacet
facet normal 0.0020361419627809 5.45035761239027e-005 -0.999997925575482
   outer loop
      vertex 3003.87555768908 -1224.55906864143 0.702333521375972
      vertex 3003.87555768784 -1126.47251404032 0.706942728680436
      vertex 3004.61874245978 -1126.22027086465 0.708471902376057
   endloop
endfacet
facet normal 0.0020361419627809 5.45035761239027e-005 -0.999997925575482
   outer loop
      vertex 3003.87555768908 -1224.55906864143 0.702333521375972
      vertex 3004.61874245978 -1126.22027086465 0.708471902376057
      vertex 3004.61874246054 -1224.81138099181 0.703838985390429
   endloop
endfacet
facet normal 0.0020361419627809 5.45035761239027e-005 -0.999997925575482
   outer loop
      vertex 3004.61874246054 -1224.81138099181 0.703838985390429
      vertex 3004.61874245978 -1126.22027086465 0.708471902376057
      vertex 3005.38849796992 -1126.06719247809 0.710050664245053
   endloop
endfacet
facet normal 0.0020361419627809 5.45035761239027e-005 -0.999997925575482
   outer loop
      vertex 3004.61874246054 -1224.81138099181 0.703838985390429
      vertex 3005.38849796992 -1126.06719247809 0.710050664245053
      vertex 3005.38849797023 -1224.96453102639 0.705403357212124
   endloop
endfacet
facet normal 0.0020361419627809 5.45035761239027e-005 -0.999997925575482
   outer loop
      vertex 3005.38849797023 -1224.96453102639 0.705403357212124
      vertex 3005.38849796992 -1126.06719247809 0.710050664245053
      vertex 3006.17165348803 -1126.01589809429 0.711652001244279
   endloop
endfacet
facet normal 0.0020361419627809 5.45035761239027e-005 -0.999997925575482
   outer loop
      vertex 3005.38849797023 -1224.96453102639 0.705403357212124
      vertex 3006.17165348803 -1126.01589809429 0.711652001244279
      vertex 3005.67165453289 -1224.98310330468 0.70598059004354
   endloop
endfacet
facet normal 0.0020361419627809 5.45035761239027e-005 -0.999997925575482
   outer loop
      vertex 3005.67165453289 -1224.98310330468 0.70598059004354
      vertex 3006.17165348803 -1126.01589809429 0.711652001244279
      vertex 3022.67161902789 -1219.01666618541 0.740968875785019
   endloop
endfacet
facet normal 0.0020361419627809 5.45035761239027e-005 -0.999997925575482
   outer loop
      vertex 3005.67165453289 -1224.98310330468 0.70598059004354
      vertex 3022.67161902789 -1219.01666618541 0.740968875785019
      vertex 3030.1716032845 -1225.0166000128 0.755508309669091
   endloop
endfacet
facet normal 0.0020361419627809 5.45035761239027e-005 -0.999997925575482
   outer loop
      vertex 3022.67161902789 -1219.01666618541 0.740968875785019
      vertex 3006.17165348803 -1126.01589809429 0.711652001244279
      vertex 3006.67165244379 -1126.01592136378 0.712672821194481
   endloop
endfacet
facet normal 0.0020361419627809 5.45035761239027e-005 -0.999997925575482
   outer loop
      vertex 3022.67161902789 -1219.01666618541 0.740968875785019
      vertex 3006.67165244379 -1126.01592136378 0.712672821194481
      vertex 3007.67206840905 -1126.01632709492 0.722382232764317
   endloop
endfacet
facet normal 0.0020361419627809 5.45035761239027e-005 -0.999997925575482
   outer loop
      vertex 3022.67161902789 -1219.01666618541 0.740968875785019
      vertex 3007.67206840905 -1126.01632709492 0.722382232764317
      vertex 3008.1720673632 -1126.01635036443 0.72340305271524
   endloop
endfacet
facet normal 0.0020361419627809 5.45035761239027e-005 -0.999997925575482
   outer loop
      vertex 3022.67161902789 -1219.01666618541 0.740968875785019
      vertex 3008.1720673632 -1126.01635036443 0.72340305271524
      vertex 3017.1900787581 -1126.01641088172 0.734147704941434
   endloop
endfacet
facet normal 0.0020361419627809 5.45035761239027e-005 -0.999997925575482
   outer loop
      vertex 3022.67161902789 -1219.01666618541 0.740968875785019
      vertex 3017.1900787581 -1126.01641088172 0.734147704941434
      vertex 3017.69007771387 -1126.01643415122 0.735168524895967
   endloop
endfacet
facet normal 0.0020361419627809 5.45035761239027e-005 -0.999997925575482
   outer loop
      vertex 3022.67161902789 -1219.01666618541 0.740968875785019
      vertex 3017.69007771387 -1126.01643415122 0.735168524895967
      vertex 3022.67161902752 -1213.01666617262 0.741250823133943
   endloop
endfacet
facet normal 0.0020361419627809 5.45035761239027e-005 -0.999997925575482
   outer loop
      vertex 3022.67161902752 -1213.01666617262 0.741250823133943
      vertex 3017.69007771387 -1126.01643415122 0.735168524895967
      vertex 3022.67161902307 -1138.01666601279 0.744775164967338
   endloop
endfacet
facet normal 0.0020361419627809 5.45035761239027e-005 -0.999997925575482
   outer loop
      vertex 3022.67161902307 -1138.01666601279 0.744775164967338
      vertex 3017.69007771387 -1126.01643415122 0.735168524895967
      vertex 3022.67161902272 -1132.01666600001 0.745057112314096
   endloop
endfacet
facet normal 0.0020361419627809 5.45035761239027e-005 -0.999997925575482
   outer loop
      vertex 3030.1716032845 -1225.0166000128 0.755508309669091
      vertex 3022.67161902789 -1219.01666618541 0.740968875785019
      vertex 3030.17160336439 -1219.01701522765 0.756281175065478
   endloop
endfacet
facet normal -0.555542399031697 0.831487500697214 -0.00108584640098848
   outer loop
      vertex 3002.50687568823 -1127.25593508783 6.70412406146072
      vertex 3003.17165975163 -1126.81960605443 0.705489307743172
      vertex 3002.51909254 -1127.25560806637 0.704136508007828
   endloop
endfacet
facet normal -0.555542399031697 0.831487500697214 -0.00108584640098848
   outer loop
      vertex 3003.17165975163 -1126.81960605443 0.705489307743172
      vertex 3002.50687568823 -1127.25593508783 6.70412406146072
      vertex 3003.15944289985 -1126.81993307589 6.70547686119607
   endloop
endfacet
facet normal -0.442254283208032 0.896889304063518 -0.000851610596402622
   outer loop
      vertex 3003.15944289985 -1126.81993307589 6.70547686119607
      vertex 3003.87555768784 -1126.47251404032 0.706942728680436
      vertex 3003.17165975163 -1126.81960605443 0.705489307743172
   endloop
endfacet
facet normal -0.442254283208032 0.896889304063518 -0.000851610596402622
   outer loop
      vertex 3003.87555768784 -1126.47251404032 0.706942728680436
      vertex 3003.15944289985 -1126.81993307589 6.70547686119607
      vertex 3003.86334083606 -1126.47284106178 6.70693028213333
   endloop
endfacet
facet normal -0.0020361419627809 -5.45035761239027e-005 0.999997925575482
   outer loop
      vertex 3000.15944916662 -1134.41594589986 6.69899498898171
      vertex 3000.21077988904 -1131.23279112826 6.6992493685029
      vertex 3000.15944916495 -1132.01594589474 6.69910776792056
   endloop
endfacet
facet normal -0.0020361419627809 -5.45035761239027e-005 0.999997925575482
   outer loop
      vertex 3000.21077988904 -1131.23279112826 6.6992493685029
      vertex 3000.15944916662 -1134.41594589986 6.69899498898171
      vertex 3000.15944916704 -1135.01594590113 6.6989667942461
   endloop
endfacet
facet normal -0.0020361419627809 -5.45035761239027e-005 0.999997925575482
   outer loop
      vertex 3000.21077989153 -1219.79910562402 6.69508752894423
      vertex 3000.15944916698 -1215.01594607162 6.69520749628066
      vertex 3000.15944916697 -1219.01594608014 6.69501953138066
   endloop
endfacet
facet normal -0.0020361419627809 -5.45035761239027e-005 0.999997925575482
   outer loop
      vertex 3000.15944916698 -1215.01594607162 6.69520749628066
      vertex 3000.21077989153 -1219.79910562402 6.69508752894423
      vertex 3000.15944916704 -1135.01594590113 6.6989667942461
   endloop
endfacet
facet normal -0.0020361419627809 -5.45035761239027e-005 0.999997925575482
   outer loop
      vertex 3000.15944916704 -1135.01594590113 6.6989667942461
      vertex 3000.21077989153 -1219.79910562402 6.69508752894423
      vertex 3000.21077988904 -1131.23279112826 6.6992493685029
   endloop
endfacet
facet normal -0.0020361419627809 -5.45035761239027e-005 0.999997925575482
   outer loop
      vertex 3000.21077988904 -1131.23279112826 6.6992493685029
      vertex 3000.21077989153 -1219.79910562402 6.69508752894423
      vertex 3000.36389377946 -1130.46304113471 6.69959814441701
   endloop
endfacet
facet normal -0.0020361419627809 -5.45035761239027e-005 0.999997925575482
   outer loop
      vertex 3000.36389377946 -1130.46304113471 6.69959814441701
      vertex 3000.21077989153 -1219.79910562402 6.69508752894423
      vertex 3000.36389378226 -1220.56886986874 6.69536396119239
   endloop
endfacet
facet normal -0.0020361419627809 -5.45035761239027e-005 0.999997925575482
   outer loop
      vertex 3000.36389377946 -1130.46304113471 6.69959814441701
      vertex 3000.36389378226 -1220.56886986874 6.69536396119239
      vertex 3000.61617101511 -1129.7198665499 6.70014812799948
   endloop
endfacet
facet normal -0.0020361419627809 -5.45035761239027e-005 0.999997925575482
   outer loop
      vertex 3000.61617101511 -1129.7198665499 6.70014812799948
      vertex 3000.36389378226 -1220.56886986874 6.69536396119239
      vertex 3000.61617101806 -1221.31206793466 6.69584409830734
   endloop
endfacet
facet normal -0.0020361419627809 -5.45035761239027e-005 0.999997925575482
   outer loop
      vertex 3000.61617101511 -1129.7198665499 6.70014812799948
      vertex 3000.61617101806 -1221.31206793466 6.69584409830734
      vertex 3000.96329506251 -1129.01598329706 6.70088990888083
   endloop
endfacet
facet normal -0.0020361419627809 -5.45035761239027e-005 0.999997925575482
   outer loop
      vertex 3000.96329506251 -1129.01598329706 6.70088990888083
      vertex 3000.61617101806 -1221.31206793466 6.69584409830734
      vertex 3000.96329506546 -1222.01598349682 6.69651972499489
   endloop
endfacet
facet normal -0.0020361419627809 -5.45035761239027e-005 0.999997925575482
   outer loop
      vertex 3000.96329506251 -1129.01598329706 6.70088990888083
      vertex 3000.96329506546 -1222.01598349682 6.69651972499489
      vertex 3001.39932653298 -1128.36343501383 6.70181079498335
   endloop
endfacet
facet normal -0.0020361419627809 -5.45035761239027e-005 0.999997925575482
   outer loop
      vertex 3001.39932653298 -1128.36343501383 6.70181079498335
      vertex 3000.96329506546 -1222.01598349682 6.69651972499489
      vertex 3001.39932653578 -1222.66857236478 6.69737928111132
   endloop
endfacet
facet normal -0.0020361419627809 -5.45035761239027e-005 0.999997925575482
   outer loop
      vertex 3001.39932653298 -1128.36343501383 6.70181079498335
      vertex 3001.39932653578 -1222.66857236478 6.69737928111132
      vertex 3001.91680480714 -1127.77338698227 6.70289502969659
   endloop
endfacet
facet normal -0.0020361419627809 -5.45035761239027e-005 0.999997925575482
   outer loop
      vertex 3001.91680480714 -1127.77338698227 6.70289502969659
      vertex 3001.39932653578 -1222.66857236478 6.69737928111132
      vertex 3001.91680480966 -1223.25866856209 6.69840805939857
   endloop
endfacet
facet normal -0.0020361419627809 -5.45035761239027e-005 0.999997925575482
   outer loop
      vertex 3001.91680480714 -1127.77338698227 6.70289502969659
      vertex 3001.91680480966 -1223.25866856209 6.69840805939857
      vertex 3002.50687568823 -1127.25593508783 6.70412406146072
   endloop
endfacet
facet normal -0.0020361419627809 -5.45035761239027e-005 0.999997925575482
   outer loop
      vertex 3002.50687568823 -1127.25593508783 6.70412406146072
      vertex 3001.91680480966 -1223.25866856209 6.69840805939857
      vertex 3002.50687569039 -1223.77617537921 6.69958845718441
   endloop
endfacet
facet normal -0.0020361419627809 -5.45035761239027e-005 0.999997925575482
   outer loop
      vertex 3002.50687568823 -1127.25593508783 6.70412406146072
      vertex 3002.50687569039 -1223.77617537921 6.69958845718441
      vertex 3003.15944289985 -1126.81993307589 6.70547686119607
   endloop
endfacet
facet normal -0.0020361419627809 -5.45035761239027e-005 0.999997925575482
   outer loop
      vertex 3003.15944289985 -1126.81993307589 6.70547686119607
      vertex 3002.50687569039 -1223.77617537921 6.69958845718441
      vertex 3003.15944290157 -1224.212238131 6.70090027752923
   endloop
endfacet
facet normal -0.0020361419627809 -5.45035761239027e-005 0.999997925575482
   outer loop
      vertex 3003.15944289985 -1126.81993307589 6.70547686119607
      vertex 3003.15944290157 -1224.212238131 6.70090027752923
      vertex 3003.86334083606 -1126.47284106178 6.70693028213333
   endloop
endfacet
facet normal -0.0020361419627809 -5.45035761239027e-005 0.999997925575482
   outer loop
      vertex 3003.86334083606 -1126.47284106178 6.70693028213333
      vertex 3003.15944290157 -1224.212238131 6.70090027752923
      vertex 3003.86334083731 -1224.55939566289 6.70232107482887
   endloop
endfacet
facet normal -0.0020361419627809 -5.45035761239027e-005 0.999997925575482
   outer loop
      vertex 3003.86334083606 -1126.47284106178 6.70693028213333
      vertex 3003.86334083731 -1224.55939566289 6.70232107482887
      vertex 3004.606525608 -1126.2205978861 6.70845945582895
   endloop
endfacet
facet normal -0.0020361419627809 -5.45035761239027e-005 0.999997925575482
   outer loop
      vertex 3004.606525608 -1126.2205978861 6.70845945582895
      vertex 3003.86334083731 -1224.55939566289 6.70232107482887
      vertex 3004.60652560876 -1224.81170801327 6.70382653884332
   endloop
endfacet
facet normal -0.0020361419627809 -5.45035761239027e-005 0.999997925575482
   outer loop
      vertex 3004.606525608 -1126.2205978861 6.70845945582895
      vertex 3004.60652560876 -1224.81170801327 6.70382653884332
      vertex 3005.37628111814 -1126.06751949954 6.71003821769795
   endloop
endfacet
facet normal -0.0020361419627809 -5.45035761239027e-005 0.999997925575482
   outer loop
      vertex 3005.37628111814 -1126.06751949954 6.71003821769795
      vertex 3004.60652560876 -1224.81170801327 6.70382653884332
      vertex 3005.37628111845 -1224.96485804785 6.70539091066502
   endloop
endfacet
facet normal -0.0020361419627809 -5.45035761239027e-005 0.999997925575482
   outer loop
      vertex 3005.37628111814 -1126.06751949954 6.71003821769795
      vertex 3005.37628111845 -1224.96485804785 6.70539091066502
      vertex 3006.15943663625 -1126.01622511574 6.71163955469717
   endloop
endfacet
facet normal -0.0020361419627809 -5.45035761239027e-005 0.999997925575482
   outer loop
      vertex 3006.15943663625 -1126.01622511574 6.71163955469717
      vertex 3005.37628111845 -1224.96485804785 6.70539091066502
      vertex 3005.65943768111 -1224.98343032614 6.70596814349643
   endloop
endfacet
facet normal -0.0020361419627809 -5.45035761239027e-005 0.999997925575482
   outer loop
      vertex 3006.15943663625 -1126.01622511574 6.71163955469717
      vertex 3005.65943768111 -1224.98343032614 6.70596814349643
      vertex 3022.65940217611 -1219.01699320687 6.74095642923791
   endloop
endfacet
facet normal -0.0020361419627809 -5.45035761239027e-005 0.999997925575482
   outer loop
      vertex 3022.65940217611 -1219.01699320687 6.74095642923791
      vertex 3005.65943768111 -1224.98343032614 6.70596814349643
      vertex 3030.15938643272 -1225.01692703425 6.75549586312198
   endloop
endfacet
facet normal -0.0020361419627809 -5.45035761239027e-005 0.999997925575482
   outer loop
      vertex 3006.15943663625 -1126.01622511574 6.71163955469717
      vertex 3022.65940217611 -1219.01699320687 6.74095642923791
      vertex 3006.65943559202 -1126.01624838524 6.71266037464738
   endloop
endfacet
facet normal -0.0020361419627809 -5.45035761239027e-005 0.999997925575482
   outer loop
      vertex 3006.65943559202 -1126.01624838524 6.71266037464738
      vertex 3022.65940217611 -1219.01699320687 6.74095642923791
      vertex 3007.65985155727 -1126.01665411637 6.72236978621721
   endloop
endfacet
facet normal -0.0020361419627809 -5.45035761239027e-005 0.999997925575482
   outer loop
      vertex 3007.65985155727 -1126.01665411637 6.72236978621721
      vertex 3022.65940217611 -1219.01699320687 6.74095642923791
      vertex 3008.15985051142 -1126.01667738589 6.72339060616813
   endloop
endfacet
facet normal -0.0020361419627809 -5.45035761239027e-005 0.999997925575482
   outer loop
      vertex 3008.15985051142 -1126.01667738589 6.72339060616813
      vertex 3022.65940217611 -1219.01699320687 6.74095642923791
      vertex 3017.17786190633 -1126.01673790318 6.73413525839433
   endloop
endfacet
facet normal -0.0020361419627809 -5.45035761239027e-005 0.999997925575482
   outer loop
      vertex 3017.17786190633 -1126.01673790318 6.73413525839433
      vertex 3022.65940217611 -1219.01699320687 6.74095642923791
      vertex 3017.67786086209 -1126.01676117267 6.73515607834886
   endloop
endfacet
facet normal -0.0020361419627809 -5.45035761239027e-005 0.999997925575482
   outer loop
      vertex 3017.67786086209 -1126.01676117267 6.73515607834886
      vertex 3022.65940217611 -1219.01699320687 6.74095642923791
      vertex 3022.65940217575 -1213.01699319408 6.74123837658684
   endloop
endfacet
facet normal -0.0020361419627809 -5.45035761239027e-005 0.999997925575482
   outer loop
      vertex 3017.67786086209 -1126.01676117267 6.73515607834886
      vertex 3022.65940217575 -1213.01699319408 6.74123837658684
      vertex 3022.65940217129 -1138.01699303425 6.74476271842023
   endloop
endfacet
facet normal -0.0020361419627809 -5.45035761239027e-005 0.999997925575482
   outer loop
      vertex 3017.67786086209 -1126.01676117267 6.73515607834886
      vertex 3022.65940217129 -1138.01699303425 6.74476271842023
      vertex 3022.65940217094 -1132.01699302146 6.74504466576699
   endloop
endfacet
facet normal -0.0020361419627809 -5.45035761239027e-005 0.999997925575482
   outer loop
      vertex 3022.65940217611 -1219.01699320687 6.74095642923791
      vertex 3030.15938643272 -1225.01692703425 6.75549586312198
      vertex 3030.15938651261 -1219.01734224911 6.75626872851837
   endloop
endfacet
facet normal -0.0020361419627809 -5.45035761239027e-005 0.999997925575482
   outer loop
      vertex 3022.65940217575 -1213.01699319408 6.74123837658684
      vertex 3030.1593865078 -1138.01734207649 6.76007501770574
      vertex 3022.65940217129 -1138.01699303425 6.74476271842023
   endloop
endfacet
facet normal -0.0020361419627809 -5.45035761239027e-005 0.999997925575482
   outer loop
      vertex 3030.1593865078 -1138.01734207649 6.76007501770574
      vertex 3022.65940217575 -1213.01699319408 6.74123837658684
      vertex 3030.15938651225 -1213.01734223632 6.75655067587163
   endloop
endfacet
facet normal -0.0020361419627809 -5.45035761239027e-005 0.999997925575482
   outer loop
      vertex 3022.65940217094 -1132.01699302146 6.74504466576699
      vertex 3030.15938650708 -1126.01734205091 6.76063891239782
      vertex 3017.67786086209 -1126.01676117267 6.73515607834886
   endloop
endfacet
facet normal -0.0020361419627809 -5.45035761239027e-005 0.999997925575482
   outer loop
      vertex 3030.15938650708 -1126.01734205091 6.76063891239782
      vertex 3022.65940217094 -1132.01699302146 6.74504466576699
      vertex 3030.15938650744 -1132.0173420637 6.76035696505395
   endloop
endfacet
facet normal -0.321478220083534 -0.94691670980699 -0.000706187105940004
   outer loop
      vertex 3004.61874246054 -1224.81138099181 0.703838985390429
      vertex 3003.86334083731 -1224.55939566289 6.70232107482887
      vertex 3003.87555768908 -1224.55906864143 0.702333521375972
   endloop
endfacet
facet normal -0.321478220083534 -0.94691670980699 -0.000706187105940004
   outer loop
      vertex 3003.86334083731 -1224.55939566289 6.70232107482887
      vertex 3004.61874246054 -1224.81138099181 0.703838985390429
      vertex 3004.60652560876 -1224.81170801327 6.70382653884332
   endloop
endfacet
facet normal -0.999997927060805 9.56831510076919e-008 -0.00203614196059015
   outer loop
      vertex 3000.15944916698 -1215.01594607162 6.69520749628066
      vertex 3000.17166601875 -1219.01561905869 0.695031977927762
      vertex 3000.15944916697 -1219.01594608014 6.69501953138066
   endloop
endfacet
facet normal -0.999997927060805 9.56831510076919e-008 -0.00203614196059015
   outer loop
      vertex 3000.17166601875 -1219.01561905869 0.695031977927762
      vertex 3000.15944916698 -1215.01594607162 6.69520749628066
      vertex 3000.17166601876 -1215.01561905016 0.695219942827767
   endloop
endfacet
facet normal -0.659324724114979 0.75185717677087 -0.00130150253286978
   outer loop
      vertex 3001.91680480714 -1127.77338698227 6.70289502969659
      vertex 3002.51909254 -1127.25560806637 0.704136508007828
      vertex 3001.92902165891 -1127.77305996081 0.702907476243697
   endloop
endfacet
facet normal -0.659324724114979 0.75185717677087 -0.00130150253286978
   outer loop
      vertex 3002.51909254 -1127.25560806637 0.704136508007828
      vertex 3001.91680480714 -1127.77338698227 6.70289502969659
      vertex 3002.50687568823 -1127.25593508783 6.70412406146072
   endloop
endfacet
facet normal 4.64275916236761e-005 0.999999997431756 5.45982224132829e-005
   outer loop
      vertex 3022.65940217611 -1219.01699320687 6.74095642923791
      vertex 3030.17160336439 -1219.01701522765 0.756281175065478
      vertex 3022.67161902789 -1219.01666618541 0.740968875785019
   endloop
endfacet
facet normal 4.64275916236761e-005 0.999999997431756 5.45982224132829e-005
   outer loop
      vertex 3030.17160336439 -1219.01701522765 0.756281175065478
      vertex 3022.65940217611 -1219.01699320687 6.74095642923791
      vertex 3030.15938651261 -1219.01734224911 6.75626872851837
   endloop
endfacet
facet normal -0.00136709834736246 -0.999999063879702 -5.72872502523883e-005
   outer loop
      vertex 3030.1716032845 -1225.0166000128 0.755508309669091
      vertex 3005.65943768111 -1224.98343032614 6.70596814349643
      vertex 3005.67165453289 -1224.98310330468 0.70598059004354
   endloop
endfacet
facet normal -0.00136709834736246 -0.999999063879702 -5.72872502523883e-005
   outer loop
      vertex 3005.65943768111 -1224.98343032614 6.70596814349643
      vertex 3030.1716032845 -1225.0166000128 0.755508309669091
      vertex 3030.15938643272 -1225.01692703425 6.75549586312198
   endloop
endfacet
facet normal -0.659364176605258 -0.751822431448839 -0.00138353894991169
   outer loop
      vertex 3002.51909254216 -1223.77584835775 0.699600903731518
      vertex 3001.91680480966 -1223.25866856209 6.69840805939857
      vertex 3001.92902166144 -1223.25834154064 0.698420505945679
   endloop
endfacet
facet normal -0.659364176605258 -0.751822431448839 -0.00138353894991169
   outer loop
      vertex 3001.91680480966 -1223.25866856209 6.69840805939857
      vertex 3002.51909254216 -1223.77584835775 0.699600903731518
      vertex 3002.50687569039 -1223.77617537921 6.69958845718441
   endloop
endfacet
facet normal -0.831475845994703 -0.555558230801741 -0.00172328634621977
   outer loop
      vertex 3000.96329506546 -1222.01598349682 6.69651972499489
      vertex 3001.41154338756 -1222.66824534333 0.697391727658426
      vertex 3001.39932653578 -1222.66857236478 6.69737928111132
   endloop
endfacet
facet normal -0.831475845994703 -0.555558230801741 -0.00172328634621977
   outer loop
      vertex 3001.41154338756 -1222.66824534333 0.697391727658426
      vertex 3000.96329506546 -1222.01598349682 6.69651972499489
      vertex 3000.97551191724 -1222.01565647536 0.696532171541994
   endloop
endfacet
facet normal -0.0654491239489163 -0.997855889876636 -0.000187650811421657
   outer loop
      vertex 3005.67165453289 -1224.98310330468 0.70598059004354
      vertex 3005.37628111845 -1224.96485804785 6.70539091066502
      vertex 3005.38849797023 -1224.96453102639 0.705403357212124
   endloop
endfacet
facet normal -0.0654491239489163 -0.997855889876636 -0.000187650811421657
   outer loop
      vertex 3005.37628111845 -1224.96485804785 6.70539091066502
      vertex 3005.67165453289 -1224.98310330468 0.70598059004354
      vertex 3005.65943768111 -1224.98343032614 6.70596814349643
   endloop
endfacet
facet normal -0.555595767456954 -0.831451717670137 -0.00117659138919997
   outer loop
      vertex 3003.17165975335 -1224.21191110955 0.700912724076337
      vertex 3002.50687569039 -1223.77617537921 6.69958845718441
      vertex 3002.51909254216 -1223.77584835775 0.699600903731518
   endloop
endfacet
facet normal -0.555595767456954 -0.831451717670137 -0.00117659138919997
   outer loop
      vertex 3002.50687569039 -1223.77617537921 6.69958845718441
      vertex 3003.17165975335 -1224.21191110955 0.700912724076337
      vertex 3003.15944290157 -1224.212238131 6.70090027752923
   endloop
endfacet
facet normal -0.896874895071866 -0.442280452964849 -0.00185027431381123
   outer loop
      vertex 3000.61617101806 -1221.31206793466 6.69584409830734
      vertex 3000.97551191724 -1222.01565647536 0.696532171541994
      vertex 3000.96329506546 -1222.01598349682 6.69651972499489
   endloop
endfacet
facet normal -0.896874895071866 -0.442280452964849 -0.00185027431381123
   outer loop
      vertex 3000.97551191724 -1222.01565647536 0.696532171541994
      vertex 3000.61617101806 -1221.31206793466 6.69584409830734
      vertex 3000.62838786984 -1221.3117409132 0.695856544854446
   endloop
endfacet
facet normal -0.980782905803795 0.195092147359 -0.00198638413178448
   outer loop
      vertex 3000.36389377946 -1130.46304113471 6.69959814441701
      vertex 3000.22299674081 -1131.23246410681 0.699261815050007
      vertex 3000.21077988904 -1131.23279112826 6.6992493685029
   endloop
endfacet
facet normal -0.980782905803795 0.195092147359 -0.00198638413178448
   outer loop
      vertex 3000.22299674081 -1131.23246410681 0.699261815050007
      vertex 3000.36389377946 -1130.46304113471 6.69959814441701
      vertex 3000.37611063124 -1130.46271411325 0.69961059096412
   endloop
endfacet
facet normal -0.997856842818077 0.0654034217315241 -0.00202821767751932
   outer loop
      vertex 3000.21077988904 -1131.23279112826 6.6992493685029
      vertex 3000.17166601673 -1132.01561887328 0.699120214467668
      vertex 3000.15944916495 -1132.01594589474 6.69910776792056
   endloop
endfacet
facet normal -0.997856842818077 0.0654034217315241 -0.00202821767751932
   outer loop
      vertex 3000.17166601673 -1132.01561887328 0.699120214467668
      vertex 3000.21077988904 -1131.23279112826 6.6992493685029
      vertex 3000.22299674081 -1131.23246410681 0.699261815050007
   endloop
endfacet
facet normal -0.999997927060805 9.4981155852966e-008 -0.00203614196062841
   outer loop
      vertex 3000.15944916662 -1134.41594589986 6.69899498898171
      vertex 3000.17166601882 -1135.01561887968 0.698979240793206
      vertex 3000.15944916704 -1135.01594590113 6.6989667942461
   endloop
endfacet
facet normal -0.999997927060805 9.4981155852966e-008 -0.00203614196062841
   outer loop
      vertex 3000.17166601882 -1135.01561887968 0.698979240793206
      vertex 3000.15944916662 -1134.41594589986 6.69899498898171
      vertex 3000.1716660184 -1134.4156188784 0.69900743552882
   endloop
endfacet
facet normal 0.999997927060805 -9.5621424191005e-008 0.0020361419605949
   outer loop
      vertex 3030.17160336403 -1213.01701521487 0.756563122418733
      vertex 3030.1593865078 -1138.01734207649 6.76007501770574
      vertex 3030.15938651225 -1213.01734223632 6.75655067587163
   endloop
endfacet
facet normal 0.999997927060805 -9.5621424191005e-008 0.0020361419605949
   outer loop
      vertex 3030.1593865078 -1138.01734207649 6.76007501770574
      vertex 3030.17160336403 -1213.01701521487 0.756563122418733
      vertex 3030.17160335957 -1138.01701505503 0.76008746425285
   endloop
endfacet
facet normal -0.831459934824378 0.555582228148853 -0.00166269269453248
   outer loop
      vertex 3001.39932653298 -1128.36343501383 6.70181079498335
      vertex 3000.97551191428 -1129.01565627561 0.700902355427936
      vertex 3000.96329506251 -1129.01598329706 6.70088990888083
   endloop
endfacet
facet normal -0.831459934824378 0.555582228148853 -0.00166269269453248
   outer loop
      vertex 3000.97551191428 -1129.01565627561 0.700902355427936
      vertex 3001.39932653298 -1128.36343501383 6.70181079498335
      vertex 3001.41154338476 -1128.36310799238 0.701823241530458
   endloop
endfacet
facet normal -0.980783589434531 -0.195088492818349 -0.00200765180809588
   outer loop
      vertex 3000.21077989153 -1219.79910562402 6.69508752894423
      vertex 3000.37611063404 -1220.56854284728 0.695376407739493
      vertex 3000.36389378226 -1220.56886986874 6.69536396119239
   endloop
endfacet
facet normal -0.980783589434531 -0.195088492818349 -0.00200765180809588
   outer loop
      vertex 3000.37611063404 -1220.56854284728 0.695376407739493
      vertex 3000.21077989153 -1219.79910562402 6.69508752894423
      vertex 3000.2229967433 -1219.79877860256 0.695099975491333
   endloop
endfacet
facet normal -0.946929704824718 -0.32143482813033 -0.00194560669143544
   outer loop
      vertex 3000.36389378226 -1220.56886986874 6.69536396119239
      vertex 3000.62838786984 -1221.3117409132 0.695856544854446
      vertex 3000.61617101806 -1221.31206793466 6.69584409830734
   endloop
endfacet
facet normal -0.946929704824718 -0.32143482813033 -0.00194560669143544
   outer loop
      vertex 3000.62838786984 -1221.3117409132 0.695856544854446
      vertex 3000.36389378226 -1220.56886986874 6.69536396119239
      vertex 3000.37611063404 -1220.56854284728 0.695376407739493
   endloop
endfacet
facet normal -0.999997927060805 9.56815619239184e-008 -0.00203614196059023
   outer loop
      vertex 3000.15944916704 -1135.01594590113 6.6989667942461
      vertex 3000.17166601876 -1215.01561905016 0.695219942827767
      vertex 3000.15944916698 -1215.01594607162 6.69520749628066
   endloop
endfacet
facet normal -0.999997927060805 9.56815619239184e-008 -0.00203614196059023
   outer loop
      vertex 3000.17166601876 -1215.01561905016 0.695219942827767
      vertex 3000.15944916704 -1135.01594590113 6.6989667942461
      vertex 3000.17166601882 -1135.01561887968 0.698979240793206
   endloop
endfacet
facet normal -0.442321266619482 -0.896856173263981 -0.000949512730398498
   outer loop
      vertex 3003.87555768908 -1224.55906864143 0.702333521375972
      vertex 3003.15944290157 -1224.212238131 6.70090027752923
      vertex 3003.17165975335 -1224.21191110955 0.700912724076337
   endloop
endfacet
facet normal -0.442321266619482 -0.896856173263981 -0.000949512730398498
   outer loop
      vertex 3003.15944290157 -1224.212238131 6.70090027752923
      vertex 3003.87555768908 -1224.55906864143 0.702333521375972
      vertex 3003.86334083731 -1224.55939566289 6.70232107482887
   endloop
endfacet
facet normal -0.999997927060805 9.49835591561438e-008 -0.00203614196062828
   outer loop
      vertex 3000.15944916495 -1132.01594589474 6.69910776792056
      vertex 3000.1716660184 -1134.4156188784 0.69900743552882
      vertex 3000.15944916662 -1134.41594589986 6.69899498898171
   endloop
endfacet
facet normal -0.999997927060805 9.49835591561438e-008 -0.00203614196062828
   outer loop
      vertex 3000.1716660184 -1134.4156188784 0.69900743552882
      vertex 3000.15944916495 -1132.01594589474 6.69910776792056
      vertex 3000.17166601673 -1132.01561887328 0.699120214467668
   endloop
endfacet
facet normal -0.946926629826569 0.321444096977002 -0.00191056115717031
   outer loop
      vertex 3000.61617101511 -1129.7198665499 6.70014812799948
      vertex 3000.37611063124 -1130.46271411325 0.69961059096412
      vertex 3000.36389377946 -1130.46304113471 6.69959814441701
   endloop
endfacet
facet normal -0.946926629826569 0.321444096977002 -0.00191056115717031
   outer loop
      vertex 3000.37611063124 -1130.46271411325 0.69961059096412
      vertex 3000.61617101511 -1129.7198665499 6.70014812799948
      vertex 3000.62838786688 -1129.71953952844 0.700160574546586
   endloop
endfacet
facet normal -4.64275926824458e-005 -0.999999997431756 -5.45982224154387e-005
   outer loop
      vertex 3030.17160336403 -1213.01701521487 0.756563122418733
      vertex 3022.65940217575 -1213.01699319408 6.74123837658684
      vertex 3022.67161902752 -1213.01666617262 0.741250823133943
   endloop
endfacet
facet normal -4.64275926824458e-005 -0.999999997431756 -5.45982224154387e-005
   outer loop
      vertex 3022.65940217575 -1213.01699319408 6.74123837658684
      vertex 3030.17160336403 -1213.01701521487 0.756563122418733
      vertex 3030.15938651225 -1213.01734223632 6.75655067587163
   endloop
endfacet
facet normal 0.999997927060805 -9.5620524954619e-008 0.00203614196059356
   outer loop
      vertex 3022.67161902789 -1219.01666618541 0.740968875785019
      vertex 3022.65940217575 -1213.01699319408 6.74123837658684
      vertex 3022.65940217611 -1219.01699320687 6.74095642923791
   endloop
endfacet
facet normal 0.999997927060805 -9.5620524954619e-008 0.00203614196059356
   outer loop
      vertex 3022.65940217575 -1213.01699319408 6.74123837658684
      vertex 3022.67161902789 -1219.01666618541 0.740968875785019
      vertex 3022.67161902752 -1213.01666617262 0.741250823133943
   endloop
endfacet
facet normal -0.195133720325341 -0.980776543353449 -0.000450776720401461
   outer loop
      vertex 3005.38849797023 -1224.96453102639 0.705403357212124
      vertex 3004.60652560876 -1224.81170801327 6.70382653884332
      vertex 3004.61874246054 -1224.81138099181 0.703838985390429
   endloop
endfacet
facet normal -0.195133720325341 -0.980776543353449 -0.000450776720401461
   outer loop
      vertex 3004.60652560876 -1224.81170801327 6.70382653884332
      vertex 3005.38849797023 -1224.96453102639 0.705403357212124
      vertex 3005.37628111845 -1224.96485804785 6.70539091066502
   endloop
endfacet
facet normal -0.751851553382154 -0.659330559556928 -0.00156681562120777
   outer loop
      vertex 3001.39932653578 -1222.66857236478 6.69737928111132
      vertex 3001.92902166144 -1223.25834154064 0.698420505945679
      vertex 3001.91680480966 -1223.25866856209 6.69840805939857
   endloop
endfacet
facet normal -0.751851553382154 -0.659330559556928 -0.00156681562120777
   outer loop
      vertex 3001.92902166144 -1223.25834154064 0.698420505945679
      vertex 3001.39932653578 -1222.66857236478 6.69737928111132
      vertex 3001.41154338756 -1222.66824534333 0.697391727658426
   endloop
endfacet
facet normal -0.997856866762585 -0.0654028349289005 -0.00203534714983066
   outer loop
      vertex 3000.15944916697 -1219.01594608014 6.69501953138066
      vertex 3000.2229967433 -1219.79877860256 0.695099975491333
      vertex 3000.21077989153 -1219.79910562402 6.69508752894423
   endloop
endfacet
facet normal -0.997856866762585 -0.0654028349289005 -0.00203534714983066
   outer loop
      vertex 3000.2229967433 -1219.79877860256 0.695099975491333
      vertex 3000.15944916697 -1219.01594608014 6.69501953138066
      vertex 3000.17166601875 -1219.01561905869 0.695031977927762
   endloop
endfacet
facet normal -0.896866872189879 0.442296920858905 -0.00180204524780531
   outer loop
      vertex 3000.96329506251 -1129.01598329706 6.70088990888083
      vertex 3000.62838786688 -1129.71953952844 0.700160574546586
      vertex 3000.61617101511 -1129.7198665499 6.70014812799948
   endloop
endfacet
facet normal -0.896866872189879 0.442296920858905 -0.00180204524780531
   outer loop
      vertex 3000.62838786688 -1129.71953952844 0.700160574546586
      vertex 3000.96329506251 -1129.01598329706 6.70088990888083
      vertex 3000.97551191428 -1129.01565627561 0.700902355427936
   endloop
endfacet
facet normal 0.999997927060792 -2.7561143607407e-007 0.00203614195078475
   outer loop
      vertex 3030.1716032845 -1225.0166000128 0.755508309669091
      vertex 3030.15938651261 -1219.01734224911 6.75626872851837
      vertex 3030.15938643272 -1225.01692703425 6.75549586312198
   endloop
endfacet
facet normal 0.999997927060792 -2.7561143607407e-007 0.00203614195078475
   outer loop
      vertex 3030.15938651261 -1219.01734224911 6.75626872851837
      vertex 3030.1716032845 -1225.0166000128 0.755508309669091
      vertex 3030.17160336439 -1219.01701522765 0.756281175065478
   endloop
endfacet
facet normal -0.751824948505718 0.65936106354149 -0.0014948878914303
   outer loop
      vertex 3001.91680480714 -1127.77338698227 6.70289502969659
      vertex 3001.41154338476 -1128.36310799238 0.701823241530458
      vertex 3001.39932653298 -1128.36343501383 6.70181079498335
   endloop
endfacet
facet normal -0.751824948505718 0.65936106354149 -0.0014948878914303
   outer loop
      vertex 3001.41154338476 -1128.36310799238 0.701823241530458
      vertex 3001.91680480714 -1127.77338698227 6.70289502969659
      vertex 3001.92902165891 -1127.77305996081 0.702907476243697
   endloop
endfacet
facet normal 4.6427616842234e-005 0.999999997431755 5.45982224626998e-005
   outer loop
      vertex 3017.17786190633 -1126.01673790318 6.73413525839433
      vertex 3017.69007771387 -1126.01643415122 0.735168524895967
      vertex 3017.1900787581 -1126.01641088172 0.734147704941434
   endloop
endfacet
facet normal 4.6427616842234e-005 0.999999997431755 5.45982224626998e-005
   outer loop
      vertex 3017.69007771387 -1126.01643415122 0.735168524895967
      vertex 3017.17786190633 -1126.01673790318 6.73413525839433
      vertex 3017.67786086209 -1126.01676117267 6.73515607834886
   endloop
endfacet
facet normal 4.64275918161442e-005 0.999999997431756 5.45982224136748e-005
   outer loop
      vertex 3022.65940217129 -1138.01699303425 6.74476271842023
      vertex 3030.17160335957 -1138.01701505503 0.76008746425285
      vertex 3022.67161902307 -1138.01666601279 0.744775164967338
   endloop
endfacet
facet normal 4.64275918161442e-005 0.999999997431756 5.45982224136748e-005
   outer loop
      vertex 3030.17160335957 -1138.01701505503 0.76008746425285
      vertex 3022.65940217129 -1138.01699303425 6.74476271842023
      vertex 3030.1593865078 -1138.01734207649 6.76007501770574
   endloop
endfacet
facet normal -0.0653568630082352 0.997861951507206 -7.86889697259992e-005
   outer loop
      vertex 3005.37628111814 -1126.06751949954 6.71003821769795
      vertex 3006.17165348803 -1126.01589809429 0.711652001244279
      vertex 3005.38849796992 -1126.06719247809 0.710050664245053
   endloop
endfacet
facet normal -0.0653568630082352 0.997861951507206 -7.86889697259992e-005
   outer loop
      vertex 3006.17165348803 -1126.01589809429 0.711652001244279
      vertex 3005.37628111814 -1126.06751949954 6.71003821769795
      vertex 3006.15943663625 -1126.01622511574 6.71163955469717
   endloop
endfacet
facet normal 0.999997927060805 -9.56214857863558e-008 0.0020361419605949
   outer loop
      vertex 3030.17160335921 -1132.01701504225 0.760369411601052
      vertex 3030.15938650708 -1126.01734205091 6.76063891239782
      vertex 3030.15938650744 -1132.0173420637 6.76035696505395
   endloop
endfacet
facet normal 0.999997927060805 -9.56214857863558e-008 0.0020361419605949
   outer loop
      vertex 3030.15938650708 -1126.01734205091 6.76063891239782
      vertex 3030.17160335921 -1132.01701504225 0.760369411601052
      vertex 3030.17160335886 -1126.01701502946 0.760651358944922
   endloop
endfacet
facet normal 4.64276530881445e-005 0.999999997431754 5.45982225365017e-005
   outer loop
      vertex 3007.65985155727 -1126.01665411637 6.72236978621721
      vertex 3008.1720673632 -1126.01635036443 0.72340305271524
      vertex 3007.67206840905 -1126.01632709492 0.722382232764317
   endloop
endfacet
facet normal 4.64276530881445e-005 0.999999997431754 5.45982225365017e-005
   outer loop
      vertex 3008.1720673632 -1126.01635036443 0.72340305271524
      vertex 3007.65985155727 -1126.01665411637 6.72236978621721
      vertex 3008.15985051142 -1126.01667738589 6.72339060616813
   endloop
endfacet
facet normal 4.64276168425729e-005 0.999999997431755 5.45982224627005e-005
   outer loop
      vertex 3006.15943663625 -1126.01622511574 6.71163955469717
      vertex 3006.67165244379 -1126.01592136378 0.712672821194481
      vertex 3006.17165348803 -1126.01589809429 0.711652001244279
   endloop
endfacet
facet normal 4.64276168425729e-005 0.999999997431755 5.45982224627005e-005
   outer loop
      vertex 3006.67165244379 -1126.01592136378 0.712672821194481
      vertex 3006.15943663625 -1126.01622511574 6.71163955469717
      vertex 3006.65943559202 -1126.01624838524 6.71266037464738
   endloop
endfacet
facet normal 4.64275713620282e-005 0.999999997431757 5.45982223700956e-005
   outer loop
      vertex 3017.67786086209 -1126.01676117267 6.73515607834886
      vertex 3030.17160335886 -1126.01701502946 0.760651358944922
      vertex 3017.69007771387 -1126.01643415122 0.735168524895967
   endloop
endfacet
facet normal 4.64275713620282e-005 0.999999997431757 5.45982223700956e-005
   outer loop
      vertex 3030.17160335886 -1126.01701502946 0.760651358944922
      vertex 3017.67786086209 -1126.01676117267 6.73515607834886
      vertex 3030.15938650708 -1126.01734205091 6.76063891239782
   endloop
endfacet
facet normal -0.32139937994796 0.946943543827274 -0.000602804205269597
   outer loop
      vertex 3003.86334083606 -1126.47284106178 6.70693028213333
      vertex 3004.61874245978 -1126.22027086465 0.708471902376057
      vertex 3003.87555768784 -1126.47251404032 0.706942728680436
   endloop
endfacet
facet normal -0.32139937994796 0.946943543827274 -0.000602804205269597
   outer loop
      vertex 3004.61874245978 -1126.22027086465 0.708471902376057
      vertex 3003.86334083606 -1126.47284106178 6.70693028213333
      vertex 3004.606525608 -1126.2205978861 6.70845945582895
   endloop
endfacet
facet normal 0.000405025417954775 0.999999916446587 5.53283755939723e-005
   outer loop
      vertex 3006.65943559202 -1126.01624838524 6.71266037464738
      vertex 3007.67206840905 -1126.01632709492 0.722382232764317
      vertex 3006.67165244379 -1126.01592136378 0.712672821194481
   endloop
endfacet
facet normal 0.000405025417954775 0.999999916446587 5.53283755939723e-005
   outer loop
      vertex 3007.67206840905 -1126.01632709492 0.722382232764317
      vertex 3006.65943559202 -1126.01624838524 6.71266037464738
      vertex 3007.65985155727 -1126.01665411637 6.72236978621721
   endloop
endfacet
facet normal 6.64575815310359e-006 0.999999998491853 5.45172208406129e-005
   outer loop
      vertex 3008.15985051142 -1126.01667738589 6.72339060616813
      vertex 3017.1900787581 -1126.01641088172 0.734147704941434
      vertex 3008.1720673632 -1126.01635036443 0.72340305271524
   endloop
endfacet
facet normal 6.64575815310359e-006 0.999999998491853 5.45172208406129e-005
   outer loop
      vertex 3017.1900787581 -1126.01641088172 0.734147704941434
      vertex 3008.15985051142 -1126.01667738589 6.72339060616813
      vertex 3017.17786190633 -1126.01673790318 6.73413525839433
   endloop
endfacet
facet normal -0.195046115785574 0.980794012317178 -0.000343685512865885
   outer loop
      vertex 3004.606525608 -1126.2205978861 6.70845945582895
      vertex 3005.38849796992 -1126.06719247809 0.710050664245053
      vertex 3004.61874245978 -1126.22027086465 0.708471902376057
   endloop
endfacet
facet normal -0.195046115785574 0.980794012317178 -0.000343685512865885
   outer loop
      vertex 3005.38849796992 -1126.06719247809 0.710050664245053
      vertex 3004.606525608 -1126.2205978861 6.70845945582895
      vertex 3005.37628111814 -1126.06751949954 6.71003821769795
   endloop
endfacet
facet normal -4.64275923937018e-005 -0.999999997431756 -5.45982224148508e-005
   outer loop
      vertex 3030.17160335921 -1132.01701504225 0.760369411601052
      vertex 3022.65940217094 -1132.01699302146 6.74504466576699
      vertex 3022.67161902272 -1132.01666600001 0.745057112314096
   endloop
endfacet
facet normal -4.64275923937018e-005 -0.999999997431756 -5.45982224148508e-005
   outer loop
      vertex 3022.65940217094 -1132.01699302146 6.74504466576699
      vertex 3030.17160335921 -1132.01701504225 0.760369411601052
      vertex 3030.15938650744 -1132.0173420637 6.76035696505395
   endloop
endfacet
facet normal 0.999997927060805 -9.56218477212504e-008 0.00203614196059349
   outer loop
      vertex 3022.67161902307 -1138.01666601279 0.744775164967338
      vertex 3022.65940217094 -1132.01699302146 6.74504466576699
      vertex 3022.65940217129 -1138.01699303425 6.74476271842023
   endloop
endfacet
facet normal 0.999997927060805 -9.56218477212504e-008 0.00203614196059349
   outer loop
      vertex 3022.65940217094 -1132.01699302146 6.74504466576699
      vertex 3022.67161902307 -1138.01666601279 0.744775164967338
      vertex 3022.67161902272 -1132.01666600001 0.745057112314096
   endloop
endfacet
endsolid pegasys2
