solid pegasys
facet normal 2.45457452462132e-016 -3.48385929683503e-028 -1.0
   outer loop
      vertex 4586.70147510069 2568.89142926984 0.0
      vertex 4588.3832531176 2562.21259497809 -5.81618087025504e-015
      vertex 4586.70147510069 2554.29142926984 0.0
   endloop
endfacet
facet normal 2.45457452462132e-016 -3.48385929683503e-028 -1.0
   outer loop
      vertex 4588.3832531176 2562.21259497809 -5.81618087025504e-015
      vertex 4586.70147510069 2568.89142926984 0.0
      vertex 4588.62301413161 2562.79142926985 -5.81618087025504e-015
   endloop
endfacet
facet normal 2.45457452462132e-016 -3.48385929683503e-028 -1.0
   outer loop
      vertex 4588.62301413161 2562.79142926985 -5.81618087025504e-015
      vertex 4586.70147510069 2568.89142926984 0.0
      vertex 4589.00441882584 2563.2884855447 -5.81618087025504e-015
   endloop
endfacet
facet normal 2.45457452462132e-016 -3.48385929683503e-028 -1.0
   outer loop
      vertex 4589.00441882584 2563.2884855447 -5.81618087025504e-015
      vertex 4586.70147510069 2568.89142926984 0.0
      vertex 4589.50147510069 2563.66989023893 -5.81618087025504e-015
   endloop
endfacet
facet normal 2.45457452462132e-016 -3.48385929683503e-028 -1.0
   outer loop
      vertex 4589.50147510069 2563.66989023893 -5.81618087025504e-015
      vertex 4586.70147510069 2568.89142926984 0.0
      vertex 4590.08030939245 2563.90965125294 -5.81618087025504e-015
   endloop
endfacet
facet normal 2.45457452462132e-016 -3.48385929683503e-028 -1.0
   outer loop
      vertex 4590.08030939245 2563.90965125294 -5.81618087025504e-015
      vertex 4586.70147510069 2568.89142926984 0.0
      vertex 4590.70147510069 2563.99142926985 -5.81618087025504e-015
   endloop
endfacet
facet normal 2.45457452462132e-016 -3.48385929683503e-028 -1.0
   outer loop
      vertex 4590.70147510069 2563.99142926985 -5.81618087025504e-015
      vertex 4586.70147510069 2568.89142926984 0.0
      vertex 4634.70147510069 2568.89142926984 0.0
   endloop
endfacet
facet normal 2.45457452462132e-016 -3.48385929683503e-028 -1.0
   outer loop
      vertex 4586.70147510069 2554.29142926984 0.0
      vertex 4588.3832531176 2562.21259497809 -5.81618087025504e-015
      vertex 4588.30147510069 2561.59142926985 -5.81618087025504e-015
   endloop
endfacet
facet normal 2.45457452462132e-016 -3.48385929683503e-028 -1.0
   outer loop
      vertex 4590.70147510069 2563.99142926985 -5.81618087025504e-015
      vertex 4634.70147510069 2568.89142926984 0.0
      vertex 4591.32264080894 2563.90965125294 -5.81618087025504e-015
   endloop
endfacet
facet normal 2.45457452462132e-016 -3.48385929683503e-028 -1.0
   outer loop
      vertex 4591.32264080894 2563.90965125294 -5.81618087025504e-015
      vertex 4634.70147510069 2568.89142926984 0.0
      vertex 4591.90147510069 2563.66989023893 -5.81618087025504e-015
   endloop
endfacet
facet normal 2.45457452462132e-016 -3.48385929683503e-028 -1.0
   outer loop
      vertex 4591.90147510069 2563.66989023893 -5.81618087025504e-015
      vertex 4634.70147510069 2568.89142926984 0.0
      vertex 4592.39853137554 2563.28848554469 -5.81618087025504e-015
   endloop
endfacet
facet normal 2.45457452462132e-016 -3.48385929683503e-028 -1.0
   outer loop
      vertex 4592.39853137554 2563.28848554469 -5.81618087025504e-015
      vertex 4634.70147510069 2568.89142926984 0.0
      vertex 4592.77993606978 2562.79142926985 -5.81618087025504e-015
   endloop
endfacet
facet normal 2.45457452462132e-016 -3.48385929683503e-028 -1.0
   outer loop
      vertex 4592.77993606978 2562.79142926985 -5.81618087025504e-015
      vertex 4634.70147510069 2568.89142926984 0.0
      vertex 4593.01969708379 2562.21259497809 -5.81618087025504e-015
   endloop
endfacet
facet normal 2.45457452462132e-016 -3.48385929683503e-028 -1.0
   outer loop
      vertex 4593.01969708379 2562.21259497809 -5.81618087025504e-015
      vertex 4634.70147510069 2568.89142926984 0.0
      vertex 4593.10147510069 2561.59142926985 -5.81618087025504e-015
   endloop
endfacet
facet normal 2.45457452462132e-016 -3.48385929683503e-028 -1.0
   outer loop
      vertex 4593.10147510069 2561.59142926985 -5.81618087025504e-015
      vertex 4634.70147510069 2568.89142926984 0.0
      vertex 4610.48167225111 2563.98134280538 -1.25231668703836e-030
   endloop
endfacet
facet normal 2.45457452462132e-016 -3.48385929683503e-028 -1.0
   outer loop
      vertex 4593.10147510069 2561.59142926985 -5.81618087025504e-015
      vertex 4610.48167225111 2563.98134280538 -1.25231668703836e-030
      vertex 4609.87060671245 2563.84301931277 -1.25231668703836e-030
   endloop
endfacet
facet normal 2.45457452462132e-016 -3.48385929683503e-028 -1.0
   outer loop
      vertex 4593.10147510069 2561.59142926985 -5.81618087025504e-015
      vertex 4609.87060671245 2563.84301931277 -1.25231668703836e-030
      vertex 4609.31616348137 2563.55125367967 -1.25231668703836e-030
   endloop
endfacet
facet normal 2.45457452462132e-016 -3.48385929683503e-028 -1.0
   outer loop
      vertex 4593.10147510069 2561.59142926985 -5.81618087025504e-015
      vertex 4609.31616348137 2563.55125367967 -1.25231668703836e-030
      vertex 4608.85612694781 2563.12592925181 -1.25231668703836e-030
   endloop
endfacet
facet normal 2.45457452462132e-016 -3.48385929683503e-028 -1.0
   outer loop
      vertex 4593.10147510069 2561.59142926985 -5.81618087025504e-015
      vertex 4608.85612694781 2563.12592925181 -1.25231668703836e-030
      vertex 4608.52184784128 2562.59603118605 -1.25231668703836e-030
   endloop
endfacet
facet normal 2.45457452462132e-016 -3.48385929683503e-028 -1.0
   outer loop
      vertex 4593.10147510069 2561.59142926985 -5.81618087025504e-015
      vertex 4608.52184784128 2562.59603118605 -1.25231668703836e-030
      vertex 4608.33610673048 2561.99767115989 -1.25231668703836e-030
   endloop
endfacet
facet normal 2.45457452462132e-016 -3.48385929683503e-028 -1.0
   outer loop
      vertex 4593.10147510069 2561.59142926985 -5.81618087025504e-015
      vertex 4608.33610673048 2561.99767115989 -1.25231668703836e-030
      vertex 4608.32017931552 2561.59142926984 -3.52495810318488e-016
   endloop
endfacet
facet normal 2.45457452462132e-016 -3.48385929683503e-028 -1.0
   outer loop
      vertex 4593.10147510069 2561.59142926985 -5.81618087025504e-015
      vertex 4608.32017931552 2561.59142926984 -3.52495810318488e-016
      vertex 4608.31156156516 2561.37162642026 -1.25231668703836e-030
   endloop
endfacet
facet normal 2.45457452462132e-016 -3.48385929683503e-028 -1.0
   outer loop
      vertex 4610.48167225111 2563.98134280538 -1.25231668703836e-030
      vertex 4634.70147510069 2568.89142926984 0.0
      vertex 4610.70147510069 2563.97272505501 -6.26158343519178e-031
   endloop
endfacet
facet normal 2.45457452462132e-016 -3.48385929683503e-028 -1.0
   outer loop
      vertex 4610.70147510069 2563.97272505501 -6.26158343519178e-031
      vertex 4634.70147510069 2568.89142926984 0.0
      vertex 4611.10771699073 2563.95679764005 -1.25231668703836e-030
   endloop
endfacet
facet normal 2.45457452462132e-016 -3.48385929683503e-028 -1.0
   outer loop
      vertex 4611.10771699073 2563.95679764005 -1.25231668703836e-030
      vertex 4634.70147510069 2568.89142926984 0.0
      vertex 4611.7060770169 2563.77105652925 -1.25231668703836e-030
   endloop
endfacet
facet normal 2.45457452462132e-016 -3.48385929683503e-028 -1.0
   outer loop
      vertex 4611.7060770169 2563.77105652925 -1.25231668703836e-030
      vertex 4634.70147510069 2568.89142926984 0.0
      vertex 4612.23597508265 2563.43677742273 -1.25231668703836e-030
   endloop
endfacet
facet normal 2.45457452462132e-016 -3.48385929683503e-028 -1.0
   outer loop
      vertex 4612.23597508265 2563.43677742273 -1.25231668703836e-030
      vertex 4634.70147510069 2568.89142926984 0.0
      vertex 4612.66129951052 2562.97674088917 -1.25231668703836e-030
   endloop
endfacet
facet normal 2.45457452462132e-016 -3.48385929683503e-028 -1.0
   outer loop
      vertex 4612.66129951052 2562.97674088917 -1.25231668703836e-030
      vertex 4634.70147510069 2568.89142926984 0.0
      vertex 4612.95306514362 2562.42229765809 -1.25231668703836e-030
   endloop
endfacet
facet normal 2.45457452462132e-016 -3.48385929683503e-028 -1.0
   outer loop
      vertex 4612.95306514362 2562.42229765809 -1.25231668703836e-030
      vertex 4634.70147510069 2568.89142926984 0.0
      vertex 4613.09138863622 2561.81123211942 -1.25231668703836e-030
   endloop
endfacet
facet normal 2.45457452462132e-016 -3.48385929683503e-028 -1.0
   outer loop
      vertex 4613.09138863622 2561.81123211942 -1.25231668703836e-030
      vertex 4634.70147510069 2568.89142926984 0.0
      vertex 4629.00441882584 2563.28848554469 6.34492458573277e-015
   endloop
endfacet
facet normal 2.45457452462132e-016 -3.48385929683503e-028 -1.0
   outer loop
      vertex 4613.09138863622 2561.81123211942 -1.25231668703836e-030
      vertex 4629.00441882584 2563.28848554469 6.34492458573277e-015
      vertex 4628.62301413161 2562.79142926984 6.34492458573277e-015
   endloop
endfacet
facet normal 2.45457452462132e-016 -3.48385929683503e-028 -1.0
   outer loop
      vertex 4613.09138863622 2561.81123211942 -1.25231668703836e-030
      vertex 4628.62301413161 2562.79142926984 6.34492458573277e-015
      vertex 4628.3832531176 2562.21259497809 6.34492458573277e-015
   endloop
endfacet
facet normal 2.45457452462132e-016 -3.48385929683503e-028 -1.0
   outer loop
      vertex 4613.09138863622 2561.81123211942 -1.25231668703836e-030
      vertex 4628.3832531176 2562.21259497809 6.34492458573277e-015
      vertex 4628.30147510069 2561.59142926984 6.34492458573277e-015
   endloop
endfacet
facet normal 2.45457452462132e-016 -3.48385929683503e-028 -1.0
   outer loop
      vertex 4629.00441882584 2563.28848554469 6.34492458573277e-015
      vertex 4634.70147510069 2568.89142926984 0.0
      vertex 4629.50147510069 2563.66989023893 6.34492458573277e-015
   endloop
endfacet
facet normal 2.45457452462132e-016 -3.48385929683503e-028 -1.0
   outer loop
      vertex 4629.50147510069 2563.66989023893 6.34492458573277e-015
      vertex 4634.70147510069 2568.89142926984 0.0
      vertex 4630.08030939245 2563.90965125294 6.34492458573277e-015
   endloop
endfacet
facet normal 2.45457452462132e-016 -3.48385929683503e-028 -1.0
   outer loop
      vertex 4630.08030939245 2563.90965125294 6.34492458573277e-015
      vertex 4634.70147510069 2568.89142926984 0.0
      vertex 4630.70147510069 2563.99142926984 6.34492458573277e-015
   endloop
endfacet
facet normal 2.45457452462132e-016 -3.48385929683503e-028 -1.0
   outer loop
      vertex 4630.70147510069 2563.99142926984 6.34492458573277e-015
      vertex 4634.70147510069 2568.89142926984 0.0
      vertex 4631.32264080894 2563.90965125294 6.34492458573277e-015
   endloop
endfacet
facet normal 2.45457452462132e-016 -3.48385929683503e-028 -1.0
   outer loop
      vertex 4631.32264080894 2563.90965125294 6.34492458573277e-015
      vertex 4634.70147510069 2568.89142926984 0.0
      vertex 4631.90147510069 2563.66989023892 6.34492458573277e-015
   endloop
endfacet
facet normal 2.45457452462132e-016 -3.48385929683503e-028 -1.0
   outer loop
      vertex 4631.90147510069 2563.66989023892 6.34492458573277e-015
      vertex 4634.70147510069 2568.89142926984 0.0
      vertex 4632.39853137554 2563.28848554469 6.34492458573277e-015
   endloop
endfacet
facet normal 2.45457452462132e-016 -3.48385929683503e-028 -1.0
   outer loop
      vertex 4632.39853137554 2563.28848554469 6.34492458573277e-015
      vertex 4634.70147510069 2568.89142926984 0.0
      vertex 4632.77993606977 2562.79142926984 6.34492458573277e-015
   endloop
endfacet
facet normal 2.45457452462132e-016 -3.48385929683503e-028 -1.0
   outer loop
      vertex 4632.77993606977 2562.79142926984 6.34492458573277e-015
      vertex 4634.70147510069 2568.89142926984 0.0
      vertex 4633.01969708379 2562.21259497809 6.34492458573277e-015
   endloop
endfacet
facet normal 2.45457452462132e-016 -3.48385929683503e-028 -1.0
   outer loop
      vertex 4633.01969708379 2562.21259497809 6.34492458573277e-015
      vertex 4634.70147510069 2568.89142926984 0.0
      vertex 4633.10147510069 2561.59142926984 6.34492458573277e-015
   endloop
endfacet
facet normal 2.45457452462132e-016 -3.48385929683503e-028 -1.0
   outer loop
      vertex 4586.70147510069 2554.29142926984 0.0
      vertex 4590.70147510069 2559.19142926985 -5.81618087025504e-015
      vertex 4634.70147510069 2554.29142926984 0.0
   endloop
endfacet
facet normal 2.45457452462132e-016 -3.48385929683503e-028 -1.0
   outer loop
      vertex 4590.70147510069 2559.19142926985 -5.81618087025504e-015
      vertex 4586.70147510069 2554.29142926984 0.0
      vertex 4590.08030939245 2559.27320728675 -5.81618087025504e-015
   endloop
endfacet
facet normal 2.45457452462132e-016 -3.48385929683503e-028 -1.0
   outer loop
      vertex 4590.08030939245 2559.27320728675 -5.81618087025504e-015
      vertex 4586.70147510069 2554.29142926984 0.0
      vertex 4589.50147510069 2559.51296830077 -5.81618087025504e-015
   endloop
endfacet
facet normal 2.45457452462132e-016 -3.48385929683503e-028 -1.0
   outer loop
      vertex 4589.50147510069 2559.51296830077 -5.81618087025504e-015
      vertex 4586.70147510069 2554.29142926984 0.0
      vertex 4589.00441882584 2559.894372995 -5.81618087025504e-015
   endloop
endfacet
facet normal 2.45457452462132e-016 -3.48385929683503e-028 -1.0
   outer loop
      vertex 4589.00441882584 2559.894372995 -5.81618087025504e-015
      vertex 4586.70147510069 2554.29142926984 0.0
      vertex 4588.62301413161 2560.39142926985 -5.81618087025504e-015
   endloop
endfacet
facet normal 2.45457452462132e-016 -3.48385929683503e-028 -1.0
   outer loop
      vertex 4588.62301413161 2560.39142926985 -5.81618087025504e-015
      vertex 4586.70147510069 2554.29142926984 0.0
      vertex 4588.3832531176 2560.9702635616 -5.81618087025504e-015
   endloop
endfacet
facet normal 2.45457452462132e-016 -3.48385929683503e-028 -1.0
   outer loop
      vertex 4588.3832531176 2560.9702635616 -5.81618087025504e-015
      vertex 4586.70147510069 2554.29142926984 0.0
      vertex 4588.30147510069 2561.59142926985 -5.81618087025504e-015
   endloop
endfacet
facet normal 2.45457452462132e-016 -3.48385929683503e-028 -1.0
   outer loop
      vertex 4634.70147510069 2554.29142926984 0.0
      vertex 4590.70147510069 2559.19142926985 -5.81618087025504e-015
      vertex 4591.32264080894 2559.27320728675 -5.81618087025504e-015
   endloop
endfacet
facet normal 2.45457452462132e-016 -3.48385929683503e-028 -1.0
   outer loop
      vertex 4634.70147510069 2554.29142926984 0.0
      vertex 4591.32264080894 2559.27320728675 -5.81618087025504e-015
      vertex 4591.90147510069 2559.51296830077 -5.81618087025504e-015
   endloop
endfacet
facet normal 2.45457452462132e-016 -3.48385929683503e-028 -1.0
   outer loop
      vertex 4634.70147510069 2554.29142926984 0.0
      vertex 4591.90147510069 2559.51296830077 -5.81618087025504e-015
      vertex 4592.39853137554 2559.894372995 -5.81618087025504e-015
   endloop
endfacet
facet normal 2.45457452462132e-016 -3.48385929683503e-028 -1.0
   outer loop
      vertex 4634.70147510069 2554.29142926984 0.0
      vertex 4592.39853137554 2559.894372995 -5.81618087025504e-015
      vertex 4592.77993606978 2560.39142926985 -5.81618087025504e-015
   endloop
endfacet
facet normal 2.45457452462132e-016 -3.48385929683503e-028 -1.0
   outer loop
      vertex 4634.70147510069 2554.29142926984 0.0
      vertex 4592.77993606978 2560.39142926985 -5.81618087025504e-015
      vertex 4593.01969708379 2560.9702635616 -5.81618087025504e-015
   endloop
endfacet
facet normal 2.45457452462132e-016 -3.48385929683503e-028 -1.0
   outer loop
      vertex 4634.70147510069 2554.29142926984 0.0
      vertex 4593.01969708379 2560.9702635616 -5.81618087025504e-015
      vertex 4593.10147510069 2561.59142926985 -5.81618087025504e-015
   endloop
endfacet
facet normal 2.45457452462132e-016 -3.48385929683503e-028 -1.0
   outer loop
      vertex 4634.70147510069 2554.29142926984 0.0
      vertex 4593.10147510069 2561.59142926985 -5.81618087025504e-015
      vertex 4610.29523321065 2559.22606089964 -1.25231668703836e-030
   endloop
endfacet
facet normal 2.45457452462132e-016 -3.48385929683503e-028 -1.0
   outer loop
      vertex 4610.29523321065 2559.22606089964 -1.25231668703836e-030
      vertex 4593.10147510069 2561.59142926985 -5.81618087025504e-015
      vertex 4609.69687318449 2559.41180201044 -1.25231668703836e-030
   endloop
endfacet
facet normal 2.45457452462132e-016 -3.48385929683503e-028 -1.0
   outer loop
      vertex 4609.69687318449 2559.41180201044 -1.25231668703836e-030
      vertex 4593.10147510069 2561.59142926985 -5.81618087025504e-015
      vertex 4609.16697511873 2559.74608111696 -1.25231668703836e-030
   endloop
endfacet
facet normal 2.45457452462132e-016 -3.48385929683503e-028 -1.0
   outer loop
      vertex 4609.16697511873 2559.74608111696 -1.25231668703836e-030
      vertex 4593.10147510069 2561.59142926985 -5.81618087025504e-015
      vertex 4608.74165069086 2560.20611765052 -1.25231668703836e-030
   endloop
endfacet
facet normal 2.45457452462132e-016 -3.48385929683503e-028 -1.0
   outer loop
      vertex 4608.74165069086 2560.20611765052 -1.25231668703836e-030
      vertex 4593.10147510069 2561.59142926985 -5.81618087025504e-015
      vertex 4608.44988505776 2560.7605608816 -1.25231668703836e-030
   endloop
endfacet
facet normal 2.45457452462132e-016 -3.48385929683503e-028 -1.0
   outer loop
      vertex 4608.44988505776 2560.7605608816 -1.25231668703836e-030
      vertex 4593.10147510069 2561.59142926985 -5.81618087025504e-015
      vertex 4608.31156156516 2561.37162642026 -1.25231668703836e-030
   endloop
endfacet
facet normal 2.45457452462132e-016 -3.48385929683503e-028 -1.0
   outer loop
      vertex 4634.70147510069 2554.29142926984 0.0
      vertex 4610.29523321065 2559.22606089964 -1.25231668703836e-030
      vertex 4610.70147510069 2559.21013348468 -6.26158343519178e-031
   endloop
endfacet
facet normal 2.45457452462132e-016 -3.48385929683503e-028 -1.0
   outer loop
      vertex 4634.70147510069 2554.29142926984 0.0
      vertex 4610.70147510069 2559.21013348468 -6.26158343519178e-031
      vertex 4610.92127795027 2559.20151573431 -1.25231668703836e-030
   endloop
endfacet
facet normal 2.45457452462132e-016 -3.48385929683503e-028 -1.0
   outer loop
      vertex 4634.70147510069 2554.29142926984 0.0
      vertex 4610.92127795027 2559.20151573431 -1.25231668703836e-030
      vertex 4611.53234348894 2559.33983922692 -1.25231668703836e-030
   endloop
endfacet
facet normal 2.45457452462132e-016 -3.48385929683503e-028 -1.0
   outer loop
      vertex 4634.70147510069 2554.29142926984 0.0
      vertex 4611.53234348894 2559.33983922692 -1.25231668703836e-030
      vertex 4612.08678672002 2559.63160486001 -1.25231668703836e-030
   endloop
endfacet
facet normal 2.45457452462132e-016 -3.48385929683503e-028 -1.0
   outer loop
      vertex 4634.70147510069 2554.29142926984 0.0
      vertex 4612.08678672002 2559.63160486001 -1.25231668703836e-030
      vertex 4612.54682325358 2560.05692928788 -1.25231668703836e-030
   endloop
endfacet
facet normal 2.45457452462132e-016 -3.48385929683503e-028 -1.0
   outer loop
      vertex 4634.70147510069 2554.29142926984 0.0
      vertex 4612.54682325358 2560.05692928788 -1.25231668703836e-030
      vertex 4612.8811023601 2560.58682735364 -1.25231668703836e-030
   endloop
endfacet
facet normal 2.45457452462132e-016 -3.48385929683503e-028 -1.0
   outer loop
      vertex 4634.70147510069 2554.29142926984 0.0
      vertex 4612.8811023601 2560.58682735364 -1.25231668703836e-030
      vertex 4613.0668434709 2561.1851873798 -1.25231668703836e-030
   endloop
endfacet
facet normal 2.45457452462132e-016 -3.48385929683503e-028 -1.0
   outer loop
      vertex 4634.70147510069 2554.29142926984 0.0
      vertex 4613.0668434709 2561.1851873798 -1.25231668703836e-030
      vertex 4613.08277088586 2561.59142926984 5.2874371547773e-016
   endloop
endfacet
facet normal 2.45457452462132e-016 -3.48385929683503e-028 -1.0
   outer loop
      vertex 4634.70147510069 2554.29142926984 0.0
      vertex 4613.08277088586 2561.59142926984 5.2874371547773e-016
      vertex 4613.09138863622 2561.81123211942 -1.25231668703836e-030
   endloop
endfacet
facet normal 2.45457452462132e-016 -3.48385929683503e-028 -1.0
   outer loop
      vertex 4634.70147510069 2554.29142926984 0.0
      vertex 4613.09138863622 2561.81123211942 -1.25231668703836e-030
      vertex 4629.00441882584 2559.894372995 6.34492458573277e-015
   endloop
endfacet
facet normal 2.45457452462132e-016 -3.48385929683503e-028 -1.0
   outer loop
      vertex 4629.00441882584 2559.894372995 6.34492458573277e-015
      vertex 4613.09138863622 2561.81123211942 -1.25231668703836e-030
      vertex 4628.62301413161 2560.39142926984 6.34492458573277e-015
   endloop
endfacet
facet normal 2.45457452462132e-016 -3.48385929683503e-028 -1.0
   outer loop
      vertex 4628.62301413161 2560.39142926984 6.34492458573277e-015
      vertex 4613.09138863622 2561.81123211942 -1.25231668703836e-030
      vertex 4628.3832531176 2560.9702635616 6.34492458573277e-015
   endloop
endfacet
facet normal 2.45457452462132e-016 -3.48385929683503e-028 -1.0
   outer loop
      vertex 4628.3832531176 2560.9702635616 6.34492458573277e-015
      vertex 4613.09138863622 2561.81123211942 -1.25231668703836e-030
      vertex 4628.30147510069 2561.59142926984 6.34492458573277e-015
   endloop
endfacet
facet normal 2.45457452462132e-016 -3.48385929683503e-028 -1.0
   outer loop
      vertex 4634.70147510069 2554.29142926984 0.0
      vertex 4629.00441882584 2559.894372995 6.34492458573277e-015
      vertex 4629.50147510069 2559.51296830076 6.34492458573277e-015
   endloop
endfacet
facet normal 2.45457452462132e-016 -3.48385929683503e-028 -1.0
   outer loop
      vertex 4634.70147510069 2554.29142926984 0.0
      vertex 4629.50147510069 2559.51296830076 6.34492458573277e-015
      vertex 4630.08030939245 2559.27320728675 6.34492458573277e-015
   endloop
endfacet
facet normal 2.45457452462132e-016 -3.48385929683503e-028 -1.0
   outer loop
      vertex 4634.70147510069 2554.29142926984 0.0
      vertex 4630.08030939245 2559.27320728675 6.34492458573277e-015
      vertex 4630.70147510069 2559.19142926984 6.34492458573277e-015
   endloop
endfacet
facet normal 2.45457452462132e-016 -3.48385929683503e-028 -1.0
   outer loop
      vertex 4634.70147510069 2554.29142926984 0.0
      vertex 4630.70147510069 2559.19142926984 6.34492458573277e-015
      vertex 4631.32264080894 2559.27320728675 6.34492458573277e-015
   endloop
endfacet
facet normal 2.45457452462132e-016 -3.48385929683503e-028 -1.0
   outer loop
      vertex 4634.70147510069 2554.29142926984 0.0
      vertex 4631.32264080894 2559.27320728675 6.34492458573277e-015
      vertex 4631.90147510069 2559.51296830076 6.34492458573277e-015
   endloop
endfacet
facet normal 2.45457452462132e-016 -3.48385929683503e-028 -1.0
   outer loop
      vertex 4634.70147510069 2554.29142926984 0.0
      vertex 4631.90147510069 2559.51296830076 6.34492458573277e-015
      vertex 4632.39853137554 2559.89437299499 6.34492458573277e-015
   endloop
endfacet
facet normal 2.45457452462132e-016 -3.48385929683503e-028 -1.0
   outer loop
      vertex 4634.70147510069 2554.29142926984 0.0
      vertex 4632.39853137554 2559.89437299499 6.34492458573277e-015
      vertex 4632.77993606977 2560.39142926984 6.34492458573277e-015
   endloop
endfacet
facet normal 2.45457452462132e-016 -3.48385929683503e-028 -1.0
   outer loop
      vertex 4634.70147510069 2554.29142926984 0.0
      vertex 4632.77993606977 2560.39142926984 6.34492458573277e-015
      vertex 4633.01969708378 2560.97026356159 6.34492458573277e-015
   endloop
endfacet
facet normal 2.45457452462132e-016 -3.48385929683503e-028 -1.0
   outer loop
      vertex 4634.70147510069 2554.29142926984 0.0
      vertex 4633.01969708378 2560.97026356159 6.34492458573277e-015
      vertex 4633.10147510069 2561.59142926984 6.34492458573277e-015
   endloop
endfacet
facet normal 2.45457452462132e-016 -3.48385929683503e-028 -1.0
   outer loop
      vertex 4634.70147510069 2554.29142926984 0.0
      vertex 4633.10147510069 2561.59142926984 6.34492458573277e-015
      vertex 4634.70147510069 2568.89142926984 0.0
   endloop
endfacet
facet normal -0.92387953251024 0.382683432367618 -2.26773116432003e-016
   outer loop
      vertex 4593.01969708379 2560.9702635616 5.99999999999999
      vertex 4592.77993606978 2560.39142926985 -5.81618087025504e-015
      vertex 4592.77993606978 2560.39142926985 5.99999999999999
   endloop
endfacet
facet normal -0.92387953251024 0.382683432367618 -2.26773116432003e-016
   outer loop
      vertex 4592.77993606978 2560.39142926985 -5.81618087025504e-015
      vertex 4593.01969708379 2560.9702635616 5.99999999999999
      vertex 4593.01969708379 2560.9702635616 -5.81618087025504e-015
   endloop
endfacet
facet normal -0.991444861373944 -0.130526192219039 -2.43357529929475e-016
   outer loop
      vertex 4593.01969708379 2562.21259497809 5.99999999999999
      vertex 4593.10147510069 2561.59142926985 -5.81618087025504e-015
      vertex 4593.10147510069 2561.59142926985 5.99999999999999
   endloop
endfacet
facet normal -0.991444861373944 -0.130526192219039 -2.43357529929475e-016
   outer loop
      vertex 4593.10147510069 2561.59142926985 -5.81618087025504e-015
      vertex 4593.01969708379 2562.21259497809 5.99999999999999
      vertex 4593.01969708379 2562.21259497809 -5.81618087025504e-015
   endloop
endfacet
facet normal -0.923879532511153 -0.382683432365412 -2.2677311643196e-016
   outer loop
      vertex 4592.77993606978 2562.79142926985 5.99999999999999
      vertex 4593.01969708379 2562.21259497809 -5.81618087025504e-015
      vertex 4593.01969708379 2562.21259497809 5.99999999999999
   endloop
endfacet
facet normal -0.923879532511153 -0.382683432365412 -2.2677311643196e-016
   outer loop
      vertex 4593.01969708379 2562.21259497809 -5.81618087025504e-015
      vertex 4592.77993606978 2562.79142926985 5.99999999999999
      vertex 4592.77993606978 2562.79142926985 -5.81618087025504e-015
   endloop
endfacet
facet normal -0.793353340289702 -0.608761429010719 -1.94734489809621e-016
   outer loop
      vertex 4592.39853137554 2563.28848554469 5.99999999999999
      vertex 4592.77993606978 2562.79142926985 -5.81618087025504e-015
      vertex 4592.77993606978 2562.79142926985 5.99999999999999
   endloop
endfacet
facet normal -0.793353340289702 -0.608761429010719 -1.94734489809621e-016
   outer loop
      vertex 4592.77993606978 2562.79142926985 -5.81618087025504e-015
      vertex 4592.39853137554 2563.28848554469 5.99999999999999
      vertex 4592.39853137554 2563.28848554469 -5.81618087025504e-015
   endloop
endfacet
facet normal 0.0 1.0 -3.48385929683503e-028
   outer loop
      vertex 4586.70147510069 2568.89142926984 6.0
      vertex 4634.70147510069 2568.89142926984 0.0
      vertex 4586.70147510069 2568.89142926984 0.0
   endloop
endfacet
facet normal 0.0 1.0 -3.48385929683503e-028
   outer loop
      vertex 4634.70147510069 2568.89142926984 0.0
      vertex 4586.70147510069 2568.89142926984 6.0
      vertex 4634.70147510069 2568.89142926984 6.0
   endloop
endfacet
facet normal 0.923879532510577 0.382683432366803 2.26773116431819e-016
   outer loop
      vertex 4588.3832531176 2560.9702635616 -5.81618087025504e-015
      vertex 4588.62301413161 2560.39142926985 5.99999999999999
      vertex 4588.62301413161 2560.39142926985 -5.81618087025504e-015
   endloop
endfacet
facet normal 0.923879532510577 0.382683432366803 2.26773116431819e-016
   outer loop
      vertex 4588.62301413161 2560.39142926985 5.99999999999999
      vertex 4588.3832531176 2560.9702635616 -5.81618087025504e-015
      vertex 4588.3832531176 2560.9702635616 5.99999999999999
   endloop
endfacet
facet normal -0.130526192219189 -0.991444861373924 -3.20386266213592e-017
   outer loop
      vertex 4591.32264080894 2563.90965125294 5.99999999999999
      vertex 4590.70147510069 2563.99142926985 -5.81618087025504e-015
      vertex 4591.32264080894 2563.90965125294 -5.81618087025504e-015
   endloop
endfacet
facet normal -0.130526192219189 -0.991444861373924 -3.20386266213592e-017
   outer loop
      vertex 4590.70147510069 2563.99142926985 -5.81618087025504e-015
      vertex 4591.32264080894 2563.90965125294 5.99999999999999
      vertex 4590.70147510069 2563.99142926985 5.99999999999999
   endloop
endfacet
facet normal 0.923879532510339 -0.382683432367379 2.26773116432027e-016
   outer loop
      vertex 4588.62301413161 2562.79142926985 -5.81618087025504e-015
      vertex 4588.3832531176 2562.21259497809 5.99999999999999
      vertex 4588.3832531176 2562.21259497809 -5.81618087025504e-015
   endloop
endfacet
facet normal 0.923879532510339 -0.382683432367379 2.26773116432027e-016
   outer loop
      vertex 4588.3832531176 2562.21259497809 5.99999999999999
      vertex 4588.62301413161 2562.79142926985 -5.81618087025504e-015
      vertex 4588.62301413161 2562.79142926985 5.99999999999999
   endloop
endfacet
facet normal -1.0 0.0 -2.45457452462132e-016
   outer loop
      vertex 4586.70147510069 2568.89142926984 6.0
      vertex 4586.70147510069 2554.29142926984 0.0
      vertex 4586.70147510069 2554.29142926984 6.0
   endloop
endfacet
facet normal -1.0 0.0 -2.45457452462132e-016
   outer loop
      vertex 4586.70147510069 2554.29142926984 0.0
      vertex 4586.70147510069 2568.89142926984 6.0
      vertex 4586.70147510069 2568.89142926984 0.0
   endloop
endfacet
facet normal 0.991444861374063 0.130526192218131 2.43357529929504e-016
   outer loop
      vertex 4588.30147510069 2561.59142926985 -5.81618087025504e-015
      vertex 4588.3832531176 2560.9702635616 5.99999999999999
      vertex 4588.3832531176 2560.9702635616 -5.81618087025504e-015
   endloop
endfacet
facet normal 0.991444861374063 0.130526192218131 2.43357529929504e-016
   outer loop
      vertex 4588.3832531176 2560.9702635616 5.99999999999999
      vertex 4588.30147510069 2561.59142926985 -5.81618087025504e-015
      vertex 4588.30147510069 2561.59142926985 5.99999999999999
   endloop
endfacet
facet normal -0.991444861374093 0.130526192217907 -2.43357529929602e-016
   outer loop
      vertex 4593.10147510069 2561.59142926985 5.99999999999999
      vertex 4593.01969708379 2560.9702635616 -5.81618087025504e-015
      vertex 4593.01969708379 2560.9702635616 5.99999999999999
   endloop
endfacet
facet normal -0.991444861374093 0.130526192217907 -2.43357529929602e-016
   outer loop
      vertex 4593.01969708379 2560.9702635616 -5.81618087025504e-015
      vertex 4593.10147510069 2561.59142926985 5.99999999999999
      vertex 4593.10147510069 2561.59142926985 -5.81618087025504e-015
   endloop
endfacet
facet normal -0.382683432366396 -0.923879532510746 -9.39325004077983e-017
   outer loop
      vertex 4591.90147510069 2563.66989023893 5.99999999999999
      vertex 4591.32264080894 2563.90965125294 -5.81618087025504e-015
      vertex 4591.90147510069 2563.66989023893 -5.81618087025504e-015
   endloop
endfacet
facet normal -0.382683432366396 -0.923879532510746 -9.39325004077983e-017
   outer loop
      vertex 4591.32264080894 2563.90965125294 -5.81618087025504e-015
      vertex 4591.90147510069 2563.66989023893 5.99999999999999
      vertex 4591.32264080894 2563.90965125294 5.99999999999999
   endloop
endfacet
facet normal 0.130526192219039 -0.991444861373944 3.20386266220134e-017
   outer loop
      vertex 4590.70147510069 2563.99142926985 5.99999999999999
      vertex 4590.08030939245 2563.90965125294 -5.81618087025504e-015
      vertex 4590.70147510069 2563.99142926985 -5.81618087025504e-015
   endloop
endfacet
facet normal 0.130526192219039 -0.991444861373944 3.20386266220134e-017
   outer loop
      vertex 4590.08030939245 2563.90965125294 -5.81618087025504e-015
      vertex 4590.70147510069 2563.99142926985 5.99999999999999
      vertex 4590.08030939245 2563.90965125294 5.99999999999999
   endloop
endfacet
facet normal 0.793353340292096 0.608761429007599 1.94734489810209e-016
   outer loop
      vertex 4588.62301413161 2560.39142926985 -5.81618087025504e-015
      vertex 4589.00441882584 2559.894372995 5.99999999999999
      vertex 4589.00441882584 2559.894372995 -5.81618087025504e-015
   endloop
endfacet
facet normal 0.793353340292096 0.608761429007599 1.94734489810209e-016
   outer loop
      vertex 4589.00441882584 2559.894372995 5.99999999999999
      vertex 4588.62301413161 2560.39142926985 -5.81618087025504e-015
      vertex 4588.62301413161 2560.39142926985 5.99999999999999
   endloop
endfacet
facet normal 0.608761429006874 -0.793353340292652 1.49425029521511e-016
   outer loop
      vertex 4589.50147510069 2563.66989023893 5.99999999999999
      vertex 4589.00441882584 2563.2884855447 -5.81618087025504e-015
      vertex 4589.50147510069 2563.66989023893 -5.81618087025504e-015
   endloop
endfacet
facet normal 0.608761429006874 -0.793353340292652 1.49425029521511e-016
   outer loop
      vertex 4589.00441882584 2563.2884855447 -5.81618087025504e-015
      vertex 4589.50147510069 2563.66989023893 5.99999999999999
      vertex 4589.00441882584 2563.2884855447 5.99999999999999
   endloop
endfacet
facet normal 0.38268343236721 -0.923879532510408 9.39325004086421e-017
   outer loop
      vertex 4590.08030939245 2563.90965125294 5.99999999999999
      vertex 4589.50147510069 2563.66989023893 -5.81618087025504e-015
      vertex 4590.08030939245 2563.90965125294 -5.81618087025504e-015
   endloop
endfacet
facet normal 0.38268343236721 -0.923879532510408 9.39325004086421e-017
   outer loop
      vertex 4589.50147510069 2563.66989023893 -5.81618087025504e-015
      vertex 4590.08030939245 2563.90965125294 5.99999999999999
      vertex 4589.50147510069 2563.66989023893 5.99999999999999
   endloop
endfacet
facet normal -0.999232301218868 0.0391766282475412 -2.45269015075071e-016
   outer loop
      vertex 4613.09138863622 2561.81123211942 6.0
      vertex 4613.08277088586 2561.59142926984 5.2874371547773e-016
      vertex 4613.08277088586 2561.59142926984 6.0
   endloop
endfacet
facet normal -0.999232301218868 0.0391766282475412 -2.45269015075071e-016
   outer loop
      vertex 4613.08277088586 2561.59142926984 5.2874371547773e-016
      vertex 4613.09138863622 2561.81123211942 6.0
      vertex 4613.09138863622 2561.81123211942 -1.25231668703836e-030
   endloop
endfacet
facet normal -0.975323943723257 -0.220778633024377 -2.39400530551554e-016
   outer loop
      vertex 4612.95306514362 2562.42229765809 6.0
      vertex 4613.09138863622 2561.81123211942 -1.25231668703836e-030
      vertex 4613.09138863622 2561.81123211942 6.0
   endloop
endfacet
facet normal -0.975323943723257 -0.220778633024377 -2.39400530551554e-016
   outer loop
      vertex 4613.09138863622 2561.81123211942 -1.25231668703836e-030
      vertex 4612.95306514362 2562.42229765809 6.0
      vertex 4612.95306514362 2562.42229765809 -1.25231668703836e-030
   endloop
endfacet
facet normal -0.38268343236492 0.923879532511357 -9.393250040808e-017
   outer loop
      vertex 4591.32264080894 2559.27320728675 5.99999999999999
      vertex 4591.90147510069 2559.51296830077 -5.81618087025504e-015
      vertex 4591.32264080894 2559.27320728675 -5.81618087025504e-015
   endloop
endfacet
facet normal -0.38268343236492 0.923879532511357 -9.393250040808e-017
   outer loop
      vertex 4591.90147510069 2559.51296830077 -5.81618087025504e-015
      vertex 4591.32264080894 2559.27320728675 5.99999999999999
      vertex 4591.90147510069 2559.51296830077 5.99999999999999
   endloop
endfacet
facet normal 0.608761429009243 0.793353340290834 1.4942502952154e-016
   outer loop
      vertex 4589.00441882584 2559.894372995 5.99999999999999
      vertex 4589.50147510069 2559.51296830077 -5.81618087025504e-015
      vertex 4589.00441882584 2559.894372995 -5.81618087025504e-015
   endloop
endfacet
facet normal 0.608761429009243 0.793353340290834 1.4942502952154e-016
   outer loop
      vertex 4589.50147510069 2559.51296830077 -5.81618087025504e-015
      vertex 4589.00441882584 2559.894372995 5.99999999999999
      vertex 4589.50147510069 2559.51296830077 5.99999999999999
   endloop
endfacet
facet normal -0.13052619222047 0.991444861373755 -3.20386266223647e-017
   outer loop
      vertex 4590.70147510069 2559.19142926985 5.99999999999999
      vertex 4591.32264080894 2559.27320728675 -5.81618087025504e-015
      vertex 4590.70147510069 2559.19142926985 -5.81618087025504e-015
   endloop
endfacet
facet normal -0.13052619222047 0.991444861373755 -3.20386266223647e-017
   outer loop
      vertex 4591.32264080894 2559.27320728675 -5.81618087025504e-015
      vertex 4590.70147510069 2559.19142926985 5.99999999999999
      vertex 4591.32264080894 2559.27320728675 5.99999999999999
   endloop
endfacet
facet normal 0.793353340292782 -0.608761429006705 1.94734489810801e-016
   outer loop
      vertex 4589.00441882584 2563.2884855447 -5.81618087025504e-015
      vertex 4588.62301413161 2562.79142926985 5.99999999999999
      vertex 4588.62301413161 2562.79142926985 -5.81618087025504e-015
   endloop
endfacet
facet normal 0.793353340292782 -0.608761429006705 1.94734489810801e-016
   outer loop
      vertex 4588.62301413161 2562.79142926985 5.99999999999999
      vertex 4589.00441882584 2563.2884855447 -5.81618087025504e-015
      vertex 4589.00441882584 2563.2884855447 5.99999999999999
   endloop
endfacet
facet normal 1.0 0.0 2.45457452462132e-016
   outer loop
      vertex 4634.70147510069 2568.89142926984 0.0
      vertex 4634.70147510069 2554.29142926984 6.0
      vertex 4634.70147510069 2554.29142926984 0.0
   endloop
endfacet
facet normal 1.0 0.0 2.45457452462132e-016
   outer loop
      vertex 4634.70147510069 2554.29142926984 6.0
      vertex 4634.70147510069 2568.89142926984 0.0
      vertex 4634.70147510069 2568.89142926984 6.0
   endloop
endfacet
facet normal 0.991444861373914 -0.130526192219263 2.43357529929558e-016
   outer loop
      vertex 4588.3832531176 2562.21259497809 -5.81618087025504e-015
      vertex 4588.30147510069 2561.59142926985 5.99999999999999
      vertex 4588.30147510069 2561.59142926985 -5.81618087025504e-015
   endloop
endfacet
facet normal 0.991444861373914 -0.130526192219263 2.43357529929558e-016
   outer loop
      vertex 4588.30147510069 2561.59142926985 5.99999999999999
      vertex 4588.3832531176 2562.21259497809 -5.81618087025504e-015
      vertex 4588.3832531176 2562.21259497809 5.99999999999999
   endloop
endfacet
facet normal -0.608761429010719 -0.793353340289702 -1.49425029521902e-016
   outer loop
      vertex 4592.39853137554 2563.28848554469 5.99999999999999
      vertex 4591.90147510069 2563.66989023893 -5.81618087025504e-015
      vertex 4592.39853137554 2563.28848554469 -5.81618087025504e-015
   endloop
endfacet
facet normal -0.608761429010719 -0.793353340289702 -1.49425029521902e-016
   outer loop
      vertex 4591.90147510069 2563.66989023893 -5.81618087025504e-015
      vertex 4592.39853137554 2563.28848554469 5.99999999999999
      vertex 4591.90147510069 2563.66989023893 5.99999999999999
   endloop
endfacet
facet normal -0.999232301218761 0.0391766282502543 -2.45269015075045e-016
   outer loop
      vertex 4613.08277088586 2561.59142926984 6.0
      vertex 4613.0668434709 2561.1851873798 -1.25231668703836e-030
      vertex 4613.0668434709 2561.1851873798 6.0
   endloop
endfacet
facet normal -0.999232301218761 0.0391766282502543 -2.45269015075045e-016
   outer loop
      vertex 4613.0668434709 2561.1851873798 -1.25231668703836e-030
      vertex 4613.08277088586 2561.59142926984 6.0
      vertex 4613.08277088586 2561.59142926984 5.2874371547773e-016
   endloop
endfacet
facet normal -2.45457452462132e-016 3.48385929683503e-028 1.0
   outer loop
      vertex 4586.70147510069 2554.29142926984 6.0
      vertex 4588.3832531176 2560.9702635616 5.99999999999999
      vertex 4586.70147510069 2568.89142926984 6.0
   endloop
endfacet
facet normal -2.45457452462132e-016 3.48385929683503e-028 1.0
   outer loop
      vertex 4588.3832531176 2560.9702635616 5.99999999999999
      vertex 4586.70147510069 2554.29142926984 6.0
      vertex 4588.62301413161 2560.39142926985 5.99999999999999
   endloop
endfacet
facet normal -2.45457452462132e-016 3.48385929683503e-028 1.0
   outer loop
      vertex 4588.62301413161 2560.39142926985 5.99999999999999
      vertex 4586.70147510069 2554.29142926984 6.0
      vertex 4589.00441882584 2559.894372995 5.99999999999999
   endloop
endfacet
facet normal -2.45457452462132e-016 3.48385929683503e-028 1.0
   outer loop
      vertex 4589.00441882584 2559.894372995 5.99999999999999
      vertex 4586.70147510069 2554.29142926984 6.0
      vertex 4589.50147510069 2559.51296830077 5.99999999999999
   endloop
endfacet
facet normal -2.45457452462132e-016 3.48385929683503e-028 1.0
   outer loop
      vertex 4589.50147510069 2559.51296830077 5.99999999999999
      vertex 4586.70147510069 2554.29142926984 6.0
      vertex 4590.08030939245 2559.27320728675 5.99999999999999
   endloop
endfacet
facet normal -2.45457452462132e-016 3.48385929683503e-028 1.0
   outer loop
      vertex 4590.08030939245 2559.27320728675 5.99999999999999
      vertex 4586.70147510069 2554.29142926984 6.0
      vertex 4590.70147510069 2559.19142926985 5.99999999999999
   endloop
endfacet
facet normal -2.45457452462132e-016 3.48385929683503e-028 1.0
   outer loop
      vertex 4590.70147510069 2559.19142926985 5.99999999999999
      vertex 4586.70147510069 2554.29142926984 6.0
      vertex 4634.70147510069 2554.29142926984 6.0
   endloop
endfacet
facet normal -2.45457452462132e-016 3.48385929683503e-028 1.0
   outer loop
      vertex 4586.70147510069 2568.89142926984 6.0
      vertex 4588.3832531176 2560.9702635616 5.99999999999999
      vertex 4588.30147510069 2561.59142926985 5.99999999999999
   endloop
endfacet
facet normal -2.45457452462132e-016 3.48385929683503e-028 1.0
   outer loop
      vertex 4590.70147510069 2559.19142926985 5.99999999999999
      vertex 4634.70147510069 2554.29142926984 6.0
      vertex 4591.32264080894 2559.27320728675 5.99999999999999
   endloop
endfacet
facet normal -2.45457452462132e-016 3.48385929683503e-028 1.0
   outer loop
      vertex 4591.32264080894 2559.27320728675 5.99999999999999
      vertex 4634.70147510069 2554.29142926984 6.0
      vertex 4591.90147510069 2559.51296830077 5.99999999999999
   endloop
endfacet
facet normal -2.45457452462132e-016 3.48385929683503e-028 1.0
   outer loop
      vertex 4591.90147510069 2559.51296830077 5.99999999999999
      vertex 4634.70147510069 2554.29142926984 6.0
      vertex 4592.39853137554 2559.894372995 5.99999999999999
   endloop
endfacet
facet normal -2.45457452462132e-016 3.48385929683503e-028 1.0
   outer loop
      vertex 4592.39853137554 2559.894372995 5.99999999999999
      vertex 4634.70147510069 2554.29142926984 6.0
      vertex 4592.77993606978 2560.39142926985 5.99999999999999
   endloop
endfacet
facet normal -2.45457452462132e-016 3.48385929683503e-028 1.0
   outer loop
      vertex 4592.77993606978 2560.39142926985 5.99999999999999
      vertex 4634.70147510069 2554.29142926984 6.0
      vertex 4593.01969708379 2560.9702635616 5.99999999999999
   endloop
endfacet
facet normal -2.45457452462132e-016 3.48385929683503e-028 1.0
   outer loop
      vertex 4593.01969708379 2560.9702635616 5.99999999999999
      vertex 4634.70147510069 2554.29142926984 6.0
      vertex 4593.10147510069 2561.59142926985 5.99999999999999
   endloop
endfacet
facet normal -2.45457452462132e-016 3.48385929683503e-028 1.0
   outer loop
      vertex 4593.10147510069 2561.59142926985 5.99999999999999
      vertex 4634.70147510069 2554.29142926984 6.0
      vertex 4610.29523321065 2559.22606089964 6.0
   endloop
endfacet
facet normal -2.45457452462132e-016 3.48385929683503e-028 1.0
   outer loop
      vertex 4593.10147510069 2561.59142926985 5.99999999999999
      vertex 4610.29523321065 2559.22606089964 6.0
      vertex 4609.69687318449 2559.41180201044 6.0
   endloop
endfacet
facet normal -2.45457452462132e-016 3.48385929683503e-028 1.0
   outer loop
      vertex 4593.10147510069 2561.59142926985 5.99999999999999
      vertex 4609.69687318449 2559.41180201044 6.0
      vertex 4609.16697511873 2559.74608111696 6.0
   endloop
endfacet
facet normal -2.45457452462132e-016 3.48385929683503e-028 1.0
   outer loop
      vertex 4593.10147510069 2561.59142926985 5.99999999999999
      vertex 4609.16697511873 2559.74608111696 6.0
      vertex 4608.74165069086 2560.20611765052 6.0
   endloop
endfacet
facet normal -2.45457452462132e-016 3.48385929683503e-028 1.0
   outer loop
      vertex 4593.10147510069 2561.59142926985 5.99999999999999
      vertex 4608.74165069086 2560.20611765052 6.0
      vertex 4608.44988505776 2560.7605608816 6.0
   endloop
endfacet
facet normal -2.45457452462132e-016 3.48385929683503e-028 1.0
   outer loop
      vertex 4593.10147510069 2561.59142926985 5.99999999999999
      vertex 4608.44988505776 2560.7605608816 6.0
      vertex 4608.31156156516 2561.37162642026 6.0
   endloop
endfacet
facet normal -2.45457452462132e-016 3.48385929683503e-028 1.0
   outer loop
      vertex 4610.29523321065 2559.22606089964 6.0
      vertex 4634.70147510069 2554.29142926984 6.0
      vertex 4610.70147510069 2559.21013348468 6.0
   endloop
endfacet
facet normal -2.45457452462132e-016 3.48385929683503e-028 1.0
   outer loop
      vertex 4610.70147510069 2559.21013348468 6.0
      vertex 4634.70147510069 2554.29142926984 6.0
      vertex 4610.92127795027 2559.20151573431 6.0
   endloop
endfacet
facet normal -2.45457452462132e-016 3.48385929683503e-028 1.0
   outer loop
      vertex 4610.92127795027 2559.20151573431 6.0
      vertex 4634.70147510069 2554.29142926984 6.0
      vertex 4611.53234348894 2559.33983922692 6.0
   endloop
endfacet
facet normal -2.45457452462132e-016 3.48385929683503e-028 1.0
   outer loop
      vertex 4611.53234348894 2559.33983922692 6.0
      vertex 4634.70147510069 2554.29142926984 6.0
      vertex 4612.08678672002 2559.63160486001 6.0
   endloop
endfacet
facet normal -2.45457452462132e-016 3.48385929683503e-028 1.0
   outer loop
      vertex 4612.08678672002 2559.63160486001 6.0
      vertex 4634.70147510069 2554.29142926984 6.0
      vertex 4612.54682325358 2560.05692928788 6.0
   endloop
endfacet
facet normal -2.45457452462132e-016 3.48385929683503e-028 1.0
   outer loop
      vertex 4612.54682325358 2560.05692928788 6.0
      vertex 4634.70147510069 2554.29142926984 6.0
      vertex 4612.8811023601 2560.58682735364 6.0
   endloop
endfacet
facet normal -2.45457452462132e-016 3.48385929683503e-028 1.0
   outer loop
      vertex 4612.8811023601 2560.58682735364 6.0
      vertex 4634.70147510069 2554.29142926984 6.0
      vertex 4613.0668434709 2561.1851873798 6.0
   endloop
endfacet
facet normal -2.45457452462132e-016 3.48385929683503e-028 1.0
   outer loop
      vertex 4613.0668434709 2561.1851873798 6.0
      vertex 4634.70147510069 2554.29142926984 6.0
      vertex 4613.08277088586 2561.59142926984 6.0
   endloop
endfacet
facet normal -2.45457452462132e-016 3.48385929683503e-028 1.0
   outer loop
      vertex 4613.08277088586 2561.59142926984 6.0
      vertex 4634.70147510069 2554.29142926984 6.0
      vertex 4613.09138863622 2561.81123211942 6.0
   endloop
endfacet
facet normal -2.45457452462132e-016 3.48385929683503e-028 1.0
   outer loop
      vertex 4613.09138863622 2561.81123211942 6.0
      vertex 4634.70147510069 2554.29142926984 6.0
      vertex 4629.00441882584 2559.894372995 6.00000000000001
   endloop
endfacet
facet normal -2.45457452462132e-016 3.48385929683503e-028 1.0
   outer loop
      vertex 4613.09138863622 2561.81123211942 6.0
      vertex 4629.00441882584 2559.894372995 6.00000000000001
      vertex 4628.62301413161 2560.39142926984 6.00000000000001
   endloop
endfacet
facet normal -2.45457452462132e-016 3.48385929683503e-028 1.0
   outer loop
      vertex 4613.09138863622 2561.81123211942 6.0
      vertex 4628.62301413161 2560.39142926984 6.00000000000001
      vertex 4628.3832531176 2560.9702635616 6.00000000000001
   endloop
endfacet
facet normal -2.45457452462132e-016 3.48385929683503e-028 1.0
   outer loop
      vertex 4613.09138863622 2561.81123211942 6.0
      vertex 4628.3832531176 2560.9702635616 6.00000000000001
      vertex 4628.30147510069 2561.59142926984 6.00000000000001
   endloop
endfacet
facet normal -2.45457452462132e-016 3.48385929683503e-028 1.0
   outer loop
      vertex 4629.00441882584 2559.894372995 6.00000000000001
      vertex 4634.70147510069 2554.29142926984 6.0
      vertex 4629.50147510069 2559.51296830076 6.00000000000001
   endloop
endfacet
facet normal -2.45457452462132e-016 3.48385929683503e-028 1.0
   outer loop
      vertex 4629.50147510069 2559.51296830076 6.00000000000001
      vertex 4634.70147510069 2554.29142926984 6.0
      vertex 4630.08030939245 2559.27320728675 6.00000000000001
   endloop
endfacet
facet normal -2.45457452462132e-016 3.48385929683503e-028 1.0
   outer loop
      vertex 4630.08030939245 2559.27320728675 6.00000000000001
      vertex 4634.70147510069 2554.29142926984 6.0
      vertex 4630.70147510069 2559.19142926984 6.00000000000001
   endloop
endfacet
facet normal -2.45457452462132e-016 3.48385929683503e-028 1.0
   outer loop
      vertex 4630.70147510069 2559.19142926984 6.00000000000001
      vertex 4634.70147510069 2554.29142926984 6.0
      vertex 4631.32264080894 2559.27320728675 6.00000000000001
   endloop
endfacet
facet normal -2.45457452462132e-016 3.48385929683503e-028 1.0
   outer loop
      vertex 4631.32264080894 2559.27320728675 6.00000000000001
      vertex 4634.70147510069 2554.29142926984 6.0
      vertex 4631.90147510069 2559.51296830076 6.00000000000001
   endloop
endfacet
facet normal -2.45457452462132e-016 3.48385929683503e-028 1.0
   outer loop
      vertex 4631.90147510069 2559.51296830076 6.00000000000001
      vertex 4634.70147510069 2554.29142926984 6.0
      vertex 4632.39853137554 2559.89437299499 6.00000000000001
   endloop
endfacet
facet normal -2.45457452462132e-016 3.48385929683503e-028 1.0
   outer loop
      vertex 4632.39853137554 2559.89437299499 6.00000000000001
      vertex 4634.70147510069 2554.29142926984 6.0
      vertex 4632.77993606977 2560.39142926984 6.00000000000001
   endloop
endfacet
facet normal -2.45457452462132e-016 3.48385929683503e-028 1.0
   outer loop
      vertex 4632.77993606977 2560.39142926984 6.00000000000001
      vertex 4634.70147510069 2554.29142926984 6.0
      vertex 4633.01969708378 2560.97026356159 6.00000000000001
   endloop
endfacet
facet normal -2.45457452462132e-016 3.48385929683503e-028 1.0
   outer loop
      vertex 4633.01969708378 2560.97026356159 6.00000000000001
      vertex 4634.70147510069 2554.29142926984 6.0
      vertex 4633.10147510069 2561.59142926984 6.00000000000001
   endloop
endfacet
facet normal -2.45457452462132e-016 3.48385929683503e-028 1.0
   outer loop
      vertex 4586.70147510069 2568.89142926984 6.0
      vertex 4590.70147510069 2563.99142926985 5.99999999999999
      vertex 4634.70147510069 2568.89142926984 6.0
   endloop
endfacet
facet normal -2.45457452462132e-016 3.48385929683503e-028 1.0
   outer loop
      vertex 4590.70147510069 2563.99142926985 5.99999999999999
      vertex 4586.70147510069 2568.89142926984 6.0
      vertex 4590.08030939245 2563.90965125294 5.99999999999999
   endloop
endfacet
facet normal -2.45457452462132e-016 3.48385929683503e-028 1.0
   outer loop
      vertex 4590.08030939245 2563.90965125294 5.99999999999999
      vertex 4586.70147510069 2568.89142926984 6.0
      vertex 4589.50147510069 2563.66989023893 5.99999999999999
   endloop
endfacet
facet normal -2.45457452462132e-016 3.48385929683503e-028 1.0
   outer loop
      vertex 4589.50147510069 2563.66989023893 5.99999999999999
      vertex 4586.70147510069 2568.89142926984 6.0
      vertex 4589.00441882584 2563.2884855447 5.99999999999999
   endloop
endfacet
facet normal -2.45457452462132e-016 3.48385929683503e-028 1.0
   outer loop
      vertex 4589.00441882584 2563.2884855447 5.99999999999999
      vertex 4586.70147510069 2568.89142926984 6.0
      vertex 4588.62301413161 2562.79142926985 5.99999999999999
   endloop
endfacet
facet normal -2.45457452462132e-016 3.48385929683503e-028 1.0
   outer loop
      vertex 4588.62301413161 2562.79142926985 5.99999999999999
      vertex 4586.70147510069 2568.89142926984 6.0
      vertex 4588.3832531176 2562.21259497809 5.99999999999999
   endloop
endfacet
facet normal -2.45457452462132e-016 3.48385929683503e-028 1.0
   outer loop
      vertex 4588.3832531176 2562.21259497809 5.99999999999999
      vertex 4586.70147510069 2568.89142926984 6.0
      vertex 4588.30147510069 2561.59142926985 5.99999999999999
   endloop
endfacet
facet normal -2.45457452462132e-016 3.48385929683503e-028 1.0
   outer loop
      vertex 4634.70147510069 2568.89142926984 6.0
      vertex 4590.70147510069 2563.99142926985 5.99999999999999
      vertex 4591.32264080894 2563.90965125294 5.99999999999999
   endloop
endfacet
facet normal -2.45457452462132e-016 3.48385929683503e-028 1.0
   outer loop
      vertex 4634.70147510069 2568.89142926984 6.0
      vertex 4591.32264080894 2563.90965125294 5.99999999999999
      vertex 4591.90147510069 2563.66989023893 5.99999999999999
   endloop
endfacet
facet normal -2.45457452462132e-016 3.48385929683503e-028 1.0
   outer loop
      vertex 4634.70147510069 2568.89142926984 6.0
      vertex 4591.90147510069 2563.66989023893 5.99999999999999
      vertex 4592.39853137554 2563.28848554469 5.99999999999999
   endloop
endfacet
facet normal -2.45457452462132e-016 3.48385929683503e-028 1.0
   outer loop
      vertex 4634.70147510069 2568.89142926984 6.0
      vertex 4592.39853137554 2563.28848554469 5.99999999999999
      vertex 4592.77993606978 2562.79142926985 5.99999999999999
   endloop
endfacet
facet normal -2.45457452462132e-016 3.48385929683503e-028 1.0
   outer loop
      vertex 4634.70147510069 2568.89142926984 6.0
      vertex 4592.77993606978 2562.79142926985 5.99999999999999
      vertex 4593.01969708379 2562.21259497809 5.99999999999999
   endloop
endfacet
facet normal -2.45457452462132e-016 3.48385929683503e-028 1.0
   outer loop
      vertex 4634.70147510069 2568.89142926984 6.0
      vertex 4593.01969708379 2562.21259497809 5.99999999999999
      vertex 4593.10147510069 2561.59142926985 5.99999999999999
   endloop
endfacet
facet normal -2.45457452462132e-016 3.48385929683503e-028 1.0
   outer loop
      vertex 4634.70147510069 2568.89142926984 6.0
      vertex 4593.10147510069 2561.59142926985 5.99999999999999
      vertex 4610.48167225111 2563.98134280538 6.0
   endloop
endfacet
facet normal -2.45457452462132e-016 3.48385929683503e-028 1.0
   outer loop
      vertex 4610.48167225111 2563.98134280538 6.0
      vertex 4593.10147510069 2561.59142926985 5.99999999999999
      vertex 4609.87060671245 2563.84301931277 6.0
   endloop
endfacet
facet normal -2.45457452462132e-016 3.48385929683503e-028 1.0
   outer loop
      vertex 4609.87060671245 2563.84301931277 6.0
      vertex 4593.10147510069 2561.59142926985 5.99999999999999
      vertex 4609.31616348137 2563.55125367967 6.0
   endloop
endfacet
facet normal -2.45457452462132e-016 3.48385929683503e-028 1.0
   outer loop
      vertex 4609.31616348137 2563.55125367967 6.0
      vertex 4593.10147510069 2561.59142926985 5.99999999999999
      vertex 4608.85612694781 2563.12592925181 6.0
   endloop
endfacet
facet normal -2.45457452462132e-016 3.48385929683503e-028 1.0
   outer loop
      vertex 4608.85612694781 2563.12592925181 6.0
      vertex 4593.10147510069 2561.59142926985 5.99999999999999
      vertex 4608.52184784128 2562.59603118605 6.0
   endloop
endfacet
facet normal -2.45457452462132e-016 3.48385929683503e-028 1.0
   outer loop
      vertex 4608.52184784128 2562.59603118605 6.0
      vertex 4593.10147510069 2561.59142926985 5.99999999999999
      vertex 4608.33610673048 2561.99767115989 6.0
   endloop
endfacet
facet normal -2.45457452462132e-016 3.48385929683503e-028 1.0
   outer loop
      vertex 4608.33610673048 2561.99767115989 6.0
      vertex 4593.10147510069 2561.59142926985 5.99999999999999
      vertex 4608.32017931552 2561.59142926984 6.0
   endloop
endfacet
facet normal -2.45457452462132e-016 3.48385929683503e-028 1.0
   outer loop
      vertex 4608.32017931552 2561.59142926984 6.0
      vertex 4593.10147510069 2561.59142926985 5.99999999999999
      vertex 4608.31156156516 2561.37162642026 6.0
   endloop
endfacet
facet normal -2.45457452462132e-016 3.48385929683503e-028 1.0
   outer loop
      vertex 4634.70147510069 2568.89142926984 6.0
      vertex 4610.48167225111 2563.98134280538 6.0
      vertex 4610.70147510069 2563.97272505501 6.0
   endloop
endfacet
facet normal -2.45457452462132e-016 3.48385929683503e-028 1.0
   outer loop
      vertex 4634.70147510069 2568.89142926984 6.0
      vertex 4610.70147510069 2563.97272505501 6.0
      vertex 4611.10771699073 2563.95679764005 6.0
   endloop
endfacet
facet normal -2.45457452462132e-016 3.48385929683503e-028 1.0
   outer loop
      vertex 4634.70147510069 2568.89142926984 6.0
      vertex 4611.10771699073 2563.95679764005 6.0
      vertex 4611.7060770169 2563.77105652925 6.0
   endloop
endfacet
facet normal -2.45457452462132e-016 3.48385929683503e-028 1.0
   outer loop
      vertex 4634.70147510069 2568.89142926984 6.0
      vertex 4611.7060770169 2563.77105652925 6.0
      vertex 4612.23597508265 2563.43677742273 6.0
   endloop
endfacet
facet normal -2.45457452462132e-016 3.48385929683503e-028 1.0
   outer loop
      vertex 4634.70147510069 2568.89142926984 6.0
      vertex 4612.23597508265 2563.43677742273 6.0
      vertex 4612.66129951052 2562.97674088917 6.0
   endloop
endfacet
facet normal -2.45457452462132e-016 3.48385929683503e-028 1.0
   outer loop
      vertex 4634.70147510069 2568.89142926984 6.0
      vertex 4612.66129951052 2562.97674088917 6.0
      vertex 4612.95306514362 2562.42229765809 6.0
   endloop
endfacet
facet normal -2.45457452462132e-016 3.48385929683503e-028 1.0
   outer loop
      vertex 4634.70147510069 2568.89142926984 6.0
      vertex 4612.95306514362 2562.42229765809 6.0
      vertex 4613.09138863622 2561.81123211942 6.0
   endloop
endfacet
facet normal -2.45457452462132e-016 3.48385929683503e-028 1.0
   outer loop
      vertex 4634.70147510069 2568.89142926984 6.0
      vertex 4613.09138863622 2561.81123211942 6.0
      vertex 4629.00441882584 2563.28848554469 6.00000000000001
   endloop
endfacet
facet normal -2.45457452462132e-016 3.48385929683503e-028 1.0
   outer loop
      vertex 4629.00441882584 2563.28848554469 6.00000000000001
      vertex 4613.09138863622 2561.81123211942 6.0
      vertex 4628.62301413161 2562.79142926984 6.00000000000001
   endloop
endfacet
facet normal -2.45457452462132e-016 3.48385929683503e-028 1.0
   outer loop
      vertex 4628.62301413161 2562.79142926984 6.00000000000001
      vertex 4613.09138863622 2561.81123211942 6.0
      vertex 4628.3832531176 2562.21259497809 6.00000000000001
   endloop
endfacet
facet normal -2.45457452462132e-016 3.48385929683503e-028 1.0
   outer loop
      vertex 4628.3832531176 2562.21259497809 6.00000000000001
      vertex 4613.09138863622 2561.81123211942 6.0
      vertex 4628.30147510069 2561.59142926984 6.00000000000001
   endloop
endfacet
facet normal -2.45457452462132e-016 3.48385929683503e-028 1.0
   outer loop
      vertex 4634.70147510069 2568.89142926984 6.0
      vertex 4629.00441882584 2563.28848554469 6.00000000000001
      vertex 4629.50147510069 2563.66989023893 6.00000000000001
   endloop
endfacet
facet normal -2.45457452462132e-016 3.48385929683503e-028 1.0
   outer loop
      vertex 4634.70147510069 2568.89142926984 6.0
      vertex 4629.50147510069 2563.66989023893 6.00000000000001
      vertex 4630.08030939245 2563.90965125294 6.00000000000001
   endloop
endfacet
facet normal -2.45457452462132e-016 3.48385929683503e-028 1.0
   outer loop
      vertex 4634.70147510069 2568.89142926984 6.0
      vertex 4630.08030939245 2563.90965125294 6.00000000000001
      vertex 4630.70147510069 2563.99142926984 6.00000000000001
   endloop
endfacet
facet normal -2.45457452462132e-016 3.48385929683503e-028 1.0
   outer loop
      vertex 4634.70147510069 2568.89142926984 6.0
      vertex 4630.70147510069 2563.99142926984 6.00000000000001
      vertex 4631.32264080894 2563.90965125294 6.00000000000001
   endloop
endfacet
facet normal -2.45457452462132e-016 3.48385929683503e-028 1.0
   outer loop
      vertex 4634.70147510069 2568.89142926984 6.0
      vertex 4631.32264080894 2563.90965125294 6.00000000000001
      vertex 4631.90147510069 2563.66989023892 6.00000000000001
   endloop
endfacet
facet normal -2.45457452462132e-016 3.48385929683503e-028 1.0
   outer loop
      vertex 4634.70147510069 2568.89142926984 6.0
      vertex 4631.90147510069 2563.66989023892 6.00000000000001
      vertex 4632.39853137554 2563.28848554469 6.00000000000001
   endloop
endfacet
facet normal -2.45457452462132e-016 3.48385929683503e-028 1.0
   outer loop
      vertex 4634.70147510069 2568.89142926984 6.0
      vertex 4632.39853137554 2563.28848554469 6.00000000000001
      vertex 4632.77993606977 2562.79142926984 6.00000000000001
   endloop
endfacet
facet normal -2.45457452462132e-016 3.48385929683503e-028 1.0
   outer loop
      vertex 4634.70147510069 2568.89142926984 6.0
      vertex 4632.77993606977 2562.79142926984 6.00000000000001
      vertex 4633.01969708379 2562.21259497809 6.00000000000001
   endloop
endfacet
facet normal -2.45457452462132e-016 3.48385929683503e-028 1.0
   outer loop
      vertex 4634.70147510069 2568.89142926984 6.0
      vertex 4633.01969708379 2562.21259497809 6.00000000000001
      vertex 4633.10147510069 2561.59142926984 6.00000000000001
   endloop
endfacet
facet normal -2.45457452462132e-016 3.48385929683503e-028 1.0
   outer loop
      vertex 4634.70147510069 2568.89142926984 6.0
      vertex 4633.10147510069 2561.59142926984 6.00000000000001
      vertex 4634.70147510069 2554.29142926984 6.0
   endloop
endfacet
facet normal 0.0 -1.0 3.48385929683503e-028
   outer loop
      vertex 4634.70147510069 2554.29142926984 6.0
      vertex 4586.70147510069 2554.29142926984 0.0
      vertex 4634.70147510069 2554.29142926984 0.0
   endloop
endfacet
facet normal 0.0 -1.0 3.48385929683503e-028
   outer loop
      vertex 4586.70147510069 2554.29142926984 0.0
      vertex 4634.70147510069 2554.29142926984 6.0
      vertex 4586.70147510069 2554.29142926984 6.0
   endloop
endfacet
facet normal 0.382683432365328 0.923879532511188 9.39325004075362e-017
   outer loop
      vertex 4589.50147510069 2559.51296830077 5.99999999999999
      vertex 4590.08030939245 2559.27320728675 -5.81618087025504e-015
      vertex 4589.50147510069 2559.51296830077 -5.81618087025504e-015
   endloop
endfacet
facet normal 0.382683432365328 0.923879532511188 9.39325004075362e-017
   outer loop
      vertex 4590.08030939245 2559.27320728675 -5.81618087025504e-015
      vertex 4589.50147510069 2559.51296830077 5.99999999999999
      vertex 4590.08030939245 2559.27320728675 5.99999999999999
   endloop
endfacet
facet normal 0.130526192220321 0.991444861373775 3.20386266216372e-017
   outer loop
      vertex 4590.08030939245 2559.27320728675 5.99999999999999
      vertex 4590.70147510069 2559.19142926985 -5.81618087025504e-015
      vertex 4590.08030939245 2559.27320728675 -5.81618087025504e-015
   endloop
endfacet
facet normal 0.130526192220321 0.991444861373775 3.20386266216372e-017
   outer loop
      vertex 4590.70147510069 2559.19142926985 -5.81618087025504e-015
      vertex 4590.08030939245 2559.27320728675 5.99999999999999
      vertex 4590.70147510069 2559.19142926985 5.99999999999999
   endloop
endfacet
facet normal -0.608761429009606 0.793353340290556 -1.49425029522182e-016
   outer loop
      vertex 4591.90147510069 2559.51296830077 5.99999999999999
      vertex 4592.39853137554 2559.894372995 -5.81618087025504e-015
      vertex 4591.90147510069 2559.51296830077 -5.81618087025504e-015
   endloop
endfacet
facet normal -0.608761429009606 0.793353340290556 -1.49425029522182e-016
   outer loop
      vertex 4592.39853137554 2559.894372995 -5.81618087025504e-015
      vertex 4591.90147510069 2559.51296830077 5.99999999999999
      vertex 4592.39853137554 2559.894372995 5.99999999999999
   endloop
endfacet
facet normal -0.793353340289915 0.608761429010441 -1.94734489810098e-016
   outer loop
      vertex 4592.77993606978 2560.39142926985 5.99999999999999
      vertex 4592.39853137554 2559.894372995 -5.81618087025504e-015
      vertex 4592.39853137554 2559.894372995 5.99999999999999
   endloop
endfacet
facet normal -0.793353340289915 0.608761429010441 -1.94734489810098e-016
   outer loop
      vertex 4592.39853137554 2559.894372995 -5.81618087025504e-015
      vertex 4592.77993606978 2560.39142926985 5.99999999999999
      vertex 4592.77993606978 2560.39142926985 -5.81618087025504e-015
   endloop
endfacet
facet normal -0.88494887126186 -0.465688195311369 -2.17217295499013e-016
   outer loop
      vertex 4612.66129951052 2562.97674088917 6.0
      vertex 4612.95306514362 2562.42229765809 -1.25231668703836e-030
      vertex 4612.95306514362 2562.42229765809 6.0
   endloop
endfacet
facet normal -0.88494887126186 -0.465688195311369 -2.17217295499013e-016
   outer loop
      vertex 4612.95306514362 2562.42229765809 -1.25231668703836e-030
      vertex 4612.66129951052 2562.97674088917 6.0
      vertex 4612.66129951052 2562.97674088917 -1.25231668703836e-030
   endloop
endfacet
facet normal -0.296462067047305 -0.955044628696502 -7.27688237287567e-017
   outer loop
      vertex 4611.7060770169 2563.77105652925 6.0
      vertex 4611.10771699073 2563.95679764005 -1.25231668703836e-030
      vertex 4611.7060770169 2563.77105652925 -1.25231668703836e-030
   endloop
endfacet
facet normal -0.296462067047305 -0.955044628696502 -7.27688237287567e-017
   outer loop
      vertex 4611.10771699073 2563.95679764005 -1.25231668703836e-030
      vertex 4611.7060770169 2563.77105652925 6.0
      vertex 4611.10771699073 2563.95679764005 6.0
   endloop
endfacet
facet normal -0.0391766282485509 -0.999232301218828 -9.6161953655972e-018
   outer loop
      vertex 4611.10771699073 2563.95679764005 6.0
      vertex 4610.70147510069 2563.97272505501 -6.26158343519178e-031
      vertex 4611.10771699073 2563.95679764005 -1.25231668703836e-030
   endloop
endfacet
facet normal -0.0391766282485509 -0.999232301218828 -9.6161953655972e-018
   outer loop
      vertex 4610.70147510069 2563.97272505501 -6.26158343519178e-031
      vertex 4611.10771699073 2563.95679764005 6.0
      vertex 4610.70147510069 2563.97272505501 6.0
   endloop
endfacet
facet normal -0.0391766282475412 -0.999232301218868 -9.61619536534935e-018
   outer loop
      vertex 4610.70147510069 2563.97272505501 -6.26158343519178e-031
      vertex 4610.48167225111 2563.98134280538 6.0
      vertex 4610.48167225111 2563.98134280538 -1.25231668703836e-030
   endloop
endfacet
facet normal -0.0391766282475412 -0.999232301218868 -9.61619536534935e-018
   outer loop
      vertex 4610.48167225111 2563.98134280538 6.0
      vertex 4610.70147510069 2563.97272505501 -6.26158343519178e-031
      vertex 4610.70147510069 2563.97272505501 6.0
   endloop
endfacet
facet normal 0.220778633025173 -0.975323943723077 5.41917608207707e-017
   outer loop
      vertex 4610.48167225111 2563.98134280538 6.0
      vertex 4609.87060671245 2563.84301931277 -1.25231668703836e-030
      vertex 4610.48167225111 2563.98134280538 -1.25231668703836e-030
   endloop
endfacet
facet normal 0.220778633025173 -0.975323943723077 5.41917608207707e-017
   outer loop
      vertex 4609.87060671245 2563.84301931277 -1.25231668703836e-030
      vertex 4610.48167225111 2563.98134280538 6.0
      vertex 4609.87060671245 2563.84301931277 6.0
   endloop
endfacet
facet normal 0.465688195310918 -0.884948871262097 1.14306638063014e-016
   outer loop
      vertex 4609.87060671245 2563.84301931277 6.0
      vertex 4609.31616348137 2563.55125367967 -1.25231668703836e-030
      vertex 4609.87060671245 2563.84301931277 -1.25231668703836e-030
   endloop
endfacet
facet normal 0.465688195310918 -0.884948871262097 1.14306638063014e-016
   outer loop
      vertex 4609.31616348137 2563.55125367967 -1.25231668703836e-030
      vertex 4609.87060671245 2563.84301931277 6.0
      vertex 4609.31616348137 2563.55125367967 6.0
   endloop
endfacet
facet normal 0.845772243012896 -0.533544105907782 2.07601100133315e-016
   outer loop
      vertex 4608.85612694781 2563.12592925181 -1.25231668703836e-030
      vertex 4608.52184784128 2562.59603118605 6.0
      vertex 4608.52184784128 2562.59603118605 -1.25231668703836e-030
   endloop
endfacet
facet normal 0.845772243012896 -0.533544105907782 2.07601100133315e-016
   outer loop
      vertex 4608.52184784128 2562.59603118605 6.0
      vertex 4608.85612694781 2563.12592925181 -1.25231668703836e-030
      vertex 4608.85612694781 2563.12592925181 6.0
   endloop
endfacet
facet normal -0.533544105909735 -0.845772243011665 -1.30962377012495e-016
   outer loop
      vertex 4612.23597508265 2563.43677742273 6.0
      vertex 4611.7060770169 2563.77105652925 -1.25231668703836e-030
      vertex 4612.23597508265 2563.43677742273 -1.25231668703836e-030
   endloop
endfacet
facet normal -0.533544105909735 -0.845772243011665 -1.30962377012495e-016
   outer loop
      vertex 4611.7060770169 2563.77105652925 -1.25231668703836e-030
      vertex 4612.23597508265 2563.43677742273 6.0
      vertex 4611.7060770169 2563.77105652925 6.0
   endloop
endfacet
facet normal -0.734265995671238 -0.67886187667369 -1.80231060726797e-016
   outer loop
      vertex 4612.23597508265 2563.43677742273 6.0
      vertex 4612.66129951052 2562.97674088917 -1.25231668703836e-030
      vertex 4612.66129951052 2562.97674088917 6.0
   endloop
endfacet
facet normal -0.734265995671238 -0.67886187667369 -1.80231060726797e-016
   outer loop
      vertex 4612.66129951052 2562.97674088917 -1.25231668703836e-030
      vertex 4612.23597508265 2563.43677742273 6.0
      vertex 4612.23597508265 2563.43677742273 -1.25231668703836e-030
   endloop
endfacet
facet normal 0.678861876674839 -0.734265995670176 1.66631706822524e-016
   outer loop
      vertex 4609.31616348137 2563.55125367967 6.0
      vertex 4608.85612694781 2563.12592925181 -1.25231668703836e-030
      vertex 4609.31616348137 2563.55125367967 -1.25231668703836e-030
   endloop
endfacet
facet normal 0.678861876674839 -0.734265995670176 1.66631706822524e-016
   outer loop
      vertex 4608.85612694781 2563.12592925181 -1.25231668703836e-030
      vertex 4609.31616348137 2563.55125367967 6.0
      vertex 4608.85612694781 2563.12592925181 6.0
   endloop
endfacet
facet normal 0.533544105907782 0.845772243012896 1.30962377012016e-016
   outer loop
      vertex 4609.16697511873 2559.74608111696 6.0
      vertex 4609.69687318449 2559.41180201044 -1.25231668703836e-030
      vertex 4609.16697511873 2559.74608111696 -1.25231668703836e-030
   endloop
endfacet
facet normal 0.533544105907782 0.845772243012896 1.30962377012016e-016
   outer loop
      vertex 4609.69687318449 2559.41180201044 -1.25231668703836e-030
      vertex 4609.16697511873 2559.74608111696 6.0
      vertex 4609.69687318449 2559.41180201044 6.0
   endloop
endfacet
facet normal 0.296462067048683 0.955044628696074 7.27688237290948e-017
   outer loop
      vertex 4609.69687318449 2559.41180201044 6.0
      vertex 4610.29523321065 2559.22606089964 -1.25231668703836e-030
      vertex 4609.69687318449 2559.41180201044 -1.25231668703836e-030
   endloop
endfacet
facet normal 0.296462067048683 0.955044628696074 7.27688237290948e-017
   outer loop
      vertex 4610.29523321065 2559.22606089964 -1.25231668703836e-030
      vertex 4609.69687318449 2559.41180201044 6.0
      vertex 4610.29523321065 2559.22606089964 6.0
   endloop
endfacet
facet normal 0.0391766282486204 0.999232301218825 9.61619536561426e-018
   outer loop
      vertex 4610.29523321065 2559.22606089964 6.0
      vertex 4610.70147510069 2559.21013348468 -6.26158343519178e-031
      vertex 4610.29523321065 2559.22606089964 -1.25231668703836e-030
   endloop
endfacet
facet normal 0.0391766282486204 0.999232301218825 9.61619536561426e-018
   outer loop
      vertex 4610.70147510069 2559.21013348468 -6.26158343519178e-031
      vertex 4610.29523321065 2559.22606089964 6.0
      vertex 4610.70147510069 2559.21013348468 6.0
   endloop
endfacet
facet normal -0.465688195309042 0.884948871263085 -1.14306638062554e-016
   outer loop
      vertex 4611.53234348894 2559.33983922692 6.0
      vertex 4612.08678672002 2559.63160486001 -1.25231668703836e-030
      vertex 4611.53234348894 2559.33983922692 -1.25231668703836e-030
   endloop
endfacet
facet normal -0.465688195309042 0.884948871263085 -1.14306638062554e-016
   outer loop
      vertex 4612.08678672002 2559.63160486001 -1.25231668703836e-030
      vertex 4611.53234348894 2559.33983922692 6.0
      vertex 4612.08678672002 2559.63160486001 6.0
   endloop
endfacet
facet normal -0.955044628696401 0.296462067047632 -2.34422821547565e-016
   outer loop
      vertex 4613.0668434709 2561.1851873798 6.0
      vertex 4612.8811023601 2560.58682735364 -1.25231668703836e-030
      vertex 4612.8811023601 2560.58682735364 6.0
   endloop
endfacet
facet normal -0.955044628696401 0.296462067047632 -2.34422821547565e-016
   outer loop
      vertex 4612.8811023601 2560.58682735364 -1.25231668703836e-030
      vertex 4613.0668434709 2561.1851873798 6.0
      vertex 4613.0668434709 2561.1851873798 -1.25231668703836e-030
   endloop
endfacet
facet normal -0.608761429009775 -0.793353340290426 -1.4942502952167e-016
   outer loop
      vertex 4632.39853137554 2563.28848554469 6.00000000000001
      vertex 4631.90147510069 2563.66989023892 6.34492458573277e-015
      vertex 4632.39853137554 2563.28848554469 6.34492458573277e-015
   endloop
endfacet
facet normal -0.608761429009775 -0.793353340290426 -1.4942502952167e-016
   outer loop
      vertex 4631.90147510069 2563.66989023892 6.34492458573277e-015
      vertex 4632.39853137554 2563.28848554469 6.00000000000001
      vertex 4631.90147510069 2563.66989023892 6.00000000000001
   endloop
endfacet
facet normal -0.130526192219904 -0.99144486137383 -3.20386266215348e-017
   outer loop
      vertex 4631.32264080894 2563.90965125294 6.00000000000001
      vertex 4630.70147510069 2563.99142926984 6.34492458573277e-015
      vertex 4631.32264080894 2563.90965125294 6.34492458573277e-015
   endloop
endfacet
facet normal -0.130526192219904 -0.99144486137383 -3.20386266215348e-017
   outer loop
      vertex 4630.70147510069 2563.99142926984 6.34492458573277e-015
      vertex 4631.32264080894 2563.90965125294 6.00000000000001
      vertex 4630.70147510069 2563.99142926984 6.00000000000001
   endloop
endfacet
facet normal 0.608761429007962 -0.793353340291817 1.49425029521778e-016
   outer loop
      vertex 4629.50147510069 2563.66989023893 6.00000000000001
      vertex 4629.00441882584 2563.28848554469 6.34492458573277e-015
      vertex 4629.50147510069 2563.66989023893 6.34492458573277e-015
   endloop
endfacet
facet normal 0.608761429007962 -0.793353340291817 1.49425029521778e-016
   outer loop
      vertex 4629.00441882584 2563.28848554469 6.34492458573277e-015
      vertex 4629.50147510069 2563.66989023893 6.00000000000001
      vertex 4629.00441882584 2563.28848554469 6.00000000000001
   endloop
endfacet
facet normal 0.793353340291585 -0.608761429008265 1.94734489810508e-016
   outer loop
      vertex 4629.00441882584 2563.28848554469 6.34492458573277e-015
      vertex 4628.62301413161 2562.79142926984 6.00000000000001
      vertex 4628.62301413161 2562.79142926984 6.34492458573277e-015
   endloop
endfacet
facet normal 0.793353340291585 -0.608761429008265 1.94734489810508e-016
   outer loop
      vertex 4628.62301413161 2562.79142926984 6.00000000000001
      vertex 4629.00441882584 2563.28848554469 6.34492458573277e-015
      vertex 4629.00441882584 2563.28848554469 6.00000000000001
   endloop
endfacet
facet normal 0.73426599567093 0.678861876674025 1.80231060726721e-016
   outer loop
      vertex 4608.74165069086 2560.20611765052 -1.25231668703836e-030
      vertex 4609.16697511873 2559.74608111696 6.0
      vertex 4609.16697511873 2559.74608111696 -1.25231668703836e-030
   endloop
endfacet
facet normal 0.73426599567093 0.678861876674025 1.80231060726721e-016
   outer loop
      vertex 4609.16697511873 2559.74608111696 6.0
      vertex 4608.74165069086 2560.20611765052 -1.25231668703836e-030
      vertex 4608.74165069086 2560.20611765052 6.0
   endloop
endfacet
facet normal -0.220778633024573 0.975323943723213 -5.41917608206235e-017
   outer loop
      vertex 4610.92127795027 2559.20151573431 6.0
      vertex 4611.53234348894 2559.33983922692 -1.25231668703836e-030
      vertex 4610.92127795027 2559.20151573431 -1.25231668703836e-030
   endloop
endfacet
facet normal -0.220778633024573 0.975323943723213 -5.41917608206235e-017
   outer loop
      vertex 4611.53234348894 2559.33983922692 -1.25231668703836e-030
      vertex 4610.92127795027 2559.20151573431 6.0
      vertex 4611.53234348894 2559.33983922692 6.0
   endloop
endfacet
facet normal -0.382683432363937 -0.923879532511764 -9.39325004071948e-017
   outer loop
      vertex 4631.90147510069 2563.66989023892 6.00000000000001
      vertex 4631.32264080894 2563.90965125294 6.34492458573277e-015
      vertex 4631.90147510069 2563.66989023892 6.34492458573277e-015
   endloop
endfacet
facet normal -0.382683432363937 -0.923879532511764 -9.39325004071948e-017
   outer loop
      vertex 4631.32264080894 2563.90965125294 6.34492458573277e-015
      vertex 4631.90147510069 2563.66989023892 6.00000000000001
      vertex 4631.32264080894 2563.90965125294 6.00000000000001
   endloop
endfacet
facet normal -0.678861876673954 0.734265995670995 -1.66631706822307e-016
   outer loop
      vertex 4612.08678672002 2559.63160486001 6.0
      vertex 4612.54682325358 2560.05692928788 -1.25231668703836e-030
      vertex 4612.08678672002 2559.63160486001 -1.25231668703836e-030
   endloop
endfacet
facet normal -0.678861876673954 0.734265995670995 -1.66631706822307e-016
   outer loop
      vertex 4612.54682325358 2560.05692928788 -1.25231668703836e-030
      vertex 4612.08678672002 2559.63160486001 6.0
      vertex 4612.54682325358 2560.05692928788 6.0
   endloop
endfacet
facet normal -0.991444861374261 -0.130526192216625 -2.43357529929553e-016
   outer loop
      vertex 4633.01969708379 2562.21259497809 6.00000000000001
      vertex 4633.10147510069 2561.59142926984 6.34492458573277e-015
      vertex 4633.10147510069 2561.59142926984 6.00000000000001
   endloop
endfacet
facet normal -0.991444861374261 -0.130526192216625 -2.43357529929553e-016
   outer loop
      vertex 4633.10147510069 2561.59142926984 6.34492458573277e-015
      vertex 4633.01969708379 2562.21259497809 6.00000000000001
      vertex 4633.01969708379 2562.21259497809 6.34492458573277e-015
   endloop
endfacet
facet normal -0.845772243012212 0.533544105908866 -2.07601100133147e-016
   outer loop
      vertex 4612.8811023601 2560.58682735364 6.0
      vertex 4612.54682325358 2560.05692928788 -1.25231668703836e-030
      vertex 4612.54682325358 2560.05692928788 6.0
   endloop
endfacet
facet normal -0.845772243012212 0.533544105908866 -2.07601100133147e-016
   outer loop
      vertex 4612.54682325358 2560.05692928788 -1.25231668703836e-030
      vertex 4612.8811023601 2560.58682735364 6.0
      vertex 4612.8811023601 2560.58682735364 -1.25231668703836e-030
   endloop
endfacet
facet normal 0.382683432364429 -0.923879532511561 9.39325004079592e-017
   outer loop
      vertex 4630.08030939245 2563.90965125294 6.00000000000001
      vertex 4629.50147510069 2563.66989023893 6.34492458573277e-015
      vertex 4630.08030939245 2563.90965125294 6.34492458573277e-015
   endloop
endfacet
facet normal 0.382683432364429 -0.923879532511561 9.39325004079592e-017
   outer loop
      vertex 4629.50147510069 2563.66989023893 6.34492458573277e-015
      vertex 4630.08030939245 2563.90965125294 6.00000000000001
      vertex 4629.50147510069 2563.66989023893 6.00000000000001
   endloop
endfacet
facet normal 0.923879532510408 -0.38268343236721 2.26773116432044e-016
   outer loop
      vertex 4628.62301413161 2562.79142926984 6.34492458573277e-015
      vertex 4628.3832531176 2562.21259497809 6.00000000000001
      vertex 4628.3832531176 2562.21259497809 6.34492458573277e-015
   endloop
endfacet
facet normal 0.923879532510408 -0.38268343236721 2.26773116432044e-016
   outer loop
      vertex 4628.3832531176 2562.21259497809 6.00000000000001
      vertex 4628.62301413161 2562.79142926984 6.34492458573277e-015
      vertex 4628.62301413161 2562.79142926984 6.00000000000001
   endloop
endfacet
facet normal 0.999232301218759 -0.0391766282503239 2.45269015075044e-016
   outer loop
      vertex 4608.33610673048 2561.99767115989 -1.25231668703836e-030
      vertex 4608.32017931552 2561.59142926984 6.0
      vertex 4608.32017931552 2561.59142926984 -3.52495810318488e-016
   endloop
endfacet
facet normal 0.999232301218759 -0.0391766282503239 2.45269015075044e-016
   outer loop
      vertex 4608.32017931552 2561.59142926984 6.0
      vertex 4608.33610673048 2561.99767115989 -1.25231668703836e-030
      vertex 4608.33610673048 2561.99767115989 6.0
   endloop
endfacet
facet normal 0.955044628694769 -0.296462067052886 2.34422821547164e-016
   outer loop
      vertex 4608.52184784128 2562.59603118605 -1.25231668703836e-030
      vertex 4608.33610673048 2561.99767115989 6.0
      vertex 4608.33610673048 2561.99767115989 -1.25231668703836e-030
   endloop
endfacet
facet normal 0.955044628694769 -0.296462067052886 2.34422821547164e-016
   outer loop
      vertex 4608.33610673048 2561.99767115989 6.0
      vertex 4608.52184784128 2562.59603118605 -1.25231668703836e-030
      vertex 4608.52184784128 2562.59603118605 6.0
   endloop
endfacet
facet normal -0.991444861373487 0.130526192222512 -2.43357529929453e-016
   outer loop
      vertex 4633.10147510069 2561.59142926984 6.00000000000001
      vertex 4633.01969708378 2560.97026356159 6.34492458573277e-015
      vertex 4633.01969708378 2560.97026356159 6.00000000000001
   endloop
endfacet
facet normal -0.991444861373487 0.130526192222512 -2.43357529929453e-016
   outer loop
      vertex 4633.01969708378 2560.97026356159 6.34492458573277e-015
      vertex 4633.10147510069 2561.59142926984 6.00000000000001
      vertex 4633.10147510069 2561.59142926984 6.34492458573277e-015
   endloop
endfacet
facet normal -0.923879532510001 -0.382683432368194 -2.26773116431677e-016
   outer loop
      vertex 4632.77993606977 2562.79142926984 6.00000000000001
      vertex 4633.01969708379 2562.21259497809 6.34492458573277e-015
      vertex 4633.01969708379 2562.21259497809 6.00000000000001
   endloop
endfacet
facet normal -0.923879532510001 -0.382683432368194 -2.26773116431677e-016
   outer loop
      vertex 4633.01969708379 2562.21259497809 6.34492458573277e-015
      vertex 4632.77993606977 2562.79142926984 6.00000000000001
      vertex 4632.77993606977 2562.79142926984 6.34492458573277e-015
   endloop
endfacet
facet normal 0.0391766282489226 0.999232301218814 9.61619536568844e-018
   outer loop
      vertex 4610.70147510069 2559.21013348468 -6.26158343519178e-031
      vertex 4610.92127795027 2559.20151573431 6.0
      vertex 4610.92127795027 2559.20151573431 -1.25231668703836e-030
   endloop
endfacet
facet normal 0.0391766282489226 0.999232301218814 9.61619536568844e-018
   outer loop
      vertex 4610.92127795027 2559.20151573431 6.0
      vertex 4610.70147510069 2559.21013348468 -6.26158343519178e-031
      vertex 4610.70147510069 2559.21013348468 6.0
   endloop
endfacet
facet normal 0.991444861373665 -0.130526192221156 2.43357529929497e-016
   outer loop
      vertex 4628.3832531176 2562.21259497809 6.34492458573277e-015
      vertex 4628.30147510069 2561.59142926984 6.00000000000001
      vertex 4628.30147510069 2561.59142926984 6.34492458573277e-015
   endloop
endfacet
facet normal 0.991444861373665 -0.130526192221156 2.43357529929497e-016
   outer loop
      vertex 4628.30147510069 2561.59142926984 6.00000000000001
      vertex 4628.3832531176 2562.21259497809 6.34492458573277e-015
      vertex 4628.3832531176 2562.21259497809 6.00000000000001
   endloop
endfacet
facet normal 0.991444861373606 0.130526192221603 2.43357529929392e-016
   outer loop
      vertex 4628.30147510069 2561.59142926984 6.34492458573277e-015
      vertex 4628.3832531176 2560.9702635616 6.00000000000001
      vertex 4628.3832531176 2560.9702635616 6.34492458573277e-015
   endloop
endfacet
facet normal 0.991444861373606 0.130526192221603 2.43357529929392e-016
   outer loop
      vertex 4628.3832531176 2560.9702635616 6.00000000000001
      vertex 4628.30147510069 2561.59142926984 6.34492458573277e-015
      vertex 4628.30147510069 2561.59142926984 6.00000000000001
   endloop
endfacet
facet normal 0.923879532510914 0.382683432365988 2.26773116431902e-016
   outer loop
      vertex 4628.3832531176 2560.9702635616 6.34492458573277e-015
      vertex 4628.62301413161 2560.39142926984 6.00000000000001
      vertex 4628.62301413161 2560.39142926984 6.34492458573277e-015
   endloop
endfacet
facet normal 0.923879532510914 0.382683432365988 2.26773116431902e-016
   outer loop
      vertex 4628.62301413161 2560.39142926984 6.00000000000001
      vertex 4628.3832531176 2560.9702635616 6.34492458573277e-015
      vertex 4628.3832531176 2560.9702635616 6.00000000000001
   endloop
endfacet
facet normal 0.130526192217907 -0.991444861374093 3.20386266217354e-017
   outer loop
      vertex 4630.70147510069 2563.99142926984 6.00000000000001
      vertex 4630.08030939245 2563.90965125294 6.34492458573277e-015
      vertex 4630.70147510069 2563.99142926984 6.34492458573277e-015
   endloop
endfacet
facet normal 0.130526192217907 -0.991444861374093 3.20386266217354e-017
   outer loop
      vertex 4630.08030939245 2563.90965125294 6.34492458573277e-015
      vertex 4630.70147510069 2563.99142926984 6.00000000000001
      vertex 4630.08030939245 2563.90965125294 6.00000000000001
   endloop
endfacet
facet normal -0.793353340292484 -0.608761429007093 -1.94734489810304e-016
   outer loop
      vertex 4632.39853137554 2563.28848554469 6.00000000000001
      vertex 4632.77993606977 2562.79142926984 6.34492458573277e-015
      vertex 4632.77993606977 2562.79142926984 6.00000000000001
   endloop
endfacet
facet normal -0.793353340292484 -0.608761429007093 -1.94734489810304e-016
   outer loop
      vertex 4632.77993606977 2562.79142926984 6.34492458573277e-015
      vertex 4632.39853137554 2563.28848554469 6.00000000000001
      vertex 4632.39853137554 2563.28848554469 6.34492458573277e-015
   endloop
endfacet
facet normal 0.999232301219001 -0.0391766282441359 2.45269015075104e-016
   outer loop
      vertex 4608.32017931552 2561.59142926984 -3.52495810318488e-016
      vertex 4608.31156156516 2561.37162642026 6.0
      vertex 4608.31156156516 2561.37162642026 -1.25231668703836e-030
   endloop
endfacet
facet normal 0.999232301219001 -0.0391766282441359 2.45269015075104e-016
   outer loop
      vertex 4608.31156156516 2561.37162642026 6.0
      vertex 4608.32017931552 2561.59142926984 -3.52495810318488e-016
      vertex 4608.32017931552 2561.59142926984 6.0
   endloop
endfacet
facet normal 0.884948871261285 0.465688195312462 2.17217295498872e-016
   outer loop
      vertex 4608.44988505776 2560.7605608816 -1.25231668703836e-030
      vertex 4608.74165069086 2560.20611765052 6.0
      vertex 4608.74165069086 2560.20611765052 -1.25231668703836e-030
   endloop
endfacet
facet normal 0.884948871261285 0.465688195312462 2.17217295498872e-016
   outer loop
      vertex 4608.74165069086 2560.20611765052 6.0
      vertex 4608.44988505776 2560.7605608816 -1.25231668703836e-030
      vertex 4608.44988505776 2560.7605608816 6.0
   endloop
endfacet
facet normal 0.975323943723337 0.220778633024025 2.39400530551574e-016
   outer loop
      vertex 4608.31156156516 2561.37162642026 -1.25231668703836e-030
      vertex 4608.44988505776 2560.7605608816 6.0
      vertex 4608.44988505776 2560.7605608816 -1.25231668703836e-030
   endloop
endfacet
facet normal 0.975323943723337 0.220778633024025 2.39400530551574e-016
   outer loop
      vertex 4608.44988505776 2560.7605608816 6.0
      vertex 4608.31156156516 2561.37162642026 -1.25231668703836e-030
      vertex 4608.31156156516 2561.37162642026 6.0
   endloop
endfacet
facet normal -0.608761429007043 0.793353340292523 -1.49425029521552e-016
   outer loop
      vertex 4631.90147510069 2559.51296830076 6.00000000000001
      vertex 4632.39853137554 2559.89437299499 6.34492458573277e-015
      vertex 4631.90147510069 2559.51296830076 6.34492458573277e-015
   endloop
endfacet
facet normal -0.608761429007043 0.793353340292523 -1.49425029521552e-016
   outer loop
      vertex 4632.39853137554 2559.89437299499 6.34492458573277e-015
      vertex 4631.90147510069 2559.51296830076 6.00000000000001
      vertex 4632.39853137554 2559.89437299499 6.00000000000001
   endloop
endfacet
facet normal -0.793353340293338 0.60876142900598 -1.94734489810938e-016
   outer loop
      vertex 4632.77993606977 2560.39142926984 6.00000000000001
      vertex 4632.39853137554 2559.89437299499 6.34492458573277e-015
      vertex 4632.39853137554 2559.89437299499 6.00000000000001
   endloop
endfacet
facet normal -0.793353340293338 0.60876142900598 -1.94734489810938e-016
   outer loop
      vertex 4632.39853137554 2559.89437299499 6.34492458573277e-015
      vertex 4632.77993606977 2560.39142926984 6.00000000000001
      vertex 4632.77993606977 2560.39142926984 6.34492458573277e-015
   endloop
endfacet
facet normal -0.923879532511715 0.382683432364056 -2.26773116432365e-016
   outer loop
      vertex 4633.01969708378 2560.97026356159 6.00000000000001
      vertex 4632.77993606977 2560.39142926984 6.34492458573277e-015
      vertex 4632.77993606977 2560.39142926984 6.00000000000001
   endloop
endfacet
facet normal -0.923879532511715 0.382683432364056 -2.26773116432365e-016
   outer loop
      vertex 4632.77993606977 2560.39142926984 6.34492458573277e-015
      vertex 4633.01969708378 2560.97026356159 6.00000000000001
      vertex 4633.01969708378 2560.97026356159 6.34492458573277e-015
   endloop
endfacet
facet normal -0.382683432365328 0.923879532511188 -9.393250040818e-017
   outer loop
      vertex 4631.32264080894 2559.27320728675 6.00000000000001
      vertex 4631.90147510069 2559.51296830076 6.34492458573277e-015
      vertex 4631.32264080894 2559.27320728675 6.34492458573277e-015
   endloop
endfacet
facet normal -0.382683432365328 0.923879532511188 -9.393250040818e-017
   outer loop
      vertex 4631.90147510069 2559.51296830076 6.34492458573277e-015
      vertex 4631.32264080894 2559.27320728675 6.00000000000001
      vertex 4631.90147510069 2559.51296830076 6.00000000000001
   endloop
endfacet
facet normal 0.608761429010163 0.793353340290129 1.49425029521765e-016
   outer loop
      vertex 4629.00441882584 2559.894372995 6.00000000000001
      vertex 4629.50147510069 2559.51296830076 6.34492458573277e-015
      vertex 4629.00441882584 2559.894372995 6.34492458573277e-015
   endloop
endfacet
facet normal 0.608761429010163 0.793353340290129 1.49425029521765e-016
   outer loop
      vertex 4629.50147510069 2559.51296830076 6.34492458573277e-015
      vertex 4629.00441882584 2559.894372995 6.00000000000001
      vertex 4629.50147510069 2559.51296830076 6.00000000000001
   endloop
endfacet
facet normal 0.793353340291112 0.608761429008881 1.94734489809967e-016
   outer loop
      vertex 4628.62301413161 2560.39142926984 6.34492458573277e-015
      vertex 4629.00441882584 2559.894372995 6.00000000000001
      vertex 4629.00441882584 2559.894372995 6.34492458573277e-015
   endloop
endfacet
facet normal 0.793353340291112 0.608761429008881 1.94734489809967e-016
   outer loop
      vertex 4629.00441882584 2559.894372995 6.00000000000001
      vertex 4628.62301413161 2560.39142926984 6.34492458573277e-015
      vertex 4628.62301413161 2560.39142926984 6.00000000000001
   endloop
endfacet
facet normal 0.382683432362869 0.923879532512207 9.39325004069327e-017
   outer loop
      vertex 4629.50147510069 2559.51296830076 6.00000000000001
      vertex 4630.08030939245 2559.27320728675 6.34492458573277e-015
      vertex 4629.50147510069 2559.51296830076 6.34492458573277e-015
   endloop
endfacet
facet normal 0.382683432362869 0.923879532512207 9.39325004069327e-017
   outer loop
      vertex 4630.08030939245 2559.27320728675 6.34492458573277e-015
      vertex 4629.50147510069 2559.51296830076 6.00000000000001
      vertex 4630.08030939245 2559.27320728675 6.00000000000001
   endloop
endfacet
facet normal -0.130526192218473 0.991444861374018 -3.20386266218744e-017
   outer loop
      vertex 4630.70147510069 2559.19142926984 6.00000000000001
      vertex 4631.32264080894 2559.27320728675 6.34492458573277e-015
      vertex 4630.70147510069 2559.19142926984 6.34492458573277e-015
   endloop
endfacet
facet normal -0.130526192218473 0.991444861374018 -3.20386266218744e-017
   outer loop
      vertex 4631.32264080894 2559.27320728675 6.34492458573277e-015
      vertex 4630.70147510069 2559.19142926984 6.00000000000001
      vertex 4631.32264080894 2559.27320728675 6.00000000000001
   endloop
endfacet
facet normal 0.130526192221603 0.991444861373606 3.20386266219519e-017
   outer loop
      vertex 4630.08030939245 2559.27320728675 6.00000000000001
      vertex 4630.70147510069 2559.19142926984 6.34492458573277e-015
      vertex 4630.08030939245 2559.27320728675 6.34492458573277e-015
   endloop
endfacet
facet normal 0.130526192221603 0.991444861373606 3.20386266219519e-017
   outer loop
      vertex 4630.70147510069 2559.19142926984 6.34492458573277e-015
      vertex 4630.08030939245 2559.27320728675 6.00000000000001
      vertex 4630.70147510069 2559.19142926984 6.00000000000001
   endloop
endfacet
endsolid pegasys
